<svg xmlns="http://www.w3.org/2000/svg" viewBox="0 0 500 500"><g id="freepik--background-simple--inject-2"><path d="M472.18,125c-9-34.57-25.69-66-51.09-85.86C388.91,14,343.89,25.39,310.08,41c-50.72,23.4-91.93,63.44-145,81.82-10.67,3.7-21.73,6.46-33,7.19-36.14,2.33-82.21,5-106.42,36.81-32.21,42.29-7,100.37,29,130.75,36.37,30.62,87.93,45.62,135,40.35,37.12-4.15,70.05-23.62,106.6-30.24S367,317.76,403,311.34c31.78-5.65,58.86-27,68.44-58.35C482.57,216.69,483.46,168.38,472.18,125Z" style="fill:#1EC28B"></path><path d="M472.18,125c-9-34.57-25.69-66-51.09-85.86C388.91,14,343.89,25.39,310.08,41c-50.72,23.4-91.93,63.44-145,81.82-10.67,3.7-21.73,6.46-33,7.19-36.14,2.33-82.21,5-106.42,36.81-32.21,42.29-7,100.37,29,130.75,36.37,30.62,87.93,45.62,135,40.35,37.12-4.15,70.05-23.62,106.6-30.24S367,317.76,403,311.34c31.78-5.65,58.86-27,68.44-58.35C482.57,216.69,483.46,168.38,472.18,125Z" style="fill:#fff;opacity:0.8"></path></g><g id="freepik--Clouds--inject-2"><path d="M298.12,463.74A104.9,104.9,0,0,0,313.07,465c15.82,0,33.82,1.64,39.82,1.64h52.88" style="fill:#fff;stroke:#263238;stroke-linecap:round;stroke-linejoin:round"></path><path d="M430.65,150a1.48,1.48,0,0,1-.58-.36,3.12,3.12,0,0,1-.59-2.1,11.6,11.6,0,0,0-7.3-10.1,18.78,18.78,0,0,0-12-.28c-4.09,1.1-8.13,3.33-10.17,7.05-1.31,2.39-2.05,5.59-4.63,6.47-1.32.45-2.8.11-4.14.48-3.15.85-4.3,5-4.47,7.86.25-4.21-4.77-4.23-7.75-3.85-4.46.58-8.72,2.3-11.54,6-1.77,2.29-3.16,5.28-5.95,6.06-3.42,1-7.2-2-10.48-.64-2.89,1.22-3.62,5.11-6.16,6.94-4,2.89-10.29-.58-14.35,2.24a1.27,1.27,0,0,0-.61.81c-.07.59.57,1,1.13,1.2,4.47,1.71,9.39,1.71,14.17,1.68l75.53-.38a5.59,5.59,0,0,1,2.57.4,9.33,9.33,0,0,1,2.26,2.26,6.67,6.67,0,0,0,11.51-3.93,11.54,11.54,0,0,0,13.74-1.72c8.73-8.83-4.78-26.88-15-19.76,2.82-2,0-6.22-2.65-6.26A9.16,9.16,0,0,1,430.65,150Z" style="fill:none;stroke:#263238;stroke-linecap:round;stroke-miterlimit:10"></path><line x1="325.91" y1="172.99" x2="375.51" y2="172.99" style="fill:none;stroke:#263238;stroke-linecap:round;stroke-miterlimit:10"></line><line x1="368.5" y1="168.68" x2="394.37" y2="168.68" style="fill:none;stroke:#263238;stroke-linecap:round;stroke-miterlimit:10"></line><line x1="426.18" y1="144.96" x2="434.8" y2="144.96" style="fill:none;stroke:#263238;stroke-linecap:round;stroke-miterlimit:10"></line><path d="M375.47,69.76a2.48,2.48,0,0,1-1-.61c-.9-.9-.92-2.32-1-3.6A19.89,19.89,0,0,0,361,48.25c-6.44-2.64-13.78-2.31-20.49-.49-7,1.9-13.93,5.71-17.42,12.08-2.25,4.1-3.51,9.58-7.94,11.08-2.26.77-4.78.2-7.09.82-5.4,1.46-7.36,8.57-7.65,13.47.43-7.21-8.17-7.25-13.27-6.59-7.65,1-14.94,3.94-19.78,10.22-3,3.92-5.41,9-10.18,10.39-5.86,1.65-12.34-3.48-17.95-1.1-5,2.09-6.2,8.74-10.56,11.88-6.87,5-17.62-1-24.57,3.84a2.15,2.15,0,0,0-1.05,1.38c-.12,1,1,1.7,1.93,2.06,7.66,2.93,16.08,2.93,24.28,2.88l129.36-.65a9.45,9.45,0,0,1,4.42.69c1.63.84,2.61,2.52,3.86,3.86a11.41,11.41,0,0,0,19.71-6.74,19.76,19.76,0,0,0,23.54-2.93c14.95-15.13-8.19-46-25.69-33.86,4.82-3.35,0-10.64-4.54-10.72C378.41,69.8,376.75,70.2,375.47,69.76Z" style="fill:none;stroke:#263238;stroke-linecap:round;stroke-miterlimit:10"></path><line x1="196.07" y1="109.12" x2="281.01" y2="109.12" style="fill:none;stroke:#263238;stroke-linecap:round;stroke-miterlimit:10"></line><line x1="269.01" y1="101.73" x2="313.33" y2="101.73" style="fill:none;stroke:#263238;stroke-linecap:round;stroke-miterlimit:10"></line><line x1="367.8" y1="61.11" x2="382.58" y2="61.11" style="fill:none;stroke:#263238;stroke-linecap:round;stroke-miterlimit:10"></line><path d="M124.22,209.9a1.12,1.12,0,0,1-.46-.29,2.4,2.4,0,0,1-.46-1.65,9.14,9.14,0,0,0-5.76-8,14.87,14.87,0,0,0-9.42-.23c-3.23.88-6.41,2.63-8,5.56-1,1.89-1.61,4.41-3.65,5.1-1,.35-2.2.09-3.26.38-2.49.67-3.39,3.94-3.52,6.19.2-3.32-3.76-3.33-6.11-3-3.52.45-6.87,1.81-9.1,4.7-1.39,1.8-2.49,4.16-4.68,4.78-2.7.76-5.67-1.6-8.26-.51-2.27,1-2.85,4-4.85,5.47-3.16,2.28-8.11-.46-11.31,1.77a1,1,0,0,0-.48.63c-.05.47.45.78.89.95,3.52,1.35,7.4,1.34,11.17,1.33l59.5-.31a4.39,4.39,0,0,1,2,.32,7.3,7.3,0,0,1,1.77,1.78,5.25,5.25,0,0,0,9.07-3.1,9.08,9.08,0,0,0,10.83-1.35c6.88-7-3.77-21.18-11.82-15.58,2.22-1.54,0-4.89-2.09-4.93A7.16,7.16,0,0,1,124.22,209.9Z" style="fill:none;stroke:#263238;stroke-linecap:round;stroke-miterlimit:10"></path><line x1="41.69" y1="228" x2="80.77" y2="228" style="fill:none;stroke:#263238;stroke-linecap:round;stroke-miterlimit:10"></line><line x1="75.25" y1="224.6" x2="95.63" y2="224.6" style="fill:none;stroke:#263238;stroke-linecap:round;stroke-miterlimit:10"></line><line x1="120.69" y1="205.91" x2="127.49" y2="205.91" style="fill:none;stroke:#263238;stroke-linecap:round;stroke-miterlimit:10"></line></g><g id="freepik--Landscape--inject-2"><path d="M26.14,401.27l.66.53Z" style="fill:#1EC28B"></path><path d="M26,401.17l.12.1Z" style="fill:#1EC28B"></path><path d="M20.11,396.41l1.66,1.34Z" style="fill:#1EC28B"></path><path d="M21.77,397.75,26,401.17Z" style="fill:#1EC28B"></path><path d="M27.93,402.71l.13.1Z" style="fill:#1EC28B"></path><path d="M26.8,401.8l1.13.91Z" style="fill:#1EC28B"></path><path d="M18.45,395.07l.16.13Z" style="fill:#1EC28B"></path><path d="M19.83,396.19l.28.22Z" style="fill:#1EC28B"></path><path d="M18.61,395.2l.23.19Z" style="fill:#1EC28B"></path><path d="M18.28,394.94l.17.13Z" style="fill:#1EC28B"></path><path d="M28.06,402.81l.16.13Z" style="fill:#1EC28B"></path><path d="M18.84,395.39l.82.66Z" style="fill:#1EC28B"></path><path d="M19.66,396.05l.17.14Z" style="fill:#1EC28B"></path><path d="M28.22,402.94l.21.17Z" style="fill:#1EC28B"></path><path d="M475,357.51l-.37,0Z" style="fill:#1EC28B"></path><path d="M474.67,357.49h0Z" style="fill:#1EC28B"></path><path d="M477.35,357.6l-2.31-.09Z" style="fill:#1EC28B"></path><path d="M28.43,403.11l.2.16Z" style="fill:#1EC28B"></path><path d="M479.6,357.69h-463s-.4-.16-1.27.43l-1,.39a23,23,0,0,0-2.5,2.8,4,4,0,0,0-.86,1.18c-4.32,6.25-9.4,19,7.27,32.45l1.13.1a11.61,11.61,0,0,0,1.22.62c22,4.67,61.28,8,85.93,10.66s84.5,3.16,152.4.71c68.23-2.45,198.65-13.36,198.65-13.36s.95-.15,2.48-.44l5.75-.25s24.07-2,26-14.31S491.4,358.18,479.6,357.69Z" style="fill:#1EC28B"></path><path d="M479.6,357.69h-463s-.4-.16-1.27.43l-1,.39a23,23,0,0,0-2.5,2.8,4,4,0,0,0-.86,1.18c-4.32,6.25-9.4,19,7.27,32.45l1.13.1a11.61,11.61,0,0,0,1.22.62c22,4.67,61.28,8,85.93,10.66s84.5,3.16,152.4.71c68.23-2.45,198.65-13.36,198.65-13.36s.95-.15,2.48-.44l5.75-.25s24.07-2,26-14.31S491.4,358.18,479.6,357.69Z" style="fill:#fff;opacity:0.4"></path><path d="M479,357.67l-1.63-.07Z" style="fill:#1EC28B"></path><path d="M474.48,357.48Z" style="fill:#1EC28B"></path><path d="M479.6,357.69h0Z" style="fill:#1EC28B"></path><path d="M28.63,403.27Z" style="fill:#1EC28B"></path><path d="M479.18,357.68h0Z" style="fill:#1EC28B"></path><path d="M479.51,357.69h0Z" style="fill:#1EC28B"></path><path d="M479.41,357.69h0Z" style="fill:#1EC28B"></path><line x1="8" y1="357.67" x2="489" y2="357.67" style="fill:none;stroke:#263238;stroke-linecap:round;stroke-miterlimit:10"></line><path d="M3,391s103,39,483,0" style="fill:none;stroke:#263238;stroke-linecap:round;stroke-miterlimit:10"></path><line x1="254" y1="365" x2="300" y2="365" style="fill:none;stroke:#263238;stroke-linecap:round;stroke-miterlimit:10"></line><line x1="289" y1="373" x2="312" y2="373" style="fill:none;stroke:#263238;stroke-linecap:round;stroke-miterlimit:10"></line><line x1="313" y1="365" x2="334" y2="365" style="fill:none;stroke:#263238;stroke-linecap:round;stroke-miterlimit:10"></line><line x1="349" y1="364" x2="395" y2="364" style="fill:none;stroke:#263238;stroke-linecap:round;stroke-miterlimit:10"></line><line x1="356" y1="370" x2="365" y2="370" style="fill:none;stroke:#263238;stroke-linecap:round;stroke-miterlimit:10"></line><line x1="379" y1="372" x2="398" y2="372" style="fill:none;stroke:#263238;stroke-linecap:round;stroke-miterlimit:10"></line><line x1="419" y1="362" x2="409" y2="362" style="fill:none;stroke:#263238;stroke-linecap:round;stroke-miterlimit:10"></line><line x1="418" y1="369" x2="435" y2="369" style="fill:none;stroke:#263238;stroke-linecap:round;stroke-miterlimit:10"></line><line x1="462" y1="367" x2="448" y2="367" style="fill:none;stroke:#263238;stroke-linecap:round;stroke-miterlimit:10"></line><line x1="225" y1="366" x2="235" y2="366" style="fill:none;stroke:#263238;stroke-linecap:round;stroke-miterlimit:10"></line><line x1="265" y1="374" x2="244" y2="374" style="fill:none;stroke:#263238;stroke-linecap:round;stroke-miterlimit:10"></line><line x1="201" y1="365" x2="173" y2="365" style="fill:none;stroke:#263238;stroke-linecap:round;stroke-miterlimit:10"></line><line x1="13" y1="365" x2="34" y2="365" style="fill:none;stroke:#263238;stroke-linecap:round;stroke-miterlimit:10"></line><line x1="49" y1="364" x2="95" y2="364" style="fill:none;stroke:#263238;stroke-linecap:round;stroke-miterlimit:10"></line><line x1="56" y1="370" x2="65" y2="370" style="fill:none;stroke:#263238;stroke-linecap:round;stroke-miterlimit:10"></line><line x1="79" y1="372" x2="98" y2="372" style="fill:none;stroke:#263238;stroke-linecap:round;stroke-miterlimit:10"></line><line x1="119" y1="362" x2="109" y2="362" style="fill:none;stroke:#263238;stroke-linecap:round;stroke-miterlimit:10"></line><line x1="118" y1="369" x2="135" y2="369" style="fill:none;stroke:#263238;stroke-linecap:round;stroke-miterlimit:10"></line><line x1="162" y1="367" x2="148" y2="367" style="fill:none;stroke:#263238;stroke-linecap:round;stroke-miterlimit:10"></line><line x1="221.37" y1="383" x2="176.39" y2="383" style="fill:none;stroke:#263238;stroke-linecap:round;stroke-miterlimit:10"></line><line x1="187.15" y1="391" x2="164.66" y2="391" style="fill:none;stroke:#263238;stroke-linecap:round;stroke-miterlimit:10"></line><line x1="163.68" y1="383" x2="143.15" y2="383" style="fill:none;stroke:#263238;stroke-linecap:round;stroke-miterlimit:10"></line><line x1="128.48" y1="382" x2="83.51" y2="382" style="fill:none;stroke:#263238;stroke-linecap:round;stroke-miterlimit:10"></line><line x1="121.64" y1="388" x2="112.84" y2="388" style="fill:none;stroke:#263238;stroke-linecap:round;stroke-miterlimit:10"></line><line x1="99.15" y1="390" x2="80.57" y2="390" style="fill:none;stroke:#263238;stroke-linecap:round;stroke-miterlimit:10"></line><line x1="60.04" y1="380" x2="69.82" y2="380" style="fill:none;stroke:#263238;stroke-linecap:round;stroke-miterlimit:10"></line><line x1="61.02" y1="387" x2="44.4" y2="387" style="fill:none;stroke:#263238;stroke-linecap:round;stroke-miterlimit:10"></line><line x1="18" y1="385" x2="31.69" y2="385" style="fill:none;stroke:#263238;stroke-linecap:round;stroke-miterlimit:10"></line><line x1="249.72" y1="384" x2="239.94" y2="384" style="fill:none;stroke:#263238;stroke-linecap:round;stroke-miterlimit:10"></line><line x1="210.61" y1="392" x2="231.14" y2="392" style="fill:none;stroke:#263238;stroke-linecap:round;stroke-miterlimit:10"></line><line x1="273.19" y1="383" x2="300.56" y2="383" style="fill:none;stroke:#263238;stroke-linecap:round;stroke-miterlimit:10"></line><line x1="457" y1="383" x2="436.47" y2="383" style="fill:none;stroke:#263238;stroke-linecap:round;stroke-miterlimit:10"></line><line x1="421.8" y1="382" x2="376.83" y2="382" style="fill:none;stroke:#263238;stroke-linecap:round;stroke-miterlimit:10"></line><line x1="414.96" y1="388" x2="406.16" y2="388" style="fill:none;stroke:#263238;stroke-linecap:round;stroke-miterlimit:10"></line><line x1="392.47" y1="390" x2="373.89" y2="390" style="fill:none;stroke:#263238;stroke-linecap:round;stroke-miterlimit:10"></line><line x1="353.36" y1="380" x2="363.14" y2="380" style="fill:none;stroke:#263238;stroke-linecap:round;stroke-miterlimit:10"></line><line x1="354.34" y1="387" x2="337.72" y2="387" style="fill:none;stroke:#263238;stroke-linecap:round;stroke-miterlimit:10"></line><line x1="311.32" y1="385" x2="325.01" y2="385" style="fill:none;stroke:#263238;stroke-linecap:round;stroke-miterlimit:10"></line></g><g id="freepik--burj-al-arab--inject-2"><rect x="52.65" y="348.57" width="1.97" height="8.95" style="fill:#fff;stroke:#263238;stroke-linecap:round;stroke-miterlimit:10"></rect><rect x="20.91" y="348.57" width="1.97" height="8.95" style="fill:#fff;stroke:#263238;stroke-linecap:round;stroke-miterlimit:10"></rect><rect x="8.33" y="345" width="86.67" height="4.04" style="fill:#fff;stroke:#263238;stroke-linecap:round;stroke-miterlimit:10"></rect><path d="M231.53,345l-3.3-156.37-.74-41.46,26.65-9.62s3.34-1.85-1.85-5.93-14.43-3.33-16.65-2.59-8.89,4.07-8.89,4.07l-4.44-62.18-8.51.74-6.3,7V345Z" style="fill:#fff;stroke:#263238;stroke-linecap:round;stroke-miterlimit:10"></path><polygon points="220 72.67 215.33 72.67 215.33 21.33 220 25.67 220 72.67" style="fill:#fff;stroke:#263238;stroke-linecap:round;stroke-miterlimit:10"></polygon><path d="M131.56,345h90.53L218.9,127.28l-20.56-17.83-25.14,6.17-2,.69s0-.69-11,18.05-16,32.9-22.39,47.75-12.11,52.1-13.94,70.15,0,52.79,3.2,72.44C129.26,338.27,130.81,343.23,131.56,345Z" style="fill:#fff;stroke:#263238;stroke-linecap:round;stroke-miterlimit:10"></path><polygon points="170.26 122.95 168.01 127.83 177.54 126.13 180.77 113.94 174.76 116 170.26 122.95" style="fill:#263238"></polygon><path d="M169,144.52c1.06-.19,2.15-.35,3.25-.48" style="fill:none;stroke:#263238;stroke-linecap:round;stroke-miterlimit:10"></path><path d="M155.69,148.75a57.58,57.58,0,0,1,10-3.5" style="fill:none;stroke:#263238;stroke-linecap:round;stroke-miterlimit:10"></path><path d="M165.6,132.89s6.69-2.72,10.9-3" style="fill:none;stroke:#263238;stroke-linecap:round;stroke-miterlimit:10"></path><path d="M149,163.37s10.65-5.2,20.07-5.45" style="fill:none;stroke:#263238;stroke-linecap:round;stroke-miterlimit:10"></path><path d="M147.57,177.41c5-1.83,12.46-4,19.27-3.38" style="fill:none;stroke:#263238;stroke-linecap:round;stroke-miterlimit:10"></path><path d="M142.06,179.73s.8-.41,2.18-1" style="fill:none;stroke:#263238;stroke-linecap:round;stroke-miterlimit:10"></path><path d="M137.85,194.84s7.68-6.94,27.26-7.19" style="fill:none;stroke:#263238;stroke-linecap:round;stroke-miterlimit:10"></path><path d="M161.45,204.76c.79,0,1.6.06,2.43.11" style="fill:none;stroke:#263238;stroke-linecap:round;stroke-miterlimit:10"></path><path d="M134.63,211.69s5.91-6.63,23.23-6.95" style="fill:none;stroke:#263238;stroke-linecap:round;stroke-miterlimit:10"></path><path d="M159.56,222.1c1.07.07,2.17.15,3.32.25" style="fill:none;stroke:#263238;stroke-linecap:round;stroke-miterlimit:10"></path><path d="M131.41,228.79s2.39-7.18,23.45-6.87" style="fill:none;stroke:#263238;stroke-linecap:round;stroke-miterlimit:10"></path><path d="M130.41,245.14s8.93-6.93,31.47-5.45" style="fill:none;stroke:#263238;stroke-linecap:round;stroke-miterlimit:10"></path><path d="M152.22,257.31c2.94,0,6.23.13,9.91.47" style="fill:none;stroke:#263238;stroke-linecap:round;stroke-miterlimit:10"></path><path d="M129.42,263.48s3.72-5.11,18.49-6" style="fill:none;stroke:#263238;stroke-linecap:round;stroke-miterlimit:10"></path><path d="M135.24,277.55c5-1.47,13.61-2.61,28.13-1.68" style="fill:none;stroke:#263238;stroke-linecap:round;stroke-miterlimit:10"></path><path d="M128.43,281.32a6.92,6.92,0,0,1,2.89-2.25" style="fill:none;stroke:#263238;stroke-linecap:round;stroke-miterlimit:10"></path><path d="M129.42,298.67s6.69-5,34-4.22" style="fill:none;stroke:#263238;stroke-linecap:round;stroke-miterlimit:10"></path><path d="M160.5,311.82c1.2.12,2.4.28,3.61.48" style="fill:none;stroke:#263238;stroke-linecap:round;stroke-miterlimit:10"></path><path d="M132.15,314.53a77.77,77.77,0,0,1,21.95-3" style="fill:none;stroke:#263238;stroke-linecap:round;stroke-miterlimit:10"></path><path d="M185.94,183.43l33.86,20.13-.08-5.41L186.52,178Q186.22,180.65,185.94,183.43Z" style="fill:#263238;stroke:#263238;stroke-linecap:round;stroke-miterlimit:10"></path><path d="M186.77,175.76l32.91,20-.11-6.82-32.08-19.16Q187.12,172.74,186.77,175.76Z" style="fill:#263238;stroke:#263238;stroke-linecap:round;stroke-miterlimit:10"></path><path d="M185.17,191.82l34.75,18.59-.08-4.51-34.11-20.28C185.53,187.66,185.35,189.73,185.17,191.82Z" style="fill:#263238;stroke:#263238;stroke-linecap:round;stroke-miterlimit:10"></path><path d="M184.11,208.19l36,16.57-.08-4.52-35.64-18.17C184.31,204.05,184.2,206.1,184.11,208.19Z" style="fill:#263238;stroke:#263238;stroke-linecap:round;stroke-miterlimit:10"></path><path d="M184.57,199.9,220,218,220,212.7,185,194C184.85,196,184.71,197.91,184.57,199.9Z" style="fill:#263238;stroke:#263238;stroke-linecap:round;stroke-miterlimit:10"></path><path d="M183.81,216.71l36.46,15.79-.09-5.52L184,210.35Q183.9,213.46,183.81,216.71Z" style="fill:#263238;stroke:#263238;stroke-linecap:round;stroke-miterlimit:10"></path><path d="M196.55,119.52l22.16,16.15,0-2.67-21.3-16.84C197.12,117.19,196.84,118.32,196.55,119.52Z" style="fill:#263238;stroke:#263238;stroke-linecap:round;stroke-miterlimit:10"></path><path d="M188.83,160l30.59,19.94-.08-5.24-29.82-19.27C189.29,156.92,189.06,158.45,188.83,160Z" style="fill:#263238;stroke:#263238;stroke-linecap:round;stroke-miterlimit:10"></path><path d="M193.64,132.62,219,150.44l-.07-4.32-24.31-17.88C194.26,129.64,194,131.11,193.64,132.62Z" style="fill:#263238;stroke:#263238;stroke-linecap:round;stroke-miterlimit:10"></path><path d="M195,126.11l23.8,17.5-.09-5.44-22.7-16.54C195.73,123,195.39,124.52,195,126.11Z" style="fill:#263238;stroke:#263238;stroke-linecap:round;stroke-miterlimit:10"></path><path d="M183.64,226l36.77,15-.1-6.36-36.55-15.83Q183.67,222.39,183.64,226Z" style="fill:#263238;stroke:#263238;stroke-linecap:round;stroke-miterlimit:10"></path><path d="M192.37,139.05l26.68,17.56-.06-3.7-25.78-18.15Q192.79,136.83,192.37,139.05Z" style="fill:#263238;stroke:#263238;stroke-linecap:round;stroke-miterlimit:10"></path><path d="M191.11,145.93l28.06,18.53-.08-5.43L192,141.18C191.68,142.71,191.39,144.3,191.11,145.93Z" style="fill:#263238;stroke:#263238;stroke-linecap:round;stroke-miterlimit:10"></path><path d="M189.87,153.27l29.43,19-.09-5.42-28.48-18.81C190.44,149.76,190.15,151.5,189.87,153.27Z" style="fill:#263238;stroke:#263238;stroke-linecap:round;stroke-miterlimit:10"></path><path d="M187.77,167.64l31.76,19-.07-4.27-30.94-20.17Q188.13,164.87,187.77,167.64Z" style="fill:#263238;stroke:#263238;stroke-linecap:round;stroke-miterlimit:10"></path><path d="M186.24,318l35.47,3.41L221.6,315l-35.75-4.3Q186,314.4,186.24,318Z" style="fill:#263238;stroke:#263238;stroke-linecap:round;stroke-miterlimit:10"></path><path d="M185.3,299.36l36.13,5.18-.1-6.35L185,292Q185.12,295.7,185.3,299.36Z" style="fill:#263238;stroke:#263238;stroke-linecap:round;stroke-miterlimit:10"></path><path d="M185.74,308.62l35.83,4.31-.1-6.37-36.08-5.17C185.51,303.84,185.62,306.25,185.74,308.62Z" style="fill:#263238;stroke:#263238;stroke-linecap:round;stroke-miterlimit:10"></path><path d="M186.75,327l35.09,2.55-.1-6.13L186.35,320Q186.55,323.6,186.75,327Z" style="fill:#263238;stroke:#263238;stroke-linecap:round;stroke-miterlimit:10"></path><path d="M187.33,336.67l1.32,0L222,337.77l-.1-6.23-35-2.55C187,331.68,187.18,334.25,187.33,336.67Z" style="fill:#263238;stroke:#263238;stroke-linecap:round;stroke-miterlimit:10"></path><path d="M222.09,345l-.09-5.22-33.37-1.13-1.17,0q.21,3.39.41,6.33Z" style="fill:#263238;stroke:#263238;stroke-linecap:round;stroke-miterlimit:10"></path><path d="M183.74,252.36l37,11.8-.08-5.29-37-12.9C183.67,248.09,183.71,250.22,183.74,252.36Z" style="fill:#263238;stroke:#263238;stroke-linecap:round;stroke-miterlimit:10"></path><path d="M183.59,234.85l36.93,13.26-.08-4.88-36.83-15C183.6,230.38,183.59,232.61,183.59,234.85Z" style="fill:#263238;stroke:#263238;stroke-linecap:round;stroke-miterlimit:10"></path><path d="M184,262.34l37,10.64-.1-6.71-37-11.8Q183.86,258.4,184,262.34Z" style="fill:#263238;stroke:#263238;stroke-linecap:round;stroke-miterlimit:10"></path><path d="M183.63,243.84l37,12.9-.1-6.49-37-13.27C183.59,239.25,183.61,241.54,183.63,243.84Z" style="fill:#263238;stroke:#263238;stroke-linecap:round;stroke-miterlimit:10"></path><path d="M184.2,271.37l36.85,9.35-.09-5.65-37-10.63Q184.1,267.9,184.2,271.37Z" style="fill:#263238;stroke:#263238;stroke-linecap:round;stroke-miterlimit:10"></path><path d="M184.88,289.9l36.42,6.26-.09-5.39L184.6,283Q184.74,286.46,184.88,289.9Z" style="fill:#263238;stroke:#263238;stroke-linecap:round;stroke-miterlimit:10"></path><path d="M184.53,280.92l36.65,7.8-.1-5.92-36.81-9.35Q184.39,277.2,184.53,280.92Z" style="fill:#263238;stroke:#263238;stroke-linecap:round;stroke-miterlimit:10"></path><path d="M183,291.6l-.13,0-16.59,1.1c0,.91.07,1.8.1,2.65l.21,4.94,16.75-1.06Q183.11,295.46,183,291.6Z" style="fill:#263238;stroke:#263238;stroke-linecap:round;stroke-miterlimit:10"></path><path d="M181.77,253.83l-.07,0-16.25,1.43c0,2.66,0,5.28.07,7.84l16.42-1.22Q181.85,257.84,181.77,253.83Z" style="fill:#263238;stroke:#263238;stroke-linecap:round;stroke-miterlimit:10"></path><path d="M181.64,245.28l-16.19,1.22q0,3.41,0,6.73l16.28-1.43C181.7,249.62,181.67,247.44,181.64,245.28Z" style="fill:#263238;stroke:#263238;stroke-linecap:round;stroke-miterlimit:10"></path><path d="M182,263.86l-16.45,1.23c0,2.29.07,4.53.11,6.72l16.54-.8Q182.09,267.44,182,263.86Z" style="fill:#263238;stroke:#263238;stroke-linecap:round;stroke-miterlimit:10"></path><path d="M181.59,236.3l-16.08,1.49c0,2.25,0,4.48-.06,6.7l16.17-1.21C181.6,240.93,181.59,238.61,181.59,236.3Z" style="fill:#263238;stroke:#263238;stroke-linecap:round;stroke-miterlimit:10"></path><path d="M182.26,273l-16.57.8c.06,2.62.12,5.17.19,7.61l16.64-.82C182.42,278.08,182.34,275.55,182.26,273Z" style="fill:#263238;stroke:#263238;stroke-linecap:round;stroke-miterlimit:10"></path><path d="M181.61,228.24l-16,1.59c0,2-.08,4-.1,5.95l16.05-1.48Q181.59,231.24,181.61,228.24Z" style="fill:#263238;stroke:#263238;stroke-linecap:round;stroke-miterlimit:10"></path><path d="M183.84,310.49l-16.73.79c.14,2.46.29,4.86.44,7.18l16.68-.51C184.1,315.52,184,313,183.84,310.49Z" style="fill:#263238;stroke:#263238;stroke-linecap:round;stroke-miterlimit:10"></path><path d="M184.86,328.94l-16.51,1c.19,2.63.38,5,.55,7.11l16.43-.32C185.18,334.26,185,331.66,184.86,328.94Z" style="fill:#263238;stroke:#263238;stroke-linecap:round;stroke-miterlimit:10"></path><path d="M184.34,319.94l-16.66.51c.17,2.63.35,5.13.52,7.48l16.54-1Q184.55,323.56,184.34,319.94Z" style="fill:#263238;stroke:#263238;stroke-linecap:round;stroke-miterlimit:10"></path><path d="M182.59,282.6l-16.66.82c.08,2.54.15,5,.23,7.26l16.71-1.11C182.77,287.27,182.68,284.94,182.59,282.6Z" style="fill:#263238;stroke:#263238;stroke-linecap:round;stroke-miterlimit:10"></path><path d="M185.86,345q-.2-2.92-.4-6.29l-16.4.32c.23,2.78.41,4.84.52,6Z" style="fill:#263238;stroke:#263238;stroke-linecap:round;stroke-miterlimit:10"></path><path d="M181.76,218.58l-15.86,1.5q-.12,3.87-.21,7.73l15.94-1.58C181.66,223.63,181.71,221.08,181.76,218.58Z" style="fill:#263238;stroke:#263238;stroke-linecap:round;stroke-miterlimit:10"></path><path d="M183.38,301.21l-16.74,1.05q.17,3.57.36,7l16.74-.79Q183.56,304.92,183.38,301.21Z" style="fill:#263238;stroke:#263238;stroke-linecap:round;stroke-miterlimit:10"></path><path d="M194.05,121.41,179.33,124c-.32,1.16-.68,2.49-1.07,4l14.87-2.52C193.45,124,193.75,122.68,194.05,121.41Z" style="fill:#263238;stroke:#263238;stroke-linecap:round;stroke-miterlimit:10"></path><path d="M190.07,140.46l-15.35,2.35c-.36,1.68-.72,3.42-1.09,5.24l15.53-2.62C189.46,143.72,189.76,142.07,190.07,140.46Z" style="fill:#263238;stroke:#263238;stroke-linecap:round;stroke-miterlimit:10"></path><path d="M191.31,134.08l-15.14,2.28c-.32,1.38-.66,2.84-1,4.35l15.28-2.34C190.74,136.89,191,135.46,191.31,134.08Z" style="fill:#263238;stroke:#263238;stroke-linecap:round;stroke-miterlimit:10"></path><path d="M188.8,147.52l-15.58,2.63c-.31,1.6-.62,3.25-.93,4.94l15.61-2.19C188.2,151.06,188.5,149.26,188.8,147.52Z" style="fill:#263238;stroke:#263238;stroke-linecap:round;stroke-miterlimit:10"></path><path d="M187.57,155l-15.65,2.19q-.46,2.66-.91,5.44l15.8-2.6C187.06,158.29,187.31,156.61,187.57,155Z" style="fill:#263238;stroke:#263238;stroke-linecap:round;stroke-miterlimit:10"></path><path d="M192.67,127.55l-15,2.53c-.34,1.3-.68,2.69-1,4.18L191.73,132C192.05,130.45,192.36,129,192.67,127.55Z" style="fill:#263238;stroke:#263238;stroke-linecap:round;stroke-miterlimit:10"></path><path d="M195.48,115.5,181,118.33s-.4,1.23-1.06,3.52l14.61-2.55C194.88,117.93,195.19,116.66,195.48,115.5Z" style="fill:#263238;stroke:#263238;stroke-linecap:round;stroke-miterlimit:10"></path><path d="M185.51,169.46l-15.86,2.38q-.42,3.07-.8,6.29l15.93-2.65Q185.14,172.42,185.51,169.46Z" style="fill:#263238;stroke:#263238;stroke-linecap:round;stroke-miterlimit:10"></path><path d="M183,193.82l-15.83,1.92c-.14,2-.28,3.94-.4,5.94l15.81-2Q182.78,196.71,183,193.82Z" style="fill:#263238;stroke:#263238;stroke-linecap:round;stroke-miterlimit:10"></path><path d="M182.45,201.71l-15.8,2c-.12,2-.23,4.1-.33,6.17l15.79-1.65C182.21,206,182.32,203.81,182.45,201.71Z" style="fill:#263238;stroke:#263238;stroke-linecap:round;stroke-miterlimit:10"></path><path d="M183.77,185.11l-15.9,2.23c-.19,2.1-.38,4.21-.55,6.36l15.85-1.91Q183.44,188.4,183.77,185.11Z" style="fill:#263238;stroke:#263238;stroke-linecap:round;stroke-miterlimit:10"></path><path d="M184.55,177.54l-15.94,2.66c-.1.82-.19,1.64-.28,2.47s-.18,1.74-.26,2.62l15.9-2.23C184.15,181.2,184.35,179.36,184.55,177.54Z" style="fill:#263238;stroke:#263238;stroke-linecap:round;stroke-miterlimit:10"></path><path d="M186.51,162.08l-15.82,2.6c-.26,1.66-.51,3.36-.76,5.09l15.85-2.37C186,165.6,186.26,163.82,186.51,162.08Z" style="fill:#263238;stroke:#263238;stroke-linecap:round;stroke-miterlimit:10"></path><path d="M182,210.25l-15.8,1.65q-.14,3.07-.24,6.16l15.83-1.49Q181.9,213.34,182,210.25Z" style="fill:#263238;stroke:#263238;stroke-linecap:round;stroke-miterlimit:10"></path><polygon points="197.28 109.78 182.64 113.59 181.32 116.77 196.29 113.56 197.28 109.78" style="fill:#263238;stroke:#263238;stroke-linecap:round;stroke-miterlimit:10"></polygon><polygon points="198.88 109.96 197.88 113.76 218.6 130.91 218.9 127.28 198.88 109.96" style="fill:#263238;stroke:#263238;stroke-linecap:round;stroke-miterlimit:10"></polygon><path d="M132.59,345c-6.47-31.42-17.44-107.23,14.7-181C171.54,108.35,205.8,80.56,216,73.18V67.1C211.5,70,171,97.15,142.71,162,110,237.11,120.8,313.11,127.37,345Z" style="fill:#fff;stroke:#263238;stroke-linecap:round;stroke-miterlimit:10"></path><path d="M199.64,345h7.05c-.84-8.06-3.28-35.91-3.69-90.17-.5-66,1.48-98.22,8.45-137.83C216,91.4,221.1,77,224,70.29V64h-4.79c-2.73,5.39-9.19,20.53-14.7,51.81-7.05,40.09-9.05,72.6-8.55,139.11C196.4,308.31,198.7,335.88,199.64,345Z" style="fill:#fff;stroke:#263238;stroke-linecap:round;stroke-miterlimit:10"></path><path d="M203.31,345h3.38c-.84-8.06-3.28-35.91-3.69-90.17-.5-66,1.48-98.22,8.45-137.83C216,91.4,221.1,77,224,70.29V64h-1.12c-2.73,5.39-9.2,20.53-14.7,51.81-7.06,40.09-9.05,72.6-8.55,139.11C200.07,308.31,202.37,335.88,203.31,345Z" style="fill:#fff;stroke:#263238;stroke-linecap:round;stroke-miterlimit:10"></path><path d="M178.46,111.28c0,3.66-6.55,6.63-14.62,6.63s-14.63-3-14.63-6.63,6.55-6.63,14.63-6.63S178.46,107.62,178.46,111.28Z" style="fill:#fff;stroke:#263238;stroke-linecap:round;stroke-miterlimit:10"></path><path d="M176.82,125.73l.37-1.14-11-8.89a1,1,0,0,0-1.4.15h0a1,1,0,0,0,.15,1.41l10.67,8.59Z" style="fill:#fff;stroke:#263238;stroke-linecap:round;stroke-miterlimit:10"></path><path d="M168.4,115.39c0,1.27-1.58,2.29-3.54,2.29s-3.54-1-3.54-2.29,1.59-2.28,3.54-2.28S168.4,114.13,168.4,115.39Z" style="fill:#fff;stroke:#263238;stroke-linecap:round;stroke-miterlimit:10"></path><path d="M132.68,320.88l.22,8s-8.24,2.68-4.9,3.12,22.94-.67,28.73-1.11a67.49,67.49,0,0,0,11.36-2" style="fill:#fff;stroke:#263238;stroke-linecap:round;stroke-miterlimit:10"></path><path d="M130.89,310.85s-.22-6.45-.89-8.46-.44-5.12-.44-6.68a111,111,0,0,0-.89-11.58c-.45-2-1.56-5.13-.45-8s0-7.57,0-9.35-.44-5.35,0-7.13.67-12.92.67-12.92L130,231.79l2.23-14.26,3.12-15.14,1.34-5.57" style="fill:none;stroke:#263238;stroke-linecap:round;stroke-miterlimit:10"></path><ellipse cx="246.42" cy="132.81" rx="2.85" ry="8.6" transform="translate(46.18 328.42) rotate(-72.65)" style="fill:#263238"></ellipse><path d="M224.9,134.21s-4.07,3-3.33,4.82a11.85,11.85,0,0,0,4.81,5.92" style="fill:#fff;stroke:#263238;stroke-linecap:round;stroke-miterlimit:10"></path><line x1="219.72" y1="126.07" x2="220.09" y2="84.98" style="fill:none;stroke:#263238;stroke-linecap:round;stroke-miterlimit:10"></line><path d="M226.33,342.62C226,277,224,212,223.92,146.19" style="fill:none;stroke:#263238;stroke-linecap:round;stroke-miterlimit:10"></path><line x1="223.92" y1="130.98" x2="222.79" y2="94.37" style="fill:none;stroke:#263238;stroke-linecap:round;stroke-miterlimit:10"></line><path d="M167.38,345l-1.88-15a293.09,293.09,0,0,1-34,2.5l2.88,12.5Z" style="fill:#263238"></path><path d="M154,334.13s-.29-1.45-1-1.6a16,16,0,0,0-2.18-.14l.72-.87.58-.3a1.75,1.75,0,0,0-2.47.88,4.06,4.06,0,0,0-3.34-.44l2.18.87a1.91,1.91,0,0,0-1.74.44,7.29,7.29,0,0,0-1.46,1.74l2-.58s-.73.87-.73,1.31a4.17,4.17,0,0,0,.29,1.16s.73-1,1.16-1.16l.44-.14.44,1.3.39-.29v8.15H150v-8.65l.11-.08,1,1,.14-1.6a1.6,1.6,0,0,1,1,.73l.29.58a1.42,1.42,0,0,0,.44-1.6,3.1,3.1,0,0,0-.88-1.16h1.17Z" style="fill:#1EC28B"></path><path d="M161.93,334.13s-.3-1.45-1-1.6a16,16,0,0,0-2.18-.14l.72-.87.59-.3a1.77,1.77,0,0,0-2.48.88,4.06,4.06,0,0,0-3.34-.44l2.18.87a1.91,1.91,0,0,0-1.74.44,7.29,7.29,0,0,0-1.46,1.74l2-.58s-.73.87-.73,1.31a4.17,4.17,0,0,0,.29,1.16s.73-1,1.16-1.16l.44-.14.44,1.3.4-.29v8.15h.65v-8.65l.11-.08,1,1,.14-1.6a1.6,1.6,0,0,1,1,.73l.29.58a1.42,1.42,0,0,0,.44-1.6,3.16,3.16,0,0,0-.87-1.16h1.16Z" style="fill:#1EC28B"></path><path d="M169.83,334.13s-.29-1.45-1-1.6a16,16,0,0,0-2.18-.14l.72-.87.59-.3a1.77,1.77,0,0,0-2.48.88,3.64,3.64,0,0,0-1.59-.58,3.69,3.69,0,0,0-1.75.14l2.18.87a1.91,1.91,0,0,0-1.74.44,7.29,7.29,0,0,0-1.46,1.74l2-.58s-.73.87-.73,1.31a4.17,4.17,0,0,0,.29,1.16s.73-1,1.17-1.16l.43-.14.44,1.3.4-.29v8.15h.65v-8.65l.11-.08,1,1,.14-1.6a1.6,1.6,0,0,1,1,.73l.29.58a1.42,1.42,0,0,0,.44-1.6,3.16,3.16,0,0,0-.87-1.16h1.16Z" style="fill:#1EC28B"></path><path d="M177.73,334.13s-.29-1.45-1-1.6a16,16,0,0,0-2.18-.14l.73-.87.58-.3a1.75,1.75,0,0,0-2.47.88,4.07,4.07,0,0,0-3.35-.44l2.18.87a1.91,1.91,0,0,0-1.74.44,7.58,7.58,0,0,0-1.46,1.74l2-.58s-.73.87-.73,1.31a4.17,4.17,0,0,0,.29,1.16s.73-1,1.17-1.16l.43-.14.44,1.3.4-.29v8.15h.65v-8.65l.11-.08,1,1,.14-1.6a1.6,1.6,0,0,1,1,.73l.29.58a1.4,1.4,0,0,0,.44-1.6,3.16,3.16,0,0,0-.87-1.16H177Z" style="fill:#1EC28B"></path><path d="M241.36,334.13s-.29-1.45-1-1.6a16,16,0,0,0-2.18-.14l.73-.87.58-.3a1.75,1.75,0,0,0-2.47.88,4.06,4.06,0,0,0-3.34-.44l2.18.87a1.93,1.93,0,0,0-1.75.44,7.39,7.39,0,0,0-1.45,1.74l2-.58s-.72.87-.72,1.31a4.17,4.17,0,0,0,.29,1.16s.72-1,1.16-1.16l.44-.14.43,1.3.4-.29v8.15h.66v-8.65l.11-.08,1,1,.15-1.6a1.6,1.6,0,0,1,1,.73l.29.58a1.4,1.4,0,0,0,.43-1.6,3,3,0,0,0-.87-1.16h1.16Z" style="fill:#1EC28B"></path><path d="M249.52,334.13s-.29-1.45-1-1.6a16,16,0,0,0-2.18-.14l.72-.87.58-.3a1.75,1.75,0,0,0-2.47.88,4.06,4.06,0,0,0-3.34-.44l2.18.87a1.91,1.91,0,0,0-1.74.44,7.29,7.29,0,0,0-1.46,1.74l2-.58s-.73.87-.73,1.31a4.17,4.17,0,0,0,.29,1.16s.73-1,1.16-1.16l.44-.14.44,1.3.39-.29v8.15h.66v-8.65l.11-.08,1,1,.14-1.6a1.6,1.6,0,0,1,1,.73l.29.58a1.42,1.42,0,0,0,.44-1.6,3.1,3.1,0,0,0-.88-1.16h1.17Z" style="fill:#1EC28B"></path><path d="M256,336.13s-.23-1.17-.82-1.29a12.21,12.21,0,0,0-1.76-.12l.59-.7.47-.24a1.42,1.42,0,0,0-2,.71,3.05,3.05,0,0,0-1.29-.47,2.88,2.88,0,0,0-1.4.12l1.75.7a1.55,1.55,0,0,0-1.4.35A5.9,5.9,0,0,0,249,336.6l1.65-.47s-.59.7-.59,1.05a3.4,3.4,0,0,0,.23.94s.59-.82.94-.94l.35-.11.36,1.05.32-.24v6.58h.53v-7l.08-.06.82.82.12-1.29a1.27,1.27,0,0,1,.82.59l.24.47a1.14,1.14,0,0,0,.35-1.29,2.45,2.45,0,0,0-.7-.94h.93Z" style="fill:#1EC28B"></path><path d="M114.68,334.13s.29-1.45,1-1.6a16,16,0,0,1,2.18-.14l-.73-.87-.58-.3a1.75,1.75,0,0,1,2.47.88,4.06,4.06,0,0,1,3.34-.44l-2.18.87A1.93,1.93,0,0,1,122,333a7.39,7.39,0,0,1,1.45,1.74l-2-.58s.72.87.72,1.31a4.17,4.17,0,0,1-.29,1.16s-.73-1-1.16-1.16l-.44-.14-.43,1.3-.4-.29v8.15h-.66v-8.65l-.11-.08-1,1-.15-1.6a1.6,1.6,0,0,0-1,.73l-.29.58a1.4,1.4,0,0,1-.43-1.6,3,3,0,0,1,.87-1.16H115.4Z" style="fill:#1EC28B"></path><path d="M106.51,334.13s.3-1.45,1-1.6a16,16,0,0,1,2.18-.14l-.72-.87-.59-.3a1.77,1.77,0,0,1,2.48.88,4.06,4.06,0,0,1,3.34-.44l-2.18.87a1.91,1.91,0,0,1,1.74.44,7.29,7.29,0,0,1,1.46,1.74l-2-.58s.73.87.73,1.31a4.17,4.17,0,0,1-.29,1.16s-.73-1-1.16-1.16l-.44-.14-.44,1.3-.4-.29v8.15h-.65v-8.65l-.11-.08-1,1-.14-1.6a1.6,1.6,0,0,0-1,.73l-.29.58a1.42,1.42,0,0,1-.44-1.6,3.16,3.16,0,0,1,.87-1.16h-1.16Z" style="fill:#1EC28B"></path><path d="M100,336.13s.23-1.17.82-1.29a12.21,12.21,0,0,1,1.76-.12L102,334l-.47-.24a1.42,1.42,0,0,1,2,.71,3.05,3.05,0,0,1,1.29-.47,2.88,2.88,0,0,1,1.4.12l-1.76.7a1.57,1.57,0,0,1,1.41.35,5.73,5.73,0,0,1,1.17,1.41l-1.64-.47s.59.7.59,1.05a3.29,3.29,0,0,1-.24.94s-.58-.82-.93-.94l-.36-.11-.35,1.05-.32-.24v6.58h-.53v-7l-.09-.06-.82.82-.11-1.29a1.27,1.27,0,0,0-.82.59l-.24.47a1.14,1.14,0,0,1-.35-1.29,2.45,2.45,0,0,1,.7-.94h-.93Z" style="fill:#1EC28B"></path><path d="M146,334.13s-.29-1.45-1-1.6a16,16,0,0,0-2.18-.14l.72-.87.58-.3a1.75,1.75,0,0,0-2.47.88,4.06,4.06,0,0,0-3.34-.44l2.18.87a1.91,1.91,0,0,0-1.74.44,7.29,7.29,0,0,0-1.46,1.74l2-.58s-.73.87-.73,1.31a4.17,4.17,0,0,0,.29,1.16s.73-1,1.16-1.16l.44-.14.44,1.3.39-.29v8.15H142v-8.65l.11-.08,1,1,.14-1.6a1.6,1.6,0,0,1,1,.73l.29.58a1.42,1.42,0,0,0,.44-1.6,3.1,3.1,0,0,0-.88-1.16h1.17Z" style="fill:#1EC28B"></path><path d="M65.67,357.67H281l-.15-.3a23.58,23.58,0,0,0-21.1-13H87.14a23.58,23.58,0,0,0-19.78,10.74Z" style="fill:#fff;stroke:#263238;stroke-linecap:round;stroke-miterlimit:10"></path></g><g id="freepik--Chairs--inject-2"><path d="M340.52,459a16.53,16.53,0,0,1,32.71,0h3a19.53,19.53,0,0,0-38.77,0Z" style="fill:#fff;stroke:#263238;stroke-linecap:round;stroke-linejoin:round"></path><path d="M388.86,459a16.53,16.53,0,0,1,32.7,0h3a19.53,19.53,0,0,0-38.77,0Z" style="fill:#ababab;stroke:#263238;stroke-linecap:round;stroke-linejoin:round"></path><path d="M413.7,435.67H369.36c-1.65,0-2.42-1.35-1.71-3l36.45-85a5.15,5.15,0,0,1,4.28-3h44.34c1.66,0,2.42,1.34,1.71,3l-36.45,85A5.17,5.17,0,0,1,413.7,435.67Z" style="fill:#1EC28B;stroke:#263238;stroke-linecap:round;stroke-linejoin:round"></path><path d="M411.65,432.67H374c-1.65,0-2.42-1.35-1.71-3l33.88-79a5.14,5.14,0,0,1,4.28-3H448.1c1.66,0,2.42,1.34,1.71,3l-33.87,79A5.17,5.17,0,0,1,411.65,432.67Z" style="fill:#fff;stroke:#263238;stroke-linecap:round;stroke-linejoin:round"></path><line x1="405.95" y1="352.67" x2="448.95" y2="352.67" style="fill:none;stroke:#263238;stroke-linecap:round;stroke-linejoin:round"></line><line x1="403.81" y1="357.67" x2="446.81" y2="357.67" style="fill:none;stroke:#263238;stroke-linecap:round;stroke-linejoin:round"></line><line x1="401.67" y1="362.67" x2="444.67" y2="362.67" style="fill:none;stroke:#263238;stroke-linecap:round;stroke-linejoin:round"></line><line x1="399.52" y1="367.67" x2="442.52" y2="367.67" style="fill:none;stroke:#263238;stroke-linecap:round;stroke-linejoin:round"></line><line x1="397.38" y1="372.67" x2="440.38" y2="372.67" style="fill:none;stroke:#263238;stroke-linecap:round;stroke-linejoin:round"></line><line x1="395.23" y1="377.67" x2="438.23" y2="377.67" style="fill:none;stroke:#263238;stroke-linecap:round;stroke-linejoin:round"></line><line x1="393.09" y1="382.67" x2="436.09" y2="382.67" style="fill:none;stroke:#263238;stroke-linecap:round;stroke-linejoin:round"></line><line x1="390.95" y1="387.67" x2="433.95" y2="387.67" style="fill:none;stroke:#263238;stroke-linecap:round;stroke-linejoin:round"></line><line x1="388.8" y1="392.67" x2="431.8" y2="392.67" style="fill:none;stroke:#263238;stroke-linecap:round;stroke-linejoin:round"></line><line x1="386.66" y1="397.67" x2="429.66" y2="397.67" style="fill:none;stroke:#263238;stroke-linecap:round;stroke-linejoin:round"></line><line x1="384.51" y1="402.67" x2="427.51" y2="402.67" style="fill:none;stroke:#263238;stroke-linecap:round;stroke-linejoin:round"></line><line x1="382.37" y1="407.67" x2="425.37" y2="407.67" style="fill:none;stroke:#263238;stroke-linecap:round;stroke-linejoin:round"></line><line x1="380.23" y1="412.67" x2="423.23" y2="412.67" style="fill:none;stroke:#263238;stroke-linecap:round;stroke-linejoin:round"></line><line x1="421.08" y1="417.67" x2="378.08" y2="417.67" style="fill:none;stroke:#263238;stroke-linecap:round;stroke-linejoin:round"></line><line x1="375.94" y1="422.67" x2="418.94" y2="422.67" style="fill:none;stroke:#263238;stroke-linecap:round;stroke-linejoin:round"></line><line x1="373.79" y1="427.67" x2="416.79" y2="427.67" style="fill:none;stroke:#263238;stroke-linecap:round;stroke-linejoin:round"></line><rect x="275.87" y="435.67" width="141" height="5" style="fill:#1EC28B;stroke:#263238;stroke-linecap:round;stroke-linejoin:round"></rect><rect x="365.54" y="435.67" width="51.33" height="5" style="fill:#fff;stroke:#263238;stroke-linecap:round;stroke-linejoin:round"></rect><path d="M274.82,459l7.31-15.61H416.21a1.5,1.5,0,0,0,0-3h-135a1.49,1.49,0,0,0-1.34.82L271.52,459Z" style="fill:#fff;stroke:#263238;stroke-linecap:round;stroke-linejoin:round"></path><path d="M434.54,438.5a1.5,1.5,0,0,1-1.36-.87l-12.1-26.13H383.39l11.51,24.87a1.5,1.5,0,1,1-2.72,1.26l-12.5-27A1.5,1.5,0,0,1,381,408.5h41a1.49,1.49,0,0,1,1.36.87l12.5,27a1.5,1.5,0,0,1-.73,2A1.41,1.41,0,0,1,434.54,438.5Z" style="fill:#fff;stroke:#263238;stroke-linecap:round;stroke-linejoin:round"></path><path d="M382.71,459V444.17a4.67,4.67,0,0,1,4.66-4.67h47.34a4.67,4.67,0,0,1,4.66,4.67V459h3V444.17a7.67,7.67,0,0,0-7.66-7.67H387.37a7.68,7.68,0,0,0-7.66,7.67V459Z" style="fill:#fff;stroke:#263238;stroke-linecap:round;stroke-linejoin:round"></path><path d="M164,459a16.53,16.53,0,0,1,32.7,0h3a19.53,19.53,0,0,0-38.77,0Z" style="fill:#fff;stroke:#263238;stroke-linecap:round;stroke-linejoin:round"></path><path d="M212.28,459a16.53,16.53,0,0,1,32.7,0h3a19.53,19.53,0,0,0-38.77,0Z" style="fill:#ababab;stroke:#263238;stroke-linecap:round;stroke-linejoin:round"></path><path d="M237.12,435.67H192.79c-1.66,0-2.43-1.35-1.72-3l36.45-85a5.15,5.15,0,0,1,4.29-3h44.33c1.66,0,2.43,1.34,1.71,3l-36.44,85A5.17,5.17,0,0,1,237.12,435.67Z" style="fill:#1EC28B;stroke:#263238;stroke-linecap:round;stroke-linejoin:round"></path><path d="M235.07,432.67H197.41c-1.66,0-2.43-1.35-1.72-3l33.88-79a5.15,5.15,0,0,1,4.28-3h37.67c1.66,0,2.43,1.34,1.72,3l-33.88,79A5.17,5.17,0,0,1,235.07,432.67Z" style="fill:#fff;stroke:#263238;stroke-linecap:round;stroke-linejoin:round"></path><line x1="229.38" y1="352.67" x2="272.38" y2="352.67" style="fill:none;stroke:#263238;stroke-linecap:round;stroke-linejoin:round"></line><line x1="227.23" y1="357.67" x2="270.23" y2="357.67" style="fill:none;stroke:#263238;stroke-linecap:round;stroke-linejoin:round"></line><line x1="225.09" y1="362.67" x2="268.09" y2="362.67" style="fill:none;stroke:#263238;stroke-linecap:round;stroke-linejoin:round"></line><line x1="222.95" y1="367.67" x2="265.95" y2="367.67" style="fill:none;stroke:#263238;stroke-linecap:round;stroke-linejoin:round"></line><line x1="220.8" y1="372.67" x2="263.8" y2="372.67" style="fill:none;stroke:#263238;stroke-linecap:round;stroke-linejoin:round"></line><line x1="218.66" y1="377.67" x2="261.66" y2="377.67" style="fill:none;stroke:#263238;stroke-linecap:round;stroke-linejoin:round"></line><line x1="216.51" y1="382.67" x2="259.51" y2="382.67" style="fill:none;stroke:#263238;stroke-linecap:round;stroke-linejoin:round"></line><line x1="214.37" y1="387.67" x2="257.37" y2="387.67" style="fill:none;stroke:#263238;stroke-linecap:round;stroke-linejoin:round"></line><line x1="212.23" y1="392.67" x2="255.23" y2="392.67" style="fill:none;stroke:#263238;stroke-linecap:round;stroke-linejoin:round"></line><line x1="210.08" y1="397.67" x2="253.08" y2="397.67" style="fill:none;stroke:#263238;stroke-linecap:round;stroke-linejoin:round"></line><line x1="207.94" y1="402.67" x2="250.94" y2="402.67" style="fill:none;stroke:#263238;stroke-linecap:round;stroke-linejoin:round"></line><line x1="205.79" y1="407.67" x2="248.79" y2="407.67" style="fill:none;stroke:#263238;stroke-linecap:round;stroke-linejoin:round"></line><line x1="203.65" y1="412.67" x2="246.65" y2="412.67" style="fill:none;stroke:#263238;stroke-linecap:round;stroke-linejoin:round"></line><line x1="244.51" y1="417.67" x2="201.51" y2="417.67" style="fill:none;stroke:#263238;stroke-linecap:round;stroke-linejoin:round"></line><line x1="199.36" y1="422.67" x2="242.36" y2="422.67" style="fill:none;stroke:#263238;stroke-linecap:round;stroke-linejoin:round"></line><line x1="197.22" y1="427.67" x2="240.22" y2="427.67" style="fill:none;stroke:#263238;stroke-linecap:round;stroke-linejoin:round"></line><rect x="99.3" y="435.67" width="141" height="5" style="fill:#1EC28B;stroke:#263238;stroke-linecap:round;stroke-linejoin:round"></rect><rect x="188.96" y="435.67" width="51.33" height="5" style="fill:#fff;stroke:#263238;stroke-linecap:round;stroke-linejoin:round"></rect><path d="M98.25,459l7.3-15.61H239.63a1.5,1.5,0,1,0,0-3h-135a1.5,1.5,0,0,0-1.34.82L94.94,459Z" style="fill:#fff;stroke:#263238;stroke-linecap:round;stroke-linejoin:round"></path><path d="M258,438.5a1.51,1.51,0,0,1-1.37-.87L244.51,411.5h-37.7l11.52,24.87a1.5,1.5,0,0,1-2.73,1.26l-12.5-27a1.5,1.5,0,0,1,1.36-2.13h41a1.51,1.51,0,0,1,1.37.87l12.5,27a1.5,1.5,0,0,1-.74,2A1.37,1.37,0,0,1,258,438.5Z" style="fill:#fff;stroke:#263238;stroke-linecap:round;stroke-linejoin:round"></path><path d="M206.13,459V444.17a4.67,4.67,0,0,1,4.67-4.67h47.33a4.68,4.68,0,0,1,4.67,4.67V459h3V444.17a7.68,7.68,0,0,0-7.67-7.67H210.8a7.68,7.68,0,0,0-7.67,7.67V459Z" style="fill:#fff;stroke:#263238;stroke-linecap:round;stroke-linejoin:round"></path><path d="M66.39,461.71s10.69-1.61,21.27-2.19,9.82-1.09,18-.54,26.74,6,42.56,6S182,466.62,188,466.62s45.28,3.81,45.28,3.81" style="fill:#fff;stroke:#263238;stroke-linecap:round;stroke-linejoin:round"></path><path d="M179.86,460.61c5.45,0,14.77-3.29,35.92-1.15,16.62,1.68,23.41-.54,29.2-.51s12.5.54,19,.24c6.65-.3,12.69.1,16.86,0,3.77-.08,9.24,1.42,12,1.42" style="fill:#fff;stroke:#263238;stroke-linecap:round;stroke-linejoin:round"></path><path d="M344.71,460.61c5.45,0,14.78-3.29,35.92-1.15,16.62,1.68,23.41-.54,29.2-.51s12.5.54,19,.24c6.65-.3,12.69.1,16.86,0,3.77-.08,9.24,1.42,12,1.42" style="fill:#fff;stroke:#263238;stroke-linecap:round;stroke-linejoin:round"></path></g><g id="freepik--Characters--inject-2"><path d="M428.46,468.08c0,2-27.51,3.55-61.44,3.55s-61.44-1.59-61.44-3.55,27.51-3.56,61.44-3.56S428.46,466.12,428.46,468.08Z" style="fill:#263238;stroke:#263238;stroke-linecap:round;stroke-linejoin:round"></path><path d="M303.85,398.15l1.23,8s-3.69,14.15-3.28,20.52,4.51,22.15,5.33,26.87-.41,11.7,1.23,13.34,5.13,1,7,0,1-5.34.41-8-1.85-2.47-1.85-6.16,2.26-21.75,3.29-30.36a137.28,137.28,0,0,0,1.23-17c0-3.9.2-7.18.2-7.18Z" style="fill:#fff;stroke:#263238;stroke-linecap:round;stroke-linejoin:round"></path><path d="M303.85,398.15l.72,4.64a22,22,0,0,0,7,1.81,37.4,37.4,0,0,0,5.64,0l1,6.66c.14-2.31.18-4.18.18-5.93,0-3.9.2-7.18.2-7.18Z" style="fill:#263238;stroke:#263238;stroke-linecap:round;stroke-linejoin:round"></path><path d="M322.11,398.35s-1.64,6.16-1,10.88.21,10.66-.2,17.85a164.86,164.86,0,0,0-.21,17.23c.21,6.36-1,15.39-1.23,18.67s0,4.51,3.29,4.92,5.74,0,5.95-2-1-11.08-.82-15,5.12-17.24,7.38-25.24.82-19.08.82-19.7v-6.77Z" style="fill:#fff;stroke:#263238;stroke-linecap:round;stroke-linejoin:round"></path><path d="M336.06,405.94v-6.77l-13.95-.82a40.08,40.08,0,0,0-1.12,7.17,8.91,8.91,0,0,0,2.66.84c3.31.58,10.13,0,10.13,0a47,47,0,0,1,1.56,6.81,27.22,27.22,0,0,0,1.07,4.9A82.7,82.7,0,0,0,336.06,405.94Z" style="fill:#263238;stroke:#263238;stroke-linecap:round;stroke-linejoin:round"></path><path d="M286.62,376.19s2.87,5.54,3.48,5.95a25.39,25.39,0,0,0,4.31,1,18.45,18.45,0,0,0,.41-3.28c0-1.44,2.47-13.34.62-12.72s-4.31,4.3-5.34,5.74S287,373.73,286.62,376.19Z" style="fill:#fff;stroke:#263238;stroke-linecap:round;stroke-linejoin:round"></path><path d="M290.1,361.83s-.2,5.54-.82,7-3.89,5.95-2.66,7.38,4.3,4.72,4.3,4.72l2.88-.41s.61-1.84-.21-2.25a7.28,7.28,0,0,1-2.67-2.88,4,4,0,0,1,1.44-3.28,8.17,8.17,0,0,0,3.08-4.92,32.69,32.69,0,0,0,.2-5.95Z" style="fill:#fff;stroke:#263238;stroke-linecap:round;stroke-linejoin:round"></path><path d="M315.5,285.17s-16.67,7-18.67,8.16-2.83,9.5-2.5,12.34S295,333,295,336.33s-3.83,13.84-6,18.17-2.33,5.83-2.33,5.83,3,2.84,4.33,3.84a11.35,11.35,0,0,0,3.67,1.5s-1.34,10.33-.84,15.5.5,9.33.5,11.16.17,4.17.17,4.17a34.81,34.81,0,0,0,10.17,4.17c5.83,1.33,12.5-.67,13.66-.67s6.5,3.17,11.5,3.33,12.5-2.33,12.5-2.33l2.67-2.17s-1-32.16-1-41.83,4.5-41.83,3.33-54.33-4.33-14.5-10.5-16.84S315.5,285.17,315.5,285.17Z" style="fill:#1EC28B;stroke:#263238;stroke-linecap:round;stroke-linejoin:round"></path><path d="M322.5,333.33a17.32,17.32,0,0,1-3.67-8.33" style="fill:none;stroke:#263238;stroke-linecap:round;stroke-linejoin:round"></path><path d="M329.83,333a30.57,30.57,0,0,0,3-8.5" style="fill:none;stroke:#263238;stroke-linecap:round;stroke-linejoin:round"></path><path d="M308.67,337.17s10,4.66,18.83,4.16" style="fill:none;stroke:#263238;stroke-linecap:round;stroke-linejoin:round"></path><path d="M319,342.67a25.4,25.4,0,0,0,12.17,0" style="fill:none;stroke:#263238;stroke-linecap:round;stroke-linejoin:round"></path><path d="M306,370.55a23.32,23.32,0,0,0,6.38,1.28c7.34.34,12.84.17,13.5.34s8.34,4,15.17,2.33" style="fill:none;stroke:#263238;stroke-linecap:round;stroke-linejoin:round"></path><path d="M298,366.67a31.2,31.2,0,0,0,3,1.75" style="fill:none;stroke:#263238;stroke-linecap:round;stroke-linejoin:round"></path><path d="M317.33,378.17s-7.83,7-11.33,8.33" style="fill:none;stroke:#263238;stroke-linecap:round;stroke-linejoin:round"></path><path d="M308.17,382.5s-5.17,3.67-8.84,5" style="fill:none;stroke:#263238;stroke-linecap:round;stroke-linejoin:round"></path><path d="M326.5,376.17S321,381,317.33,383" style="fill:none;stroke:#263238;stroke-linecap:round;stroke-linejoin:round"></path><path d="M320.18,391.06c-.38.75-.72,1.46-1,2.11" style="fill:none;stroke:#263238;stroke-linecap:round;stroke-linejoin:round"></path><path d="M327.17,378.5s-2.94,4.92-5.46,9.61" style="fill:none;stroke:#263238;stroke-linecap:round;stroke-linejoin:round"></path><path d="M294.67,365.67A42.7,42.7,0,0,1,299,349.5c4.17-8.5,7.17-14.83,7.17-14.83" style="fill:none;stroke:#263238;stroke-linecap:round;stroke-linejoin:round"></path><path d="M306.5,323.83s-4.67-13.83-4.67-19" style="fill:none;stroke:#263238;stroke-linecap:round;stroke-linejoin:round"></path><path d="M295.67,339.17s1,2.5,6.5,3" style="fill:none;stroke:#263238;stroke-linecap:round;stroke-linejoin:round"></path><path d="M312.5,277.33s-2.5,15-3.17,21.84a92.29,92.29,0,0,0-.16,13.66l13,1.84,2-6.67.16,6.83h3.84a35.31,35.31,0,0,0,6.83-.66l-.33-20,.66,3.66,2.5-.33-2.5-16.17Z" style="fill:#263238;stroke:#263238;stroke-linecap:round;stroke-linejoin:round"></path><path d="M332.74,240.14c-4.82.94-9.77.42-14.64.87-6,.56-11.52,4.66-14.54,9.76-3.39,5.71-2,13.06-.23,19.06,2.84,9.67,12.84,16.5,24.67,16.67s17.33-3.5,21.67-15.5c2.48-6.88,4-15.26.85-22.2a16.13,16.13,0,0,0-8.3-8C338.8,239.31,335.94,239.52,332.74,240.14Z" style="fill:#fff;stroke:#263238;stroke-linecap:round;stroke-linejoin:round"></path><path d="M331.7,244.22c-4,.77-8,.35-12,.72-4.93.46-9.48,3.83-12,8-2.78,4.69-1.63,10.74-.18,15.67,2.33,7.95,10.55,13.57,20.27,13.7s14.25-2.87,17.81-12.74c2.05-5.66,3.3-12.54.7-18.24a13.27,13.27,0,0,0-6.82-6.6A12.24,12.24,0,0,0,331.7,244.22Z" style="fill:none;stroke:#1EC28B;stroke-linecap:round;stroke-linejoin:round;stroke-width:2px"></path><path d="M330.64,248.38c-3.09.6-6.26.27-9.38.56a12.74,12.74,0,0,0-9.32,6.25c-2.17,3.66-1.27,8.37-.14,12.22,1.81,6.2,8.22,10.57,15.8,10.68s11.11-2.24,13.89-9.93c1.59-4.41,2.57-9.78.54-14.23a10.28,10.28,0,0,0-5.32-5.13A9.47,9.47,0,0,0,330.64,248.38Z" style="fill:none;stroke:#1EC28B;stroke-linecap:round;stroke-linejoin:round;stroke-width:2px"></path><path d="M314.5,256.33s-.83,5,.17,8.34,7,8,12.33,8.5,9.83-1.67,11.67-6.17,1.5-11,1.5-11-1.84-5.5-10.17-5.5S316.83,250.67,314.5,256.33Z" style="fill:#263238;stroke:#263238;stroke-linecap:round;stroke-linejoin:round"></path><path d="M324.83,246.5s-6.83.67-8.83,4.67-1.17,7.83.83,11.16,8.17,6.34,12.67,6,8-2.66,9.5-6.5,2.17-8.83-2.17-13.5S324.83,246.5,324.83,246.5Z" style="fill:#fff;stroke:#263238;stroke-linecap:round;stroke-linejoin:round"></path><path d="M325.64,249.67s-4.77.47-6.17,3.26a7.77,7.77,0,0,0,.58,7.79c1.4,2.33,5.7,4.42,8.85,4.19a7.32,7.32,0,0,0,6.63-4.54c1-2.67,1.51-6.16-1.52-9.42S325.64,249.67,325.64,249.67Z" style="fill:none;stroke:#1EC28B;stroke-linecap:round;stroke-linejoin:round;stroke-width:2px"></path><path d="M326.69,253.83s-2.06.2-2.67,1.41a3.39,3.39,0,0,0,.25,3.38,4.79,4.79,0,0,0,3.83,1.81,3.19,3.19,0,0,0,2.88-2,3.65,3.65,0,0,0-.66-4.08C329,253,326.69,253.83,326.69,253.83Z" style="fill:none;stroke:#1EC28B;stroke-linecap:round;stroke-linejoin:round;stroke-width:2px"></path><path d="M346.12,400.81l1.43,10.47s-.41,14.56,1,20.92,6.15,27.09,6.15,27.09a63.44,63.44,0,0,0-6,3.9c-3.69,2.66-4.31,2.87-3.69,3.48s10.05,2.47,12.72,2.67,4.72,1,4.92-2-1.84-10.67-1.84-12.93,2.05-24.82,2.05-32.21-2.05-22.36-2.05-22.36Z" style="fill:#fff;stroke:#263238;stroke-linecap:round;stroke-linejoin:round"></path><path d="M360.89,399.79l-14.77,1,.66,4.85a22.36,22.36,0,0,0,6.19,1.61,25.85,25.85,0,0,0,6.42-.17s.82-.16,1.81,3.46a45.66,45.66,0,0,1,1.48,7.56c0,.09,0,.09.12,0C362.34,410.39,360.89,399.79,360.89,399.79Z" style="fill:#263238;stroke:#263238;stroke-linecap:round;stroke-linejoin:round"></path><path d="M366.84,404.71s.82,4.72,2.05,7,2.67,3.28,2.87,7.18a115.7,115.7,0,0,0,4.52,21.54,110.84,110.84,0,0,1,4.1,16.62c.2,2.05,0,3.9,1,5.54a10,10,0,0,1,1,5.13c0,1.23,3.49,1.64,5.34,1.64s3.48-3.08,3.07-5.13-3.9-4.72-3.9-8.21,2.67-25.85.83-33-5.54-14.36-5.54-15.59a39.61,39.61,0,0,0-.62-4.51Z" style="fill:#fff;stroke:#263238;stroke-linecap:round;stroke-linejoin:round"></path><path d="M380.6,409.73s2.3,3.29,3.78,5.27c.49.65,1,1.4,1.55,2.14-1.77-4.86-3.7-8.87-3.7-9.76a39.61,39.61,0,0,0-.62-4.51l-14.77,1.84a41,41,0,0,0,1.21,5,20.06,20.06,0,0,0,5.15.57C378.79,410.23,380.6,409.73,380.6,409.73Z" style="fill:#263238;stroke:#263238;stroke-linecap:round;stroke-linejoin:round"></path><path d="M397.23,335.18S393.17,349,391,353.85a30,30,0,0,0-2.44,7s.82,5.42,0,8.12-5.95,6.5-5.95,6.5l1.05-39.74Z" style="fill:#fff;stroke:#263238;stroke-linecap:round;stroke-linejoin:round"></path><path d="M394.5,281s3.93,1.64,5.17,13.95-.42,28.72-.42,31a33.64,33.64,0,0,1-.41,4.72s0,2.25-4.3,3.07a21.17,21.17,0,0,1-8.62-.41s5.74-16,6.56-26.26,1.44-19.29.41-23.39S394.5,281,394.5,281Z" style="fill:#fff;stroke:#263238;stroke-linecap:round;stroke-linejoin:round"></path><path d="M386.94,329.41h5.54c4.72,0,6.36-1.84,7.19-1.23s.2,5.75-.62,7.59-3.9,2.67-8.62,2.06-6.77-1.44-6.77-2.06S386.94,329.41,386.94,329.41Z" style="fill:#fff;stroke:#263238;stroke-linecap:round;stroke-linejoin:round"></path><path d="M342.22,349.52s-3.29,12.93-3.49,22.78,1.64,29.95,1.64,29.95a48.79,48.79,0,0,0,9.85,2.05c4.92.41,11.69-1.23,11.69-1.23l.62,2.46A45.85,45.85,0,0,0,375,407.38a39.36,39.36,0,0,0,11.7-2.67s-1.85-29.13-1.64-31,4.1-13.33,1.23-22.36C386.33,351.37,362.12,355.88,342.22,349.52Z" style="fill:#263238;stroke:#263238;stroke-linecap:round;stroke-linejoin:round"></path><line x1="362.53" y1="373.94" x2="361.91" y2="403.07" style="fill:#fff;stroke:#6b6b6b;stroke-linecap:round;stroke-linejoin:round"></line><path d="M356,371.06s5.54,3.08,8.83,3.29,8.41.41,8.41.41" style="fill:none;stroke:#6b6b6b;stroke-linecap:round;stroke-linejoin:round"></path><path d="M362.8,279s-12.55,4-14.05,7.78-1,41.75-3,48-4.5,15.5-4.5,15.5,2.25,5.5,14,7.5,19.5,2,26.25-.5,8.25-3.25,8.25-3.25-3-11.5-2.75-15.5,10.5-33.75,10.5-41.25-1-14.25-3-16.25-9.21-2.44-15-2.6S365.11,277.18,362.8,279Z" style="fill:#fff;stroke:#263238;stroke-linecap:round;stroke-linejoin:round"></path><path d="M379.84,309.74a44.51,44.51,0,0,1-1.31,8.18,101.31,101.31,0,0,1-4.72,13.55" style="fill:none;stroke:#263238;stroke-linecap:round;stroke-linejoin:round"></path><path d="M380,300.69s.09,1.5.08,3.79" style="fill:none;stroke:#263238;stroke-linecap:round;stroke-linejoin:round"></path><path d="M379.35,327.36s-3.89,6.77-6.77,8.41" style="fill:none;stroke:#263238;stroke-linecap:round;stroke-linejoin:round"></path><path d="M358.17,248.34s-.7,5.62-1.27,7.59a14.82,14.82,0,0,0,1.13,9.55c1.68,2.95,2.25,4.78,3,5.2a12.67,12.67,0,0,0,2.53.84L362.8,279s1.55.42,7.87,1.26,8.85-1.83,8.85-1.83a29.07,29.07,0,0,1-1.12-9.55c.42-4.49.7-8.15.7-8.15s-6.74.42-11.1-7.58S359.71,246.37,358.17,248.34Z" style="fill:#fff;stroke:#263238;stroke-miterlimit:10"></path><path d="M360.42,243.42s-7.45,3.94-5.48,4.5,3.93.7,3.65,1.12-1.69,2.67-.56,3.8,1.82,1.4,1.82,2.24a6.66,6.66,0,0,0,.57,2.11s.56-3.09,1.54-.14,2.81,7.59,5.9,9.83,5.48,3.38,8.43,1.27,3.93-3.79,6.6-11.24,4.08-10.82.42-16.44-6.32-5.62-6.32-5.62-2.53-4.77-3.37-5.47-1.4,1.4-1.12,2.24-5.9-.42-6.89.42,2.39,3.1,2.39,3.1-6.32-1.13-9.69,1.12-5.06,4.07-3.65,4.78S360.42,243.42,360.42,243.42Z" style="fill:#263238;stroke:#263238;stroke-miterlimit:10"></path><path d="M360.56,256.35a10.53,10.53,0,0,1-.28,4.49c-.71,2-.28,3.23,1.54,2.81s2.11-6,1.55-7.72S361.4,254,360.56,256.35Z" style="fill:#fff;stroke:#263238;stroke-miterlimit:10"></path><line x1="360.42" y1="255.36" x2="354.24" y2="251.15" style="fill:none;stroke:#263238;stroke-linecap:round;stroke-linejoin:round"></line><path d="M357.75,251h-2.81a6.88,6.88,0,0,0,0,4.35c.84,1.83,2,.57,2,.57" style="fill:none;stroke:#263238;stroke-linecap:round;stroke-linejoin:round"></path><path d="M349.81,330.65s16.21,7.79,18.67,8.41,11.28.82,11.28.82,1.44-3.08,2.47-3.69,3.48-.21,4.1-.62,1-.41,1,.41-1.64,1.23-1.64,1.23l3.49-.82a2,2,0,0,1,0,2.05c-.61,1.23,0,2.46-.61,3.9s-1.85,2.67-4.93,3.08a68.86,68.86,0,0,1-7.38.41s-13.14-1.23-18.67-2.67-9.44-5.74-9.65-6.36A4.74,4.74,0,0,1,349.81,330.65Z" style="fill:#fff;stroke:#263238;stroke-linecap:round;stroke-linejoin:round"></path><path d="M372.38,339.26a23.69,23.69,0,0,1-4.52,9.85c-3.48,4.1-11.49,8.62-11.49,8.62a85.57,85.57,0,0,1-6.15-10.47c-2.05-4.51-6.57-14.15-6.57-14.15L348,328.8s13.75,6.56,14.36,6.77S369.71,338.85,372.38,339.26Z" style="fill:#1EC28B;stroke:#263238;stroke-linecap:round;stroke-linejoin:round"></path><path d="M356.75,283.25s-5.5-1.5-9,3-5.5,17-5.5,24-1,16.25-1,16.25l9.25,9.25,1.5,2.75a169.5,169.5,0,0,1,3.5-19.5,119.75,119.75,0,0,0,3-19.5" style="fill:#fff;stroke:#263238;stroke-linecap:round;stroke-linejoin:round"></path><path d="M337.25,330.25s-13.75,1-16.25,1a21.35,21.35,0,0,1-3.75-.25,15.92,15.92,0,0,1-4.5-4c-1.5-2.25-2.25-2.25-4.5-3s-2.87.55-2.87.55l-.63,1.2s-1,.14-1,1.64,1,1.61,1,1.61-.5,2.75.5,4.25,2.75,1.25,5.75,2.5a78.64,78.64,0,0,0,13,3.5c5,1,12.75,3.75,17.25,3.75s8.25-1,8.5-2.75S346,327.5,337.25,330.25Z" style="fill:#fff;stroke:#263238;stroke-linecap:round;stroke-linejoin:round"></path><path d="M304.75,325.75a7.69,7.69,0,0,1,2.22-.52,10.65,10.65,0,0,1,2.38.46" style="fill:none;stroke:#263238;stroke-linecap:round;stroke-linejoin:round"></path><path d="M339.75,325.25l-2.5,5s6.25.5,7.75,2.75,3.25,9.5,4.75,9,4-4,4-8-1.75-6-5-7.75S341.25,323.75,339.75,325.25Z" style="fill:#fff;stroke:#263238;stroke-linecap:round;stroke-linejoin:round"></path></g></svg>