<svg width="402" height="392" viewBox="0 0 402 392" fill="none" xmlns="http://www.w3.org/2000/svg">
<path d="M288.737 265.306C336.433 217.609 336.433 140.278 288.737 92.5819C241.041 44.8856 163.71 44.8856 116.013 92.5819C68.3171 140.278 68.3171 217.609 116.013 265.306C163.71 313.002 241.041 313.002 288.737 265.306Z" fill="#263238"/>
<path d="M202.419 301.524C134.826 301.524 79.8412 246.53 79.8412 178.946C79.8412 111.362 134.782 56.3589 202.419 56.3589C270.056 56.3589 324.944 111.353 324.944 178.946C324.944 246.538 269.967 301.524 202.419 301.524ZM202.419 57.2467C135.315 57.2467 80.729 111.841 80.729 178.946C80.729 246.05 135.27 300.636 202.419 300.636C269.568 300.636 324.056 246.041 324.056 178.946C324.056 111.85 269.47 57.2467 202.419 57.2467V57.2467Z" fill="#263238"/>
<path d="M288.74 261.66C336.437 213.963 336.437 136.632 288.74 88.9361C241.044 41.2398 163.713 41.2398 116.017 88.9361C68.3205 136.632 68.3205 213.963 116.017 261.66C163.713 309.356 241.044 309.356 288.74 261.66Z" fill="white"/>
<path d="M202.419 297.874C134.826 297.874 79.8412 242.889 79.8412 175.296C79.8412 107.704 134.782 52.7185 202.419 52.7185C270.056 52.7185 324.944 107.704 324.944 175.296C324.944 242.889 269.967 297.874 202.419 297.874ZM202.419 53.6064C135.315 53.6064 80.729 108.192 80.729 175.296C80.729 242.401 135.27 296.987 202.419 296.987C269.568 296.987 324.056 242.392 324.056 175.296C324.056 108.201 269.47 53.6064 202.419 53.6064Z" fill="#263238"/>
<path d="M265.332 241.901C300.102 207.131 300.102 150.757 265.332 115.987C230.562 81.2166 174.188 81.2166 139.418 115.987C104.648 150.757 104.648 207.131 139.418 241.901C174.188 276.671 230.562 276.671 265.332 241.901Z" fill="white"/>
<path d="M202.419 268.415C184.719 268.426 167.414 263.187 152.692 253.361C137.97 243.535 126.493 229.563 119.713 213.214C112.933 196.864 111.154 178.871 114.601 161.51C118.048 144.149 126.567 128.2 139.079 115.682C151.592 103.163 167.536 94.6363 184.895 91.1804C202.255 87.7245 220.249 89.4947 236.602 96.2669C252.955 103.039 266.932 114.509 276.765 129.226C286.598 143.943 291.846 161.246 291.844 178.946C291.816 202.658 282.387 225.392 265.624 242.163C248.861 258.935 226.132 268.375 202.419 268.415V268.415ZM202.419 90.355C184.897 90.3533 167.768 95.5475 153.198 105.281C138.629 115.014 127.272 128.85 120.566 145.037C113.859 161.225 112.103 179.038 115.521 196.223C118.938 213.409 127.375 229.195 139.764 241.586C152.153 253.976 167.939 262.414 185.124 265.833C202.309 269.252 220.122 267.499 236.31 260.794C252.499 254.089 266.335 242.734 276.07 228.165C285.805 213.596 291.001 196.468 291.001 178.946C290.975 155.459 281.634 132.942 265.028 116.334C248.421 99.7262 225.905 90.3832 202.419 90.355V90.355Z" fill="#263238"/>
<path d="M237.845 105.653C211.44 96.5167 174.895 106.709 160.69 114.798C160.69 114.798 121.073 135.112 117.016 174.719C112.958 214.327 142.373 251.91 196.204 262.085C250.035 272.26 286.597 219.468 286.597 181.849C286.597 144.23 264.25 114.798 237.845 105.653ZM207.8 198.461C194.322 199.739 184.715 191.358 187.254 179.816C188.028 176.62 189.653 173.694 191.958 171.349C194.263 169.004 197.16 167.327 200.341 166.498C207.063 164.722 214.547 166.791 218.099 174.639C221.286 181.769 221.286 197.173 207.8 198.461Z" fill="#263238"/>
<path d="M236.779 102.474C210.374 93.3292 173.812 103.486 159.589 111.61C159.589 111.61 119.981 131.924 115.915 171.541C111.848 211.157 141.308 248.767 195.139 258.888C248.97 269.01 285.532 216.271 285.532 178.653C285.532 141.034 263.193 111.61 236.779 102.474ZM206.743 195.273C193.256 196.561 183.659 188.215 186.198 176.628C187.698 169.872 193.194 165.006 199.276 163.355C206.006 161.535 213.482 163.657 217.033 171.496C220.221 178.626 220.221 193.995 206.743 195.273Z" fill="#FD6D27"/>
<path d="M208.581 260.62C204.043 260.608 199.516 260.174 195.059 259.324C169.178 254.44 147.887 243.111 133.486 226.553C119.839 210.864 113.438 191.314 115.471 171.505C119.511 132.111 158.976 111.433 159.384 111.229C173.057 103.415 209.868 92.6901 236.93 102.066C265.812 112.037 285.975 143.547 285.975 178.626C285.975 201.506 272.951 227.68 253.56 243.751C243.749 251.91 228.575 260.62 208.581 260.62ZM212.851 99.278C191.401 99.278 169.621 106.381 159.811 112.001C159.402 112.214 120.345 132.679 116.359 171.585C112.097 213.164 144.522 248.882 195.218 258.454C221.65 263.434 241.227 252.851 252.991 243.094C272.196 227.183 285.088 201.284 285.088 178.653C285.088 143.92 265.164 112.765 236.637 102.892C228.962 100.382 220.925 99.1613 212.851 99.278V99.278ZM204.017 195.851C197.731 195.851 192.324 193.729 188.924 189.849C187.361 188.049 186.259 185.896 185.713 183.576C185.167 181.256 185.193 178.838 185.789 176.531C186.588 173.265 188.255 170.276 190.613 167.88C192.972 165.483 195.934 163.77 199.187 162.92C207 160.807 214.165 164.101 217.442 171.301C219.599 176.051 220.194 184.033 217.042 189.476C214.911 193.151 211.475 195.238 206.805 195.691V195.247V195.691C205.846 195.806 204.923 195.851 204.017 195.851ZM203.813 163.222C202.313 163.222 200.821 163.422 199.374 163.817C196.279 164.624 193.46 166.252 191.215 168.529C188.969 170.806 187.38 173.647 186.615 176.753C186.054 178.919 186.028 181.19 186.538 183.369C187.049 185.548 188.08 187.57 189.545 189.263C193.274 193.489 199.525 195.478 206.681 194.838C211.04 194.421 214.254 192.477 216.225 189.067C219.235 183.882 218.658 176.255 216.589 171.71C213.757 165.432 208.634 163.222 203.813 163.222V163.222Z" fill="#263238"/>
<path d="M281.856 177.303C275.437 165.761 274.149 161.89 274.149 152.905C274.149 143.92 269.017 134.26 264.516 131.081C260.015 127.903 256.818 125.301 249.751 118.234C242.684 111.166 233.059 108.609 225.361 109.888C217.664 111.166 213.819 111.175 204.168 109.888C194.517 108.601 194.544 106.043 185.523 109.249C176.502 112.454 159.234 118.252 159.234 118.252C159.234 118.252 140.589 125.958 137.401 134.304C134.214 142.65 136.123 158.063 133.557 164.491C130.991 170.919 123.923 168.336 127.129 183.136C130.334 197.937 135.474 206.221 135.474 213.324C135.474 220.426 147.017 233.229 157.307 233.229C167.597 233.229 174.638 235.156 184.271 242.854C193.904 250.552 201.602 253.126 213.801 246.707C226.001 240.288 240.766 240.927 247.185 240.288C253.604 239.649 261.95 229.376 264.516 220.382C267.082 211.388 277.363 210.758 280.568 201.737C281.598 198.851 282.753 196.508 283.649 194.261C284.253 191.656 284.721 189.022 285.052 186.368C284.629 183.157 283.541 180.069 281.856 177.303V177.303ZM220.86 176.655C216.367 179.869 221.508 188.854 215.089 195.922C208.67 202.989 208.67 195.273 206.743 195.273C203.833 195.577 200.892 195.376 198.051 194.679C195.192 194.235 192.351 193.444 190.69 192.068C186.837 188.854 184.271 186.928 179.148 186.288C174.025 185.649 178.509 180.508 181.723 175.376C184.937 170.245 185.576 170.236 186.216 164.465C186.855 158.694 195.84 158.045 195.84 158.045C195.84 158.045 199.693 156.119 207.382 158.045C215.071 159.972 213.162 163.817 219.581 165.148C226.001 166.48 225.361 173.45 220.86 176.655V176.655Z" fill="#263238"/>
<path d="M201.185 250.72C195.041 250.72 189.803 247.773 183.996 243.129C173.972 235.138 166.887 233.602 157.307 233.602C146.484 233.602 135.03 220.355 135.03 213.253C135.03 209.595 133.61 205.519 131.799 200.361C129.729 194.748 128.026 189.006 126.702 183.172C124.492 173.015 127.066 170.813 129.792 168.487C131.255 167.407 132.409 165.962 133.139 164.296C134.329 161.331 134.533 156.305 134.755 150.978C135.013 144.878 135.27 138.548 136.993 134.109C140.233 125.683 158.301 118.127 159.065 117.808C159.269 117.737 176.52 111.983 185.408 108.814C191.623 106.576 193.718 107.1 197.429 108.059C199.664 108.664 201.936 109.124 204.23 109.435C213.855 110.714 217.548 110.714 225.281 109.435C233.911 107.997 243.412 111.211 250.07 117.905C256.916 124.751 260.139 127.388 264.782 130.699C269.426 134.011 274.593 143.804 274.593 152.896C274.593 161.659 275.809 165.495 282.246 177.081C283.949 179.892 285.055 183.023 285.496 186.279C285.5 186.312 285.5 186.345 285.496 186.377C285.168 189.046 284.697 191.696 284.084 194.315C283.72 195.202 283.347 196.09 282.948 197.031C282.3 198.532 281.625 200.077 280.995 201.835C279.37 206.381 276.005 208.849 272.746 211.228C269.488 213.608 266.221 216.005 264.96 220.426C262.447 229.216 254.163 239.959 247.203 240.652C245.969 240.776 244.433 240.847 242.666 240.936C235.137 241.309 223.763 241.877 213.979 247.018C209.158 249.584 204.994 250.711 201.185 250.72ZM192.546 108.139C190.193 108.25 187.878 108.767 185.701 109.666C176.822 112.844 159.544 118.598 159.376 118.66C159.207 118.722 140.926 126.375 137.818 134.446C136.149 138.779 135.892 145.012 135.643 151.049C135.421 156.43 135.208 161.517 133.965 164.624C133.187 166.427 131.947 167.993 130.369 169.161C127.706 171.408 125.468 173.343 127.564 182.985C128.882 188.783 130.576 194.489 132.633 200.068C134.471 205.306 135.918 209.444 135.918 213.253C135.918 220.018 147.247 232.714 157.307 232.714C167.073 232.714 174.327 234.259 184.546 242.437C193.665 249.735 201.345 252.691 213.597 246.245C223.55 241.007 235.039 240.439 242.648 240.03C244.424 239.942 245.924 239.871 247.14 239.746C253.045 239.16 261.435 229.456 264.09 220.169C265.439 215.446 268.884 212.933 272.214 210.5C275.366 208.192 278.624 205.812 280.151 201.524C280.79 199.748 281.465 198.168 282.122 196.667C282.513 195.78 282.895 194.892 283.232 194.004C283.825 191.452 284.284 188.87 284.608 186.271C284.165 183.153 283.096 180.157 281.465 177.463V177.463C274.939 165.717 273.705 161.801 273.705 152.851C273.705 144.177 268.733 134.579 264.258 131.383C259.579 128.045 256.33 125.39 249.44 118.5C242.976 112.037 233.778 108.885 225.468 110.279C217.761 111.557 213.775 111.557 204.159 110.279C201.829 109.964 199.522 109.498 197.252 108.885C195.723 108.428 194.141 108.177 192.546 108.139V108.139ZM210.685 199.34H210.41C209.078 199.198 208.35 197.973 207.746 196.978C207.391 196.365 207.018 195.726 206.698 195.726C203.753 196.037 200.775 195.833 197.9 195.122C194.402 194.572 191.853 193.666 190.362 192.459C186.633 189.351 184.085 187.416 179.033 186.785C177.692 186.617 176.866 186.146 176.502 185.356C175.712 183.58 177.541 180.855 179.672 177.658C180.214 176.85 180.764 176.025 181.279 175.19C181.794 174.355 182.309 173.583 182.717 172.953C184.715 169.881 185.195 169.153 185.709 164.465C186.358 158.631 194.677 157.744 195.671 157.655C196.293 157.38 200.19 155.879 207.444 157.655C210.137 158.178 212.574 159.595 214.361 161.677C215.672 163.314 217.552 164.398 219.626 164.713C222.289 165.255 224.065 166.818 224.589 169.153C225.184 171.932 223.701 175.19 221.082 177.09C219.208 178.431 219.164 180.89 219.111 184.006C219.049 187.718 218.969 192.326 215.373 196.286C213.482 198.345 211.972 199.34 210.685 199.34V199.34ZM206.698 194.838C207.586 194.838 208.048 195.655 208.563 196.525C209.078 197.395 209.628 198.354 210.525 198.452C211.422 198.55 212.958 197.564 214.76 195.62C218.134 191.908 218.205 187.629 218.312 183.927C218.374 180.686 218.418 177.889 220.647 176.3C223.035 174.595 224.331 171.71 223.808 169.268C223.39 167.332 221.872 166.01 219.537 165.539C217.284 165.188 215.24 164.014 213.801 162.245C212.136 160.283 209.848 158.951 207.32 158.472C199.897 156.616 196.106 158.418 196.071 158.472C196.019 158.499 195.961 158.514 195.902 158.516C195.813 158.516 187.272 159.209 186.686 164.545C186.136 169.446 185.594 170.28 183.552 173.423C183.144 174.054 182.664 174.782 182.123 175.652C181.581 176.522 181.048 177.33 180.498 178.147C178.722 180.872 176.813 183.687 177.399 184.983C177.621 185.463 178.243 185.773 179.237 185.871C184.564 186.528 187.166 188.535 191.019 191.74C192.386 192.885 194.792 193.729 198.122 194.261C200.925 194.951 203.827 195.152 206.698 194.856V194.838Z" fill="#263238"/>
<path d="M186.881 189.129C184.575 187.551 181.91 186.575 179.13 186.288C177.674 186.111 177.008 185.551 176.857 184.743C173.152 186.945 169.305 189.221 165.315 191.571C154.958 197.584 144.956 204.188 135.359 211.353C135.439 211.983 135.481 212.617 135.483 213.253C135.483 216.067 137.33 219.805 140.189 223.277C142.053 221.856 144.104 220.347 146.404 218.731C154.057 213.315 170.456 200.947 186.881 189.129Z" fill="white"/>
<path d="M140.18 223.72C140.115 223.721 140.052 223.706 139.993 223.679C139.935 223.651 139.883 223.611 139.843 223.561C136.788 219.858 135.03 216.094 135.03 213.253C135.027 212.635 134.985 212.018 134.906 211.406C134.898 211.328 134.91 211.25 134.941 211.178C134.972 211.107 135.021 211.044 135.084 210.997C144.694 203.826 154.708 197.213 165.076 191.189C169.089 188.836 172.924 186.564 176.618 184.362C176.68 184.327 176.75 184.308 176.822 184.308C176.894 184.308 176.964 184.327 177.026 184.362C177.092 184.39 177.149 184.434 177.194 184.49C177.239 184.546 177.27 184.611 177.284 184.681C177.364 185.107 177.648 185.685 179.184 185.88C182.027 186.172 184.752 187.17 187.112 188.783C187.173 188.823 187.222 188.877 187.257 188.94C187.291 189.004 187.309 189.075 187.309 189.147C187.309 189.219 187.291 189.291 187.257 189.354C187.222 189.418 187.173 189.472 187.112 189.511C178.296 195.842 169.666 202.208 162.057 207.828C155.682 212.533 150.177 216.6 146.608 219.121C144.557 220.569 142.542 222.051 140.393 223.658C140.328 223.696 140.255 223.717 140.18 223.72V223.72ZM135.83 211.557C135.893 212.12 135.926 212.686 135.927 213.253C135.927 215.774 137.543 219.272 140.269 222.664C142.266 221.146 144.184 219.743 146.129 218.367C149.68 215.854 155.194 211.788 161.569 207.091C169.027 201.577 177.461 195.353 186.1 189.147C183.981 187.81 181.579 186.983 179.086 186.732C178.598 186.728 178.119 186.605 177.691 186.372C177.262 186.14 176.897 185.806 176.627 185.4C173.075 187.522 169.382 189.698 165.537 191.953C155.271 197.919 145.352 204.464 135.83 211.557V211.557Z" fill="#263238"/>
<path d="M156.25 161.117C177.648 144.656 190.815 133.958 212.185 124.91C222.147 120.693 233.183 116.653 242.71 113.04C239.314 111.215 235.59 110.081 231.754 109.701C229.09 110.589 226.356 111.575 223.701 112.56C201.505 120.791 182.549 128.196 153.747 153.713C142.764 163.435 133.583 172.082 126.418 179.061C126.575 180.412 126.8 181.755 127.093 183.083C127.333 184.166 127.581 185.205 127.839 186.226C134.054 179.39 142.648 171.585 156.25 161.117Z" fill="white"/>
<path d="M127.839 186.67H127.732C127.654 186.652 127.581 186.612 127.524 186.556C127.466 186.499 127.424 186.428 127.404 186.35C127.146 185.329 126.898 184.282 126.667 183.19C126.363 181.851 126.135 180.496 125.983 179.132C125.975 179.064 125.983 178.995 126.006 178.93C126.029 178.865 126.067 178.807 126.116 178.759C134.72 170.378 143.918 161.89 153.454 153.402C183.09 127.148 202.739 119.867 223.55 112.161C226.134 111.202 228.877 110.243 231.603 109.302C231.664 109.285 231.728 109.285 231.789 109.302C235.687 109.691 239.47 110.843 242.923 112.693C242.999 112.734 243.061 112.795 243.103 112.869C243.144 112.944 243.163 113.029 243.158 113.115C243.152 113.2 243.122 113.282 243.071 113.351C243.02 113.419 242.95 113.472 242.87 113.501L237.232 115.632C228.957 118.74 220.363 121.954 212.372 125.399C192.484 133.807 179.867 143.538 160.769 158.25L156.508 161.535C143.731 171.354 134.737 179.292 128.185 186.581C128.137 186.619 128.081 186.647 128.021 186.662C127.962 186.677 127.899 186.68 127.839 186.67ZM126.951 179.23C127.084 180.384 127.297 181.618 127.59 182.985C127.768 183.784 127.945 184.557 128.132 185.312C134.666 178.209 143.554 170.351 156.011 160.771L156.277 161.117L156.011 160.771L160.272 157.477C179.423 142.712 192.075 132.954 212.07 124.502C220.132 121.093 228.7 117.87 236.983 114.736L241.689 112.96C238.61 111.442 235.284 110.486 231.869 110.136C229.144 111.069 226.471 112.019 223.923 112.96C203.191 120.64 183.614 127.885 154.102 154.023C144.61 162.431 135.474 170.902 126.951 179.23Z" fill="#263238"/>
<path d="M214.192 162.05C215.552 163.696 217.47 164.783 219.581 165.104C220.337 165.249 221.065 165.513 221.739 165.885L222.92 165.237C234.622 158.898 255.291 147.924 270.536 138.841C269.366 136.445 267.826 134.249 265.972 132.333C258.523 136 250.603 140.244 244.317 143.875C236.051 148.563 226.276 154.601 214.192 162.05Z" fill="white"/>
<path d="M221.739 166.329C221.664 166.329 221.591 166.311 221.526 166.276C220.891 165.924 220.205 165.675 219.493 165.539C217.292 165.194 215.291 164.061 213.863 162.351C213.82 162.304 213.787 162.248 213.767 162.187C213.747 162.125 213.74 162.06 213.748 161.996C213.754 161.931 213.776 161.868 213.812 161.812C213.847 161.756 213.895 161.71 213.952 161.677L215.648 160.629C227.137 153.526 236.211 147.959 244.06 143.449C250.825 139.587 258.727 135.387 265.741 131.907C265.823 131.865 265.916 131.85 266.007 131.864C266.098 131.879 266.182 131.922 266.247 131.987C268.136 133.938 269.704 136.176 270.891 138.619C270.942 138.718 270.954 138.834 270.922 138.941C270.891 139.049 270.819 139.14 270.722 139.196C257.963 146.805 241.503 155.675 229.481 162.156L223.088 165.601L222.2 166.098L221.943 166.249C221.882 166.291 221.812 166.319 221.739 166.329V166.329ZM214.849 162.138C216.107 163.506 217.796 164.399 219.635 164.669C220.354 164.808 221.05 165.047 221.703 165.379H221.748L222.636 164.873L229.019 161.419C240.925 155.009 257.182 146.246 269.861 138.708C268.782 136.59 267.414 134.632 265.794 132.892C258.869 136.311 251.109 140.439 244.486 144.248C236.61 148.749 227.545 154.334 216.074 161.41L214.849 162.138Z" fill="#263238"/>
<path d="M186.704 230.255C200.697 217.088 225.388 212.968 255.842 197.333C267.979 191.118 277.497 186.306 284.253 182.639C283.631 180.791 282.831 179.007 281.865 177.312C281.616 176.868 281.394 176.424 281.163 176.033C261.781 182.977 227.332 198.665 204.807 210.509C191.578 217.47 179.246 226.491 169.408 234.588C172.438 235.462 175.336 236.743 178.021 238.397C180.749 235.84 183.644 233.126 186.704 230.255Z" fill="white"/>
<path d="M178.021 238.832C177.94 238.829 177.861 238.808 177.79 238.77C175.138 237.136 172.277 235.869 169.284 235.005C169.206 234.982 169.137 234.939 169.082 234.88C169.027 234.82 168.99 234.747 168.973 234.668C168.957 234.588 168.963 234.506 168.989 234.43C169.016 234.353 169.062 234.285 169.124 234.233C180.12 225.016 192.018 216.934 204.639 210.109C228.052 197.786 262.35 182.311 280.995 175.607C281.095 175.573 281.203 175.574 281.302 175.612C281.401 175.649 281.484 175.72 281.536 175.811L282.238 177.09C283.216 178.811 284.028 180.622 284.661 182.497C284.691 182.597 284.686 182.704 284.648 182.801C284.609 182.897 284.539 182.978 284.448 183.03C279.414 185.764 272.959 189.058 264.791 193.24L256.028 197.679C243.429 204.152 231.807 208.662 221.544 212.631C206.796 218.349 195.147 222.868 186.997 230.53C183.937 233.419 181.042 236.13 178.314 238.663C178.279 238.709 178.234 238.748 178.184 238.777C178.134 238.806 178.078 238.825 178.021 238.832V238.832ZM170.332 234.392C173.003 235.237 175.566 236.394 177.967 237.837C180.613 235.369 183.425 232.735 186.402 229.935C194.677 222.14 206.397 217.603 221.233 211.85C231.47 207.881 243.074 203.388 255.637 196.934L264.401 192.45C272.391 188.366 278.731 185.116 283.711 182.426C283.104 180.728 282.353 179.086 281.465 177.516L280.95 176.575C262.19 183.332 228.247 198.665 205.02 210.891C192.709 217.558 181.089 225.431 170.332 234.392V234.392Z" fill="#263238"/>
<path d="M199.693 236.488C199.434 236.487 199.178 236.429 198.943 236.319C198.709 236.208 198.501 236.048 198.335 235.849C198.035 235.488 197.889 235.023 197.931 234.555C197.973 234.088 198.198 233.656 198.557 233.354C201.097 231.299 203.971 229.695 207.054 228.613C207.496 228.501 207.964 228.563 208.361 228.787C208.758 229.01 209.054 229.378 209.187 229.814C209.321 230.25 209.282 230.72 209.078 231.128C208.874 231.536 208.521 231.849 208.092 232.004C205.462 232.949 203.007 234.327 200.83 236.079C200.51 236.344 200.108 236.489 199.693 236.488Z" fill="#FD6D27"/>
<path d="M230.227 219.894C230.072 219.563 230.022 219.193 230.085 218.833C230.148 218.474 230.321 218.142 230.579 217.884C230.837 217.626 231.168 217.454 231.528 217.391C231.888 217.328 232.258 217.377 232.588 217.532C235.524 218.959 238.194 220.877 240.482 223.205C240.798 223.559 240.962 224.023 240.936 224.497C240.91 224.971 240.697 225.415 240.344 225.731C239.991 226.048 239.526 226.212 239.052 226.186C238.579 226.16 238.135 225.947 237.818 225.594C235.85 223.607 233.559 221.968 231.044 220.746C230.682 220.563 230.394 220.263 230.227 219.894V219.894Z" fill="#FD6D27"/>
<path d="M247.469 213.812C247.209 213.803 246.954 213.737 246.723 213.619C246.491 213.501 246.288 213.333 246.128 213.128C245.841 212.757 245.712 212.287 245.771 211.821C245.829 211.355 246.069 210.931 246.439 210.642C249.043 208.673 251.969 207.171 255.087 206.203C255.318 206.123 255.564 206.092 255.808 206.111C256.053 206.131 256.29 206.2 256.506 206.316C256.722 206.432 256.912 206.591 257.063 206.784C257.215 206.977 257.324 207.199 257.386 207.436C257.447 207.673 257.459 207.92 257.42 208.162C257.381 208.404 257.293 208.636 257.16 208.842C257.028 209.048 256.854 209.224 256.65 209.36C256.446 209.496 256.216 209.588 255.975 209.63C253.312 210.481 250.812 211.775 248.579 213.457C248.259 213.697 247.868 213.822 247.469 213.812Z" fill="white"/>
<path d="M150.257 227.272C150.228 226.91 150.312 226.547 150.495 226.234C150.679 225.92 150.955 225.671 151.285 225.519C151.615 225.367 151.983 225.32 152.341 225.384C152.699 225.448 153.028 225.621 153.285 225.878C155.549 228.23 157.387 230.958 158.718 233.94C158.877 234.373 158.86 234.851 158.673 235.272C158.485 235.693 158.14 236.025 157.712 236.197C157.284 236.369 156.806 236.368 156.379 236.193C155.952 236.019 155.61 235.685 155.424 235.263C154.264 232.721 152.688 230.389 150.763 228.364C150.473 228.07 150.294 227.684 150.257 227.272Z" fill="white"/>
<path d="M268.929 154.325C268.907 154.066 268.943 153.805 269.033 153.561C269.124 153.317 269.267 153.096 269.452 152.914C269.617 152.749 269.813 152.618 270.029 152.528C270.244 152.439 270.475 152.393 270.709 152.393C270.942 152.393 271.173 152.439 271.389 152.528C271.604 152.618 271.8 152.749 271.965 152.914C274.226 155.269 276.064 157.996 277.399 160.975C277.494 161.193 277.545 161.428 277.548 161.666C277.551 161.904 277.506 162.14 277.416 162.36C277.326 162.58 277.193 162.78 277.024 162.948C276.856 163.116 276.655 163.248 276.434 163.336C276.214 163.425 275.977 163.468 275.739 163.464C275.502 163.46 275.267 163.407 275.05 163.311C274.832 163.214 274.637 163.074 274.474 162.9C274.312 162.726 274.186 162.522 274.105 162.298C272.948 159.752 271.369 157.419 269.435 155.4C269.148 155.11 268.969 154.731 268.929 154.325V154.325Z" fill="white"/>
<path d="M158.914 174.551C158.885 174.188 158.968 173.826 159.152 173.513C159.336 173.199 159.611 172.95 159.941 172.798C160.271 172.646 160.64 172.599 160.998 172.663C161.356 172.727 161.685 172.899 161.941 173.157C164.202 175.516 166.04 178.246 167.375 181.227C167.534 181.661 167.517 182.139 167.329 182.56C167.142 182.981 166.797 183.313 166.369 183.485C165.941 183.657 165.463 183.655 165.036 183.481C164.609 183.307 164.266 182.973 164.081 182.55C162.925 180.004 161.346 177.671 159.411 175.652C159.122 175.354 158.946 174.965 158.914 174.551Z" fill="white"/>
<path d="M138.759 146.556C138.731 146.194 138.814 145.832 138.998 145.518C139.181 145.205 139.457 144.955 139.787 144.803C140.117 144.651 140.486 144.604 140.843 144.669C141.201 144.733 141.53 144.905 141.787 145.163C144.045 147.523 145.883 150.253 147.221 153.233C147.379 153.666 147.363 154.144 147.175 154.566C146.987 154.987 146.643 155.319 146.215 155.491C145.787 155.663 145.308 155.661 144.881 155.487C144.454 155.312 144.112 154.979 143.927 154.556C142.77 152.01 141.191 149.677 139.257 147.657C138.967 147.36 138.791 146.97 138.759 146.556Z" fill="white"/>
<path d="M174.531 217.754C174.168 217.74 173.818 217.615 173.528 217.396C173.239 217.177 173.023 216.874 172.911 216.528C172.799 216.183 172.795 215.811 172.901 215.464C173.006 215.116 173.216 214.809 173.501 214.584C176.105 212.615 179.031 211.113 182.149 210.145C182.381 210.065 182.626 210.034 182.871 210.053C183.115 210.073 183.352 210.143 183.568 210.258C183.784 210.374 183.974 210.534 184.125 210.726C184.277 210.919 184.387 211.141 184.448 211.378C184.51 211.615 184.521 211.863 184.482 212.105C184.444 212.347 184.355 212.578 184.223 212.784C184.09 212.99 183.916 213.166 183.712 213.302C183.508 213.438 183.278 213.53 183.037 213.572C180.374 214.424 177.874 215.717 175.641 217.399C175.322 217.639 174.931 217.764 174.531 217.754Z" fill="white"/>
<path d="M217.593 140.395C217.495 140.154 217.452 139.895 217.466 139.636C217.48 139.376 217.55 139.123 217.673 138.894C217.893 138.479 218.269 138.168 218.719 138.03C219.168 137.892 219.654 137.938 220.07 138.157C222.93 139.738 225.498 141.798 227.661 144.248C227.822 144.427 227.945 144.637 228.022 144.865C228.099 145.092 228.13 145.334 228.111 145.574C228.092 145.813 228.025 146.047 227.913 146.26C227.801 146.473 227.647 146.661 227.461 146.813C227.274 146.965 227.058 147.077 226.827 147.143C226.595 147.209 226.353 147.227 226.114 147.196C225.876 147.166 225.646 147.087 225.438 146.965C225.231 146.843 225.051 146.679 224.909 146.485C223.043 144.416 220.843 142.676 218.401 141.336C218.027 141.129 217.74 140.795 217.593 140.395V140.395Z" fill="white"/>
<path d="M244.646 122.611C244.283 122.597 243.933 122.472 243.643 122.253C243.353 122.034 243.138 121.731 243.025 121.385C242.913 121.04 242.909 120.668 243.015 120.32C243.121 119.973 243.33 119.666 243.616 119.441C246.222 117.476 249.147 115.974 252.263 115.002C252.718 114.88 253.202 114.943 253.61 115.178C254.018 115.412 254.316 115.799 254.439 116.254C254.561 116.708 254.498 117.193 254.263 117.6C254.028 118.008 253.641 118.306 253.187 118.429C250.523 119.282 248.023 120.579 245.791 122.265C245.461 122.509 245.056 122.631 244.646 122.611Z" fill="white"/>
<path d="M162.243 156.128C161.88 156.114 161.53 155.989 161.241 155.769C160.951 155.55 160.735 155.248 160.623 154.902C160.511 154.556 160.507 154.185 160.613 153.837C160.718 153.49 160.928 153.183 161.213 152.958C163.817 150.989 166.743 149.487 169.861 148.519C170.093 148.439 170.338 148.407 170.583 148.427C170.827 148.446 171.065 148.516 171.281 148.632C171.497 148.748 171.686 148.907 171.838 149.1C171.989 149.293 172.099 149.514 172.16 149.752C172.222 149.989 172.233 150.236 172.195 150.478C172.156 150.72 172.067 150.951 171.935 151.158C171.802 151.364 171.628 151.54 171.424 151.676C171.22 151.811 170.99 151.903 170.749 151.946C168.087 152.797 165.586 154.091 163.353 155.773C163.036 156.016 162.643 156.142 162.243 156.128V156.128Z" fill="white"/>
<path d="M190.939 206.15C190.786 205.82 190.737 205.451 190.8 205.093C190.863 204.735 191.034 204.405 191.291 204.148C191.548 203.89 191.877 203.717 192.235 203.653C192.593 203.589 192.962 203.636 193.292 203.788C196.234 205.208 198.907 207.128 201.194 209.461C201.509 209.815 201.672 210.279 201.645 210.752C201.618 211.224 201.405 211.667 201.052 211.983C200.698 212.298 200.234 212.461 199.761 212.434C199.289 212.407 198.846 212.194 198.53 211.841C196.556 209.86 194.263 208.224 191.747 207.002C191.391 206.815 191.107 206.515 190.939 206.15V206.15Z" fill="#FD6D27"/>
<path d="M253.622 172.198C253.511 171.962 253.454 171.704 253.454 171.443C253.454 171.182 253.511 170.925 253.622 170.688C253.718 170.474 253.855 170.281 254.026 170.121C254.197 169.96 254.398 169.835 254.618 169.752C254.837 169.67 255.071 169.631 255.306 169.64C255.54 169.648 255.77 169.703 255.984 169.801C258.924 171.22 261.594 173.14 263.877 175.474C264.033 175.649 264.153 175.853 264.231 176.074C264.308 176.296 264.341 176.53 264.328 176.764C264.315 176.998 264.256 177.228 264.154 177.439C264.052 177.65 263.91 177.839 263.735 177.996C263.56 178.152 263.356 178.272 263.134 178.349C262.913 178.427 262.679 178.46 262.445 178.447C262.21 178.434 261.981 178.374 261.77 178.273C261.559 178.171 261.369 178.028 261.213 177.853C259.243 175.871 256.953 174.235 254.439 173.015C254.083 172.841 253.796 172.554 253.622 172.198V172.198Z" fill="#FD6D27"/>
<path d="M253.657 144.168C253.37 144.394 253.019 144.526 252.654 144.545C252.289 144.565 251.926 144.471 251.616 144.277C251.306 144.082 251.064 143.797 250.922 143.46C250.781 143.123 250.747 142.75 250.825 142.392C251.55 139.206 252.821 136.169 254.581 133.416C254.708 133.211 254.875 133.035 255.073 132.897C255.27 132.759 255.494 132.662 255.73 132.614C255.966 132.565 256.209 132.565 256.445 132.613C256.681 132.661 256.905 132.757 257.103 132.894C257.301 133.032 257.469 133.208 257.596 133.413C257.724 133.617 257.808 133.846 257.845 134.084C257.881 134.322 257.869 134.565 257.808 134.798C257.748 135.031 257.641 135.25 257.493 135.44C256.006 137.807 254.925 140.406 254.297 143.129C254.213 143.54 253.986 143.908 253.657 144.168V144.168Z" fill="#FD6D27"/>
<path d="M190.184 152.443C189.979 152.604 189.74 152.718 189.485 152.776C189.23 152.835 188.966 152.836 188.71 152.78C188.252 152.68 187.852 152.403 187.597 152.009C187.343 151.614 187.254 151.135 187.352 150.676C188.077 147.494 189.344 144.461 191.099 141.709C191.226 141.504 191.393 141.327 191.591 141.189C191.788 141.051 192.012 140.955 192.248 140.906C192.484 140.858 192.727 140.857 192.963 140.906C193.199 140.954 193.423 141.05 193.621 141.187C193.819 141.325 193.987 141.501 194.114 141.706C194.242 141.91 194.326 142.138 194.363 142.376C194.399 142.615 194.387 142.858 194.326 143.091C194.266 143.324 194.159 143.543 194.011 143.733C192.525 146.099 191.447 148.698 190.824 151.422C190.731 151.825 190.506 152.184 190.184 152.443V152.443Z" fill="#FD6D27"/>
<path d="M140.109 190.292C139.821 190.519 139.471 190.65 139.106 190.67C138.74 190.689 138.378 190.595 138.068 190.401C137.758 190.207 137.516 189.922 137.374 189.584C137.232 189.247 137.198 188.874 137.277 188.517C138.002 185.334 139.273 182.3 141.032 179.549C141.311 179.19 141.717 178.951 142.167 178.882C142.617 178.813 143.076 178.92 143.449 179.179C143.823 179.439 144.082 179.832 144.175 180.278C144.267 180.723 144.184 181.187 143.944 181.574C142.457 183.94 141.377 186.539 140.748 189.263C140.662 189.67 140.436 190.035 140.109 190.292V190.292Z" fill="#FD6D27"/>
<path d="M223.017 120.32C222.864 119.991 222.816 119.622 222.879 119.264C222.942 118.906 223.113 118.576 223.369 118.318C223.626 118.061 223.955 117.888 224.313 117.824C224.671 117.759 225.04 117.807 225.37 117.959C228.309 119.384 230.982 121.303 233.272 123.632C233.429 123.807 233.55 124.011 233.628 124.233C233.706 124.454 233.739 124.689 233.726 124.923C233.714 125.158 233.655 125.388 233.553 125.6C233.452 125.811 233.309 126.001 233.134 126.158C232.96 126.315 232.755 126.436 232.534 126.514C232.312 126.592 232.078 126.625 231.843 126.612C231.608 126.599 231.379 126.541 231.167 126.439C230.955 126.338 230.765 126.195 230.608 126.02C228.637 124.037 226.347 122.398 223.834 121.173C223.473 120.99 223.184 120.689 223.017 120.32Z" fill="#FD6D27"/>
<path d="M182.788 116.618C182.635 116.288 182.587 115.92 182.65 115.561C182.713 115.203 182.884 114.873 183.141 114.616C183.397 114.358 183.727 114.186 184.084 114.121C184.442 114.057 184.811 114.104 185.141 114.256C188.08 115.682 190.753 117.601 193.043 119.93C193.36 120.283 193.523 120.747 193.498 121.221C193.472 121.695 193.259 122.139 192.906 122.456C192.552 122.772 192.088 122.936 191.614 122.91C191.14 122.884 190.696 122.671 190.38 122.318C188.406 120.338 186.116 118.7 183.605 117.47C183.244 117.288 182.955 116.987 182.788 116.618Z" fill="#FD6D27"/>
<path d="M262.296 202.598C262.185 202.362 262.128 202.104 262.128 201.844C262.128 201.583 262.185 201.325 262.296 201.089C262.392 200.875 262.53 200.682 262.7 200.521C262.871 200.36 263.072 200.235 263.292 200.153C263.512 200.07 263.745 200.032 263.98 200.04C264.214 200.048 264.445 200.103 264.658 200.201C267.598 201.62 270.269 203.54 272.551 205.874C272.708 206.049 272.829 206.253 272.907 206.475C272.985 206.697 273.018 206.931 273.005 207.166C272.993 207.4 272.934 207.63 272.832 207.842C272.731 208.054 272.588 208.244 272.413 208.4C272.239 208.557 272.034 208.678 271.813 208.756C271.591 208.834 271.357 208.867 271.122 208.855C270.887 208.842 270.658 208.783 270.446 208.682C270.234 208.58 270.044 208.438 269.887 208.263C267.919 206.276 265.629 204.637 263.113 203.415C262.757 203.241 262.47 202.954 262.296 202.598V202.598Z" fill="#FD6D27"/>
<path d="M235.82 182.559C236.055 182.45 236.311 182.393 236.57 182.393C236.83 182.393 237.086 182.45 237.321 182.559C237.746 182.753 238.078 183.107 238.245 183.544C238.411 183.981 238.398 184.467 238.208 184.894C236.854 187.857 234.995 190.561 232.713 192.885C232.543 193.046 232.344 193.171 232.125 193.254C231.907 193.338 231.675 193.377 231.442 193.371C231.208 193.364 230.978 193.311 230.765 193.216C230.552 193.12 230.36 192.984 230.2 192.814C229.879 192.472 229.706 192.017 229.719 191.547C229.732 191.078 229.931 190.633 230.271 190.31C232.208 188.293 233.795 185.968 234.968 183.429C235.14 183.048 235.442 182.74 235.82 182.559V182.559Z" fill="#FD6D27"/>
<path d="M162.226 128.142C162.552 127.981 162.92 127.924 163.279 127.979C163.639 128.034 163.973 128.198 164.236 128.448C164.5 128.699 164.68 129.025 164.752 129.382C164.824 129.738 164.786 130.108 164.641 130.442C163.276 133.4 161.414 136.103 159.136 138.433C158.791 138.734 158.342 138.89 157.885 138.868C157.427 138.847 156.995 138.649 156.68 138.316C156.365 137.984 156.19 137.542 156.193 137.084C156.195 136.626 156.375 136.187 156.694 135.858C158.631 133.841 160.219 131.515 161.391 128.977C161.566 128.612 161.86 128.317 162.226 128.142Z" fill="#FD6D27"/>
<path d="M228.327 235.786C228.656 235.62 229.028 235.56 229.392 235.615C229.757 235.67 230.095 235.836 230.36 236.092C230.626 236.348 230.805 236.679 230.873 237.041C230.942 237.404 230.896 237.778 230.742 238.113C229.377 241.071 227.515 243.774 225.237 246.103C224.892 246.405 224.443 246.561 223.986 246.539C223.528 246.517 223.096 246.32 222.781 245.987C222.466 245.655 222.291 245.213 222.294 244.755C222.297 244.297 222.476 243.857 222.795 243.529C224.732 241.512 226.32 239.186 227.492 236.648C227.662 236.272 227.957 235.968 228.327 235.786Z" fill="#FD6D27"/>
<path d="M202.232 91.7755H201.078C186.646 91.784 172.445 95.4057 159.771 102.31C147.097 109.215 136.353 119.183 128.52 131.304C120.686 143.426 116.012 157.316 114.924 171.708C113.836 186.099 116.368 200.535 122.29 213.696L202.197 175.652L202.232 91.7755Z" fill="white"/>
<path opacity="0.3" d="M212.949 84.4329C217.477 77.7207 219.634 72.8908 220.664 68.1318V67.972C220.726 67.6702 220.789 67.3683 220.842 67.0842C220.895 66.8 220.922 66.6402 220.957 66.4183L221.09 65.5304C221.09 65.2996 221.153 65.0776 221.179 64.8468C221.206 64.6159 221.241 64.243 221.277 63.9589C221.312 63.6748 221.321 63.4795 221.339 63.2397C221.357 63 221.339 62.636 221.401 62.3519C221.463 62.0678 221.401 61.8369 221.446 61.5794C221.49 61.3219 221.446 60.9846 221.446 60.6916V59.8037V58.9158C221.446 58.5607 221.446 58.1878 221.446 57.8238C221.446 57.4598 221.446 57.3443 221.446 57.1046C221.446 56.4831 221.446 55.8527 221.446 55.2046C221.446 55.0892 221.446 54.9471 221.446 54.7873C221.446 54.7163 221.446 54.6275 221.446 54.5476C221.446 54.4677 221.446 54.37 221.446 54.2723V54.1836C221.446 54.077 221.446 53.9616 221.446 53.8551C221.446 53.7485 221.446 53.6775 221.446 53.5887V53.4644C221.446 53.3223 221.446 53.1714 221.446 53.0205C221.446 52.8695 221.446 52.8606 221.446 52.7807C221.224 49.034 220.709 42.6325 220.389 39.667C219.785 34.0469 218.747 18.3051 215.666 13.9191H215.595V61.1177C215.535 61.5298 215.329 61.9066 215.014 62.1792C214.7 62.4517 214.297 62.6017 213.881 62.6017C213.465 62.6017 213.062 62.4517 212.748 62.1792C212.433 61.9066 212.227 61.5298 212.168 61.1177V29.652C212.169 24.2849 211.348 18.9492 209.735 13.8303L209.282 15.8369C208.431 19.6254 207.999 23.4961 207.995 27.3791V61.1177C207.942 61.5343 207.74 61.9175 207.425 62.1953C207.111 62.4731 206.705 62.6264 206.285 62.6264C205.866 62.6264 205.46 62.4731 205.146 62.1953C204.831 61.9175 204.628 61.5343 204.576 61.1177V28.9062C204.574 24.0299 203.895 19.1775 202.561 14.4873L202.374 13.8303L202.037 15.1444C200.945 19.4029 200.394 23.7819 200.394 28.1781V61.1177C200.342 61.5343 200.14 61.9175 199.825 62.1953C199.51 62.4731 199.105 62.6264 198.685 62.6264C198.266 62.6264 197.86 62.4731 197.545 62.1953C197.231 61.9175 197.028 61.5343 196.976 61.1177V13.8303C193.975 18.1187 192.883 33.967 192.279 39.1876C191.915 42.3484 191.392 48.883 191.187 52.7008C191.187 52.7896 191.187 52.8695 191.187 52.9583C191.187 53.0471 191.187 53.2069 191.187 53.3312V53.4999C191.187 53.5887 191.187 53.6686 191.187 53.7574C191.187 53.8462 191.187 53.9705 191.187 54.077V54.1924C191.187 54.2901 191.187 54.37 191.187 54.4677C191.192 54.5416 191.192 54.6157 191.187 54.6896V54.6896V55.2135C191.187 65.4239 190.166 74.2137 198.406 84.2731C201.195 88.0308 202.707 92.583 202.721 97.2625C202.721 109.977 202.268 136.026 200.945 152.567C200.315 160.176 199.214 167.874 198.201 173.983C197.997 175.217 197.793 176.389 197.598 177.49V177.649C197.429 178.59 197.278 179.469 197.127 180.313C197.083 180.517 197.047 180.721 197.012 180.917L196.932 181.361C196.861 181.698 196.799 182.035 196.736 182.346C196.62 182.946 196.57 183.556 196.586 184.166C196.586 184.477 196.586 184.779 196.657 185.054C196.734 185.66 196.877 186.255 197.083 186.83C197.396 187.69 197.843 188.496 198.406 189.218V189.218C199.609 190.745 201.297 191.816 203.191 192.255C203.82 192.4 204.463 192.474 205.109 192.477H206.796C208.087 192.477 209.362 192.184 210.523 191.62C211.684 191.055 212.702 190.234 213.499 189.218C213.877 188.735 214.205 188.214 214.476 187.664C214.608 187.393 214.724 187.115 214.822 186.83C215.335 185.393 215.458 183.846 215.177 182.346C215.115 182.035 215.044 181.689 214.982 181.343L214.911 180.979L214.778 180.233C214.716 179.905 214.653 179.558 214.591 179.212C214.591 179.088 214.547 178.972 214.52 178.857C214.467 178.567 214.414 178.271 214.361 177.969V177.907C214.245 177.25 214.121 176.548 213.996 175.829C213.934 175.465 213.872 175.083 213.81 174.702C212.762 168.487 211.599 160.496 210.951 152.603C209.593 136.062 208.456 109.986 209.175 97.298C209.522 87.869 211.874 86.1909 212.949 84.4329Z" fill="black"/>
<path d="M206.663 95.5223C207.16 86.182 209.504 84.4951 210.578 82.746C218.88 70.4491 219.235 64.5537 219.235 53.4466C219.235 51.3157 218.48 41.7002 218.072 37.8735C217.468 32.2534 216.429 16.5116 213.348 12.1256H213.277V59.4219C213.218 59.834 213.012 60.2108 212.697 60.4833C212.382 60.7559 211.98 60.9059 211.564 60.9059C211.147 60.9059 210.745 60.7559 210.43 60.4833C210.116 60.2108 209.91 59.834 209.85 59.4219V27.9562C209.852 22.5919 209.032 17.259 207.417 12.1434V12.1434L206.965 14.1499C206.113 17.9383 205.681 21.8091 205.677 25.6921V59.4219C205.618 59.834 205.412 60.2108 205.097 60.4833C204.782 60.7559 204.38 60.9059 203.964 60.9059C203.547 60.9059 203.145 60.7559 202.83 60.4833C202.516 60.2108 202.31 59.834 202.25 59.4219V27.2192C202.252 22.3397 201.574 17.4836 200.235 12.7915L200.057 12.1434L199.755 13.484C198.664 17.7427 198.112 22.1216 198.113 26.5178V59.4574C198.061 59.874 197.858 60.2572 197.543 60.535C197.229 60.8128 196.823 60.9661 196.404 60.9661C195.984 60.9661 195.578 60.8128 195.264 60.535C194.949 60.2572 194.747 59.874 194.694 59.4574V12.1434C191.658 16.4229 190.566 32.28 189.989 37.4563C189.518 41.5315 188.799 51.1914 188.799 53.4377C188.799 63.6481 187.787 72.4468 196.026 82.4974C198.815 86.2551 200.327 90.8072 200.341 95.4868C200.341 108.201 199.888 134.251 198.565 150.8C197.653 160.785 196.239 170.718 194.33 180.562C194.082 181.766 194.097 183.01 194.374 184.209C194.652 185.407 195.185 186.532 195.937 187.505V187.505C196.735 188.52 197.753 189.341 198.914 189.905C200.075 190.47 201.35 190.763 202.641 190.763H204.328C205.619 190.764 206.893 190.471 208.055 189.906C209.216 189.342 210.234 188.52 211.031 187.505C211.785 186.545 212.325 185.436 212.615 184.25C212.904 183.065 212.936 181.831 212.709 180.633C210.791 170.791 209.378 160.857 208.474 150.871C207.116 134.286 205.97 108.219 206.663 95.5223Z" fill="#D9D9D9"/>
<path d="M204.328 191.171H202.641C201.32 191.172 200.016 190.88 198.821 190.317C197.626 189.755 196.571 188.935 195.729 187.918C194.888 186.9 194.281 185.709 193.954 184.429C193.626 183.15 193.585 181.814 193.833 180.517C195.739 170.689 197.15 160.771 198.06 150.8C199.391 134.624 199.835 108.885 199.835 95.5223C199.807 90.948 198.331 86.5001 195.618 82.817C188.107 73.6366 188.187 65.3084 188.275 56.492C188.275 55.4976 188.275 54.4943 188.275 53.4733C188.275 51.2359 189.003 41.496 189.474 37.4474C189.563 36.6306 189.669 35.5651 189.794 34.331C190.486 27.3258 191.64 15.5972 194.233 11.8859C194.287 11.8082 194.365 11.7499 194.455 11.7195C194.544 11.6891 194.641 11.6882 194.732 11.717C194.822 11.7458 194.901 11.8027 194.956 11.8794C195.012 11.9561 195.042 12.0486 195.041 12.1434V59.4219C195.096 59.7169 195.253 59.9832 195.484 60.1748C195.715 60.3664 196.006 60.4713 196.306 60.4713C196.606 60.4713 196.897 60.3664 197.128 60.1748C197.359 59.9832 197.516 59.7169 197.571 59.4219V26.4823C197.572 22.0499 198.13 17.6352 199.232 13.342L199.56 12.028C199.584 11.9333 199.639 11.8495 199.716 11.7899C199.794 11.7303 199.889 11.6985 199.986 11.6995C200.083 11.7003 200.177 11.7317 200.255 11.7891C200.333 11.8464 200.391 11.9269 200.421 12.0191L200.608 12.6672C201.957 17.4002 202.641 22.2978 202.641 27.2192V59.4219C202.696 59.7169 202.853 59.9832 203.084 60.1748C203.315 60.3664 203.606 60.4713 203.906 60.4713C204.206 60.4713 204.497 60.3664 204.728 60.1748C204.959 59.9832 205.116 59.7169 205.171 59.4219V25.7276C205.171 21.7999 205.606 17.8842 206.468 14.0523L206.92 12.0457C206.942 11.95 206.995 11.8641 207.07 11.8015C207.146 11.7388 207.24 11.703 207.338 11.6995C207.436 11.6917 207.534 11.7185 207.615 11.7752C207.696 11.8319 207.755 11.915 207.782 12.0102C209.41 17.181 210.236 22.5707 210.232 27.9917V59.4219C210.283 59.7222 210.438 59.9949 210.67 60.1916C210.903 60.3883 211.197 60.4962 211.502 60.4962C211.806 60.4962 212.101 60.3883 212.333 60.1916C212.566 59.9949 212.721 59.7222 212.771 59.4219V12.1434C212.771 12.0256 212.818 11.9127 212.901 11.8295C212.985 11.7462 213.098 11.6995 213.215 11.6995C213.297 11.6991 213.377 11.7155 213.452 11.7475C213.527 11.7796 213.595 11.8267 213.65 11.8859C216.314 15.757 217.486 27.7431 218.161 34.9081C218.267 36.0535 218.365 37.0479 218.454 37.8469C218.844 41.5316 219.617 51.2803 219.617 53.4733C219.617 64.6692 219.244 70.6001 210.88 82.9946C210.72 83.2521 210.525 83.5185 210.312 83.8203C209.176 85.383 207.462 87.7447 207.045 95.5489C206.379 107.979 207.462 133.896 208.82 150.8C209.721 160.772 211.132 170.69 213.047 180.517C213.295 181.815 213.254 183.152 212.926 184.432C212.598 185.711 211.99 186.903 211.148 187.921C210.306 188.939 209.249 189.758 208.053 190.32C206.857 190.882 205.552 191.173 204.23 191.171H204.328ZM194.215 13.9457C192.288 18.6336 191.294 28.702 190.726 34.4198C190.602 35.6628 190.504 36.7371 190.406 37.5451C189.945 41.5848 189.217 51.2536 189.217 53.4733C189.217 54.4943 189.217 55.5065 189.217 56.5009C189.128 65.5304 189.048 73.3702 196.319 82.2488C199.201 86.0909 200.759 90.764 200.759 95.5667C200.759 108.947 200.27 134.712 198.983 150.916C198.074 160.919 196.658 170.87 194.739 180.73C194.517 181.899 194.556 183.102 194.852 184.254C195.148 185.405 195.694 186.478 196.452 187.394C197.21 188.311 198.161 189.049 199.237 189.556C200.313 190.063 201.487 190.327 202.676 190.328H204.363C205.553 190.328 206.728 190.066 207.805 189.559C208.882 189.053 209.833 188.315 210.591 187.398C211.35 186.481 211.896 185.408 212.192 184.255C212.487 183.102 212.524 181.899 212.301 180.73C210.39 170.869 208.977 160.919 208.066 150.916C206.672 133.984 205.589 107.997 206.29 95.5489C206.716 87.4783 208.527 84.9923 209.726 83.3409C209.92 83.0873 210.101 82.8235 210.268 82.5507C218.498 70.3692 218.862 64.5271 218.862 53.5177C218.862 51.3513 218.09 41.6558 217.699 37.989C217.619 37.1899 217.521 36.2133 217.415 35.0324C216.856 29.0838 215.861 18.5182 213.792 13.7859V59.4219C213.744 59.9604 213.495 60.461 213.096 60.8256C212.697 61.1902 212.176 61.3924 211.635 61.3924C211.094 61.3924 210.573 61.1902 210.174 60.8256C209.775 60.461 209.526 59.9604 209.477 59.4219V27.9562C209.478 23.2054 208.83 18.4767 207.551 13.9013L207.471 14.2387C206.62 18.0091 206.191 21.8624 206.192 25.7276V59.4219C206.133 59.9517 205.881 60.4411 205.484 60.7965C205.087 61.1519 204.572 61.3485 204.039 61.3485C203.506 61.3485 202.992 61.1519 202.595 60.7965C202.198 60.4411 201.945 59.9517 201.886 59.4219V27.2192C201.87 22.722 201.274 18.2457 200.111 13.9013C199.08 18.0307 198.558 22.2706 198.557 26.5267V59.4663C198.498 59.9961 198.246 60.4855 197.848 60.8409C197.451 61.1963 196.937 61.3929 196.404 61.3929C195.871 61.3929 195.356 61.1963 194.959 60.8409C194.562 60.4855 194.31 59.9961 194.251 59.4663L194.215 13.9457Z" fill="#263238"/>
<path d="M218.303 66.436C219.191 62.4584 219.235 58.4985 219.235 53.4733C219.235 53.3578 219.235 53.2158 219.235 53.0648C219.235 52.9139 219.235 52.7363 219.235 52.541V52.4877C219.235 52.2924 219.235 52.0793 219.235 51.8573V51.8041C219.235 51.5644 219.235 51.3158 219.191 51.0494H213.34V59.4663C213.28 59.8784 213.074 60.2552 212.759 60.5277C212.445 60.8003 212.042 60.9503 211.626 60.9503C211.21 60.9503 210.807 60.8003 210.493 60.5277C210.178 60.2552 209.972 59.8784 209.912 59.4663V51.005H205.739V59.4219C205.68 59.834 205.474 60.2108 205.159 60.4833C204.845 60.7559 204.442 60.9059 204.026 60.9059C203.61 60.9059 203.207 60.7559 202.892 60.4833C202.578 60.2108 202.372 59.834 202.312 59.4219V51.005H198.139V59.4219C198.087 59.8385 197.885 60.2217 197.57 60.4995C197.255 60.7773 196.85 60.9306 196.43 60.9306C196.01 60.9306 195.605 60.7773 195.29 60.4995C194.976 60.2217 194.773 59.8385 194.721 59.4219V51.005H188.932C188.932 51.2625 188.932 51.5022 188.932 51.733V51.813C188.932 52.026 188.932 52.2303 188.932 52.4256V52.4966C188.932 52.6831 188.932 52.8517 188.932 53.0116C188.932 53.1714 188.932 53.3134 188.932 53.4289C188.871 57.8439 189.198 62.2558 189.909 66.6136C194.365 68.6669 199.219 69.7154 204.126 69.6847C209.032 69.654 213.872 68.545 218.303 66.436V66.436Z" fill="#263238"/>
<path d="M203.795 70.1739C198.89 70.1802 194.042 69.1167 189.589 67.0575C189.526 67.0272 189.471 66.9825 189.427 66.927C189.384 66.8715 189.355 66.8068 189.341 66.7379C188.611 62.3431 188.272 57.8923 188.329 53.4377C188.329 53.3134 188.329 53.1714 188.329 53.0115L188.417 50.9428C188.426 50.8305 188.477 50.7255 188.559 50.6484C188.641 50.5712 188.749 50.5274 188.861 50.5255H194.65C194.708 50.5248 194.766 50.5363 194.82 50.5593C194.873 50.5822 194.921 50.6161 194.961 50.6587C195.044 50.7412 195.092 50.8526 195.094 50.9695V59.3864C195.15 59.6813 195.306 59.9477 195.537 60.1393C195.768 60.3309 196.059 60.4358 196.359 60.4358C196.659 60.4358 196.95 60.3309 197.181 60.1393C197.412 59.9477 197.569 59.6813 197.625 59.3864V51.005C197.625 50.8873 197.671 50.7743 197.755 50.6911C197.838 50.6078 197.951 50.5611 198.068 50.5611H202.25C202.368 50.5611 202.481 50.6078 202.564 50.6911C202.647 50.7743 202.694 50.8873 202.694 51.005V59.4219C202.75 59.7169 202.907 59.9832 203.138 60.1748C203.369 60.3664 203.659 60.4713 203.959 60.4713C204.26 60.4713 204.55 60.3664 204.781 60.1748C205.012 59.9832 205.169 59.7169 205.225 59.4219V51.005C205.225 50.8873 205.271 50.7743 205.355 50.6911C205.438 50.6078 205.551 50.5611 205.669 50.5611H209.841C209.959 50.5611 210.072 50.6078 210.155 50.6911C210.239 50.7743 210.285 50.8873 210.285 51.005V59.4219C210.336 59.7222 210.491 59.9949 210.723 60.1916C210.956 60.3883 211.251 60.4962 211.555 60.4962C211.86 60.4962 212.154 60.3883 212.387 60.1916C212.619 59.9949 212.774 59.7222 212.825 59.4219V51.005C212.825 50.8873 212.871 50.7743 212.955 50.6911C213.038 50.6078 213.151 50.5611 213.269 50.5611H219.12C219.232 50.5629 219.34 50.6067 219.422 50.6839C219.504 50.761 219.555 50.866 219.564 50.9784L219.661 53.0115C219.661 53.2069 219.661 53.3578 219.661 53.4732C219.661 58.392 219.59 62.4761 218.72 66.5248C218.706 66.5923 218.676 66.6556 218.633 66.7096C218.589 66.7635 218.534 66.8066 218.471 66.8355C213.887 69.0215 208.874 70.1618 203.795 70.1739V70.1739ZM190.14 66.3561C194.511 68.3265 199.257 69.3262 204.051 69.2864C208.846 69.2465 213.575 68.168 217.912 66.1252C218.641 61.9495 218.938 57.7099 218.8 53.4732C218.8 53.3578 218.8 53.2246 218.8 53.0737L218.729 51.4489H213.739V59.4397C213.69 59.9781 213.442 60.4788 213.043 60.8434C212.643 61.208 212.122 61.4101 211.582 61.4101C211.041 61.4101 210.52 61.208 210.121 60.8434C209.722 60.4788 209.473 59.9781 209.424 59.4397V51.4489H206.139V59.4397C206.08 59.9694 205.828 60.4588 205.431 60.8142C205.033 61.1697 204.519 61.3662 203.986 61.3662C203.453 61.3662 202.939 61.1697 202.541 60.8142C202.144 60.4588 201.892 59.9694 201.833 59.4397V51.4489H198.539V59.4397C198.48 59.9694 198.228 60.4588 197.831 60.8142C197.433 61.1697 196.919 61.3662 196.386 61.3662C195.853 61.3662 195.339 61.1697 194.941 60.8142C194.544 60.4588 194.292 59.9694 194.233 59.4397V51.4489H189.314L189.243 53.0204C189.243 53.2158 189.243 53.3578 189.243 53.4732C189.172 57.7853 189.472 62.0954 190.14 66.3561V66.3561Z" fill="#263238"/>
<path opacity="0.3" d="M239.78 167.288C239.709 166.313 239.469 165.357 239.07 164.465L238.395 162.929C237.873 161.746 237.09 160.698 236.104 159.863C235.118 159.028 233.956 158.428 232.704 158.107C232.402 158.036 232.1 157.974 231.816 157.93C230.914 157.798 229.997 157.813 229.099 157.974C228.799 158.028 228.503 158.099 228.211 158.187C227.334 158.443 226.503 158.838 225.752 159.359H225.699L224.917 159.901L224.589 160.123L224.021 160.514L223.133 161.135L222.84 161.33L222.085 161.845H222.032L219.315 163.621C214.068 167.084 207.222 171.381 200.262 175.163C191.694 179.825 180.089 185.747 169.559 190.745L157.129 196.436L148.26 200.556L81.5813 231.01C81.5813 231.01 69.906 236.514 80.1252 240.945C80.1252 240.945 90.38 244.674 115.329 235.706C129.535 230.592 149.822 221.838 151.997 220.524C152.829 220.125 153.536 219.508 154.044 218.739C154.552 217.969 154.842 217.077 154.883 216.156C155.114 214.336 154.199 206.815 158.905 202.669L159.296 202.332C171.948 196.889 191.054 189.014 204.266 184.397C211.475 181.893 218.96 179.789 224.953 178.244L228.407 177.356H228.558L231.141 176.735L231.798 176.575L232.18 176.486L233.201 176.246C235.182 175.786 236.934 174.633 238.14 172.996C239.347 171.358 239.928 169.343 239.78 167.315V167.288Z" fill="black"/>
<path d="M224.385 157.664C216.153 163.394 207.636 168.704 198.868 173.574C190.291 178.235 178.687 184.157 168.157 189.165L80.2585 229.305C80.2585 229.305 68.5831 234.81 78.8024 239.24C78.8024 239.24 89.0571 242.969 114.015 234.002C128.221 228.888 148.499 220.133 150.683 218.828C151.514 218.426 152.22 217.806 152.727 217.036C153.235 216.266 153.526 215.373 153.569 214.451C153.791 212.631 152.877 205.111 157.591 200.965L157.982 200.636C170.625 195.185 189.732 187.318 202.943 182.692C212.445 179.486 222.102 176.76 231.878 174.524C233.068 174.251 234.185 173.725 235.153 172.982C236.121 172.239 236.918 171.296 237.49 170.218V170.218C238.094 169.077 238.432 167.814 238.478 166.524C238.524 165.234 238.277 163.95 237.756 162.769L237.072 161.233C236.561 160.087 235.804 159.068 234.855 158.248C233.906 157.428 232.788 156.827 231.58 156.488C230.372 156.149 229.104 156.08 227.867 156.286C226.63 156.493 225.453 156.969 224.42 157.681L224.385 157.664Z" fill="#D9D9D9"/>
<path d="M85.5412 240.474C83.2041 240.572 80.8662 240.297 78.6159 239.657C75.6594 238.379 74.1766 236.861 74.1766 235.129C74.1234 231.755 79.8412 229.021 80.0809 228.914L168.032 188.765C178.065 183.997 189.82 178.031 198.708 173.192C207.447 168.335 215.934 163.036 224.136 157.317C225.223 156.565 226.463 156.063 227.767 155.845C229.071 155.628 230.407 155.701 231.679 156.06C232.952 156.419 234.129 157.054 235.127 157.921C236.125 158.787 236.92 159.864 237.454 161.073L238.138 162.609C238.672 163.819 238.933 165.133 238.9 166.455C238.867 167.778 238.542 169.077 237.948 170.259C237.354 171.441 236.505 172.477 235.464 173.293C234.422 174.108 233.213 174.684 231.923 174.977C222.161 177.209 212.519 179.932 203.032 183.136C190.38 187.531 171.566 195.256 158.159 201.035L157.831 201.32C154.093 204.614 154.04 210.101 154.004 213.048C154.014 213.54 153.997 214.032 153.951 214.522C153.902 215.512 153.589 216.471 153.044 217.298C152.499 218.126 151.742 218.792 150.852 219.228C148.641 220.551 128.38 229.314 114.113 234.437C100.431 239.347 91.1614 240.474 85.5412 240.474ZM224.616 158.028C216.374 163.769 207.845 169.089 199.063 173.965C190.184 178.803 178.385 184.788 168.334 189.564L80.3828 229.704C78.8734 230.424 74.958 232.785 74.9935 235.12C74.9935 236.461 76.3341 237.713 78.9178 238.841C78.9977 238.841 89.3502 242.392 113.802 233.584C128.008 228.47 148.198 219.76 150.391 218.491C151.162 218.123 151.818 217.552 152.287 216.838C152.757 216.125 153.022 215.296 153.054 214.442C153.092 213.984 153.107 213.525 153.099 213.066C153.099 210.198 153.187 204.232 157.227 200.636L157.627 200.29C157.659 200.264 157.695 200.243 157.733 200.228C171.158 194.439 190.025 186.688 202.73 182.275C212.248 179.061 221.924 176.332 231.719 174.098C232.877 173.828 233.962 173.306 234.896 172.57C235.829 171.833 236.589 170.899 237.121 169.835C237.652 168.771 237.943 167.603 237.971 166.413C238 165.224 237.765 164.043 237.285 162.955L236.602 161.41C236.121 160.322 235.406 159.353 234.508 158.573C233.61 157.793 232.55 157.221 231.405 156.898C230.26 156.574 229.058 156.508 227.884 156.703C226.71 156.899 225.594 157.351 224.616 158.028V158.028Z" fill="#263238"/>
<path d="M155.7 194.856L146.919 198.86C150.167 204.342 152.185 210.465 152.832 216.804C153.226 216.077 153.465 215.275 153.533 214.451C153.755 212.631 152.841 205.111 157.556 200.965L157.946 200.636L158.204 200.521L155.7 194.856Z" fill="#263238"/>
<path d="M152.832 217.248H152.699C152.607 217.226 152.524 217.176 152.461 217.104C152.399 217.032 152.361 216.943 152.353 216.848C151.716 210.574 149.719 204.515 146.502 199.091C146.47 199.036 146.45 198.976 146.443 198.914C146.435 198.851 146.44 198.788 146.457 198.727C146.477 198.668 146.508 198.615 146.549 198.569C146.59 198.523 146.641 198.486 146.697 198.461L155.478 194.448C155.532 194.423 155.591 194.409 155.65 194.407C155.71 194.405 155.769 194.415 155.824 194.437C155.88 194.458 155.93 194.491 155.973 194.532C156.016 194.574 156.05 194.624 156.073 194.678L158.577 200.343C158.6 200.397 158.613 200.454 158.614 200.513C158.615 200.571 158.604 200.63 158.583 200.684C158.562 200.738 158.53 200.788 158.489 200.83C158.448 200.872 158.399 200.906 158.346 200.929L158.142 201.018L157.813 201.302C154.075 204.596 154.022 210.083 153.986 213.031C153.997 213.522 153.979 214.014 153.933 214.504C153.861 215.388 153.604 216.247 153.178 217.026C153.144 217.089 153.094 217.143 153.034 217.181C152.973 217.22 152.904 217.243 152.832 217.248V217.248ZM147.505 199.064C150.301 203.91 152.162 209.238 152.992 214.771C152.992 214.658 153.01 214.534 153.045 214.398C153.083 213.94 153.098 213.481 153.09 213.022C153.09 210.154 153.178 204.187 157.218 200.592L157.582 200.272L155.434 195.398L147.505 199.064Z" fill="#263238"/>
<path d="M85.63 359.199V319.849H94.3222V353.321H103.352V359.199H85.63Z" fill="#263238"/>
<path d="M117.735 359.749C115.279 359.881 112.831 359.37 110.632 358.267C108.962 357.305 107.7 355.768 107.081 353.943C106.345 351.695 105.999 349.338 106.06 346.973V319.849H114.654V348.314C114.653 349.129 114.718 349.942 114.85 350.746C114.954 351.479 115.261 352.168 115.737 352.735C116.294 353.237 117.017 353.515 117.766 353.515C118.516 353.515 119.239 353.237 119.795 352.735C120.237 352.157 120.514 351.47 120.594 350.746C120.708 349.941 120.764 349.128 120.763 348.314V319.849H129.41V347.009C129.472 349.375 129.117 351.734 128.363 353.978C127.732 355.797 126.472 357.33 124.811 358.302C122.62 359.395 120.18 359.894 117.735 359.749Z" fill="#263238"/>
<path d="M134.942 359.199V319.849H141.068L149.148 338.796V319.849H156.339V359.199H150.462L142.391 338.778V359.199H134.942Z" fill="#263238"/>
<path d="M173.448 359.749C170.974 359.88 168.513 359.314 166.345 358.116C164.635 357.061 163.34 355.45 162.678 353.552C161.918 351.324 161.554 348.98 161.604 346.627V332.421C161.549 330.035 161.913 327.658 162.678 325.398C163.338 323.506 164.634 321.903 166.345 320.861C168.518 319.676 170.977 319.119 173.448 319.254C175.808 319.13 178.159 319.625 180.267 320.692C181.853 321.588 183.082 323.002 183.747 324.697C184.453 326.59 184.797 328.599 184.76 330.619V334.019H176.263V330.086C176.263 329.341 176.221 328.597 176.138 327.857C176.087 327.209 175.843 326.59 175.437 326.082C175.178 325.825 174.866 325.628 174.522 325.507C174.178 325.386 173.811 325.342 173.448 325.38C173.08 325.349 172.709 325.398 172.361 325.524C172.013 325.65 171.696 325.849 171.433 326.108C170.977 326.616 170.689 327.251 170.607 327.928C170.491 328.692 170.434 329.464 170.438 330.237V348.74C170.432 349.547 170.504 350.353 170.651 351.146C170.759 351.815 171.069 352.435 171.539 352.922C171.799 353.154 172.102 353.332 172.432 353.445C172.761 353.558 173.11 353.603 173.457 353.579C173.814 353.613 174.173 353.567 174.51 353.444C174.846 353.321 175.151 353.125 175.402 352.868C175.81 352.342 176.062 351.711 176.13 351.048C176.227 350.292 176.274 349.529 176.272 348.767V344.656H184.768V348.056C184.802 350.101 184.466 352.134 183.774 354.058C183.127 355.797 181.914 357.267 180.329 358.231C178.69 359.243 176.396 359.749 173.448 359.749Z" fill="#263238"/>
<path d="M189.669 359.199V319.849H198.362V335.777H204.435V319.849H213.18V359.199H204.435V341.992H198.362V359.19L189.669 359.199Z" fill="#263238"/>
<path d="M235.128 359.199V326.348H229.206V319.884H249.751V326.348H243.873V359.199H235.128Z" fill="#263238"/>
<path d="M253.249 359.199V319.849H261.906V359.199H253.249Z" fill="#263238"/>
<path d="M267.677 359.199L268.351 319.849H277.683L282.007 342.729L286.668 319.849H295.644L296.328 359.199H290.157L289.429 333.016L284.857 359.199H279.37L274.513 332.821L273.936 359.199H267.677Z" fill="#263238"/>
<path d="M301.433 359.199V319.849H319.111V325.78H310.125V335.546H316.953V341.566H310.099V353.321H319.182V359.199H301.433Z" fill="#263238"/>
</svg>
