<svg width="572" height="470" viewBox="0 0 572 470" fill="none" xmlns="http://www.w3.org/2000/svg">
<path d="M347.775 264.729C347.517 264.729 347.269 264.626 347.087 264.444C344.867 262.211 342.738 259.77 340.492 257.2L339.194 255.759C339.022 255.564 338.934 255.309 338.95 255.05C338.965 254.791 339.084 254.548 339.278 254.376C339.473 254.204 339.728 254.116 339.987 254.132C340.246 254.148 340.489 254.266 340.661 254.461L341.959 255.915C344.192 258.511 346.295 260.874 348.45 263.068C348.586 263.204 348.678 263.377 348.716 263.566C348.753 263.755 348.734 263.95 348.66 264.128C348.587 264.306 348.462 264.458 348.302 264.565C348.142 264.672 347.954 264.729 347.762 264.729H347.775Z" fill="#CB4F2E"/>
<path d="M348.126 304.297C343.27 302.116 339.947 300.727 339.947 300.727C339.947 300.727 345.607 283.046 335.443 276.763L338.234 276.984C341.479 277.349 344.703 277.886 347.892 278.593C349.728 282.623 350.698 286.993 350.738 291.42C350.778 295.848 349.888 300.235 348.126 304.297Z" fill="#CB4F2E"/>
<path d="M318.008 211.881C313.27 212.634 305.027 215.1 291.811 222.642C290.851 219.008 289.929 215.516 289.059 212.257C297.887 206.402 307.714 203.274 313.984 203.066C315.152 205.792 316.528 208.765 318.008 211.881Z" fill="#CB4F2E"/>
<path d="M464.246 238.948H464.077C455.818 237.694 447.466 237.151 439.114 237.325V237.325C438.855 237.325 438.608 237.222 438.425 237.04C438.243 236.857 438.14 236.609 438.14 236.351C438.14 236.093 438.243 235.845 438.425 235.663C438.608 235.48 438.855 235.378 439.114 235.378H439.308C447.682 235.208 456.055 235.75 464.337 237C464.579 237.04 464.797 237.17 464.948 237.364C465.098 237.558 465.17 237.801 465.149 238.046C465.127 238.29 465.015 238.517 464.833 238.682C464.651 238.847 464.414 238.937 464.168 238.935L464.246 238.948Z" fill="#CB4F2E"/>
<path d="M414.968 237.624C403.894 237.624 394.301 237 389.225 233.898C384.004 230.753 379.441 226.627 375.789 221.747C374.42 219.811 372.745 218.11 370.83 216.71C370.715 216.645 370.615 216.556 370.535 216.451C370.456 216.345 370.398 216.225 370.367 216.096C370.335 215.968 370.33 215.835 370.352 215.704C370.374 215.574 370.422 215.449 370.494 215.338C370.565 215.227 370.658 215.131 370.768 215.057C370.878 214.983 371.001 214.933 371.131 214.908C371.261 214.883 371.394 214.885 371.523 214.914C371.652 214.943 371.774 214.997 371.882 215.074C373.971 216.585 375.8 218.427 377.295 220.527C380.827 225.223 385.236 229.191 390.277 232.21C396.547 236.105 411.047 235.793 426.353 235.521C426.611 235.521 426.858 235.623 427.041 235.806C427.224 235.988 427.326 236.236 427.326 236.494C427.326 236.752 427.224 237 427.041 237.183C426.858 237.365 426.611 237.468 426.353 237.468C422.458 237.559 418.628 237.624 414.968 237.624Z" fill="#CB4F2E"/>
<path d="M441.58 262.275H441.321C432.234 259.744 426.327 258.082 418.252 258.043C417.994 258.043 417.747 257.941 417.564 257.758C417.381 257.576 417.279 257.328 417.279 257.07C417.279 256.812 417.381 256.564 417.564 256.381C417.747 256.199 417.994 256.096 418.252 256.096C426.587 256.096 432.987 257.927 441.84 260.393C442.064 260.458 442.257 260.602 442.384 260.798C442.511 260.993 442.564 261.228 442.532 261.459C442.501 261.69 442.388 261.903 442.213 262.057C442.038 262.212 441.814 262.298 441.58 262.301V262.275Z" fill="#CB4F2E"/>
<path d="M400.078 258.978C388.971 259.033 378.036 256.244 368.312 250.878C366.071 249.642 364.025 248.085 362.236 246.256C362.14 246.168 362.062 246.061 362.008 245.942C361.954 245.823 361.924 245.695 361.921 245.564C361.917 245.434 361.94 245.304 361.988 245.182C362.036 245.061 362.108 244.95 362.199 244.857C362.291 244.763 362.4 244.689 362.521 244.639C362.641 244.589 362.771 244.564 362.901 244.565C363.032 244.566 363.161 244.593 363.281 244.645C363.401 244.697 363.509 244.773 363.599 244.867C365.254 246.562 367.147 248.005 369.22 249.151C383.617 256.784 394.976 257.693 407.62 256.706C407.878 256.688 408.132 256.772 408.329 256.94C408.525 257.107 408.648 257.345 408.671 257.602C408.682 257.73 408.667 257.859 408.628 257.981C408.589 258.103 408.526 258.217 408.442 258.314C408.359 258.412 408.257 258.492 408.143 258.551C408.029 258.609 407.904 258.644 407.776 258.654C405.283 258.835 402.765 258.978 400.078 258.978Z" fill="#CB4F2E"/>
<path d="M359.069 242.245C358.926 242.246 358.784 242.215 358.654 242.154C358.523 242.094 358.408 242.005 358.316 241.895C357.472 240.856 356.655 239.817 355.85 238.792C353.02 235.183 350.346 231.769 347.723 230.717C347.495 230.614 347.315 230.426 347.222 230.193C347.129 229.96 347.129 229.7 347.223 229.467C347.317 229.235 347.497 229.047 347.725 228.944C347.954 228.84 348.214 228.829 348.45 228.913C351.553 230.211 354.253 233.599 357.382 237.598C358.173 238.597 358.978 239.636 359.822 240.661C359.941 240.804 360.016 240.977 360.04 241.161C360.063 241.345 360.034 241.532 359.955 241.7C359.876 241.867 359.75 242.009 359.593 242.108C359.437 242.207 359.255 242.259 359.069 242.258V242.245Z" fill="#CB4F2E"/>
<path d="M416.863 286.434C416.756 286.453 416.646 286.453 416.538 286.434C410.666 284.379 404.685 282.645 398.624 281.242C398.495 281.216 398.374 281.166 398.265 281.092C398.157 281.019 398.065 280.925 397.994 280.815C397.923 280.705 397.874 280.582 397.852 280.453C397.829 280.325 397.833 280.193 397.863 280.065C397.892 279.938 397.947 279.818 398.024 279.712C398.102 279.607 398.199 279.518 398.311 279.451C398.424 279.383 398.548 279.34 398.678 279.322C398.807 279.304 398.939 279.312 399.065 279.346C405.215 280.771 411.282 282.53 417.239 284.617C417.459 284.691 417.644 284.842 417.763 285.041C417.881 285.24 417.925 285.475 417.886 285.703C417.846 285.931 417.727 286.138 417.549 286.286C417.371 286.435 417.146 286.515 416.915 286.512L416.863 286.434Z" fill="#CB4F2E"/>
<path d="M394.6 280.242H394.392C387.278 278.736 379.71 277.516 371.246 276.503C363.753 275.815 356.652 272.842 350.904 267.987C350.806 267.902 350.725 267.798 350.667 267.682C350.609 267.566 350.575 267.439 350.566 267.31C350.557 267.18 350.573 267.05 350.615 266.927C350.656 266.804 350.721 266.69 350.806 266.592C350.891 266.494 350.995 266.414 351.111 266.356C351.228 266.298 351.354 266.263 351.484 266.254C351.613 266.245 351.744 266.262 351.867 266.303C351.99 266.344 352.104 266.409 352.202 266.494C357.663 271.099 364.405 273.917 371.518 274.569C380.047 275.582 387.681 276.815 394.885 278.334C395.117 278.388 395.32 278.525 395.457 278.719C395.594 278.913 395.656 279.15 395.63 279.386C395.605 279.622 395.494 279.841 395.318 280.001C395.143 280.161 394.915 280.251 394.678 280.255L394.6 280.242Z" fill="#CB4F2E"/>
<path d="M300.107 241.414H299.496C299.24 241.397 299.001 241.28 298.831 241.088C298.661 240.896 298.574 240.645 298.588 240.388C298.594 240.261 298.626 240.136 298.682 240.021C298.737 239.906 298.815 239.804 298.91 239.719C299.005 239.635 299.117 239.57 299.238 239.529C299.358 239.488 299.486 239.471 299.613 239.48C305.455 239.817 317.087 233.716 321.838 228.705C321.915 228.586 322.017 228.486 322.137 228.411C322.257 228.335 322.391 228.287 322.532 228.269C322.672 228.251 322.815 228.264 322.95 228.307C323.085 228.35 323.208 228.422 323.313 228.518C323.417 228.613 323.499 228.731 323.553 228.861C323.608 228.992 323.633 229.133 323.627 229.274C323.622 229.416 323.585 229.554 323.52 229.68C323.456 229.806 323.364 229.916 323.253 230.003C318.385 235.209 306.701 241.414 300.107 241.414Z" fill="#CB4F2E"/>
<path d="M308.362 269.623C308.104 269.623 307.857 269.521 307.674 269.338C307.491 269.155 307.389 268.908 307.389 268.65C307.389 268.391 307.491 268.144 307.674 267.961C307.857 267.779 308.104 267.676 308.362 267.676V267.676C314.386 267.676 328.12 258.031 331.561 249.995C331.611 249.877 331.684 249.771 331.775 249.681C331.867 249.592 331.975 249.521 332.094 249.474C332.212 249.426 332.339 249.402 332.467 249.404C332.595 249.405 332.722 249.432 332.839 249.482C332.957 249.533 333.063 249.606 333.153 249.697C333.242 249.788 333.313 249.897 333.36 250.015C333.408 250.134 333.432 250.261 333.43 250.389C333.429 250.517 333.402 250.643 333.352 250.761C329.795 259.043 315.788 269.623 308.362 269.623Z" fill="#CB4F2E"/>
<path d="M359.757 310.775C359.569 310.775 359.385 310.721 359.227 310.619C359.069 310.517 358.944 310.371 358.867 310.199C358.79 310.028 358.765 309.837 358.794 309.652C358.823 309.466 358.905 309.292 359.03 309.152C364.469 303.051 365.521 292.029 361.302 286.019C361.221 285.915 361.161 285.796 361.127 285.669C361.093 285.542 361.086 285.409 361.104 285.279C361.123 285.149 361.168 285.024 361.237 284.911C361.305 284.799 361.396 284.702 361.503 284.625C361.61 284.549 361.731 284.495 361.86 284.467C361.988 284.439 362.121 284.437 362.251 284.462C362.38 284.486 362.503 284.537 362.612 284.611C362.721 284.684 362.814 284.779 362.886 284.889C367.611 291.562 366.456 303.752 360.471 310.45C360.381 310.551 360.271 310.632 360.148 310.688C360.025 310.743 359.892 310.773 359.757 310.775V310.775Z" fill="#CB4F2E"/>
<path d="M383.643 314.267C383.476 314.266 383.311 314.222 383.166 314.139C383.02 314.057 382.899 313.938 382.813 313.794C382.727 313.651 382.679 313.487 382.674 313.32C382.67 313.153 382.708 312.987 382.786 312.839C387.616 303.752 385.383 296.235 380.19 287.148C380.085 286.926 380.067 286.673 380.141 286.438C380.215 286.204 380.375 286.006 380.588 285.885C380.802 285.763 381.053 285.727 381.292 285.783C381.532 285.839 381.741 285.984 381.878 286.188C386.188 293.769 390.29 302.778 384.474 313.761C384.392 313.91 384.272 314.036 384.126 314.125C383.981 314.214 383.814 314.263 383.643 314.267V314.267Z" fill="#CB4F2E"/>
<path d="M171.017 173.715C169.594 175.166 168.028 176.471 166.344 177.609C161.242 181.504 153.609 187.034 152.246 187.995L152.038 188.15L151.843 188.306C151.437 188.589 151.001 188.828 150.545 189.02C146.897 186.229 143.561 184.425 141.315 184.827C138.821 185.591 136.525 186.894 134.591 188.644C126.605 183.645 119.042 178.001 111.977 171.768C117.39 162.46 138.096 147.18 143.47 147.18C148.844 147.18 159.113 155.086 161.93 158.578C162.515 157.288 163.265 156.079 164.163 154.982C167.681 164.887 170.848 173.585 171.017 173.715Z" fill="#CB4F2E"/>
<path d="M131.774 469.41C122.141 469.41 107.55 467.866 89.6614 465.516C79.354 464.218 73.2137 461.193 72.7853 457.337C72.5517 455.014 74.5379 452.924 78.0818 451.729C96.2561 445.641 127.049 431.816 135.071 426.675C135.178 426.598 135.3 426.543 135.429 426.514C135.558 426.486 135.692 426.484 135.822 426.508C135.952 426.533 136.075 426.584 136.185 426.658C136.294 426.732 136.388 426.827 136.459 426.938C136.531 427.05 136.579 427.174 136.601 427.305C136.622 427.435 136.617 427.568 136.586 427.697C136.554 427.825 136.497 427.946 136.417 428.051C136.338 428.157 136.238 428.245 136.123 428.311C128.009 433.503 96.9571 447.445 78.7049 453.573C76.1086 454.443 74.5898 455.806 74.7196 457.143C74.9273 459.233 79.0165 462.18 89.8562 463.634C103.409 465.386 139.433 470.046 142.484 465.737C145.729 461.154 153.129 443.785 153.207 443.668C153.257 443.55 153.33 443.444 153.421 443.354C153.513 443.265 153.621 443.194 153.74 443.147C153.858 443.099 153.985 443.075 154.113 443.077C154.241 443.078 154.368 443.105 154.485 443.155C154.603 443.205 154.709 443.278 154.799 443.37C154.888 443.461 154.959 443.569 155.006 443.688C155.054 443.807 155.078 443.934 155.076 444.062C155.075 444.19 155.048 444.316 154.998 444.434C154.686 445.161 147.443 462.167 144.067 466.931C142.847 468.644 138.537 469.41 131.774 469.41Z" fill="black"/>
<path d="M62.5295 379.24C61.6229 379.296 60.7199 379.084 59.9332 378.63C51.2095 372.814 23.4159 343.255 22.8187 333.116C22.7448 332.561 22.8053 331.997 22.9951 331.471C23.1849 330.944 23.4984 330.471 23.9092 330.091C27.0118 327.495 42.5638 331.675 64.1522 337.945C67.7222 338.984 71.0844 339.957 74.0053 340.762C74.2549 340.831 74.4669 340.996 74.5947 341.222C74.7225 341.447 74.7556 341.714 74.6868 341.963C74.6179 342.213 74.4527 342.425 74.2276 342.553C74.0024 342.68 73.7356 342.714 73.486 342.645C70.5651 341.827 67.1899 340.853 63.607 339.815C50.171 335.92 27.6868 329.429 25.1424 331.571C25.0256 331.675 24.6751 331.974 24.727 333.012C25.2463 341.723 51.8456 370.932 60.9717 377.02C62.0492 377.734 67.7481 378.786 96.1519 362.208L97.0087 361.715C97.2337 361.595 97.4965 361.569 97.7407 361.641C97.9849 361.714 98.1911 361.879 98.3151 362.101C98.4391 362.323 98.4709 362.586 98.4039 362.831C98.3368 363.077 98.1762 363.287 97.9564 363.415L97.1255 363.896C79.6782 374.099 68.0597 379.24 62.5295 379.24Z" fill="black"/>
<path d="M166.214 437.684H166.045C163.254 437.19 138.459 432.491 127.788 420.807C127.643 420.649 127.554 420.448 127.535 420.234C127.517 420.021 127.569 419.807 127.684 419.626C127.684 419.626 130.566 415.083 134.733 408.423C135.824 406.683 137.576 403.789 139.809 400.076C153.31 377.695 184.946 325.263 197.876 319.265C215.894 310.905 276.311 335.246 298.068 345.319C298.292 345.434 298.463 345.631 298.545 345.869C298.627 346.107 298.613 346.367 298.508 346.595C298.402 346.823 298.212 347.002 297.978 347.093C297.743 347.184 297.482 347.181 297.25 347.085C277.168 337.777 215.972 313.021 198.707 321.031C186.309 326.782 154.894 378.851 141.484 401.075C139.238 404.801 137.472 407.709 136.382 409.462C133.136 414.654 130.657 418.549 129.722 420.029C139.614 430.206 160.982 434.724 165.694 435.607C166.564 434.049 169.07 429.648 172.588 423.754C181.163 409.17 190.514 395.056 200.602 381.473C208.793 370.711 215.726 363.507 221.191 360.04C221.409 359.903 221.674 359.858 221.926 359.915C222.178 359.972 222.397 360.127 222.534 360.346C222.672 360.564 222.717 360.829 222.66 361.081C222.603 361.332 222.448 361.551 222.229 361.689C216.959 365.025 210.208 372.074 202.147 382.654C192.114 396.188 182.815 410.25 174.288 424.78C169.9 432.127 167.109 437.138 167.083 437.19C166.997 437.343 166.87 437.47 166.717 437.557C166.564 437.644 166.39 437.688 166.214 437.684Z" fill="black"/>
<path d="M450.213 215.464H450.135C449.879 215.441 449.642 215.317 449.477 215.12C449.311 214.923 449.23 214.669 449.252 214.412C449.642 209.856 447.837 203.534 446.085 197.432C444.749 193.183 443.712 188.845 442.982 184.451C442.177 178.259 443.748 172.144 445.409 165.666C448.149 155.008 450.979 143.987 443.125 131.577C433.531 116.388 419.446 121.763 418.849 122.009L418.161 122.282L417.707 121.698C417.616 121.581 408.503 109.871 396.105 112.481C378.489 116.18 372.219 136.951 370.142 153.723C368.571 165.913 362.989 167.938 356.524 170.262C352.626 171.479 348.955 173.33 345.659 175.74C339.44 180.53 339.246 185.424 339.064 190.163C338.921 193.694 338.791 197.043 335.922 199.587C334.183 201.061 331.996 201.903 329.717 201.976C326.433 202.378 323.045 202.781 318.216 210.791C318.15 210.9 318.063 210.996 317.961 211.073C317.858 211.149 317.741 211.205 317.617 211.236C317.366 211.3 317.1 211.261 316.878 211.128C316.656 210.996 316.496 210.78 316.433 210.529C316.369 210.279 316.408 210.013 316.541 209.791C321.863 200.963 325.901 200.483 329.522 200.042C331.421 200.019 333.254 199.345 334.715 198.133C336.961 196.134 337.078 193.473 337.208 190.085C337.389 185.398 337.623 179.557 344.555 174.195C348.01 171.658 351.862 169.71 355.953 168.431C362.301 166.147 366.884 164.537 368.299 153.477C370.531 136.081 377.113 114.532 395.859 110.637C407.996 108.041 416.902 117.582 418.966 120.036C422.159 119.062 435.686 115.999 444.929 130.616C453.224 143.74 450.122 155.684 447.448 166.225C445.838 172.508 444.306 178.44 445.072 184.269C445.788 188.575 446.803 192.826 448.11 196.991C449.901 203.274 451.77 209.765 451.342 214.672C451.32 214.798 451.273 214.919 451.205 215.027C451.136 215.135 451.047 215.229 450.942 215.302C450.837 215.376 450.718 215.428 450.593 215.456C450.468 215.484 450.339 215.486 450.213 215.464Z" fill="black"/>
<path d="M173.431 424.26C168.979 431.699 166.214 436.697 166.214 436.697C156.789 435.022 137.303 429.777 128.567 420.145C128.567 420.145 131.449 415.601 135.629 408.942C141.925 413.875 153.258 419.626 173.431 424.26Z" fill="black"/>
<path d="M166.214 437.683H166.045C163.254 437.19 138.459 432.491 127.788 420.807C127.643 420.649 127.554 420.448 127.535 420.234C127.517 420.021 127.569 419.807 127.684 419.626C127.684 419.626 130.566 415.082 134.733 408.423C134.806 408.307 134.902 408.208 135.016 408.132C135.129 408.056 135.257 408.004 135.392 407.981C135.527 407.958 135.665 407.963 135.797 407.997C135.93 408.03 136.054 408.092 136.161 408.176C144.015 414.291 156.633 419.379 173.652 423.313C173.802 423.348 173.941 423.418 174.059 423.517C174.176 423.617 174.269 423.742 174.328 423.884C174.388 424.026 174.413 424.18 174.401 424.333C174.39 424.487 174.342 424.635 174.262 424.767C169.874 432.114 167.083 437.125 167.057 437.177C166.974 437.329 166.852 437.456 166.704 437.545C166.556 437.634 166.387 437.682 166.214 437.683V437.683ZM129.735 420.041C139.627 430.219 160.995 434.737 165.707 435.619C166.525 434.165 168.758 430.232 171.926 424.91C155.867 421.093 143.742 416.199 135.837 410.37C132.851 415.173 130.605 418.665 129.722 420.054L129.735 420.041Z" fill="black"/>
<path d="M99.3717 368.31C99.2249 368.311 99.0798 368.278 98.9471 368.216C98.8145 368.153 98.6978 368.06 98.6058 367.946C98.1255 367.336 86.7146 352.758 84.4039 335.245C84.3796 335.066 84.4056 334.884 84.479 334.719C84.5524 334.554 84.6702 334.413 84.8193 334.311C84.8193 334.311 89.1033 331.403 95.9835 326.872C115.534 314.02 186.855 272.531 193.164 270.766C199.824 268.896 211.754 269.013 223.398 273.479C229.083 275.713 234.605 278.342 239.924 281.346C243.403 283.267 247.129 285.448 251.01 287.836C277.116 303.947 339.779 337.92 340.415 338.27C340.631 338.398 340.79 338.605 340.858 338.847C340.925 339.089 340.897 339.348 340.777 339.57C340.658 339.791 340.458 339.958 340.218 340.035C339.979 340.113 339.719 340.094 339.493 339.984C338.857 339.646 276.156 305.647 249.998 289.498C246.103 287.122 242.442 284.955 239.002 283.007C233.764 280.034 228.325 277.432 222.723 275.218C211.559 270.921 199.863 270.831 193.709 272.622C187.556 274.413 115.716 316.227 97.074 328.443C91.5568 332.078 87.7402 334.648 86.4291 335.531C88.571 350.304 97.5413 363.169 99.6833 366.077C101.306 365.311 105.616 363.299 111.561 360.469C127.503 352.848 157.088 338.4 176.21 327.521C176.432 327.416 176.686 327.398 176.92 327.472C177.154 327.546 177.352 327.706 177.474 327.919C177.595 328.133 177.632 328.384 177.575 328.624C177.519 328.863 177.375 329.072 177.171 329.209C157.997 340.165 128.36 354.601 112.392 362.234C104.733 365.882 99.7871 368.18 99.7871 368.18C99.6604 368.254 99.5183 368.299 99.3717 368.31V368.31Z" fill="black"/>
<path d="M111.977 361.39C104.317 365.038 99.3844 367.336 99.3844 367.336C99.3844 367.336 87.701 352.562 85.3903 335.115C85.3903 335.115 89.5833 332.259 96.5544 327.69C98.5796 337.361 102.889 350.537 111.977 361.39Z" fill="black"/>
<path d="M99.3717 368.309C99.2249 368.31 99.0798 368.278 98.9471 368.215C98.8145 368.152 98.6978 368.06 98.6058 367.946C98.1255 367.336 86.7146 352.757 84.4039 335.245C84.3796 335.066 84.4056 334.884 84.479 334.719C84.5524 334.554 84.6702 334.412 84.8193 334.31C84.8193 334.31 89.1033 331.403 95.9965 326.872C96.1289 326.784 96.281 326.729 96.4394 326.713C96.5977 326.697 96.7576 326.721 96.9049 326.781C97.0522 326.841 97.1825 326.936 97.2844 327.059C97.3863 327.181 97.4567 327.326 97.4894 327.482C99.4237 336.673 103.643 349.901 112.717 360.767C112.813 360.881 112.881 361.015 112.917 361.159C112.953 361.304 112.955 361.454 112.924 361.6C112.893 361.745 112.829 361.881 112.736 361.998C112.644 362.115 112.527 362.209 112.392 362.273C104.733 365.921 99.7871 368.218 99.7871 368.218C99.6572 368.279 99.5153 368.31 99.3717 368.309V368.309ZM86.3901 335.57C88.5321 350.343 97.5024 363.208 99.6444 366.115C101.163 365.401 105.032 363.584 110.393 361.04C102.046 350.654 97.8918 338.309 95.8537 329.261C90.9986 332.48 87.6363 334.687 86.4161 335.57H86.3901Z" fill="black"/>
<path d="M94.9188 315.877C94.7847 315.877 94.6521 315.849 94.5293 315.795C94.4064 315.742 94.2959 315.663 94.2048 315.565C51.1707 269.844 23.4809 211.855 1.23037 165.251C1.1934 165.173 1.1672 165.09 1.15248 165.004C0.308674 160.227 0.750052 157.488 2.5545 156.358C4.91715 154.892 8.92847 156.54 16.3799 162.057C24.6103 168.146 26.3628 170.976 29.5693 176.116C30.491 177.583 31.5165 179.258 32.8666 181.309C33.4767 182.205 34.3725 183.646 35.6057 185.632C67.5275 236.689 102.825 274.972 140.536 299.455C140.644 299.525 140.736 299.615 140.809 299.721C140.881 299.827 140.932 299.945 140.959 300.071C140.985 300.196 140.987 300.326 140.963 300.451C140.94 300.577 140.892 300.698 140.822 300.805C140.752 300.912 140.662 301.005 140.556 301.077C140.45 301.15 140.331 301.201 140.206 301.227C140.081 301.254 139.951 301.255 139.825 301.232C139.699 301.209 139.579 301.16 139.472 301.091C101.539 276.425 66.0476 237.974 33.97 186.619C32.7368 184.645 31.854 183.23 31.2699 182.361C29.8938 180.335 28.8553 178.648 27.9336 177.168C24.766 172.066 23.1693 169.509 15.2505 163.641C8.99338 159.007 5.08591 157.15 3.56706 158.033C2.99587 158.384 2.19101 159.695 3.03481 164.524C25.2204 210.972 52.8323 268.753 95.6198 314.215C95.7486 314.354 95.8341 314.527 95.8658 314.714C95.8975 314.901 95.874 315.093 95.7982 315.267C95.7224 315.44 95.5976 315.588 95.4391 315.692C95.2806 315.795 95.0953 315.851 94.9058 315.851L94.9188 315.877Z" fill="black"/>
<path d="M155.517 363.844C155.354 363.844 155.193 363.804 155.05 363.727C149.416 360.585 143.808 357.132 138.394 353.484C138.196 353.334 138.063 353.113 138.023 352.867C137.983 352.621 138.038 352.37 138.178 352.163C138.317 351.957 138.531 351.812 138.774 351.759C139.017 351.705 139.271 351.746 139.485 351.875C144.859 355.496 150.415 358.911 155.997 362.026C156.19 362.13 156.341 362.295 156.428 362.495C156.515 362.695 156.532 362.919 156.477 363.13C156.422 363.341 156.297 363.528 156.123 363.66C155.949 363.791 155.735 363.861 155.517 363.857V363.844Z" fill="black"/>
<path d="M273.494 392.962C249.015 393.121 224.638 389.773 201.109 383.018C200.986 382.982 200.871 382.922 200.772 382.842C200.672 382.762 200.589 382.663 200.528 382.551C200.466 382.439 200.427 382.316 200.413 382.189C200.399 382.062 200.411 381.933 200.447 381.81C200.482 381.688 200.542 381.573 200.622 381.473C200.702 381.374 200.801 381.291 200.913 381.229C201.025 381.168 201.148 381.129 201.275 381.115C201.403 381.101 201.531 381.113 201.654 381.148C228.162 388.937 257.228 392.144 288.047 390.651C316.957 389.249 343.361 385.458 366.534 379.552C366.776 379.507 367.027 379.556 367.234 379.69C367.442 379.823 367.591 380.03 367.652 380.269C367.713 380.508 367.681 380.761 367.563 380.977C367.444 381.193 367.248 381.357 367.014 381.434C343.712 387.431 317.177 391.183 288.137 392.585C283.204 392.836 278.323 392.962 273.494 392.962Z" fill="black"/>
<path d="M384.409 376.332C384.18 376.328 383.959 376.244 383.786 376.094C383.613 375.943 383.498 375.737 383.462 375.51C383.427 375.283 383.472 375.051 383.591 374.855C383.709 374.659 383.893 374.51 384.111 374.437C474.982 344.488 500.283 281.125 522.586 225.213L522.728 224.836C547.679 162.291 566.451 89.2303 569.956 75.2231C569.986 75.0986 570.041 74.9815 570.117 74.8782C570.193 74.775 570.289 74.6877 570.398 74.6214C570.508 74.5551 570.63 74.5111 570.757 74.4918C570.883 74.4725 571.013 74.4784 571.137 74.5091C571.261 74.5398 571.379 74.5947 571.482 74.6707C571.585 74.7466 571.672 74.8422 571.739 74.9519C571.805 75.0616 571.849 75.1833 571.868 75.31C571.888 75.4367 571.882 75.566 571.851 75.6904C568.333 89.7236 549.536 162.901 524.546 225.563L524.403 225.94C513.654 252.89 501.478 283.422 480.772 310.32C457.029 341.217 425.613 362.779 384.708 376.241C384.614 376.288 384.513 376.319 384.409 376.332V376.332Z" fill="black"/>
<path d="M549.951 79.157C538.332 79.1725 526.827 76.8733 516.107 72.3936C515.886 72.2833 515.715 72.0928 515.629 71.8609C515.542 71.6289 515.548 71.3728 515.644 71.1447C515.74 70.9166 515.919 70.7335 516.145 70.6328C516.371 70.532 516.627 70.521 516.86 70.6021C545.576 82.6361 570.345 74.6264 570.591 74.4966C570.715 74.4451 570.848 74.4196 570.982 74.4218C571.116 74.4241 571.248 74.4539 571.37 74.5096C571.492 74.5652 571.601 74.6454 571.691 74.7452C571.78 74.845 571.848 74.9621 571.89 75.0894C571.932 75.2166 571.948 75.3512 571.935 75.4846C571.923 75.6181 571.883 75.7475 571.819 75.8649C571.754 75.9823 571.666 76.0851 571.56 76.1669C571.453 76.2486 571.332 76.3076 571.201 76.34C564.29 78.2939 557.133 79.2426 549.951 79.157V79.157Z" fill="black"/>
<path d="M445.825 193.992C445.643 193.991 445.465 193.94 445.311 193.843C445.157 193.747 445.033 193.609 444.953 193.445C444.873 193.282 444.841 193.099 444.86 192.918C444.879 192.737 444.948 192.565 445.059 192.421C494.195 129.188 512.408 80.3249 515.562 71.1728C515.604 71.0518 515.669 70.9402 515.754 70.8443C515.839 70.7485 515.942 70.6703 516.057 70.6143C516.172 70.5582 516.297 70.5254 516.425 70.5176C516.553 70.5099 516.681 70.5274 516.802 70.5692C516.923 70.611 517.035 70.6762 517.131 70.7611C517.227 70.846 517.305 70.9489 517.361 71.064C517.417 71.1792 517.45 71.3042 517.457 71.432C517.465 71.5598 517.448 71.6879 517.406 71.8089C514.238 81.0129 495.934 130.135 446.604 193.616C446.512 193.734 446.394 193.83 446.259 193.895C446.124 193.96 445.975 193.994 445.825 193.992Z" fill="black"/>
<path d="M230.59 368.582C226.981 368.582 223.324 368.491 219.62 368.309C219.493 368.303 219.367 368.271 219.252 368.215C219.136 368.16 219.033 368.083 218.947 367.988C218.862 367.892 218.796 367.781 218.753 367.66C218.71 367.54 218.692 367.412 218.699 367.284C218.705 367.156 218.737 367.031 218.793 366.915C218.848 366.8 218.925 366.696 219.021 366.611C219.116 366.525 219.227 366.459 219.348 366.416C219.468 366.374 219.596 366.355 219.724 366.362C284.632 369.608 335.261 343.19 372.167 319.81C415.189 292.549 477.319 233.301 507.812 177.246C536.268 124.891 541.435 87.0235 541.474 86.647C541.49 86.52 541.531 86.3975 541.595 86.2863C541.658 86.1752 541.743 86.0777 541.844 85.9993C541.946 85.921 542.061 85.8633 542.185 85.8297C542.308 85.796 542.437 85.787 542.564 85.8032C542.691 85.8194 542.814 85.8605 542.925 85.9241C543.036 85.9876 543.134 86.0725 543.212 86.1737C543.29 86.275 543.348 86.3907 543.382 86.5142C543.415 86.6377 543.424 86.7667 543.408 86.8937C543.408 87.2702 538.151 125.501 509.526 178.168C478.902 234.521 416.435 294.055 373.219 321.459C338.182 343.657 290.799 368.582 230.59 368.582Z" fill="black"/>
<path d="M519.288 73.5743C519.159 73.5739 519.03 73.5474 518.912 73.4964C518.79 73.4481 518.679 73.3758 518.586 73.2837C518.493 73.1917 518.419 73.0817 518.369 72.9605C518.32 72.8393 518.295 72.7093 518.297 72.5783C518.298 72.4473 518.326 72.3181 518.379 72.1982C528.401 47.9615 533.724 25.7629 538.423 6.17366L539.721 0.747335C539.781 0.496 539.939 0.278889 540.159 0.143773C540.38 0.00865682 540.645 -0.0333974 540.896 0.026854C541.147 0.0871055 541.364 0.244731 541.5 0.465055C541.635 0.68538 541.677 0.950355 541.616 1.20169L540.318 6.62801C535.606 26.2952 530.258 48.5717 520.184 72.9511C520.114 73.1326 519.991 73.2889 519.831 73.4C519.672 73.511 519.483 73.5717 519.288 73.5743Z" fill="black"/>
<path d="M565.957 77.651C565.829 77.6459 565.703 77.6158 565.587 77.5621C565.471 77.5085 565.366 77.4325 565.28 77.3385C565.193 77.2444 565.125 77.1342 565.081 77.0141C565.037 76.8939 565.017 76.7663 565.022 76.6384C565.464 66.344 554.195 24.8287 544.252 3.94128C544.189 3.82542 544.15 3.69805 544.138 3.56688C544.126 3.43571 544.141 3.30346 544.182 3.17814C544.222 3.05282 544.288 2.93704 544.374 2.8378C544.461 2.73856 544.567 2.65793 544.686 2.60078C544.804 2.54364 544.933 2.51117 545.065 2.50535C545.196 2.49952 545.328 2.52047 545.451 2.5669C545.574 2.61333 545.687 2.6843 545.782 2.77549C545.877 2.86669 545.953 2.97623 546.004 3.09747C556.26 24.634 567.437 65.9805 566.969 76.7163C566.964 76.8442 566.934 76.9698 566.881 77.086C566.827 77.2023 566.751 77.3068 566.657 77.3936C566.563 77.4804 566.453 77.5478 566.333 77.592C566.212 77.6361 566.085 77.6562 565.957 77.651Z" fill="black"/>
<path d="M532.906 84.4141C532.749 84.4168 532.594 84.3814 532.453 84.3109C532.312 84.2405 532.191 84.1371 532.099 84.0095C532.007 83.8819 531.948 83.734 531.926 83.5784C531.903 83.4228 531.919 83.2641 531.972 83.1159C533.971 76.3525 541.448 33.3314 542.694 5.14825C542.7 5.02039 542.731 4.89496 542.786 4.77912C542.84 4.66327 542.917 4.55929 543.012 4.4731C543.106 4.38691 543.217 4.3202 543.337 4.27678C543.458 4.23337 543.586 4.21409 543.713 4.22005C543.841 4.22602 543.967 4.25712 544.083 4.31156C544.198 4.366 544.302 4.44273 544.389 4.53735C544.475 4.63198 544.541 4.74266 544.585 4.86306C544.628 4.98347 544.648 5.11126 544.642 5.23912C543.343 33.565 535.866 76.8717 533.841 83.6741C533.789 83.8836 533.669 84.0699 533.5 84.2039C533.331 84.3378 533.122 84.4117 532.906 84.4141V84.4141Z" fill="black"/>
<path d="M550.431 86.2967C550.173 86.2967 549.925 86.1941 549.742 86.0116C549.56 85.829 549.457 85.5813 549.457 85.3231C549.446 85.237 549.446 85.1497 549.457 85.0635C549.769 81.896 548.912 32.7345 542.681 5.44715C542.642 5.20294 542.698 4.95313 542.836 4.74844C542.975 4.54375 543.187 4.39952 543.428 4.345C543.669 4.29049 543.922 4.32978 544.135 4.45491C544.348 4.58004 544.506 4.78163 544.576 5.01877C550.47 30.8262 552.3 84.5053 551.158 85.9333C551.069 86.042 550.959 86.1307 550.833 86.1933C550.708 86.256 550.571 86.2913 550.431 86.2967V86.2967Z" fill="black"/>
<path d="M1.98322 159.759C1.79826 159.76 1.61699 159.708 1.46066 159.609C1.30432 159.51 1.17938 159.369 1.10046 159.201C-1.49586 153.645 0.256658 106.989 8.99329 79.2734C9.02825 79.1475 9.08819 79.03 9.16953 78.9277C9.25087 78.8255 9.35195 78.7407 9.46675 78.6783C9.58156 78.616 9.70775 78.5774 9.83779 78.5648C9.96782 78.5523 10.0991 78.566 10.2237 78.6052C10.3483 78.6444 10.4637 78.7083 10.5631 78.7931C10.6626 78.8778 10.7439 78.9818 10.8023 79.0986C10.8607 79.2155 10.895 79.3429 10.9031 79.4733C10.9113 79.6037 10.8931 79.7344 10.8497 79.8576C2.43758 106.561 0.464362 153.139 2.86596 158.37C2.93605 158.519 2.96741 158.683 2.95712 158.847C2.94684 159.011 2.89524 159.169 2.80713 159.308C2.71903 159.447 2.5973 159.561 2.45324 159.64C2.30918 159.719 2.14749 159.76 1.98322 159.759V159.759Z" fill="black"/>
<path d="M22.2479 163.329C22.0167 163.329 21.7932 163.247 21.6172 163.097C21.4412 162.947 21.3242 162.74 21.2872 162.511C20.2876 156.189 18.9635 148.31 17.5615 139.962C13.3684 115.025 8.63013 86.7377 8.92871 79.5849C8.93017 79.4559 8.95796 79.3285 9.01038 79.2106C9.06279 79.0927 9.13874 78.9868 9.23354 78.8993C9.32834 78.8118 9.44 78.7445 9.5617 78.7017C9.6834 78.6589 9.81256 78.6413 9.94127 78.6502C10.0692 78.6552 10.1948 78.6854 10.311 78.739C10.4273 78.7926 10.5317 78.8686 10.6186 78.9627C10.7054 79.0567 10.7728 79.167 10.817 79.2871C10.8611 79.4072 10.8812 79.5349 10.876 79.6627C10.5774 86.6339 15.5104 116.011 19.4828 139.638C20.8848 147.985 22.2089 155.865 23.2085 162.2C23.2497 162.455 23.1881 162.715 23.0372 162.925C22.8862 163.134 22.6584 163.275 22.4036 163.316L22.2479 163.329Z" fill="black"/>
<path d="M15.0428 163.329C14.8078 163.328 14.5812 163.242 14.4046 163.087C14.228 162.932 14.1135 162.718 14.0822 162.485C14.0822 162.057 8.53904 118.789 8.04574 92.3067C8.04403 92.1788 8.0675 92.0519 8.11485 91.9331C8.1622 91.8143 8.23249 91.706 8.32169 91.6144C8.4109 91.5228 8.51729 91.4496 8.63476 91.3991C8.75224 91.3486 8.87851 91.3218 9.00637 91.3201C9.26261 91.3232 9.50788 91.4246 9.69148 91.6034C9.87509 91.7822 9.98302 92.0246 9.99299 92.2807C10.4733 118.659 15.9516 161.81 16.0035 162.252C16.0199 162.379 16.011 162.508 15.9774 162.631C15.9439 162.755 15.8862 162.871 15.8079 162.972C15.7295 163.073 15.6319 163.158 15.5206 163.222C15.4094 163.285 15.2867 163.326 15.1597 163.342L15.0428 163.329Z" fill="black"/>
<path d="M7.17574 152.814C6.9446 152.814 6.72103 152.732 6.54503 152.582C6.36903 152.432 6.25208 152.225 6.2151 151.996C5.33235 146.609 5.63092 121.607 8.05849 105.341C8.1118 105.1 8.2543 104.889 8.45725 104.749C8.6602 104.609 8.90853 104.552 9.15219 104.588C9.39584 104.624 9.6167 104.752 9.77027 104.944C9.92384 105.137 9.9987 105.381 9.97976 105.626C7.38344 122.632 7.38344 147.025 8.13637 151.685C8.17757 151.94 8.11595 152.2 7.96503 152.41C7.81411 152.619 7.58624 152.76 7.33152 152.801L7.17574 152.814Z" fill="black"/>
<path d="M184.025 241.907C146.378 241.232 120.415 241.232 100.111 241.907C94.4786 241.907 89.076 239.672 85.0893 235.693C81.1027 231.714 78.8579 226.315 78.8475 220.682C80.8337 185.788 80.8337 159.383 78.8475 137.535C78.8407 134.742 79.3844 131.974 80.4475 129.391C81.5106 126.807 83.0724 124.459 85.0434 122.479C87.0145 120.5 89.3564 118.928 91.9351 117.854C94.5139 116.78 97.279 116.224 100.072 116.219C129.463 116.998 162.787 117.699 186.686 116.219C192.323 116.212 197.733 118.444 201.725 122.424C205.717 126.404 207.965 131.807 207.976 137.444C206.119 153.269 206.885 180.842 207.625 207.545C207.742 211.946 207.872 216.347 207.976 220.708C207.988 224.946 206.726 229.089 204.354 232.6C204.203 232.798 203.982 232.931 203.737 232.971C203.491 233.011 203.239 232.956 203.033 232.816C202.827 232.676 202.682 232.463 202.628 232.22C202.575 231.977 202.616 231.723 202.744 231.509C204.892 228.327 206.036 224.574 206.029 220.734C205.925 216.411 205.795 212.011 205.678 207.61C204.938 180.881 204.172 153.243 206.042 137.392C206.011 132.296 203.965 127.42 200.35 123.827C196.736 120.235 191.847 118.218 186.751 118.218C162.826 119.698 129.45 118.997 100.047 118.218C94.9539 118.239 90.0756 120.271 86.4745 123.872C82.8734 127.473 80.8413 132.352 80.8207 137.444C82.8069 159.305 82.8069 185.801 80.8207 220.734C80.8481 225.824 82.8855 230.696 86.489 234.29C90.0926 237.883 94.9703 239.908 100.06 239.921C120.389 239.246 146.3 239.246 184.051 239.921C184.309 239.921 184.556 240.024 184.739 240.206C184.922 240.389 185.024 240.637 185.024 240.895C185.024 241.153 184.922 241.401 184.739 241.583C184.556 241.766 184.309 241.868 184.051 241.868L184.025 241.907Z" fill="black"/>
<path d="M333.729 243.245C333.533 243.245 333.342 243.186 333.18 243.076C333.018 242.965 332.894 242.809 332.822 242.627C332.751 242.445 332.736 242.245 332.779 242.054C332.823 241.864 332.923 241.69 333.067 241.557C349.047 226.706 379.58 201.769 404.582 201.613C404.743 201.613 404.901 201.652 405.044 201.727C405.186 201.802 405.308 201.909 405.4 202.041C408.062 206.04 410.658 207.844 414.358 208.272C416.954 208.584 420.16 208.272 425.119 204.053C425.235 203.957 425.371 203.888 425.517 203.852C425.663 203.816 425.816 203.814 425.963 203.846C443.67 207.805 458.223 216.827 468.063 230.004C468.218 230.21 468.284 230.47 468.248 230.726C468.211 230.981 468.074 231.212 467.868 231.367C467.661 231.522 467.402 231.588 467.146 231.552C466.89 231.515 466.66 231.379 466.505 231.172C457.028 218.515 443.034 209.765 426.002 205.845C420.667 210.259 417.006 210.531 414.137 210.207C409.996 209.726 406.971 207.74 404.076 203.573C379.826 204.066 350.047 228.433 334.391 242.985C334.211 243.152 333.974 243.245 333.729 243.245V243.245Z" fill="black"/>
<path d="M399.105 202.586C399.832 205.559 403.168 216.009 415.604 215.944C429.066 215.879 434.142 206.506 433.116 204.455C432.091 202.404 426.405 199.34 425.327 200.015C424.25 200.69 416.539 216.359 406.154 201.184C404.726 199.016 398.741 201.08 399.105 202.586Z" fill="#CB4F2E"/>
<path d="M405.621 199.548C405.493 199.543 405.367 199.513 405.251 199.459C405.135 199.406 405.03 199.329 404.943 199.235C404.857 199.141 404.789 199.031 404.745 198.911C404.701 198.791 404.681 198.663 404.686 198.535C404.795 196.594 404.795 194.648 404.686 192.707C404.663 192.453 404.739 192.2 404.9 192.003C405.06 191.805 405.292 191.678 405.545 191.649C405.798 191.62 406.052 191.692 406.253 191.848C406.454 192.005 406.586 192.234 406.62 192.486C406.743 194.522 406.743 196.564 406.62 198.6C406.617 198.728 406.588 198.854 406.536 198.971C406.484 199.088 406.41 199.193 406.317 199.281C406.224 199.369 406.115 199.438 405.995 199.484C405.876 199.53 405.749 199.551 405.621 199.548V199.548Z" fill="black"/>
<path d="M382.8 142.65C382.591 142.651 382.387 142.584 382.219 142.46C382.05 142.336 381.926 142.161 381.865 141.962C380.567 137.691 380.086 128.694 386.746 122.139C386.932 121.968 387.177 121.876 387.43 121.883C387.682 121.89 387.922 121.994 388.099 122.174C388.276 122.355 388.376 122.597 388.377 122.849C388.379 123.102 388.283 123.345 388.109 123.528C382.099 129.447 382.605 137.808 383.721 141.39C383.774 141.539 383.789 141.697 383.767 141.853C383.745 142.009 383.685 142.157 383.594 142.284C383.502 142.412 383.38 142.515 383.24 142.586C383.099 142.656 382.944 142.691 382.787 142.689L382.8 142.65Z" fill="black"/>
<path d="M395.08 142.26C394.845 142.259 394.618 142.173 394.442 142.018C394.265 141.863 394.151 141.649 394.119 141.416C393.094 133.498 394.833 126.501 398.546 123.606C398.751 123.468 398.999 123.414 399.243 123.452C399.486 123.491 399.705 123.621 399.857 123.815C400.008 124.009 400.081 124.254 400.059 124.499C400.037 124.745 399.923 124.973 399.74 125.137C396.599 127.578 395.119 134.017 396.054 141.157C396.07 141.284 396.061 141.413 396.028 141.536C395.994 141.66 395.936 141.776 395.858 141.877C395.78 141.978 395.682 142.063 395.571 142.127C395.46 142.19 395.337 142.231 395.21 142.247L395.08 142.26Z" fill="black"/>
<path d="M407.737 142.261C407.567 142.261 407.399 142.217 407.251 142.133C407.103 142.049 406.98 141.927 406.893 141.78C404.466 137.652 405.024 128.422 408.957 124.281C409.139 124.14 409.365 124.067 409.595 124.076C409.825 124.086 410.044 124.176 410.214 124.332C410.383 124.487 410.492 124.698 410.521 124.926C410.55 125.155 410.498 125.386 410.372 125.579C407.023 129.11 406.478 137.263 408.568 140.742C408.688 140.962 408.718 141.219 408.653 141.461C408.587 141.703 408.432 141.91 408.217 142.04C408.081 142.157 407.915 142.233 407.737 142.261V142.261Z" fill="black"/>
<path d="M415.955 144.091C415.788 144.09 415.623 144.047 415.478 143.966C415.333 143.884 415.21 143.766 415.124 143.623C412.826 139.859 412.722 131.719 416.045 127.266C416.122 127.164 416.218 127.078 416.328 127.013C416.438 126.948 416.56 126.905 416.687 126.887C416.813 126.869 416.942 126.876 417.066 126.907C417.19 126.939 417.306 126.995 417.408 127.072C417.511 127.148 417.597 127.244 417.662 127.355C417.727 127.465 417.77 127.586 417.788 127.713C417.806 127.839 417.799 127.968 417.767 128.092C417.736 128.216 417.68 128.332 417.603 128.435C414.799 132.199 414.812 139.378 416.785 142.611C416.875 142.758 416.924 142.927 416.927 143.1C416.93 143.273 416.887 143.443 416.803 143.594C416.718 143.744 416.595 143.87 416.446 143.957C416.297 144.044 416.127 144.09 415.955 144.091Z" fill="black"/>
<path d="M424.561 198.523C424.334 198.524 424.113 198.445 423.938 198.3C423.762 198.156 423.643 197.954 423.601 197.731C420.589 181.698 425.197 166.043 425.392 165.393C425.465 165.154 425.626 164.952 425.844 164.829C426.061 164.706 426.318 164.671 426.56 164.731C430.312 165.679 433.584 163.226 435.167 160.37C436.375 158.189 436.998 154.865 434.739 152.697C434.248 152.153 433.646 151.719 432.975 151.423C432.304 151.128 431.578 150.978 430.844 150.984C429.022 151.238 427.35 152.136 426.132 153.515C426.042 153.62 425.93 153.704 425.805 153.762C425.68 153.821 425.543 153.851 425.405 153.853V153.853C425.268 153.853 425.132 153.824 425.007 153.768C424.882 153.712 424.77 153.631 424.678 153.528C422.445 150.932 420.005 141.235 423.068 130.797C423.104 130.675 423.164 130.56 423.244 130.461C423.324 130.361 423.423 130.278 423.535 130.216C423.647 130.155 423.77 130.116 423.897 130.102C424.024 130.088 424.153 130.1 424.276 130.135C424.398 130.171 424.513 130.231 424.613 130.311C424.712 130.391 424.795 130.49 424.857 130.602C424.918 130.714 424.957 130.837 424.971 130.964C424.985 131.091 424.974 131.22 424.938 131.343C422.264 140.43 424.042 148.426 425.574 151.36C427.004 150.04 428.829 149.228 430.766 149.05C431.775 149.023 432.778 149.211 433.709 149.6C434.64 149.989 435.477 150.572 436.167 151.308C438.672 153.736 438.984 157.669 436.946 161.33C435.128 164.602 431.442 167.432 427.106 166.821C426.197 170.301 423.068 183.905 425.6 197.393C425.624 197.519 425.623 197.649 425.597 197.775C425.571 197.901 425.521 198.02 425.448 198.127C425.376 198.233 425.283 198.324 425.176 198.394C425.068 198.464 424.947 198.512 424.821 198.536L424.561 198.523Z" fill="black"/>
<path d="M408.036 149.699C407.816 149.699 407.603 149.624 407.43 149.488C407.258 149.351 407.138 149.16 407.088 148.946C406.955 148.068 406.615 147.234 406.096 146.514C405.577 145.794 404.893 145.208 404.102 144.805C403.569 144.575 402.989 144.474 402.409 144.51C401.83 144.547 401.267 144.719 400.766 145.013C400.656 145.078 400.534 145.122 400.407 145.14C400.281 145.159 400.151 145.152 400.027 145.121C399.903 145.089 399.786 145.034 399.684 144.957C399.581 144.881 399.494 144.785 399.429 144.675C399.363 144.565 399.32 144.443 399.301 144.317C399.283 144.19 399.289 144.061 399.321 143.937C399.352 143.812 399.407 143.696 399.484 143.593C399.56 143.49 399.656 143.404 399.766 143.338C400.531 142.886 401.392 142.622 402.278 142.565C403.165 142.509 404.052 142.662 404.868 143.013C405.944 143.532 406.879 144.302 407.595 145.257C408.311 146.213 408.787 147.327 408.983 148.505C409.042 148.756 408.998 149.02 408.861 149.239C408.725 149.458 408.507 149.614 408.256 149.673L408.036 149.699Z" fill="black"/>
<path d="M381.06 148.452H380.956C380.828 148.439 380.704 148.401 380.59 148.34C380.477 148.279 380.377 148.195 380.296 148.095C380.215 147.995 380.155 147.88 380.119 147.756C380.083 147.632 380.072 147.503 380.086 147.375C380.21 146.166 380.72 145.03 381.541 144.134C382.362 143.238 383.45 142.631 384.643 142.403C385.875 142.082 387.176 142.147 388.37 142.591C389.564 143.034 390.592 143.834 391.315 144.882C391.438 145.102 391.471 145.361 391.407 145.605C391.343 145.848 391.187 146.058 390.972 146.189C390.757 146.32 390.5 146.362 390.254 146.308C390.008 146.253 389.793 146.105 389.654 145.895C389.139 145.199 388.426 144.675 387.609 144.39C386.791 144.106 385.907 144.073 385.071 144.298C384.275 144.436 383.546 144.83 382.996 145.421C382.445 146.011 382.102 146.766 382.021 147.57C381.998 147.81 381.887 148.033 381.71 148.196C381.533 148.359 381.301 148.45 381.06 148.452V148.452Z" fill="black"/>
<path d="M406.66 193.577C404.797 193.58 402.944 193.318 401.155 192.798C398.631 192.038 396.283 190.786 394.246 189.112C392.209 187.439 390.525 185.378 389.29 183.049C384.02 173.39 382.734 157.968 383.786 146.973C383.789 146.839 383.82 146.708 383.877 146.587C383.933 146.466 384.013 146.358 384.113 146.27C384.213 146.181 384.33 146.114 384.457 146.073C384.584 146.031 384.718 146.016 384.85 146.029C384.983 146.041 385.112 146.081 385.229 146.145C385.346 146.21 385.448 146.297 385.53 146.403C385.611 146.508 385.67 146.63 385.703 146.759C385.736 146.888 385.742 147.023 385.72 147.154C384.695 157.851 385.915 172.819 390.991 182.101C392.076 184.189 393.567 186.04 395.377 187.544C397.186 189.049 399.278 190.177 401.529 190.862C403.781 191.548 406.146 191.777 408.487 191.537C410.828 191.296 413.098 190.591 415.163 189.462C415.39 189.338 415.657 189.309 415.905 189.382C416.154 189.455 416.363 189.624 416.487 189.851C416.611 190.078 416.639 190.345 416.566 190.594C416.493 190.842 416.324 191.051 416.097 191.175C413.202 192.754 409.957 193.58 406.66 193.577V193.577Z" fill="black"/>
<path d="M402.661 162.097C403.859 162.097 404.829 160.742 404.829 159.072C404.829 157.401 403.859 156.047 402.661 156.047C401.464 156.047 400.493 157.401 400.493 159.072C400.493 160.742 401.464 162.097 402.661 162.097Z" fill="black"/>
<path d="M389.316 162.758C390.514 162.758 391.484 161.404 391.484 159.733C391.484 158.063 390.514 156.709 389.316 156.709C388.119 156.709 387.148 158.063 387.148 159.733C387.148 161.404 388.119 162.758 389.316 162.758Z" fill="black"/>
<path d="M396.962 174.805H396.884C396.313 174.779 395.754 174.633 395.242 174.378C394.73 174.124 394.277 173.765 393.911 173.325C391.64 170.573 392.354 164.355 393.34 155.761L393.47 154.567C393.483 154.439 393.521 154.315 393.583 154.203C393.644 154.09 393.727 153.991 393.828 153.911C393.928 153.831 394.044 153.772 394.167 153.738C394.291 153.703 394.42 153.694 394.547 153.71C394.804 153.739 395.038 153.869 395.199 154.071C395.36 154.274 395.433 154.531 395.404 154.788L395.274 155.982C394.379 163.771 393.678 169.976 395.417 172.092C395.617 172.33 395.865 172.522 396.144 172.657C396.424 172.791 396.73 172.864 397.04 172.871C397.298 172.881 397.542 172.994 397.717 173.184C397.892 173.374 397.985 173.625 397.975 173.884C397.964 174.142 397.852 174.385 397.662 174.561C397.472 174.736 397.22 174.829 396.962 174.818V174.805Z" fill="black"/>
<path d="M405.777 185.878C401.74 185.878 398.624 181.763 397.027 177.752C396.94 177.57 396.912 177.366 396.946 177.168C396.98 176.969 397.075 176.786 397.217 176.644C397.36 176.501 397.543 176.407 397.741 176.373C397.94 176.339 398.144 176.367 398.325 176.454C402.103 177.986 409.516 174.857 410.892 172.378C410.983 172.211 411.122 172.075 411.291 171.987C411.459 171.899 411.65 171.863 411.839 171.884C412.027 171.902 412.205 171.974 412.353 172.092C412.5 172.209 412.611 172.367 412.67 172.546C413.968 176.584 413.826 183.36 407.958 185.463C407.261 185.727 406.523 185.868 405.777 185.878V185.878ZM399.663 178.777C400.961 181.179 403.557 184.97 407.283 183.659C411.009 182.347 411.761 178.193 411.177 174.948C407.924 177.566 403.836 178.926 399.663 178.777V178.777Z" fill="black"/>
<path d="M342.426 278.762H342.206C341.954 278.704 341.737 278.548 341.6 278.329C341.464 278.11 341.42 277.845 341.479 277.594C344.309 265.638 350.813 256.694 356.148 250.229C360.377 245.214 363.833 239.596 366.403 233.56C366.488 233.316 366.666 233.115 366.898 233.002C367.131 232.888 367.399 232.872 367.643 232.957C367.888 233.041 368.089 233.219 368.202 233.452C368.315 233.684 368.331 233.952 368.247 234.196C366.949 237.883 362.847 245.192 357.654 251.475C352.461 257.758 346.113 266.495 343.374 278.048C343.317 278.255 343.193 278.437 343.022 278.566C342.85 278.695 342.641 278.764 342.426 278.762V278.762Z" fill="black"/>
<path d="M389.329 289.485C389.148 289.485 388.971 289.435 388.817 289.34C388.663 289.245 388.539 289.109 388.458 288.947C388.377 288.785 388.343 288.604 388.359 288.424C388.376 288.244 388.442 288.072 388.55 287.927C393.43 281.362 398.656 275.062 404.206 269.052C407.673 265.326 410.949 261.427 414.02 257.369C421.601 247.191 430.312 238.376 435.686 235.456C435.914 235.332 436.181 235.303 436.429 235.376C436.552 235.412 436.667 235.472 436.766 235.553C436.866 235.633 436.949 235.733 437.01 235.845C437.072 235.958 437.11 236.081 437.124 236.209C437.138 236.336 437.126 236.465 437.09 236.588C437.054 236.711 436.994 236.825 436.913 236.925C436.833 237.025 436.734 237.108 436.621 237.169C431.545 239.934 422.886 248.71 415.578 258.537C412.216 263.055 409.087 266.586 405.647 270.324C400.125 276.287 394.925 282.54 390.069 289.057C389.986 289.18 389.877 289.282 389.748 289.357C389.62 289.431 389.477 289.475 389.329 289.485Z" fill="black"/>
<path d="M395.859 291.666C395.773 291.678 395.685 291.678 395.599 291.666C386.343 289.07 362.444 282.579 347.71 279.593C344.556 278.891 341.366 278.358 338.155 277.996L335.364 277.776C329.371 277.216 323.351 276.999 317.333 277.127C317.205 277.131 317.078 277.11 316.958 277.065C316.838 277.02 316.728 276.952 316.635 276.864C316.542 276.777 316.466 276.672 316.413 276.556C316.361 276.439 316.331 276.313 316.327 276.185C316.323 276.058 316.344 275.93 316.389 275.81C316.434 275.691 316.502 275.581 316.589 275.487C316.676 275.394 316.781 275.319 316.898 275.266C317.014 275.213 317.14 275.184 317.268 275.179C323.36 275.056 329.454 275.277 335.52 275.841L338.324 276.062C341.609 276.427 344.872 276.969 348.099 277.685C362.885 280.748 386.837 287.161 396.131 289.797C396.355 289.862 396.548 290.005 396.676 290.201C396.803 290.397 396.855 290.632 396.824 290.863C396.792 291.094 396.679 291.306 396.504 291.461C396.329 291.615 396.105 291.702 395.872 291.705L395.859 291.666Z" fill="black"/>
<path d="M289.462 295.625C289.295 295.626 289.131 295.583 288.986 295.502C288.84 295.421 288.718 295.303 288.63 295.161C288.543 295.019 288.494 294.857 288.487 294.691C288.48 294.524 288.516 294.359 288.592 294.21C289.89 291.77 290.721 289.978 291.383 288.641C293.084 285.175 293.395 284.552 294.771 283.695C296.563 282.566 310.219 277.049 314.438 276.257C314.683 276.227 314.93 276.292 315.129 276.438C315.328 276.583 315.464 276.799 315.511 277.041C315.557 277.283 315.509 277.534 315.378 277.743C315.246 277.951 315.04 278.102 314.802 278.165C310.765 278.918 297.225 284.435 295.823 285.331C294.94 285.889 294.849 286.045 293.136 289.498C292.473 290.796 291.591 292.639 290.332 295.093C290.25 295.253 290.125 295.388 289.972 295.482C289.818 295.576 289.642 295.626 289.462 295.625V295.625Z" fill="black"/>
<path d="M293.304 303.635C293.138 303.637 292.974 303.596 292.829 303.516C292.683 303.436 292.56 303.321 292.471 303.18C292.383 303.04 292.332 302.879 292.323 302.713C292.314 302.548 292.348 302.382 292.421 302.233C297.341 291.329 302.352 287.395 302.56 287.226C302.765 287.068 303.024 286.997 303.281 287.03C303.538 287.063 303.771 287.197 303.929 287.402C304.088 287.607 304.158 287.866 304.125 288.123C304.092 288.38 303.959 288.613 303.754 288.771C303.754 288.771 298.886 292.666 294.2 303.051C294.124 303.225 293.998 303.373 293.839 303.477C293.68 303.581 293.494 303.636 293.304 303.635V303.635Z" fill="black"/>
<path d="M301.431 306.491C301.177 306.491 300.933 306.392 300.751 306.215C300.569 306.038 300.464 305.797 300.457 305.543C300.171 300.782 301.578 296.074 304.429 292.25C304.51 292.15 304.608 292.067 304.721 292.006C304.833 291.944 304.956 291.906 305.083 291.892C305.21 291.878 305.339 291.889 305.462 291.925C305.585 291.961 305.699 292.021 305.799 292.101C305.899 292.181 305.982 292.28 306.043 292.392C306.105 292.504 306.143 292.627 306.157 292.755C306.171 292.882 306.16 293.01 306.124 293.133C306.088 293.256 306.028 293.371 305.948 293.47C303.393 296.932 302.139 301.184 302.404 305.478C302.408 305.606 302.386 305.733 302.34 305.853C302.294 305.972 302.226 306.082 302.138 306.174C302.05 306.267 301.944 306.342 301.827 306.394C301.71 306.446 301.584 306.475 301.457 306.478L301.431 306.491Z" fill="black"/>
<path d="M308.973 306.491C308.717 306.491 308.471 306.39 308.289 306.21C308.107 306.031 308.003 305.786 307.999 305.53C307.999 302.648 308.246 296.3 309.843 292.925C309.953 292.691 310.151 292.51 310.395 292.423C310.638 292.335 310.907 292.348 311.141 292.458C311.375 292.568 311.556 292.767 311.643 293.01C311.731 293.254 311.718 293.522 311.608 293.756C310.31 296.573 309.895 302.441 309.946 305.439C309.948 305.567 309.925 305.694 309.877 305.813C309.83 305.932 309.76 306.04 309.67 306.132C309.581 306.223 309.475 306.297 309.357 306.347C309.24 306.398 309.114 306.424 308.986 306.426L308.973 306.491Z" fill="black"/>
<path d="M315.996 306.919H315.866C315.739 306.902 315.616 306.859 315.505 306.794C315.395 306.729 315.298 306.643 315.221 306.54C315.144 306.438 315.087 306.321 315.056 306.197C315.024 306.072 315.017 305.943 315.035 305.816C316.009 298.767 316.904 296.222 318.618 295.69C318.858 295.635 319.11 295.672 319.323 295.795C319.536 295.918 319.695 296.117 319.768 296.352C319.84 296.588 319.82 296.842 319.713 297.063C319.606 297.285 319.419 297.457 319.189 297.546C318.774 297.676 317.891 298.948 316.956 306.075C316.925 306.308 316.81 306.522 316.634 306.677C316.457 306.832 316.231 306.918 315.996 306.919Z" fill="black"/>
<path d="M375.646 319.693C375.458 319.694 375.273 319.64 375.114 319.538C367.143 314.345 355.823 308.828 347.736 305.18C343.841 303.427 340.921 302.194 339.947 301.779C332.976 304.375 328.99 301.324 326.602 299.494L326.018 299.053C324.07 297.625 320.955 298.287 317.878 299.208C317.755 299.245 317.627 299.257 317.499 299.244C317.372 299.231 317.248 299.193 317.136 299.132C317.023 299.071 316.923 298.989 316.842 298.889C316.762 298.79 316.701 298.676 316.664 298.553C316.628 298.43 316.616 298.301 316.629 298.174C316.642 298.046 316.68 297.923 316.741 297.81C316.802 297.697 316.884 297.598 316.984 297.517C317.083 297.436 317.197 297.376 317.32 297.339C320.877 296.275 324.525 295.561 327.173 297.482L327.796 297.949C330.042 299.663 333.417 302.259 339.609 299.819C339.843 299.725 340.103 299.725 340.336 299.819C340.336 299.819 343.738 301.234 348.541 303.388C356.693 307.062 368.117 312.566 376.192 317.889C376.369 318.003 376.504 318.172 376.577 318.369C376.65 318.567 376.657 318.782 376.597 318.984C376.537 319.186 376.413 319.363 376.244 319.488C376.075 319.614 375.87 319.681 375.659 319.68L375.646 319.693Z" fill="black"/>
<path d="M312.777 276.179C312.63 276.18 312.485 276.147 312.352 276.085C312.219 276.022 312.103 275.929 312.011 275.815C302.3 263.664 296.004 242.063 290.864 222.889C289.903 219.254 288.981 215.762 288.111 212.504C287.06 208.609 286.203 205.494 285.424 202.884C285.398 202.663 285.449 202.439 285.568 202.25C285.688 202.062 285.868 201.92 286.079 201.848C286.291 201.777 286.52 201.78 286.729 201.858C286.939 201.935 287.115 202.082 287.229 202.274C288.021 204.87 288.877 207.986 289.929 211.958C290.812 215.23 291.733 218.722 292.694 222.344C298.146 242.79 304.442 263.262 313.465 274.556C313.58 274.699 313.652 274.873 313.673 275.056C313.694 275.239 313.663 275.424 313.582 275.59C313.502 275.756 313.377 275.895 313.22 275.993C313.064 276.09 312.883 276.141 312.699 276.14L312.777 276.179Z" fill="black"/>
<path d="M296.004 197.562C295.853 197.562 295.704 197.527 295.569 197.46C295.434 197.392 295.316 197.294 295.226 197.173C294.01 195.617 293.283 193.737 293.135 191.769C292.987 189.8 293.426 187.832 294.395 186.113C291.214 185.697 284.516 184.672 281.777 182.595C279.972 181.219 280.128 179.856 280.375 179.167C281.413 176.363 287.566 174.858 296.043 175.338C296.171 175.346 296.296 175.378 296.411 175.434C296.527 175.49 296.63 175.569 296.715 175.664C296.8 175.76 296.865 175.872 296.907 175.993C296.949 176.114 296.966 176.242 296.959 176.37C296.951 176.498 296.918 176.623 296.862 176.738C296.806 176.853 296.728 176.956 296.632 177.041C296.536 177.126 296.425 177.192 296.304 177.233C296.183 177.275 296.054 177.293 295.927 177.285C286.476 176.74 282.581 178.778 282.192 179.881C282.036 180.31 282.594 180.829 282.945 181.089C284.684 182.387 288.916 183.503 295.524 184.334L296.121 184.412C296.291 184.436 296.451 184.505 296.586 184.611C296.721 184.717 296.825 184.857 296.888 185.017C296.951 185.176 296.971 185.35 296.946 185.519C296.921 185.689 296.851 185.849 296.744 185.983C295.645 187.427 295.05 189.192 295.05 191.007C295.05 192.822 295.645 194.586 296.744 196.031C296.853 196.175 296.919 196.347 296.935 196.527C296.951 196.707 296.917 196.888 296.836 197.05C296.755 197.212 296.631 197.348 296.477 197.443C296.324 197.538 296.146 197.588 295.965 197.588L296.004 197.562Z" fill="black"/>
<path d="M340.96 264.729C340.706 264.729 340.462 264.63 340.28 264.453C340.098 264.276 339.993 264.035 339.986 263.781C339.762 260.229 339.014 256.729 337.766 253.396C336.922 251.202 333.872 245.36 330.081 237.987C326.187 230.353 321.202 220.838 317.099 212.309C315.581 209.141 314.217 206.156 313.049 203.442L312.867 203.014C310.79 198.159 306.519 186.047 305.325 179.076C304.338 173.273 291.318 169.703 282.698 169.457C282.57 169.453 282.444 169.425 282.327 169.373C282.211 169.321 282.105 169.246 282.017 169.153C281.929 169.06 281.86 168.951 281.815 168.832C281.769 168.712 281.747 168.585 281.75 168.457C281.752 168.329 281.779 168.202 281.831 168.084C281.882 167.967 281.957 167.86 282.05 167.772C282.143 167.684 282.253 167.615 282.373 167.57C282.494 167.525 282.622 167.504 282.75 167.509C291.902 167.769 306.013 171.521 307.233 178.738C308.298 184.983 312.335 196.822 314.633 202.209L314.815 202.638C315.983 205.351 317.333 208.311 318.839 211.452C322.889 219.955 327.809 229.445 331.821 237.078C335.832 244.711 338.714 250.397 339.61 252.656C340.945 256.194 341.737 259.915 341.959 263.69C341.963 263.818 341.941 263.945 341.895 264.065C341.849 264.184 341.781 264.294 341.693 264.386C341.605 264.479 341.499 264.554 341.382 264.606C341.265 264.658 341.139 264.686 341.012 264.69L340.96 264.729Z" fill="black"/>
<path d="M282.036 204.04C279.611 203.993 277.232 203.36 275.104 202.197C274.984 202.142 274.877 202.063 274.789 201.965C274.7 201.867 274.633 201.753 274.59 201.628C274.547 201.504 274.53 201.372 274.54 201.24C274.55 201.109 274.586 200.981 274.647 200.864C274.707 200.747 274.791 200.644 274.893 200.56C274.995 200.476 275.112 200.414 275.239 200.378C275.365 200.341 275.498 200.33 275.629 200.346C275.759 200.362 275.886 200.404 276 200.47C281.711 203.417 286.696 202.366 291.681 197.173C291.864 197.04 292.087 196.975 292.312 196.988C292.537 197.001 292.751 197.092 292.916 197.245C293.082 197.399 293.189 197.605 293.22 197.828C293.25 198.052 293.202 198.279 293.083 198.471C289.565 202.275 285.93 204.04 282.036 204.04Z" fill="black"/>
<path d="M262.875 163.329C262.632 163.33 262.397 163.24 262.217 163.077C262.037 162.914 261.924 162.689 261.902 162.447C261.694 160.097 263.2 158.747 264.498 157.669C265.796 156.592 266.536 155.839 266.419 154.541C266.302 153.243 265.42 152.658 263.979 151.815C262.538 150.971 260.798 149.932 260.578 147.583C260.357 145.233 261.876 143.883 263.174 142.818C264.472 141.754 265.212 140.988 265.095 139.69C265.092 139.444 265.183 139.207 265.347 139.025C265.512 138.843 265.74 138.731 265.984 138.709C266.229 138.688 266.472 138.76 266.666 138.91C266.86 139.061 266.99 139.279 267.029 139.521C267.237 141.871 265.731 143.221 264.433 144.285C263.135 145.35 262.395 146.116 262.512 147.414C262.629 148.712 263.511 149.296 264.952 150.14C266.393 150.984 268.133 152.022 268.354 154.372C268.574 156.722 267.055 158.072 265.757 159.149C264.459 160.227 263.719 160.98 263.836 162.278C263.858 162.534 263.777 162.789 263.611 162.986C263.446 163.183 263.209 163.306 262.953 163.329H262.875Z" fill="black"/>
<path d="M253.476 160.227C253.229 160.227 252.991 160.134 252.81 159.965C252.629 159.796 252.519 159.565 252.503 159.318C252.48 158.722 252.595 158.129 252.838 157.584C253.081 157.039 253.446 156.558 253.905 156.177C254.502 155.566 254.813 155.216 254.761 154.528C254.71 153.84 254.359 153.541 253.684 153.022C253.162 152.726 252.722 152.306 252.401 151.799C252.081 151.292 251.891 150.713 251.847 150.115C251.803 149.517 251.908 148.917 252.151 148.369C252.395 147.821 252.77 147.341 253.243 146.973C253.853 146.349 254.151 146.012 254.099 145.337C254.09 145.209 254.106 145.081 254.146 144.959C254.186 144.837 254.25 144.725 254.334 144.628C254.418 144.531 254.52 144.451 254.634 144.393C254.749 144.336 254.874 144.301 255.002 144.292C255.129 144.283 255.258 144.298 255.38 144.339C255.501 144.379 255.614 144.443 255.711 144.527C255.808 144.61 255.888 144.712 255.945 144.827C256.003 144.942 256.037 145.066 256.047 145.194C256.069 145.79 255.954 146.383 255.711 146.928C255.468 147.473 255.103 147.954 254.645 148.336C254.035 148.959 253.736 149.296 253.788 149.971C253.84 150.646 254.19 150.958 254.865 151.477C255.387 151.773 255.827 152.194 256.148 152.701C256.468 153.208 256.659 153.786 256.702 154.384C256.746 154.982 256.642 155.582 256.398 156.13C256.155 156.678 255.78 157.158 255.307 157.527C254.71 158.137 254.398 158.487 254.45 159.175C254.468 159.432 254.384 159.685 254.216 159.879C254.048 160.074 253.81 160.194 253.554 160.214L253.476 160.227Z" fill="black"/>
<path d="M274.247 158.591C274 158.591 273.761 158.498 273.58 158.329C273.4 158.16 273.29 157.929 273.273 157.682C273.251 157.086 273.366 156.493 273.609 155.948C273.852 155.404 274.217 154.922 274.675 154.541C275.272 153.93 275.584 153.58 275.532 152.892C275.48 152.204 275.13 151.905 274.455 151.386C273.933 151.09 273.493 150.67 273.172 150.163C272.852 149.656 272.661 149.078 272.617 148.479C272.574 147.881 272.678 147.281 272.922 146.733C273.165 146.185 273.54 145.705 274.013 145.337C274.623 144.714 274.922 144.376 274.87 143.701C274.861 143.573 274.877 143.445 274.917 143.323C274.957 143.201 275.021 143.089 275.105 142.992C275.188 142.895 275.291 142.815 275.405 142.757C275.52 142.7 275.644 142.665 275.772 142.656C275.9 142.647 276.029 142.662 276.15 142.703C276.272 142.743 276.385 142.807 276.482 142.891C276.579 142.974 276.658 143.076 276.716 143.191C276.773 143.306 276.808 143.43 276.817 143.558C276.84 144.154 276.725 144.747 276.482 145.292C276.239 145.837 275.874 146.318 275.415 146.7C274.818 147.31 274.507 147.66 274.558 148.335C274.61 149.01 274.961 149.322 275.636 149.841C276.158 150.137 276.598 150.558 276.918 151.065C277.239 151.572 277.429 152.15 277.473 152.748C277.517 153.346 277.412 153.946 277.169 154.494C276.925 155.042 276.55 155.522 276.077 155.891C275.48 156.501 275.169 156.851 275.221 157.539C275.238 157.796 275.154 158.049 274.987 158.243C274.819 158.438 274.581 158.558 274.325 158.578L274.247 158.591Z" fill="black"/>
<path d="M294.329 311.203C294.12 311.204 293.917 311.138 293.748 311.014C293.58 310.89 293.456 310.715 293.395 310.515L271.767 241.349C264.446 240.544 203.977 233.236 183.401 230.315C183.274 230.297 183.152 230.254 183.042 230.189C182.931 230.124 182.835 230.038 182.757 229.935C182.602 229.728 182.534 229.468 182.571 229.211C182.607 228.955 182.743 228.723 182.95 228.567C183.157 228.412 183.418 228.344 183.674 228.38C206.483 231.613 271.053 239.35 272.585 239.48C272.777 239.496 272.959 239.569 273.109 239.689C273.26 239.81 273.371 239.971 273.429 240.155L295.264 309.944C295.341 310.19 295.318 310.457 295.199 310.686C295.079 310.915 294.874 311.087 294.628 311.164C294.531 311.193 294.43 311.206 294.329 311.203V311.203Z" fill="black"/>
<path d="M342.426 314.267H298.912C298.654 314.267 298.406 314.165 298.224 313.982C298.041 313.799 297.938 313.552 297.938 313.293C297.938 313.035 298.041 312.788 298.224 312.605C298.406 312.422 298.654 312.32 298.912 312.32H338.104L316.411 302.155C316.295 302.101 316.191 302.024 316.105 301.929C316.019 301.834 315.952 301.723 315.909 301.603C315.865 301.482 315.846 301.354 315.852 301.226C315.858 301.099 315.889 300.973 315.944 300.857C315.999 300.741 316.075 300.637 316.17 300.551C316.265 300.465 316.376 300.398 316.496 300.355C316.617 300.311 316.745 300.292 316.873 300.298C317.001 300.304 317.126 300.335 317.242 300.39L342.894 312.411C343.095 312.504 343.258 312.664 343.357 312.863C343.455 313.063 343.482 313.289 343.433 313.506C343.385 313.723 343.264 313.916 343.09 314.055C342.916 314.193 342.7 314.268 342.478 314.267H342.426Z" fill="black"/>
<path d="M239.417 283.267L239.002 283.033C233.764 280.06 228.325 277.457 222.723 275.244L221.775 274.881L222.178 273.946C223.658 270.519 228.201 268.221 233.472 268.221C239.963 268.221 245.259 271.83 245.259 276.27C245.259 279.022 243.247 281.553 239.872 283.033L239.417 283.267ZM224.463 273.868C229.623 275.958 234.648 278.369 239.508 281.086C241.897 279.918 243.299 278.152 243.299 276.296C243.299 272.985 238.794 270.194 233.459 270.194C229.525 270.207 226.02 271.674 224.45 273.881L224.463 273.868Z" fill="black"/>
<path d="M195.331 272.181C195.133 272.18 194.94 272.118 194.778 272.005C194.615 271.891 194.491 271.73 194.423 271.544L180.467 234.17C180.378 233.928 180.388 233.659 180.497 233.424C180.605 233.189 180.802 233.007 181.045 232.918C181.288 232.828 181.556 232.839 181.791 232.947C182.026 233.055 182.208 233.253 182.298 233.495L196.253 270.869C196.305 270.992 196.331 271.123 196.33 271.256C196.33 271.389 196.302 271.52 196.248 271.642C196.195 271.764 196.117 271.873 196.019 271.963C195.922 272.054 195.807 272.123 195.682 272.168C195.567 272.194 195.448 272.198 195.331 272.181Z" fill="black"/>
<path d="M158.217 213.01C150.104 213.01 137.797 212.712 119.065 211.933L115.092 211.777C114.893 211.774 114.697 211.729 114.516 211.647C114.335 211.564 114.173 211.445 114.041 211.297C111.626 208.804 110.315 189.825 110.782 175.156C110.782 174.898 110.885 174.65 111.067 174.467C111.25 174.285 111.498 174.182 111.756 174.182C112.014 174.182 112.262 174.285 112.444 174.467C112.627 174.65 112.73 174.898 112.73 175.156C112.184 191.928 113.898 207.753 115.326 209.765L119.13 209.921C159.957 211.621 170.77 211.024 172.484 210.18C173.198 207.882 172.951 192.616 172.341 179.024C172.336 178.896 172.356 178.769 172.4 178.649C172.444 178.528 172.512 178.418 172.599 178.324C172.685 178.23 172.79 178.154 172.906 178.101C173.022 178.047 173.148 178.017 173.276 178.012C173.405 178.001 173.535 178.017 173.657 178.059C173.78 178.101 173.893 178.168 173.988 178.256C174.083 178.344 174.159 178.451 174.211 178.57C174.262 178.689 174.289 178.817 174.288 178.946C174.509 183.827 175.587 208.298 174.198 211.154C173.847 211.985 173.367 213.01 158.217 213.01Z" fill="#CB4F2E"/>
<path d="M170.017 208.895C169.879 208.894 169.743 208.863 169.618 208.805C169.492 208.747 169.381 208.662 169.291 208.558C169.187 208.441 158.996 196.874 149.896 189.838C145.067 186.138 142.626 185.619 141.432 185.827C140.432 186.009 138.524 186.775 135.149 189.449C128.841 194.767 123.177 200.806 118.273 207.441C118.118 207.648 117.887 207.784 117.632 207.821C117.376 207.857 117.116 207.791 116.91 207.636C116.703 207.481 116.567 207.25 116.53 206.995C116.493 206.739 116.56 206.48 116.715 206.273C121.706 199.522 127.48 193.386 133.916 187.995C136.875 185.645 139.29 184.295 141.068 183.971C143.405 183.568 146.677 184.996 151.064 188.358C160.32 195.446 170.641 207.221 170.744 207.337C170.866 207.478 170.944 207.65 170.971 207.834C170.998 208.018 170.971 208.205 170.895 208.374C170.818 208.544 170.695 208.687 170.54 208.789C170.384 208.89 170.203 208.945 170.017 208.947V208.895Z" fill="#CB4F2E"/>
<path d="M352.941 329.105C352.808 329.106 352.675 329.079 352.552 329.027C342.465 324.548 328.886 314.513 328.315 314.085C328.107 313.932 327.968 313.702 327.929 313.447C327.89 313.191 327.954 312.93 328.107 312.722C328.261 312.514 328.49 312.375 328.746 312.336C329.002 312.297 329.262 312.361 329.471 312.514C329.613 312.618 343.452 322.9 353.344 327.235C353.551 327.324 353.721 327.481 353.825 327.68C353.929 327.88 353.961 328.109 353.915 328.33C353.869 328.55 353.749 328.748 353.573 328.889C353.398 329.03 353.179 329.107 352.954 329.105H352.941Z" fill="black"/>
<path d="M164.578 154.035C158.412 160.629 159.645 170.015 166.24 176.181C172.835 182.348 182.285 182.945 188.452 176.363C194.618 169.781 193.385 160.383 186.79 154.217C180.195 148.05 170.745 147.44 164.578 154.035Z" fill="white"/>
<path d="M177.819 182.062C173.226 181.955 168.847 180.098 165.577 176.869C162.252 173.881 160.145 169.773 159.658 165.329C159.462 163.147 159.736 160.949 160.462 158.882C161.188 156.815 162.348 154.927 163.864 153.347V153.347C170.199 146.57 180.117 146.622 187.452 153.476C194.786 160.331 195.5 170.223 189.152 176.999C187.719 178.585 185.971 179.854 184.019 180.725C182.068 181.597 179.956 182.052 177.819 182.062ZM175.223 150.296C173.355 150.3 171.508 150.693 169.8 151.451C168.092 152.208 166.561 153.314 165.305 154.697C163.965 156.07 162.941 157.719 162.302 159.528C161.663 161.337 161.425 163.263 161.605 165.173C162.054 169.139 163.944 172.802 166.915 175.467C173.405 181.543 182.181 181.647 187.685 175.688C193.189 169.729 192.579 161.006 186.075 154.917C183.163 152.073 179.28 150.44 175.21 150.348L175.223 150.296Z" fill="black"/>
<path d="M176.47 172.793C175.571 172.814 174.68 172.618 173.873 172.222C173.148 171.85 172.524 171.306 172.056 170.638C171.559 169.914 171.198 169.104 170.991 168.25C170.521 166.274 170.521 164.215 170.991 162.239C171.2 161.372 171.565 160.549 172.069 159.812C172.543 159.138 173.17 158.586 173.899 158.202C174.705 157.802 175.596 157.602 176.495 157.618C177.396 157.597 178.287 157.798 179.092 158.202C179.821 158.586 180.448 159.138 180.922 159.812C181.427 160.546 181.789 161.37 181.987 162.239C182.219 163.231 182.332 164.246 182.324 165.264C182.332 166.275 182.21 167.283 181.961 168.263C181.749 169.118 181.384 169.927 180.883 170.651C180.407 171.322 179.774 171.865 179.04 172.235C178.238 172.618 177.358 172.809 176.47 172.793V172.793ZM176.47 169.457C176.767 169.427 177.048 169.31 177.279 169.121C177.51 168.931 177.68 168.678 177.768 168.393C178.427 166.332 178.427 164.118 177.768 162.058C177.68 161.772 177.51 161.519 177.279 161.33C177.048 161.14 176.767 161.023 176.47 160.993C176.155 161.005 175.851 161.113 175.6 161.304C175.349 161.494 175.163 161.758 175.068 162.058C174.683 163.072 174.515 164.155 174.574 165.238C174.517 166.314 174.69 167.389 175.08 168.393C175.18 168.698 175.373 168.964 175.631 169.155C175.889 169.346 176.2 169.451 176.521 169.457H176.47Z" fill="black"/>
<path d="M284.048 182.984C283.944 190.526 282.192 198.73 275.571 201.34C274.459 201.764 273.292 202.027 272.105 202.119C255.982 203.508 249.076 197.887 248.608 171.91C248.608 168.016 282.01 165.536 282.763 169.314C283.295 172.02 283.663 174.755 283.866 177.506" fill="black"/>
<path d="M267.964 203.287C262.148 203.287 258.085 201.989 255.06 199.276C250.179 194.875 247.882 186.437 247.622 171.924C247.622 171.106 247.622 168.6 262.019 167.081C264.148 166.861 282.893 165.004 283.711 169.133C284.252 171.877 284.629 174.651 284.84 177.441C284.85 177.569 284.834 177.697 284.794 177.819C284.753 177.941 284.689 178.053 284.606 178.15C284.522 178.247 284.42 178.327 284.305 178.384C284.191 178.442 284.066 178.476 283.938 178.486C283.81 178.495 283.682 178.479 283.56 178.439C283.438 178.399 283.326 178.335 283.229 178.251C283.132 178.167 283.052 178.065 282.994 177.951C282.937 177.836 282.902 177.711 282.893 177.584C282.69 174.873 282.326 172.176 281.803 169.509C281.244 168.808 275.753 167.977 265.848 168.691C255.943 169.405 250.063 171.119 249.582 172.014C249.855 185.827 251.945 193.824 256.398 197.835C259.669 200.782 264.498 201.807 272.04 201.158C273.139 201.071 274.219 200.827 275.247 200.431C281.582 197.939 283.036 189.566 283.101 182.971C283.101 182.713 283.203 182.465 283.386 182.282C283.569 182.1 283.816 181.997 284.074 181.997C284.333 181.997 284.58 182.1 284.763 182.282C284.945 182.465 285.048 182.713 285.048 182.971C284.905 193.278 281.764 199.938 275.961 202.223C274.757 202.683 273.494 202.967 272.209 203.066C270.686 203.214 269.271 203.287 267.964 203.287Z" fill="black"/>
<path d="M283.035 191.539C285.129 191.566 287.179 190.941 288.9 189.75C290.622 188.559 291.93 186.861 292.642 184.892C288.501 184.892 278.855 181.101 278.855 181.101L283.035 191.539Z" fill="black"/>
<path d="M283.256 192.512H283.022C282.832 192.508 282.646 192.448 282.489 192.339C282.332 192.231 282.211 192.079 282.14 191.902L277.96 181.517C277.873 181.335 277.844 181.131 277.878 180.932C277.913 180.734 278.007 180.551 278.15 180.408C278.292 180.266 278.475 180.171 278.673 180.137C278.872 180.103 279.076 180.132 279.258 180.218C279.349 180.218 288.76 183.944 292.681 183.944C292.835 183.948 292.985 183.988 293.121 184.061C293.256 184.134 293.373 184.238 293.46 184.364C293.547 184.491 293.604 184.637 293.624 184.789C293.644 184.942 293.628 185.097 293.576 185.242C292.798 187.359 291.394 189.188 289.55 190.487C287.707 191.786 285.511 192.492 283.256 192.512V192.512ZM280.582 182.802L283.697 190.591C285.252 190.514 286.759 190.03 288.067 189.187C289.375 188.344 290.438 187.172 291.149 185.787C287.543 185.117 284.006 184.118 280.582 182.802V182.802Z" fill="black"/>
</svg>
