<svg width="405" height="330" viewBox="0 0 405 330" fill="none" xmlns="http://www.w3.org/2000/svg">
<path d="M404.638 264.957H0V265.159H404.638V264.957Z" fill="#EBEBEB"/>
<path d="M364.093 277.978H293.767V278.18H364.093V277.978Z" fill="#EBEBEB"/>
<path d="M296.478 270.468H289.445V270.67H296.478V270.468Z" fill="#EBEBEB"/>
<path d="M276.546 280.179H261.016V280.382H276.546V280.179Z" fill="#EBEBEB"/>
<path d="M59.9349 271.827H42.4546V272.03H59.9349V271.827Z" fill="#EBEBEB"/>
<path d="M89.7405 271.827H67.1375V272.03H89.7405V271.827Z" fill="#EBEBEB"/>
<path d="M205.969 275.146H168.062V275.348H205.969V275.146Z" fill="#EBEBEB"/>
<path d="M191.798 228.863H35.5352C34.3111 228.861 33.1378 228.373 32.273 227.507C31.4081 226.64 30.9224 225.466 30.9224 224.242V4.5805C30.933 3.36337 31.4235 2.19959 32.2872 1.34196C33.1509 0.484317 34.3181 0.00208501 35.5352 0H191.798C193.024 0 194.199 0.48685 195.066 1.35345C195.932 2.22005 196.419 3.39541 196.419 4.62096V224.242C196.419 225.468 195.932 226.643 195.066 227.51C194.199 228.376 193.024 228.863 191.798 228.863V228.863ZM35.5352 0.161856C34.3647 0.163999 33.2429 0.630478 32.416 1.4589C31.5891 2.28733 31.1247 3.41 31.1247 4.5805V224.242C31.1247 225.413 31.5891 226.535 32.416 227.364C33.2429 228.192 34.3647 228.659 35.5352 228.661H191.798C192.969 228.659 194.092 228.192 194.92 227.364C195.749 226.536 196.215 225.413 196.217 224.242V4.5805C196.215 3.40926 195.749 2.2866 194.92 1.45841C194.092 0.630215 192.969 0.163995 191.798 0.161856H35.5352Z" fill="#EBEBEB"/>
<path d="M366.853 228.863H210.582C209.357 228.861 208.183 228.373 207.317 227.507C206.45 226.641 205.963 225.467 205.961 224.242V4.5805C205.973 3.36263 206.466 2.19886 207.331 1.34145C208.196 0.484035 209.364 0.00206227 210.582 0H366.853C368.068 0.00421187 369.234 0.487385 370.096 1.3448C370.958 2.20221 371.447 3.36477 371.457 4.5805V224.242C371.457 225.465 370.973 226.638 370.11 227.504C369.247 228.37 368.075 228.859 366.853 228.863V228.863ZM210.582 0.161856C209.41 0.163995 208.288 0.630215 207.46 1.45841C206.631 2.2866 206.165 3.40926 206.163 4.5805V224.242C206.165 225.413 206.631 226.536 207.46 227.364C208.288 228.192 209.41 228.659 210.582 228.661H366.853C368.024 228.659 369.147 228.192 369.975 227.364C370.803 226.536 371.269 225.413 371.271 224.242V4.5805C371.269 3.40926 370.803 2.2866 369.975 1.45841C369.147 0.630215 368.024 0.163995 366.853 0.161856H210.582Z" fill="#EBEBEB"/>
<path d="M222.696 262.197H152.832C149.573 262.197 146.449 260.903 144.145 258.599C141.841 256.295 140.547 253.17 140.547 249.912V187.153C140.546 185.539 140.863 183.941 141.48 182.449C142.096 180.958 143.001 179.603 144.142 178.461C145.283 177.32 146.638 176.414 148.129 175.796C149.619 175.178 151.218 174.86 152.832 174.86H222.696V262.197Z" fill="#F0F0F0"/>
<path d="M222.122 262.197H223.279C230.064 262.197 235.564 256.697 235.564 249.912V187.153C235.564 180.368 230.064 174.868 223.279 174.868H222.122C215.337 174.868 209.837 180.368 209.837 187.153V249.912C209.837 256.697 215.337 262.197 222.122 262.197Z" fill="#F5F5F5"/>
<path d="M213.349 207.077H130.844V262.197H213.349V207.077Z" fill="#F0F0F0"/>
<path d="M62.646 262.205H223.36V262.44C223.36 263.107 223.095 263.748 222.623 264.22C222.151 264.692 221.511 264.957 220.843 264.957H65.1709C64.5034 264.957 63.8633 264.692 63.3913 264.22C62.9193 263.748 62.6541 263.107 62.6541 262.44V262.205H62.646Z" fill="#E0E0E0"/>
<path d="M144.787 143.031H68.6266C66.4327 142.992 64.2556 143.42 62.2403 144.288C60.225 145.156 58.4178 146.443 56.9392 148.064C55.4605 149.685 54.3443 151.603 53.6649 153.689C52.9856 155.776 52.7587 157.983 52.9994 160.164L58.2678 219.54H168.677L163.474 160.164C162.995 155.516 160.829 151.206 157.385 148.048C153.941 144.891 149.459 143.106 144.787 143.031Z" fill="#E0E0E0"/>
<path d="M161.968 143.031H84.1647C82.0761 142.992 80.0032 143.399 78.0843 144.224C76.1654 145.05 74.4446 146.275 73.0369 147.818C71.6291 149.362 70.5667 151.188 69.9207 153.174C69.2746 155.161 69.0596 157.262 69.2902 159.338L74.6152 219.54H185.033L179.716 159.338C179.262 154.921 177.205 150.823 173.935 147.818C170.665 144.814 166.408 143.111 161.968 143.031Z" fill="#F5F5F5"/>
<path d="M134.963 202.044H213.568C214.549 202.044 215.489 202.433 216.183 203.127C216.876 203.82 217.266 204.761 217.266 205.742V220.803C217.266 221.784 216.876 222.724 216.183 223.418C215.489 224.111 214.549 224.501 213.568 224.501H134.963C134.907 224.501 134.854 224.479 134.814 224.439C134.775 224.4 134.752 224.346 134.752 224.291V202.254C134.752 202.198 134.775 202.145 134.814 202.105C134.854 202.066 134.907 202.044 134.963 202.044V202.044Z" fill="#E0E0E0"/>
<path d="M130.439 262.197H60.5742C57.3161 262.197 54.1914 260.903 51.8876 258.599C49.5837 256.295 48.2894 253.17 48.2894 249.912L48.2894 187.153C48.2884 185.539 48.6053 183.941 49.2222 182.449C49.8391 180.958 50.7439 179.603 51.8847 178.461C53.0256 177.32 54.3802 176.414 55.8712 175.796C57.3622 175.178 58.9603 174.86 60.5742 174.86H130.439V262.197Z" fill="#F0F0F0"/>
<path d="M129.864 262.197H131.022C137.806 262.197 143.306 256.697 143.306 249.912V187.153C143.306 180.368 137.806 174.868 131.022 174.868H129.864C123.08 174.868 117.58 180.368 117.58 187.153L117.58 249.912C117.58 256.697 123.08 262.197 129.864 262.197Z" fill="#F5F5F5"/>
<path d="M355.919 162.146H334.077V264.957H355.919V162.146Z" fill="#E6E6E6"/>
<path d="M351.768 264.957H355.919V247.064H347.422L351.768 264.957Z" fill="#F0F0F0"/>
<path d="M274.288 162.146H252.445V264.957H274.288V162.146Z" fill="#E6E6E6"/>
<path d="M355.919 162.146H270.662V259.049H355.919V162.146Z" fill="#F0F0F0"/>
<path d="M314.687 168.038V190.309H352.707V168.038H314.687Z" fill="#E6E6E6"/>
<path d="M273.883 168.038V190.309H311.903V168.038H273.883Z" fill="#E6E6E6"/>
<path d="M296.656 170.757H289.13C285.984 170.799 282.926 169.727 280.495 167.73H305.291C302.86 169.727 299.802 170.799 296.656 170.757V170.757Z" fill="#F0F0F0"/>
<path d="M337.84 170.757H330.314C327.169 170.799 324.11 169.727 321.679 167.73H346.475C344.045 169.727 340.986 170.799 337.84 170.757V170.757Z" fill="#F0F0F0"/>
<path d="M314.687 196.694V218.966H352.707V196.694H314.687Z" fill="#E6E6E6"/>
<path d="M273.883 196.694V218.966H311.903V196.694H273.883Z" fill="#E6E6E6"/>
<path d="M296.656 199.389H289.13C285.983 199.429 282.924 198.354 280.495 196.354H305.291C302.862 198.354 299.803 199.429 296.656 199.389V199.389Z" fill="#F0F0F0"/>
<path d="M337.84 199.389H330.314C327.168 199.429 324.108 198.354 321.679 196.354H346.475C344.046 198.354 340.987 199.429 337.84 199.389V199.389Z" fill="#F0F0F0"/>
<path d="M314.687 225.343V247.614H352.707V225.343H314.687Z" fill="#E6E6E6"/>
<path d="M273.883 225.351V247.622H311.903V225.351H273.883Z" fill="#E6E6E6"/>
<path d="M296.656 228.038H289.13C285.98 228.071 282.921 226.987 280.495 224.979H305.291C302.865 226.987 299.806 228.071 296.656 228.038V228.038Z" fill="#F0F0F0"/>
<path d="M337.84 228.038H330.314C327.164 228.071 324.105 226.987 321.679 224.979H346.475C344.049 226.987 340.99 228.071 337.84 228.038V228.038Z" fill="#F0F0F0"/>
<path d="M274.814 264.957H270.662V247.064H279.159L274.814 264.957Z" fill="#F0F0F0"/>
<path d="M278.326 148.721C278.326 148.721 278.674 162.146 291.808 162.146C304.943 162.146 305.291 148.721 305.291 148.721H278.326Z" fill="#E6E6E6"/>
<path d="M319.324 150.388C319.324 150.388 319.631 162.146 331.139 162.146C342.647 162.146 342.946 150.388 342.946 150.388H319.324Z" fill="#FAFAFA"/>
<path d="M309.297 152.654C309.297 152.654 309.54 162.146 318.83 162.146C328.121 162.146 328.355 152.654 328.355 152.654H309.297Z" fill="#F5F5F5"/>
<path d="M278.326 138.637C278.326 138.637 278.674 152.055 291.808 152.055C304.943 152.055 305.291 138.637 305.291 138.637H278.326Z" fill="#E6E6E6"/>
<path d="M331.601 12.0986H70.0186V124.806H331.601V12.0986Z" fill="#E6E6E6"/>
<path d="M336.982 12.0986H73.3203V124.806H336.982V12.0986Z" fill="#F0F0F0"/>
<path d="M331.536 118.696V18.225L78.7669 18.225V118.696L331.536 118.696Z" fill="#FAFAFA"/>
<path d="M109.794 118.688L141.761 18.2168H183.665L151.699 118.688H109.794Z" fill="white"/>
<path d="M158.48 118.688L190.447 18.2168H209.376L177.409 118.688H158.48Z" fill="white"/>
<path d="M233.573 118.688L265.539 18.2168H297.862L265.895 118.688H233.573Z" fill="white"/>
<path d="M331.536 118.696V18.225H330.848V118.696H331.536Z" fill="#E6E6E6"/>
<path d="M213.009 12.0986H197.293V124.806H213.009V12.0986Z" fill="#F0F0F0"/>
<path d="M197.293 118.688V18.2168H196.605V118.688H197.293Z" fill="#E6E6E6"/>
<path d="M205.427 12.0986H204.876V124.806H205.427V12.0986Z" fill="#E6E6E6"/>
<path d="M202.319 301.504C288.978 301.504 359.229 297.402 359.229 292.343C359.229 287.283 288.978 283.182 202.319 283.182C115.66 283.182 45.4084 287.283 45.4084 292.343C45.4084 297.402 115.66 301.504 202.319 301.504Z" fill="#F5F5F5"/>
<path d="M180.169 110.515H162.3V292.343H180.169C192.108 292.343 203.93 289.991 214.96 285.422C225.99 280.853 236.013 274.157 244.455 265.715C252.897 257.272 259.594 247.25 264.162 236.22C268.731 225.19 271.083 213.368 271.083 201.429C271.083 189.49 268.731 177.668 264.162 166.637C259.594 155.607 252.897 145.585 244.455 137.143C236.013 128.701 225.99 122.004 214.96 117.435C203.93 112.866 192.108 110.515 180.169 110.515V110.515Z" fill="#D3D3D3"/>
<path opacity="0.1" d="M180.169 110.515H162.3V292.343H180.169C192.108 292.343 203.93 289.991 214.96 285.422C225.99 280.853 236.013 274.157 244.455 265.715C252.897 257.272 259.594 247.25 264.162 236.22C268.731 225.19 271.083 213.368 271.083 201.429C271.083 189.49 268.731 177.668 264.162 166.637C259.594 155.607 252.897 145.585 244.455 137.143C236.013 128.701 225.99 122.004 214.96 117.435C203.93 112.866 192.108 110.515 180.169 110.515V110.515Z" fill="black"/>
<path d="M121.003 118.154L120.639 117.434C126.958 114.286 133.616 111.866 140.482 110.223L140.668 111.033C133.865 112.656 127.268 115.045 121.003 118.154V118.154Z" fill="#D3D3D3"/>
<path d="M110.499 124.297L110.053 123.625C111.793 122.46 113.59 121.327 115.395 120.283L115.799 120.979C114.011 122.023 112.23 123.139 110.499 124.297Z" fill="#D3D3D3"/>
<path d="M226.586 265.714C262.09 230.21 262.09 172.646 226.586 137.142C191.082 101.638 133.518 101.638 98.0142 137.142C62.51 172.647 62.51 230.21 98.0142 265.714C133.518 301.218 191.082 301.218 226.586 265.714Z" fill="#D3D3D3"/>
<path opacity="0.1" d="M217.776 152.37C203.659 139.855 185.297 133.2 166.44 133.764C147.583 134.328 129.651 142.069 116.308 155.405C102.964 168.742 95.2137 186.669 94.6394 205.526C94.0652 224.383 100.71 242.748 113.218 256.872C105.66 250.172 99.5525 241.996 95.2715 232.848C90.9905 223.7 88.6263 213.772 88.3244 203.676C88.0224 193.581 89.789 183.53 93.5156 174.142C97.2422 164.754 102.85 156.228 109.994 149.088C117.138 141.948 125.667 136.345 135.057 132.623C144.446 128.902 154.498 127.141 164.594 127.448C174.69 127.756 184.616 130.125 193.762 134.411C202.907 138.697 211.08 144.809 217.776 152.37V152.37Z" fill="black"/>
<path opacity="0.1" d="M198.224 208.057C195.909 205.186 192.3 203.161 187.396 201.979C190.205 201.128 192.742 199.554 194.752 197.415C197.265 194.548 198.613 190.843 198.531 187.032C198.578 184.747 198.129 182.479 197.217 180.384C196.305 178.289 194.951 176.416 193.247 174.893C189.718 171.655 184.666 170.037 178.089 170.037H174.043V158.569H166.387V170.037H156.894V158.569H149.247V170.037H132.616V183.867H138.597V224.469H132.616V238.299H149.247V249.767H156.894V238.299H166.387V249.767H174.043V238.299H175.014C178.179 238.153 181.334 237.842 184.466 237.369C188.038 236.91 190.708 236.165 192.478 235.135C195.283 233.54 197.612 231.227 199.227 228.434C200.877 225.526 201.715 222.228 201.655 218.885C201.682 214.542 200.538 210.932 198.224 208.057ZM159.88 183.867H169.195C172.395 183.867 174.636 184.426 175.92 185.543C176.57 186.126 177.081 186.847 177.416 187.654C177.75 188.461 177.9 189.332 177.854 190.204C177.913 191.115 177.77 192.027 177.436 192.876C177.101 193.725 176.584 194.49 175.92 195.116C174.636 196.249 172.346 196.816 169.05 196.816H159.88V183.867ZM178.316 221.741C176.827 223.031 174.267 223.676 170.636 223.676H159.88V209.805H170.587C174.288 209.805 176.873 210.417 178.34 211.642C179.057 212.227 179.63 212.969 180.015 213.811C180.399 214.653 180.585 215.572 180.557 216.497C180.609 217.485 180.434 218.471 180.045 219.38C179.657 220.289 179.065 221.097 178.316 221.741Z" fill="black"/>
<path d="M195.667 208.057C193.352 205.186 189.743 203.161 184.838 201.979C187.649 201.126 190.188 199.552 192.203 197.415C194.71 194.545 196.055 190.842 195.974 187.032C196.02 184.747 195.572 182.479 194.66 180.384C193.747 178.289 192.393 176.416 190.689 174.893C187.161 171.655 182.108 170.037 175.532 170.037H171.485V158.569H163.838V170.037H154.337V158.569H146.689V170.037H130.059V183.867H136.039V224.469H130.059V238.299H146.689V249.767H154.337V238.299H163.838V249.767H171.485V238.299H172.457C175.621 238.153 178.776 237.842 181.909 237.369C185.475 236.91 188.146 236.165 189.921 235.135C192.727 233.542 195.057 231.229 196.67 228.434C198.319 225.526 199.158 222.228 199.098 218.885C199.125 214.542 197.981 210.932 195.667 208.057ZM157.323 183.867H166.638C169.837 183.867 172.079 184.426 173.363 185.543C174.013 186.126 174.524 186.847 174.858 187.654C175.193 188.461 175.343 189.332 175.297 190.204C175.356 191.115 175.213 192.027 174.878 192.876C174.544 193.725 174.027 194.49 173.363 195.116C172.073 196.249 169.783 196.816 166.492 196.816H157.323V183.867ZM175.758 221.741C174.269 223.031 171.709 223.676 168.078 223.676H157.323V209.805H168.03C171.725 209.805 174.31 210.417 175.783 211.642C176.501 212.226 177.075 212.968 177.46 213.81C177.844 214.652 178.029 215.572 178 216.497C178.052 217.485 177.876 218.471 177.488 219.38C177.099 220.289 176.508 221.097 175.758 221.741Z" fill="white"/>
<path d="M249.313 71.1513C253.689 71.1513 257.236 67.6585 257.236 63.3499C257.236 59.0413 253.689 55.5485 249.313 55.5485C244.938 55.5485 241.391 59.0413 241.391 63.3499C241.391 67.6585 244.938 71.1513 249.313 71.1513Z" fill="#263238"/>
<path d="M256.338 69.9051C256.349 70.7797 256.1 71.6379 255.622 72.3707C255.145 73.1034 254.46 73.6775 253.655 74.02C252.85 74.3626 251.962 74.458 251.102 74.2943C250.243 74.1306 249.452 73.715 248.829 73.1005C248.207 72.486 247.781 71.7003 247.606 70.8432C247.431 69.9861 247.515 69.0964 247.848 68.2872C248.18 67.478 248.745 66.7858 249.471 66.2986C250.198 65.8114 251.053 65.5512 251.928 65.5511C252.503 65.5469 253.074 65.6562 253.607 65.8728C254.141 66.0894 254.626 66.409 255.036 66.8134C255.445 67.2178 255.771 67.699 255.995 68.2295C256.218 68.76 256.335 69.3294 256.338 69.9051V69.9051Z" fill="#263238"/>
<path d="M260.206 69.7028C264.582 69.7028 268.129 66.21 268.129 61.9014C268.129 57.5928 264.582 54.1 260.206 54.1C255.831 54.1 252.283 57.5928 252.283 61.9014C252.283 66.21 255.831 69.7028 260.206 69.7028Z" fill="#263238"/>
<path d="M261.372 285.682L267.87 285.585L269.739 270.516L263.241 270.613L261.372 285.682Z" fill="#FF8B7B"/>
<path d="M300.929 285.334L306.804 281.903L302.094 268.008L296.227 271.439L300.929 285.334Z" fill="#FF8B7B"/>
<path d="M307.435 281.442L300.548 285.35C300.435 285.412 300.348 285.511 300.3 285.631C300.253 285.751 300.249 285.884 300.289 286.006L302.021 291.671C302.065 291.807 302.138 291.932 302.237 292.036C302.335 292.14 302.455 292.221 302.589 292.272C302.723 292.323 302.866 292.344 303.009 292.332C303.151 292.321 303.29 292.277 303.413 292.205C305.606 290.91 307.152 289.866 309.944 288.28C311.66 287.309 316.944 284.549 319.316 283.198C321.687 281.846 320.667 279.337 319.574 279.669C314.678 281.191 310.672 281.741 308.552 281.288C308.173 281.204 307.777 281.258 307.435 281.442Z" fill="#263238"/>
<path d="M268 284.865L260.902 284.978C260.775 284.979 260.651 285.024 260.552 285.105C260.454 285.186 260.386 285.298 260.36 285.423L259.17 291.218C259.139 291.357 259.141 291.502 259.175 291.641C259.208 291.78 259.273 291.91 259.365 292.02C259.456 292.13 259.571 292.218 259.702 292.276C259.832 292.335 259.974 292.363 260.117 292.359C262.675 292.278 266.373 292.067 269.586 292.019C273.349 291.962 276.602 292.116 281.013 292.019C283.675 291.978 284.371 289.275 283.254 289.049C278.156 288.013 274.004 287.956 269.57 285.318C269.098 285.026 268.555 284.869 268 284.865Z" fill="#263238"/>
<path d="M277.905 88.0895C278.811 89.9913 279.791 92.0468 280.786 93.9972C281.781 95.9475 282.801 97.9464 283.853 99.8725C285.873 103.682 288.138 107.355 290.635 110.871L291.096 111.51C291.169 111.607 291.169 111.615 291.161 111.631C290.959 111.537 290.743 111.474 290.522 111.445C290.165 111.405 289.907 111.526 289.939 111.558C290.112 111.529 290.275 111.46 290.416 111.356C291.089 110.892 291.703 110.349 292.245 109.738C292.925 109 293.563 108.224 294.155 107.415C295.426 105.748 296.583 103.903 297.773 102.025C298.962 100.148 300.063 98.1892 301.139 96.2874L305.687 98.0597C304.46 102.7 302.709 107.185 300.468 111.429C299.847 112.544 299.166 113.625 298.428 114.666C297.585 115.869 296.59 116.957 295.466 117.903C294.72 118.527 293.886 119.037 292.99 119.417C291.747 119.944 290.385 120.123 289.049 119.934C287.696 119.708 286.429 119.121 285.383 118.235C284.983 117.895 284.607 117.527 284.258 117.134L283.659 116.422C282.059 114.58 280.57 112.646 279.2 110.628C277.816 108.661 276.57 106.638 275.356 104.607C274.142 102.575 273.017 100.504 271.941 98.4077C270.864 96.3117 269.853 94.24 268.89 91.9335L277.905 88.0895Z" fill="#FF8B7B"/>
<path d="M266.251 88.0491C264.503 94.0054 276.837 110.248 276.837 110.248L289.267 102.252C286.923 97.1022 284.034 92.2186 280.648 87.685C275.518 81.1541 268.137 81.5102 266.251 88.0491Z" fill="#D3D3D3"/>
<path opacity="0.2" d="M273.794 95.0412C276.351 96.1337 280.114 102.325 282.073 106.857L276.772 110.247C273.824 106.306 271.173 102.151 268.841 97.817C270.533 95.988 272.443 94.4666 273.794 95.0412Z" fill="black"/>
<path d="M301.204 98.8043L299.585 91.4803L306.974 91.4237C306.974 91.4237 308.949 96.9268 304.983 99.5165L301.204 98.8043Z" fill="#FF8B7B"/>
<path d="M300.452 84.6178L306.375 86.7462L306.999 91.4238L299.61 91.4804L300.452 84.6178Z" fill="#FF8B7B"/>
<path opacity="0.2" d="M269.739 270.516L268.776 278.285L262.27 278.391L263.241 270.622L269.739 270.516Z" fill="black"/>
<path opacity="0.2" d="M296.227 271.439L302.102 268.016L304.522 275.178L298.647 278.601L296.227 271.439Z" fill="black"/>
<path d="M237.255 85.4108C244.255 110.086 242.847 136.274 243.478 141.574C248.553 141.21 267.692 139.778 278.124 139.001C281.45 101.88 273.575 83.0315 273.575 83.0315C273.575 83.0315 271.35 82.6026 268.315 82.287C267.368 82.1899 266.34 82.1089 265.272 82.0523C264.681 82.0523 264.083 81.9956 263.476 81.9875C258.549 82.0716 253.632 82.4364 248.747 83.0801C247.824 83.1934 246.885 83.339 245.971 83.4847C245.057 83.6304 244.304 83.7841 243.543 83.9379C239.99 84.642 237.255 85.4108 237.255 85.4108Z" fill="#D3D3D3"/>
<path opacity="0.1" d="M261.898 107.844L256.435 110.514L250.479 108.305L249.5 98.7152L260.926 98.2539L261.898 107.844Z" fill="white"/>
<path opacity="0.2" d="M244.652 95.9961C245.275 98.3835 244.563 109.276 242.07 111.963C241.731 108.475 241.261 104.833 240.678 101.111L244.652 95.9961Z" fill="black"/>
<path d="M248.973 66.3605C250.26 71.03 251.83 79.6488 248.747 83.0558C251.515 85.427 255.1 88.13 260.748 87.9115C266.397 87.693 265.118 83.8651 263.476 81.9633C258.102 81.0893 257.94 77.1562 258.62 73.4093L248.973 66.3605Z" fill="#FF8B7B"/>
<path d="M248.747 81.9795C248.747 81.9795 250.22 85.4675 261.995 87.8144C260.044 89.2468 259.154 92.7509 259.154 92.7509C259.154 92.7509 243.778 90.1694 244.247 83.3229C245.049 82.6755 248.747 81.9795 248.747 81.9795Z" fill="white"/>
<path d="M267.061 91.448C265.63 89.9118 263.911 88.6718 262.003 87.7982C262.794 86.995 263.331 85.9763 263.547 84.8694C263.763 83.7626 263.648 82.6167 263.217 81.5749C264.397 81.5364 265.579 81.5851 266.753 81.7205C266.753 81.7205 272.224 85.9773 267.061 91.448Z" fill="white"/>
<path opacity="0.4" d="M262.569 92.7429C262.675 93.4551 263.071 93.9811 263.46 93.9245C263.848 93.8678 264.067 93.2447 263.961 92.5325C263.856 91.8203 263.46 91.2862 263.079 91.3429C262.699 91.3995 262.464 92.0227 262.569 92.7429Z" fill="#263238"/>
<path opacity="0.2" d="M252.898 69.2657L258.563 73.4335C258.398 74.3061 258.311 75.1917 258.304 76.0798C256.265 75.9342 253.327 73.9272 252.955 71.8311C252.779 70.9867 252.76 70.1171 252.898 69.2657V69.2657Z" fill="black"/>
<path d="M255.537 60.558C260.516 60.558 264.552 56.5833 264.552 51.6802C264.552 46.7772 260.516 42.8025 255.537 42.8025C250.558 42.8025 246.521 46.7772 246.521 51.6802C246.521 56.5833 250.558 60.558 255.537 60.558Z" fill="#263238"/>
<path d="M263.953 52.8213C263.928 52.8121 263.907 52.7935 263.895 52.7694C263.883 52.7453 263.881 52.7175 263.889 52.6918C264.198 51.5784 264.283 50.4143 264.137 49.2678C263.991 48.1214 263.618 47.0156 263.039 46.0153C261.864 43.9715 259.93 42.4738 257.657 41.8475C257.631 41.841 257.609 41.8246 257.596 41.8019C257.582 41.7791 257.578 41.7518 257.584 41.7261C257.591 41.7003 257.607 41.6782 257.63 41.6645C257.653 41.6509 257.68 41.6468 257.706 41.6533C258.858 41.9658 259.937 42.5027 260.882 43.2332C261.826 43.9636 262.617 44.8733 263.209 45.91C263.802 46.9345 264.185 48.067 264.335 49.2412C264.485 50.4154 264.399 51.6077 264.083 52.7484C264.074 52.7741 264.055 52.7956 264.032 52.809C264.008 52.8224 263.98 52.8267 263.953 52.8213V52.8213Z" fill="#263238"/>
<path d="M262.958 62.387C266.721 62.387 269.772 59.3834 269.772 55.6781C269.772 51.9729 266.721 48.9692 262.958 48.9692C259.194 48.9692 256.144 51.9729 256.144 55.6781C256.144 59.3834 259.194 62.387 262.958 62.387Z" fill="#263238"/>
<path d="M247.331 63.7546C251.706 63.7546 255.253 60.2617 255.253 55.9531C255.253 51.6445 251.706 48.1517 247.331 48.1517C242.955 48.1517 239.408 51.6445 239.408 55.9531C239.408 60.2617 242.955 63.7546 247.331 63.7546Z" fill="#263238"/>
<path d="M247.881 59.2955C248.755 65.6807 248.941 69.4681 252.421 72.5191C257.665 77.1077 265.37 73.5792 266.422 67.0645C267.377 61.1973 265.79 51.7369 259.316 49.6489C257.892 49.181 256.371 49.0854 254.899 49.3711C253.427 49.6568 252.053 50.3143 250.907 51.2812C249.761 52.248 248.881 53.492 248.351 54.8947C247.822 56.2975 247.66 57.8125 247.881 59.2955Z" fill="#FF8B7B"/>
<path d="M244.255 56.115C244.919 65.098 264.762 52.5299 260.538 47.739C256.314 42.9481 249.831 46.3309 247.492 48.4917C244.571 51.1865 244.093 53.9138 244.255 56.115Z" fill="#263238"/>
<path d="M259.705 48.1113C263.362 46.9945 269.61 53.5172 264.01 52.8617C258.41 52.2062 255.415 49.4304 259.705 48.1113Z" fill="#263238"/>
<path d="M245.51 66.5871C245.985 67.2353 246.583 67.7835 247.271 68.2001C247.958 68.6167 248.721 68.8936 249.516 69.0149C251.644 69.3224 252.429 67.3478 251.604 65.4864C250.867 63.8112 248.86 61.6343 246.837 62.1846C244.814 62.7349 244.344 64.9766 245.51 66.5871Z" fill="#FF8B7B"/>
<path d="M271.188 276.772L260.19 276.942C260.19 276.942 266.543 233.492 265.555 213.276C265.256 207.126 266.235 198.523 264.617 189.306C262.561 177.684 261.574 173.055 258.952 158.375C257.058 147.903 255.383 140.725 255.383 140.725L278.156 139.025C278.156 139.025 285.593 191.394 285.375 211.213C285.116 231.801 271.188 276.772 271.188 276.772Z" fill="#263238"/>
<path d="M246.942 56.989C250.616 58.0492 252.3 66.9269 247.954 63.3176C243.608 59.7082 242.637 55.7509 246.942 56.989Z" fill="#263238"/>
<path opacity="0.2" d="M264.633 189.281C265.407 194.096 265.726 198.973 265.588 203.848C267.482 209.198 269.133 214.264 270.282 218.771C272.297 226.662 275.485 238.623 278.593 250.123C281.968 236.656 285.253 221.094 285.359 211.172L264.633 189.281Z" fill="black"/>
<path d="M265.839 139.915C265.839 139.915 282.202 181.269 288.401 199.26C295.199 218.965 306.165 272.159 306.165 272.159L295.822 278.034C295.822 278.034 279.694 234.18 273.017 214.984C265.41 193.133 244.458 158.569 243.479 141.583L265.839 139.915Z" fill="#263238"/>
<path d="M307.533 271.682L295.345 278.593L293.281 274.951L306.772 266.996L307.533 271.682Z" fill="#D3D3D3"/>
<path d="M272.572 276.982L259.47 277.185L259.405 272.952L274.045 272.499L272.572 276.982Z" fill="#D3D3D3"/>
<path d="M256.435 60.3637C256.476 60.8897 256.783 61.2944 257.123 61.262C257.463 61.2296 257.706 60.7926 257.673 60.2747C257.641 59.7568 257.325 59.3521 256.985 59.3764C256.646 59.4007 256.395 59.8862 256.435 60.3637Z" fill="#263238"/>
<path d="M263.654 59.9267C263.654 60.4528 264.002 60.8493 264.342 60.825C264.681 60.8007 264.932 60.3556 264.892 59.8377C264.851 59.3198 264.544 58.907 264.204 58.9313C263.864 58.9556 263.613 59.4007 263.654 59.9267Z" fill="#263238"/>
<path d="M261.792 60.3232C262.537 61.8755 263.49 63.3186 264.625 64.6124C264.291 64.8893 263.901 65.0905 263.482 65.2023C263.063 65.3141 262.625 65.3337 262.197 65.2598L261.792 60.3232Z" fill="#FF5652"/>
<path d="M260.061 66.8217C259.473 66.7984 258.897 66.6541 258.368 66.3979C257.839 66.1417 257.368 65.779 256.985 65.3326C256.971 65.317 256.959 65.2984 256.952 65.2781C256.945 65.2578 256.942 65.2362 256.944 65.2148C256.946 65.1934 256.952 65.1725 256.962 65.1536C256.973 65.1347 256.987 65.1182 257.004 65.1051C257.021 65.092 257.041 65.0826 257.061 65.0776C257.082 65.0726 257.104 65.072 257.125 65.0759C257.146 65.0798 257.167 65.0881 257.184 65.1003C257.202 65.1124 257.217 65.1282 257.228 65.1465C257.663 65.6326 258.206 66.0096 258.813 66.2472C259.421 66.4847 260.075 66.5762 260.724 66.5142C260.744 66.5119 260.764 66.5138 260.783 66.5196C260.802 66.5254 260.82 66.535 260.835 66.5479C260.85 66.5608 260.863 66.5767 260.871 66.5945C260.88 66.6124 260.885 66.6319 260.886 66.6518C260.888 66.672 260.887 66.6924 260.881 66.7119C260.875 66.7315 260.866 66.7496 260.853 66.7654C260.84 66.7813 260.824 66.7944 260.806 66.804C260.789 66.8137 260.769 66.8197 260.749 66.8217C260.52 66.838 260.29 66.838 260.061 66.8217Z" fill="#263238"/>
<path d="M255.334 58.5915C255.282 58.5904 255.231 58.5735 255.189 58.5429C255.155 58.5216 255.125 58.4936 255.102 58.4607C255.079 58.4278 255.063 58.3906 255.055 58.3514C255.047 58.3121 255.046 58.2716 255.054 58.2322C255.062 58.1928 255.077 58.1554 255.1 58.1221C255.357 57.7012 255.712 57.3488 256.134 57.0951C256.557 56.8414 257.035 56.6939 257.528 56.6654C257.609 56.6654 257.687 56.6978 257.745 56.7555C257.803 56.8132 257.835 56.8914 257.835 56.9729C257.835 57.0545 257.803 57.1327 257.745 57.1904C257.687 57.2481 257.609 57.2805 257.528 57.2805V57.2805C257.143 57.3119 256.771 57.4348 256.443 57.6389C256.115 57.843 255.84 58.1224 255.642 58.4539C255.61 58.5043 255.563 58.5441 255.509 58.5686C255.454 58.593 255.393 58.601 255.334 58.5915V58.5915Z" fill="#263238"/>
<path d="M266.049 56.6896C265.997 56.6894 265.946 56.6749 265.902 56.6478C265.858 56.6207 265.822 56.582 265.798 56.5358C265.614 56.1955 265.351 55.904 265.032 55.6858C264.712 55.4676 264.345 55.329 263.961 55.2814C263.921 55.2794 263.882 55.2693 263.846 55.2518C263.81 55.2343 263.777 55.2097 263.751 55.1796C263.725 55.1494 263.705 55.1142 263.692 55.0761C263.679 55.0379 263.675 54.9977 263.678 54.9577C263.682 54.8776 263.718 54.8022 263.777 54.7478C263.836 54.6934 263.913 54.6642 263.994 54.6664C264.48 54.7213 264.946 54.8918 265.353 55.1635C265.759 55.4352 266.095 55.8003 266.332 56.2283C266.371 56.2995 266.381 56.383 266.36 56.4614C266.339 56.5397 266.288 56.607 266.219 56.6491C266.169 56.6813 266.109 56.6955 266.049 56.6896V56.6896Z" fill="#263238"/>
<path d="M309.863 281.369C309.35 281.641 308.807 281.853 308.245 282C308.216 282.009 308.185 282.009 308.157 282C308.128 281.991 308.102 281.974 308.083 281.951C308.067 281.926 308.059 281.896 308.059 281.866C308.059 281.836 308.067 281.807 308.083 281.781C308.221 281.539 309.41 279.354 310.211 279.354C310.301 279.353 310.389 279.375 310.468 279.419C310.546 279.463 310.611 279.527 310.656 279.604C310.747 279.727 310.806 279.871 310.827 280.022C310.849 280.173 310.832 280.327 310.778 280.47C310.582 280.864 310.26 281.18 309.863 281.369V281.369ZM308.552 281.595C309.621 281.239 310.341 280.786 310.503 280.357C310.538 280.259 310.548 280.152 310.531 280.049C310.514 279.946 310.471 279.848 310.406 279.766C310.341 279.669 310.284 279.653 310.236 279.653C309.815 279.677 309.054 280.746 308.552 281.628V281.595Z" fill="#D3D3D3"/>
<path d="M308.334 281.992H308.253C308.225 281.99 308.199 281.981 308.176 281.965C308.153 281.95 308.135 281.928 308.123 281.903C308.123 281.83 307.314 280.122 307.654 279.216C307.692 279.105 307.753 279.003 307.834 278.917C307.915 278.832 308.014 278.766 308.123 278.722C308.223 278.666 308.34 278.645 308.454 278.665C308.567 278.684 308.67 278.741 308.746 278.828C309.224 279.394 308.795 281.255 308.39 281.919C308.381 281.949 308.361 281.975 308.334 281.992V281.992ZM308.18 279.054C308.122 279.084 308.071 279.126 308.029 279.176C307.988 279.226 307.956 279.283 307.937 279.346C307.829 280.078 307.948 280.827 308.277 281.49C308.609 280.721 308.795 279.378 308.512 279.062C308.512 279.062 308.431 278.957 308.245 279.062L308.18 279.054Z" fill="#D3D3D3"/>
<path d="M268.679 285.723C268.652 285.713 268.627 285.695 268.609 285.672C268.59 285.65 268.578 285.622 268.574 285.593C268.568 285.562 268.573 285.53 268.587 285.502C268.602 285.474 268.626 285.452 268.655 285.439C268.947 285.277 271.536 283.918 272.329 284.339C272.404 284.38 272.467 284.439 272.512 284.512C272.558 284.584 272.584 284.666 272.588 284.751V284.751C272.607 284.89 272.592 285.031 272.544 285.162C272.496 285.293 272.417 285.411 272.313 285.504C271.609 286.143 269.748 285.917 268.696 285.723H268.679ZM272.127 284.59C271.633 284.428 270.233 284.986 269.205 285.496C270.646 285.714 271.714 285.634 272.111 285.277C272.178 285.214 272.229 285.136 272.259 285.048C272.289 284.96 272.296 284.867 272.281 284.776C272.284 284.742 272.276 284.708 272.258 284.679C272.241 284.65 272.215 284.627 272.184 284.614L272.127 284.59Z" fill="#D3D3D3"/>
<path d="M268.679 285.723H268.639C268.616 285.709 268.597 285.688 268.586 285.664C268.574 285.639 268.57 285.612 268.574 285.585C268.574 285.512 268.728 283.756 269.537 283.068C269.652 282.966 269.787 282.889 269.933 282.841C270.079 282.794 270.234 282.777 270.387 282.793C270.816 282.793 270.937 283.036 270.97 283.214C271.099 283.942 269.57 285.375 268.793 285.739C268.754 285.745 268.715 285.74 268.679 285.723V285.723ZM270.525 283.101H270.363C270.25 283.09 270.136 283.103 270.029 283.14C269.921 283.176 269.823 283.234 269.74 283.311C269.269 283.883 268.986 284.587 268.93 285.326C269.74 284.832 270.759 283.708 270.686 283.271C270.681 283.225 270.659 283.182 270.625 283.151C270.591 283.12 270.546 283.102 270.5 283.101H270.525Z" fill="#D3D3D3"/>
<path d="M244.401 93.8758C242.572 97.647 240.727 101.523 238.939 105.359C238.04 107.285 237.15 109.203 236.308 111.13C235.467 113.056 234.625 114.982 233.832 116.908C233.46 117.871 233.023 118.834 232.707 119.781L232.189 121.197C232.122 121.319 232.07 121.45 232.035 121.585C231.953 121.993 231.995 122.416 232.157 122.799C232.416 123.467 232.761 124.099 233.185 124.677C235.159 127.396 238.599 130.05 241.86 132.324L239.91 136.767C238.784 136.442 237.676 136.055 236.592 135.61C235.509 135.176 234.45 134.684 233.419 134.137C231.2 133.015 229.158 131.572 227.358 129.856C226.312 128.849 225.42 127.693 224.711 126.425C223.851 124.885 223.387 123.155 223.36 121.391C223.348 120.446 223.468 119.503 223.716 118.591L224.194 116.924C224.501 115.815 224.857 114.763 225.197 113.687C226.638 109.438 228.256 105.335 229.996 101.297C231.736 97.2585 233.605 93.3335 235.661 89.3843L244.401 93.8758Z" fill="#FF8B7B"/>
<path d="M237.263 85.4109C231.331 87.2722 225.504 107.367 225.504 107.367L239.214 113.363C239.214 113.363 243.656 103.652 246.206 96.0447C248.981 87.7497 244.441 83.1611 237.263 85.4109Z" fill="#D3D3D3"/>
<path d="M239.545 131.782L246.117 132.43L243.446 139.713C243.446 139.713 237.538 138.402 237.611 135.181L239.545 131.782Z" fill="#FF8B7B"/>
<path d="M251.782 135.699L248.31 141.72L243.398 139.746L246.076 132.43L251.782 135.699Z" fill="#FF8B7B"/>
<path d="M256.953 63.5523C256.067 63.5587 255.198 63.3017 254.458 62.8138C253.718 62.326 253.139 61.6293 252.795 60.8122C252.452 59.995 252.358 59.0942 252.527 58.2239C252.696 57.3537 253.12 56.5532 253.745 55.9241C254.369 55.295 255.167 54.8655 256.036 54.6902C256.905 54.5149 257.806 54.6016 258.626 54.9393C259.445 55.2771 260.146 55.8507 260.639 56.5873C261.133 57.324 261.396 58.1905 261.396 59.077C261.394 60.2577 260.926 61.3899 260.094 62.2278C259.262 63.0657 258.134 63.5416 256.953 63.5523ZM256.953 55.0063C256.153 55.0063 255.37 55.2436 254.705 55.6883C254.04 56.1329 253.521 56.7648 253.215 57.5042C252.908 58.2436 252.828 59.0572 252.984 59.8421C253.14 60.627 253.526 61.348 254.092 61.9139C254.658 62.4798 255.379 62.8652 256.164 63.0213C256.948 63.1775 257.762 63.0973 258.501 62.7911C259.241 62.4848 259.873 61.9662 260.317 61.3007C260.762 60.6353 260.999 59.853 260.999 59.0527C260.993 57.9838 260.564 56.9608 259.806 56.2072C259.048 55.4536 258.022 55.0306 256.953 55.0306V55.0063Z" fill="white"/>
<path d="M266.681 63.5523C265.795 63.5523 264.93 63.2898 264.194 62.798C263.458 62.3063 262.885 61.6074 262.546 60.7896C262.207 59.9718 262.119 59.072 262.291 58.2039C262.464 57.3358 262.89 56.5384 263.516 55.9125C264.142 55.2866 264.939 54.8604 265.808 54.6877C266.676 54.515 267.575 54.6036 268.393 54.9423C269.211 55.2811 269.91 55.8547 270.402 56.5906C270.893 57.3266 271.156 58.1919 271.156 59.077C271.154 60.2632 270.682 61.4003 269.843 62.2391C269.004 63.0779 267.867 63.5501 266.681 63.5523V63.5523ZM266.681 55.0063C265.88 55.0063 265.098 55.2436 264.433 55.6883C263.767 56.1329 263.249 56.7648 262.942 57.5042C262.636 58.2436 262.556 59.0572 262.712 59.8421C262.868 60.627 263.254 61.348 263.819 61.9139C264.385 62.4798 265.106 62.8652 265.891 63.0213C266.676 63.1775 267.49 63.0973 268.229 62.7911C268.968 62.4848 269.6 61.9662 270.045 61.3007C270.49 60.6353 270.727 59.853 270.727 59.0527C270.721 57.9837 270.291 56.9608 269.533 56.2072C268.775 55.4536 267.75 55.0306 266.681 55.0306V55.0063Z" fill="white"/>
</svg>
