<svg width="331" height="318" viewBox="0 0 331 318" fill="none" xmlns="http://www.w3.org/2000/svg">
<path d="M167.464 317.946C257.783 317.946 331 275.673 331 223.527C331 171.38 257.783 129.107 167.464 129.107C77.1458 129.107 3.92822 171.38 3.92822 223.527C3.92822 275.673 77.1458 317.946 167.464 317.946Z" fill="#F5F5F5"/>
<path d="M157.224 301.06L306.138 215.088C307.895 214.073 307.895 212.426 306.138 211.412L184.107 140.95C183.121 140.45 182.03 140.189 180.924 140.189C179.818 140.189 178.728 140.45 177.741 140.95L28.8342 226.96C27.0699 227.974 27.0699 229.621 28.8342 230.635L150.865 301.097C151.853 301.591 152.944 301.845 154.049 301.838C155.154 301.832 156.241 301.565 157.224 301.06V301.06Z" fill="#E0E0E0"/>
<path d="M39.3758 201.576C38.8832 195.452 36.0824 185.403 28.959 175.847C21.3432 165.606 12.0512 159.196 5.15569 162.195C-1.2693 164.989 1.16397 173.854 12.2276 182.602C19.9832 188.748 28.0328 196.731 32.3553 206.384L39.3758 218.638V201.576Z" fill="#D3D3D3"/>
<g opacity="0.2">
<path d="M39.3758 201.576C38.8832 195.452 36.0824 185.403 28.959 175.847C21.3432 165.606 12.0512 159.196 5.15569 162.195C-1.2693 164.989 1.16397 173.854 12.2276 182.602C19.9832 188.748 28.0328 196.731 32.3553 206.384L39.3758 218.638V201.576Z" fill="black"/>
</g>
<path d="M38.7583 206.244C38.6684 206.245 38.5805 206.218 38.5068 206.166C38.4331 206.115 38.3771 206.042 38.3466 205.957C32.201 188.983 19.3436 171.803 8.48583 166.003C8.38451 165.949 8.30857 165.856 8.27423 165.747C8.23989 165.637 8.24987 165.518 8.30205 165.415C8.35812 165.313 8.45155 165.237 8.56263 165.203C8.67372 165.169 8.79378 165.179 8.8975 165.231C19.9244 171.112 32.9361 188.505 39.1626 205.663C39.1826 205.717 39.1917 205.774 39.1896 205.831C39.1875 205.888 39.174 205.944 39.1501 205.996C39.1262 206.048 39.0923 206.095 39.0503 206.133C39.0083 206.172 38.959 206.202 38.9053 206.222C38.8583 206.239 38.8083 206.246 38.7583 206.244Z" fill="white"/>
<path d="M42.059 230.76C38.4957 233.56 34.2599 235.375 29.7751 236.024C22.0342 237.244 18.6159 233.547 18.6159 233.547C18.6159 233.547 21.6667 226.283 26.0627 224.247C26.0627 224.247 18.6085 225.769 12.632 229.761C12.632 229.761 7.90512 229.834 6.01585 222.615C6.01585 222.615 8.81668 218.278 18.2116 215.933C18.2116 215.933 12.4923 214.463 4.2442 216.595C3.62669 216.837 0.994944 207.516 0.193657 203.215C-0.607629 198.915 1.12727 198.951 4.47944 198.069C7.83161 197.187 19.2555 196.599 21.3873 198.452C23.5192 200.304 24.5557 206.604 24.5557 206.604C24.9404 204.089 25.012 201.536 24.7689 199.003C27.6216 198.861 30.4777 199.204 33.2155 200.017C36.9867 201.333 36.7441 203.171 36.7441 205.898C36.7591 208.66 36.3804 211.411 35.6193 214.066C35.6193 214.066 38.2217 211.809 38.3099 203.509C38.3099 203.509 43.4043 207.869 45.448 211.596C47.4916 215.323 46.9697 225.173 42.059 230.76Z" fill="#D3D3D3"/>
<path d="M42.0591 231.194C41.9784 231.188 41.9003 231.163 41.8312 231.121C41.7621 231.079 41.7042 231.021 41.6622 230.952C32.7525 218.131 12.1984 202.899 3.88409 201.282C3.77133 201.257 3.67248 201.19 3.60812 201.094C3.54376 200.998 3.51885 200.881 3.53858 200.767C3.56172 200.655 3.62759 200.556 3.72225 200.492C3.81692 200.427 3.93296 200.402 4.04582 200.422C12.4998 202.068 33.664 217.006 42.4488 230.562C42.4769 230.613 42.494 230.669 42.4987 230.727C42.5035 230.785 42.4959 230.844 42.4765 230.899C42.457 230.953 42.4262 231.004 42.3859 231.046C42.3456 231.088 42.2969 231.121 42.2429 231.143C42.1864 231.174 42.1235 231.191 42.0591 231.194V231.194Z" fill="white"/>
<path d="M284.503 195.57L278.1 191.894C278.1 191.894 275.028 174.986 277.328 160.416C280.556 139.965 294.479 132.908 299.537 134.944C304.594 136.98 305.785 143.031 296.648 154.851C291.259 161.85 284.349 176.589 284.503 195.57Z" fill="#D3D3D3"/>
<g opacity="0.2">
<path d="M284.503 195.57L278.1 191.894C278.1 191.894 275.028 174.986 277.328 160.416C280.556 139.965 294.479 132.908 299.537 134.944C304.594 136.98 305.785 143.031 296.648 154.851C291.259 161.85 284.349 176.589 284.503 195.57Z" fill="black"/>
</g>
<path d="M282.18 187.447H282.247C282.366 187.429 282.473 187.365 282.546 187.269C282.619 187.172 282.651 187.052 282.636 186.932C279.99 167.782 287.686 146.802 296.339 138.348C296.426 138.263 296.475 138.147 296.477 138.026C296.478 137.904 296.431 137.788 296.346 137.701C296.261 137.614 296.146 137.565 296.024 137.563C295.903 137.562 295.786 137.609 295.699 137.693C286.878 146.302 279.041 167.62 281.732 187.057C281.746 187.166 281.8 187.265 281.882 187.337C281.965 187.409 282.071 187.448 282.18 187.447V187.447Z" fill="white"/>
<path d="M302.271 205.832C303.279 206.413 305.366 205.149 306.16 204.612C307.528 203.682 308.634 202.416 309.373 200.936C310.2 199.253 310.482 197.355 310.181 195.504C310.016 194.526 309.786 193.561 309.49 192.615C309.226 191.681 308.954 190.747 308.682 189.807C308.355 188.903 308.218 187.942 308.277 186.984C308.52 185.065 310.225 183.72 311.769 182.573C313.482 181.294 315.261 179.632 315.254 177.287C315.13 175.496 314.414 173.797 313.217 172.458C312.115 171.053 310.806 169.818 309.806 168.348C309.02 167.318 308.61 166.049 308.645 164.753C308.754 163.962 309.019 163.2 309.424 162.511C310.24 161.041 311.321 159.63 311.88 158.02C312.438 156.41 312.365 154.396 311.1 153.234C310.064 152.286 308.527 152.153 307.131 152.249C305.826 152.412 304.572 152.856 303.455 153.55C299.779 155.586 297.699 159.931 293.803 161.497C292.333 162.107 290.656 162.232 289.098 162.651C287.539 163.07 285.937 163.864 285.209 165.312C283.783 168.164 286.437 171.678 285.43 174.707C284.54 177.383 281.938 178.383 280.475 180.823C279.879 181.889 279.64 183.118 279.791 184.33C279.915 186.38 280.414 188.391 281.262 190.262C282.215 192.118 283.304 193.902 284.518 195.599C284.562 195.629 302.11 205.744 302.271 205.832Z" fill="#D3D3D3"/>
<path d="M291.877 200.297C291.937 200.295 291.997 200.281 292.053 200.256C292.108 200.231 292.158 200.195 292.2 200.151C292.242 200.106 292.274 200.054 292.296 199.997C292.317 199.94 292.327 199.88 292.325 199.819C291.59 181.698 300.11 161.688 306.292 155.873C306.381 155.79 306.433 155.676 306.437 155.554C306.442 155.433 306.397 155.315 306.315 155.226C306.232 155.137 306.117 155.085 305.996 155.081C305.874 155.077 305.756 155.121 305.668 155.204C299.331 161.137 290.62 181.478 291.377 199.856C291.38 199.918 291.395 199.979 291.422 200.035C291.448 200.091 291.486 200.141 291.533 200.182C291.58 200.224 291.634 200.255 291.693 200.275C291.752 200.294 291.815 200.302 291.877 200.297V200.297Z" fill="white"/>
<path d="M294.589 178.883C294.633 178.89 294.678 178.89 294.721 178.883C299.014 177.689 303.424 176.969 307.873 176.736C307.993 176.728 308.106 176.674 308.187 176.585C308.268 176.496 308.311 176.379 308.307 176.258C308.307 176.197 308.294 176.137 308.27 176.081C308.245 176.026 308.209 175.976 308.164 175.935C308.119 175.894 308.066 175.863 308.008 175.844C307.95 175.825 307.889 175.818 307.829 175.824C303.303 176.053 298.817 176.778 294.449 177.986C294.335 178.021 294.239 178.101 294.182 178.207C294.126 178.313 294.114 178.437 294.148 178.552C294.174 178.648 294.232 178.733 294.312 178.793C294.392 178.853 294.489 178.884 294.589 178.883V178.883Z" fill="white"/>
<path d="M41.2432 228.334C41.3354 229.594 41.7229 230.814 42.3742 231.895C43.0256 232.977 43.9225 233.89 44.9923 234.561L150.115 295.238C151.278 295.829 152.564 296.137 153.868 296.137C155.172 296.137 156.458 295.829 157.621 295.238L301.397 212.213C302.529 211.615 303.477 210.719 304.138 209.621C304.799 208.524 305.149 207.268 305.149 205.987C305.149 204.706 304.799 203.449 304.138 202.352C303.477 201.255 302.529 200.359 301.397 199.76L196.274 139.076C195.111 138.488 193.827 138.182 192.525 138.182C191.222 138.182 189.938 138.488 188.775 139.076L44.9923 222.101C43.9215 222.772 43.024 223.686 42.3726 224.769C41.7212 225.852 41.3343 227.074 41.2432 228.334V228.334Z" fill="#37474F"/>
<path d="M153.842 288.019V296.106C152.536 296.135 151.245 295.826 150.093 295.209L44.9702 234.532C43.8704 233.952 42.9442 233.091 42.2864 232.036C41.6285 230.981 41.2626 229.77 41.226 228.528C41.1893 227.285 41.4833 226.055 42.0779 224.963C42.6724 223.872 43.5462 222.957 44.6099 222.314C42.9265 223.519 43.0588 225.254 44.9922 226.408L150.115 287.086C151.258 287.708 152.541 288.029 153.842 288.019V288.019Z" fill="#263238"/>
<path d="M37.7219 222.24C36.6785 221.528 35.8164 220.581 35.2049 219.476C34.5934 218.37 34.2495 217.137 34.2007 215.874V90.4544C34.2726 89.1532 34.6493 87.887 35.3006 86.7582C35.9518 85.6294 36.8593 84.6694 37.9498 83.9559L181.755 0.930821C182.872 0.342643 184.112 0.0243172 185.374 0.00133916C186.637 -0.0216389 187.887 0.25137 189.025 0.798498C190.069 1.5108 190.931 2.45769 191.542 3.56324C192.154 4.66878 192.498 5.90223 192.547 7.16469V132.584C192.475 133.885 192.099 135.15 191.447 136.278C190.796 137.406 189.888 138.364 188.798 139.076L44.9923 222.101C43.8755 222.69 42.6362 223.01 41.3737 223.034C40.1112 223.058 38.8605 222.786 37.7219 222.24V222.24Z" fill="#455A64"/>
<path d="M44.5512 222.314C43.4748 222.797 42.3057 223.039 41.126 223.022C39.9462 223.006 38.7843 222.731 37.7219 222.218C36.6779 221.509 35.8157 220.563 35.2052 219.459C34.5947 218.354 34.2531 217.121 34.208 215.859V90.4544C34.251 89.1554 34.6282 87.8894 35.3033 86.7787L42.3385 90.8293C41.6674 91.9421 41.2881 93.2064 41.2358 94.5049V219.939C41.2358 222.159 42.684 223.152 44.5512 222.314Z" fill="#263238"/>
<path d="M41.2432 94.5196V219.939C41.2432 222.328 42.9192 223.299 44.9923 222.101L188.783 139.076C189.874 138.364 190.781 137.406 191.433 136.278C192.084 135.15 192.461 133.885 192.532 132.584V7.16468C192.532 4.76818 190.849 3.80516 188.783 4.99606L44.9923 88.0211C43.9002 88.733 42.9914 89.6925 42.34 90.8217C41.6885 91.9508 41.3127 93.2178 41.2432 94.5196V94.5196Z" fill="#37474F"/>
<path d="M44.9923 226.438L150.115 287.115C151.279 287.702 152.564 288.008 153.868 288.008C155.172 288.008 156.457 287.702 157.621 287.115L301.397 204.09C303.462 202.892 303.462 200.951 301.397 199.76L196.274 139.076C195.111 138.488 193.827 138.182 192.525 138.182C191.222 138.182 189.938 138.488 188.775 139.076L44.9923 222.101C42.9192 223.299 42.9192 225.254 44.9923 226.438Z" fill="#455A64"/>
<path d="M47.0066 94.9827L185.651 14.957C186.894 14.2219 187.901 14.8173 187.901 16.2582V124.829C187.858 125.609 187.632 126.369 187.241 127.046C186.851 127.722 186.306 128.298 185.651 128.725L47.0066 208.751C45.7642 209.486 44.7571 208.883 44.7571 207.45V98.8789C44.7997 98.0984 45.0256 97.339 45.4164 96.6621C45.8073 95.9852 46.352 95.4099 47.0066 94.9827V94.9827Z" fill="#D3D3D3"/>
<path opacity="0.9" d="M47.0066 94.9827L185.651 14.957C186.894 14.2219 187.901 14.8173 187.901 16.2582V124.829C187.858 125.609 187.632 126.369 187.241 127.046C186.851 127.722 186.306 128.298 185.651 128.725L47.0066 208.751C45.7642 209.486 44.7571 208.883 44.7571 207.45V98.8789C44.7997 98.0984 45.0256 97.339 45.4164 96.6621C45.8073 95.9852 46.352 95.4099 47.0066 94.9827V94.9827Z" fill="white"/>
<path d="M57.1953 223.189L190.672 146.125C191.252 145.828 191.895 145.673 192.547 145.673C193.198 145.673 193.841 145.828 194.421 146.125L201.25 150.066C202.287 150.661 202.287 151.632 201.25 152.227L67.7517 229.283C67.169 229.576 66.5258 229.729 65.8734 229.729C65.2211 229.729 64.5778 229.576 63.9952 229.283L57.1953 225.35C56.1514 224.754 56.1514 223.784 57.1953 223.189Z" fill="#37474F"/>
<path d="M74.787 233.341L207.271 156.888C207.853 156.594 208.495 156.441 209.146 156.441C209.797 156.441 210.439 156.594 211.02 156.888L253.011 181.147C254.047 181.75 254.047 182.72 253.011 183.352L120.688 259.717C120.106 260.01 119.462 260.163 118.81 260.163C118.158 260.163 117.514 260.01 116.932 259.717L74.7943 235.568C73.7505 234.907 73.7504 233.943 74.787 233.341Z" fill="#263238"/>
<path d="M194.436 190.953L198.619 188.542C198.795 188.439 198.78 188.263 198.619 188.153L193.789 185.366C193.685 185.313 193.571 185.286 193.454 185.286C193.338 185.286 193.223 185.313 193.12 185.366L188.915 187.763C188.739 187.866 188.746 188.035 188.915 188.145L193.745 190.939C193.85 190.998 193.968 191.03 194.088 191.032C194.209 191.035 194.328 191.008 194.436 190.953V190.953ZM186.188 181.397L182.012 183.808C181.836 183.911 181.843 184.08 182.012 184.19L186.842 186.984C186.945 187.037 187.06 187.064 187.176 187.064C187.293 187.064 187.407 187.037 187.511 186.984L191.694 184.565C191.87 184.462 191.855 184.293 191.694 184.183L186.864 181.389C186.761 181.332 186.646 181.3 186.528 181.296C186.411 181.292 186.294 181.317 186.188 181.367V181.397ZM172.691 189.189L165.611 193.269C165.435 193.372 165.45 193.548 165.611 193.659L170.441 196.445C170.545 196.498 170.659 196.525 170.776 196.525C170.892 196.525 171.007 196.498 171.11 196.445L178.182 192.365C178.359 192.262 178.351 192.085 178.182 191.975L173.345 189.174C173.244 189.122 173.133 189.093 173.02 189.09C172.906 189.088 172.794 189.111 172.691 189.16V189.189ZM180.079 184.918L175.903 187.337C175.727 187.432 175.734 187.609 175.903 187.719L180.733 190.505C180.837 190.558 180.951 190.585 181.067 190.585C181.184 190.585 181.298 190.558 181.402 190.505L185.585 188.094C185.761 187.991 185.747 187.822 185.585 187.711L180.755 184.918C180.653 184.859 180.538 184.826 180.42 184.821C180.303 184.816 180.186 184.839 180.079 184.889V184.918ZM163.685 194.379L159.51 196.79C159.326 196.893 159.341 197.07 159.51 197.18L164.34 199.966C164.443 200.019 164.558 200.046 164.674 200.046C164.79 200.046 164.905 200.019 165.009 199.966L169.184 197.555C169.361 197.452 169.353 197.275 169.184 197.165L164.354 194.379C164.251 194.326 164.136 194.299 164.02 194.299C163.904 194.299 163.789 194.326 163.685 194.379V194.379ZM157.577 197.908L153.401 200.319C153.225 200.422 153.232 200.591 153.401 200.701L158.231 203.495C158.334 203.547 158.449 203.575 158.565 203.575C158.682 203.575 158.796 203.547 158.9 203.495L163.075 201.076C163.259 200.973 163.244 200.804 163.075 200.694L158.246 197.908C158.144 197.851 158.03 197.82 157.914 197.816C157.797 197.812 157.682 197.836 157.577 197.886V197.908ZM176.587 209.251L180.762 206.839C180.946 206.736 180.931 206.56 180.762 206.45L175.933 203.664C175.829 203.611 175.714 203.583 175.598 203.583C175.482 203.583 175.367 203.611 175.264 203.664L171.088 206.075C170.912 206.178 170.919 206.354 171.088 206.464L175.918 209.251C176.023 209.3 176.139 209.324 176.255 209.32C176.371 209.316 176.485 209.285 176.587 209.229V209.251ZM170.478 212.757L174.661 210.346C174.837 210.243 174.823 210.067 174.661 209.956L169.831 207.17C169.728 207.117 169.613 207.09 169.497 207.09C169.38 207.09 169.266 207.117 169.162 207.17L164.987 209.581C164.81 209.684 164.818 209.853 164.987 209.964L169.816 212.757C169.919 212.809 170.032 212.836 170.147 212.836C170.262 212.836 170.375 212.809 170.478 212.757V212.757ZM164.369 216.286L168.552 213.867C168.728 213.764 168.714 213.595 168.552 213.485L163.722 210.691C163.619 210.639 163.504 210.611 163.388 210.611C163.271 210.611 163.157 210.639 163.053 210.691L158.878 213.103C158.701 213.206 158.709 213.375 158.878 213.485L163.708 216.278C163.81 216.331 163.923 216.359 164.037 216.361C164.152 216.362 164.266 216.336 164.369 216.286V216.286ZM158.26 219.807L162.443 217.396C162.62 217.293 162.605 217.124 162.443 217.014L157.606 214.22C157.502 214.167 157.388 214.14 157.271 214.14C157.155 214.14 157.041 214.167 156.937 214.22L152.761 216.617C152.585 216.719 152.592 216.896 152.761 217.006L157.599 219.792C157.7 219.846 157.813 219.876 157.928 219.878C158.043 219.881 158.156 219.856 158.26 219.807V219.807ZM188.327 194.475L192.51 192.063C192.686 191.96 192.671 191.791 192.51 191.681L187.673 188.888C187.57 188.836 187.457 188.809 187.342 188.809C187.227 188.809 187.114 188.836 187.011 188.888L182.828 191.306C182.652 191.409 182.659 191.578 182.828 191.688L187.665 194.482C187.768 194.533 187.882 194.558 187.997 194.557C188.112 194.556 188.225 194.527 188.327 194.475V194.475ZM182.696 205.7L192.017 200.319C192.194 200.216 192.186 200.047 192.017 199.937L180.255 193.159C180.153 193.107 180.039 193.08 179.924 193.08C179.809 193.08 179.696 193.107 179.594 193.159L174.771 195.945C174.595 196.048 174.602 196.217 174.771 196.327L180.983 199.915C181.174 200.025 181.181 200.201 180.983 200.304L177.131 202.51C176.947 202.612 176.962 202.782 177.131 202.892L181.961 205.678C182.07 205.746 182.196 205.784 182.325 205.787C182.454 205.791 182.582 205.761 182.696 205.7V205.7ZM151.468 201.407L147.292 203.825C147.116 203.928 147.123 204.097 147.292 204.208L152.122 207.001C152.225 207.054 152.34 207.082 152.456 207.082C152.573 207.082 152.687 207.054 152.791 207.001L156.974 204.59C157.15 204.487 157.135 204.318 156.974 204.208L152.144 201.414C152.04 201.359 151.924 201.329 151.807 201.328C151.689 201.327 151.573 201.354 151.468 201.407V201.407ZM145.359 204.935L141.183 207.347C141.007 207.45 141.014 207.626 141.183 207.736L146.013 210.522C146.117 210.575 146.231 210.603 146.348 210.603C146.464 210.603 146.578 210.575 146.682 210.522L150.865 208.111C151.041 208.008 151.027 207.832 150.865 207.729L146.035 204.935C145.931 204.881 145.815 204.853 145.697 204.853C145.579 204.853 145.463 204.881 145.359 204.935V204.935ZM114.836 244.478C114.94 244.531 115.055 244.558 115.171 244.558C115.287 244.558 115.402 244.531 115.505 244.478L119.688 242.067C119.865 241.964 119.85 241.795 119.688 241.684L114.858 238.891C114.755 238.838 114.64 238.81 114.524 238.81C114.408 238.81 114.293 238.838 114.189 238.891L110.014 241.302C109.838 241.405 109.845 241.581 110.014 241.692L114.836 244.478ZM96.495 233.15L92.3195 235.546C92.1431 235.649 92.1504 235.818 92.3195 235.928L97.1493 238.722C97.2528 238.775 97.3675 238.802 97.4837 238.802C97.6 238.802 97.7147 238.775 97.8182 238.722L101.994 236.311C102.178 236.208 102.163 236.031 101.994 235.921L97.164 233.135C97.0593 233.084 96.944 233.059 96.8277 233.062C96.7114 233.064 96.5974 233.094 96.495 233.15V233.15ZM106.331 241.427C106.434 241.479 106.547 241.506 106.662 241.506C106.777 241.506 106.89 241.479 106.993 241.427L111.175 239.016C111.352 238.913 111.337 238.744 111.175 238.634L106.346 235.84C106.242 235.787 106.127 235.76 106.011 235.76C105.895 235.76 105.78 235.787 105.677 235.84L101.501 238.259C101.325 238.362 101.332 238.531 101.501 238.641L106.331 241.427ZM125.621 246.632L129.804 244.221C129.98 244.118 129.973 243.941 129.804 243.831L124.966 241.045C124.864 240.993 124.751 240.966 124.636 240.966C124.521 240.966 124.407 240.993 124.305 241.045L120.122 243.456C119.946 243.559 119.953 243.735 120.122 243.846L124.959 246.632C125.062 246.682 125.176 246.708 125.291 246.707C125.406 246.705 125.519 246.677 125.621 246.624V246.632ZM118.85 250.146C118.953 250.197 119.066 250.224 119.181 250.224C119.296 250.224 119.409 250.197 119.512 250.146L123.695 247.727C123.871 247.624 123.864 247.455 123.695 247.345L118.858 244.559C118.755 244.507 118.642 244.48 118.527 244.48C118.412 244.48 118.299 244.507 118.196 244.559L114.013 246.97C113.837 247.073 113.844 247.242 114.013 247.352L118.85 250.146ZM102.604 229.628L98.4284 232.04C98.2446 232.142 98.2593 232.319 98.4284 232.429L103.258 235.215C103.362 235.268 103.476 235.296 103.593 235.296C103.709 235.296 103.824 235.268 103.927 235.215L108.103 232.804C108.286 232.701 108.272 232.532 108.103 232.422L103.273 229.628C103.17 229.574 103.056 229.545 102.939 229.544C102.823 229.543 102.708 229.569 102.604 229.621V229.628ZM133.148 211.985L128.965 214.397C128.789 214.499 128.796 214.668 128.965 214.779L133.803 217.572C133.905 217.624 134.019 217.651 134.133 217.651C134.248 217.651 134.362 217.624 134.464 217.572L138.647 215.154C138.824 215.051 138.816 214.882 138.647 214.771L133.81 211.978C133.704 211.933 133.589 211.913 133.474 211.921C133.359 211.929 133.247 211.963 133.148 212.022V211.985ZM108.713 226.085L104.53 228.504C104.353 228.606 104.368 228.776 104.53 228.886L109.36 231.679C109.463 231.732 109.578 231.76 109.694 231.76C109.81 231.76 109.925 231.732 110.029 231.679L114.204 229.268C114.381 229.165 114.373 228.996 114.204 228.886L109.374 226.092C109.272 226.041 109.158 226.014 109.044 226.014C108.929 226.014 108.815 226.041 108.713 226.092V226.085ZM139.25 208.442L135.074 210.853C134.898 210.956 134.905 211.125 135.074 211.235L139.912 214.029C140.014 214.081 140.127 214.108 140.242 214.108C140.357 214.108 140.471 214.081 140.573 214.029L144.756 211.618C144.932 211.515 144.918 211.338 144.756 211.228L139.919 208.442C139.814 208.392 139.698 208.369 139.582 208.372C139.465 208.376 139.352 208.408 139.25 208.464V208.442ZM127.032 215.514L122.857 217.903C122.68 218.006 122.688 218.182 122.857 218.293L127.694 221.079C127.797 221.132 127.912 221.159 128.028 221.159C128.144 221.159 128.259 221.132 128.363 221.079L132.538 218.668C132.715 218.565 132.707 218.396 132.538 218.285L127.701 215.492C127.596 215.442 127.48 215.418 127.364 215.422C127.248 215.426 127.134 215.458 127.032 215.514V215.514ZM120.923 219.042L116.74 221.454C116.564 221.557 116.579 221.733 116.74 221.843L121.57 224.629C121.674 224.682 121.788 224.71 121.905 224.71C122.021 224.71 122.136 224.682 122.239 224.629L126.415 222.218C126.591 222.115 126.584 221.939 126.415 221.829L121.585 219.042C121.483 218.992 121.371 218.966 121.258 218.966C121.144 218.966 121.032 218.992 120.931 219.042H120.923ZM114.814 222.571L110.631 224.982C110.455 225.085 110.47 225.254 110.631 225.365L115.461 228.158C115.565 228.211 115.679 228.239 115.796 228.239C115.912 228.239 116.027 228.211 116.13 228.158L120.306 225.739C120.482 225.644 120.475 225.467 120.306 225.357L115.476 222.571C115.374 222.521 115.262 222.494 115.149 222.494C115.035 222.494 114.923 222.521 114.822 222.571H114.814ZM146.035 226.864L150.218 224.446C150.394 224.35 150.387 224.174 150.218 224.063L145.381 221.277C145.278 221.226 145.165 221.199 145.05 221.199C144.935 221.199 144.822 221.226 144.719 221.277L140.536 223.688C140.36 223.791 140.367 223.96 140.536 224.071L145.373 226.864C145.477 226.917 145.592 226.945 145.708 226.945C145.824 226.945 145.939 226.917 146.042 226.864H146.035ZM199.699 173.568L195.516 176.001C195.333 176.104 195.347 176.28 195.516 176.391L200.346 179.177C200.45 179.23 200.564 179.257 200.681 179.257C200.797 179.257 200.912 179.23 201.015 179.177L205.191 176.765C205.367 176.663 205.36 176.493 205.191 176.383L200.361 173.59C200.259 173.533 200.145 173.502 200.029 173.498C199.913 173.494 199.797 173.518 199.692 173.568H199.699ZM192.304 177.839L188.128 180.25C187.945 180.353 187.959 180.522 188.128 180.632L192.958 183.426C193.062 183.479 193.176 183.506 193.293 183.506C193.409 183.506 193.524 183.479 193.627 183.426L197.803 181.014C197.986 180.912 197.972 180.735 197.803 180.625L192.973 177.839C192.868 177.785 192.752 177.756 192.635 177.756C192.517 177.756 192.401 177.785 192.297 177.839H192.304ZM205.808 170.039L201.625 172.458C201.449 172.561 201.464 172.73 201.625 172.84L206.455 175.633C206.559 175.686 206.673 175.714 206.79 175.714C206.906 175.714 207.02 175.686 207.124 175.633L211.3 173.222C211.476 173.119 211.469 172.95 211.3 172.84L206.47 170.046C206.367 169.992 206.252 169.963 206.136 169.962C206.02 169.961 205.905 169.987 205.801 170.039H205.808ZM174.198 202.642L178.381 200.231C178.557 200.128 178.542 199.959 178.381 199.848L173.551 197.055C173.447 197.002 173.333 196.974 173.216 196.974C173.1 196.974 172.985 197.002 172.882 197.055L168.706 199.473C168.53 199.576 168.537 199.745 168.706 199.856L173.536 202.649C173.637 202.697 173.748 202.722 173.86 202.721C173.973 202.719 174.083 202.692 174.183 202.642H174.198ZM212.586 166.532C212.483 166.481 212.37 166.454 212.255 166.454C212.14 166.454 212.027 166.481 211.924 166.532L207.742 168.944C207.565 169.047 207.58 169.216 207.742 169.326L212.571 172.119C212.675 172.172 212.789 172.2 212.906 172.2C213.022 172.2 213.137 172.172 213.24 172.119L217.416 169.701C217.592 169.598 217.585 169.429 217.416 169.319L212.586 166.532ZM152.166 223.336L156.349 220.924C156.525 220.821 156.518 220.645 156.349 220.535L151.512 217.749C151.409 217.697 151.296 217.67 151.181 217.67C151.066 217.67 150.953 217.697 150.85 217.749L146.667 220.16C146.491 220.263 146.498 220.439 146.667 220.542L151.504 223.336C151.605 223.385 151.716 223.411 151.828 223.411C151.94 223.411 152.051 223.385 152.151 223.336H152.166ZM227.075 180.088L231.251 177.677C231.427 177.574 231.42 177.398 231.251 177.287L226.384 174.531C226.281 174.478 226.166 174.45 226.05 174.45C225.934 174.45 225.819 174.478 225.715 174.531L221.532 176.942C221.356 177.045 221.371 177.221 221.532 177.331L226.362 180.118C226.472 180.171 226.593 180.196 226.715 180.191C226.837 180.186 226.956 180.151 227.061 180.088H227.075ZM214.064 179.632L218.239 177.214C218.416 177.111 218.408 176.942 218.239 176.832L213.409 174.038C213.306 173.985 213.191 173.958 213.075 173.958C212.959 173.958 212.844 173.985 212.74 174.038L208.565 176.449C208.381 176.552 208.396 176.721 208.565 176.832L213.395 179.625C213.496 179.677 213.607 179.704 213.721 179.706C213.834 179.707 213.947 179.682 214.049 179.632H214.064ZM219.496 170.517C219.393 170.464 219.278 170.436 219.162 170.436C219.045 170.436 218.931 170.464 218.827 170.517L214.644 172.928C214.468 173.031 214.483 173.207 214.644 173.31L219.474 176.104C219.578 176.157 219.692 176.184 219.809 176.184C219.925 176.184 220.04 176.157 220.143 176.104L224.319 173.693C224.495 173.59 224.488 173.413 224.319 173.303L219.496 170.517ZM220.783 169.782L232.545 176.552C232.648 176.605 232.763 176.633 232.879 176.633C232.995 176.633 233.11 176.605 233.214 176.552L237.389 174.141C237.566 174.038 237.558 173.869 237.389 173.759L225.627 166.981C225.524 166.929 225.411 166.902 225.296 166.902C225.181 166.902 225.068 166.929 224.965 166.981L220.739 169.385C220.562 169.488 220.577 169.664 220.768 169.774L220.783 169.782ZM206.609 177.559L202.434 179.978C202.25 180.073 202.265 180.25 202.434 180.36L207.264 183.146C207.367 183.199 207.482 183.227 207.598 183.227C207.714 183.227 207.829 183.199 207.933 183.146L212.108 180.735C212.292 180.632 212.277 180.463 212.108 180.353L207.278 177.559C207.174 177.503 207.057 177.473 206.937 177.471C206.818 177.47 206.701 177.498 206.595 177.552L206.609 177.559ZM160.627 204.097L156.437 206.509C156.261 206.612 156.268 206.781 156.437 206.891L161.274 209.684C161.377 209.736 161.49 209.763 161.605 209.763C161.72 209.763 161.833 209.736 161.936 209.684L166.119 207.273C166.295 207.17 166.28 206.994 166.119 206.884L161.282 204.097C161.18 204.047 161.068 204.021 160.954 204.021C160.841 204.021 160.729 204.047 160.627 204.097V204.097ZM220.283 183.602C220.386 183.655 220.501 183.683 220.617 183.683C220.734 183.683 220.848 183.655 220.952 183.602L225.127 181.191C225.311 181.088 225.296 180.912 225.127 180.801L220.297 178.015C220.194 177.962 220.079 177.935 219.963 177.935C219.847 177.935 219.732 177.962 219.628 178.015L215.431 180.412C215.247 180.515 215.262 180.684 215.431 180.794L220.283 183.602ZM166.729 200.569L162.553 202.98C162.377 203.083 162.384 203.259 162.553 203.37L167.39 206.156C167.493 206.207 167.606 206.234 167.721 206.234C167.836 206.234 167.949 206.207 168.052 206.156L172.235 203.745C172.411 203.642 172.397 203.465 172.235 203.362L167.405 200.569C167.301 200.515 167.185 200.486 167.067 200.486C166.949 200.486 166.833 200.515 166.729 200.569V200.569ZM120.945 240.957C121.049 241.009 121.163 241.037 121.28 241.037C121.396 241.037 121.511 241.009 121.614 240.957L125.79 238.538C125.974 238.435 125.959 238.266 125.79 238.156L120.96 235.362C120.856 235.309 120.742 235.282 120.625 235.282C120.509 235.282 120.395 235.309 120.291 235.362L116.093 237.751C115.91 237.854 115.924 238.023 116.093 238.134L120.945 240.957ZM111.756 232.311L107.581 234.723C107.404 234.826 107.412 234.995 107.581 235.105L112.41 237.898C112.514 237.951 112.629 237.979 112.745 237.979C112.861 237.979 112.976 237.951 113.079 237.898L117.262 235.48C117.439 235.377 117.424 235.208 117.262 235.098L112.433 232.304C112.327 232.251 112.211 232.224 112.093 232.225C111.976 232.227 111.86 232.256 111.756 232.311ZM127.723 237.457L131.899 235.046C132.075 234.943 132.068 234.767 131.899 234.657L127.032 231.87C126.929 231.818 126.814 231.79 126.698 231.79C126.581 231.79 126.467 231.818 126.363 231.87L122.18 234.282C122.004 234.385 122.019 234.554 122.18 234.664L127.01 237.457C127.12 237.516 127.244 237.545 127.368 237.542C127.493 237.54 127.615 237.505 127.723 237.443V237.457ZM133.832 233.929L138.008 231.518C138.184 231.415 138.177 231.238 138.008 231.135L133.178 228.342C133.074 228.289 132.96 228.261 132.843 228.261C132.727 228.261 132.612 228.289 132.509 228.342L128.326 230.753C128.149 230.856 128.164 231.032 128.326 231.143L133.156 233.929C133.261 233.981 133.378 234.006 133.496 234.004C133.613 234.001 133.729 233.97 133.832 233.914V233.929ZM139.941 230.4L144.116 227.989C144.293 227.886 144.286 227.717 144.116 227.607L139.279 224.813C139.177 224.762 139.063 224.735 138.948 224.735C138.834 224.735 138.72 224.762 138.618 224.813L134.383 227.202C134.207 227.305 134.222 227.474 134.383 227.585L139.213 230.371C139.321 230.438 139.446 230.477 139.573 230.482C139.701 230.487 139.827 230.459 139.941 230.4V230.4ZM117.887 228.798L113.712 231.209C113.535 231.312 113.543 231.481 113.712 231.591L118.541 234.385C118.645 234.437 118.76 234.465 118.876 234.465C118.992 234.465 119.107 234.437 119.21 234.385L123.393 231.973C123.57 231.87 123.555 231.694 123.393 231.584L118.563 228.798C118.457 228.737 118.338 228.705 118.216 228.702C118.094 228.699 117.974 228.727 117.865 228.783L117.887 228.798ZM123.996 225.269L119.821 227.68C119.637 227.783 119.651 227.96 119.821 228.07L124.65 230.856C124.754 230.909 124.868 230.936 124.985 230.936C125.101 230.936 125.216 230.909 125.319 230.856L129.495 228.445C129.679 228.342 129.664 228.173 129.495 228.062L124.665 225.269C124.56 225.21 124.442 225.178 124.321 225.175C124.201 225.173 124.082 225.2 123.974 225.254L123.996 225.269ZM148.432 211.162L144.249 213.573C144.072 213.676 144.08 213.853 144.249 213.963L149.086 216.749C149.188 216.801 149.302 216.828 149.417 216.828C149.532 216.828 149.645 216.801 149.747 216.749L153.93 214.338C154.107 214.235 154.099 214.066 153.93 213.955L149.093 211.162C148.989 211.104 148.872 211.073 148.753 211.07C148.634 211.068 148.516 211.094 148.41 211.147L148.432 211.162ZM142.323 214.691L138.14 217.102C137.963 217.205 137.978 217.381 138.14 217.491L142.97 220.278C143.073 220.33 143.188 220.358 143.304 220.358C143.42 220.358 143.535 220.33 143.639 220.278L147.814 217.866C147.991 217.763 147.983 217.587 147.814 217.477L142.977 214.691C142.874 214.634 142.758 214.603 142.641 214.601C142.523 214.598 142.406 214.624 142.301 214.676L142.323 214.691ZM154.518 207.611L150.336 210.022C150.159 210.125 150.166 210.294 150.336 210.405L155.173 213.198C155.275 213.25 155.389 213.277 155.504 213.277C155.618 213.277 155.732 213.25 155.834 213.198L160.017 210.78C160.194 210.677 160.186 210.508 160.017 210.397L155.18 207.604C155.077 207.553 154.963 207.528 154.848 207.529C154.733 207.53 154.62 207.558 154.518 207.611V207.611ZM130.083 221.726L125.907 224.144C125.724 224.247 125.738 224.416 125.907 224.527L130.737 227.32C130.841 227.373 130.955 227.4 131.072 227.4C131.188 227.4 131.303 227.373 131.406 227.32L135.582 224.909C135.758 224.806 135.751 224.637 135.582 224.527L130.752 221.733C130.649 221.679 130.535 221.65 130.418 221.649C130.302 221.648 130.187 221.674 130.083 221.726V221.726ZM136.192 218.204L132.009 220.616C131.832 220.719 131.847 220.888 132.009 220.998L136.839 223.791C136.942 223.844 137.057 223.872 137.173 223.872C137.289 223.872 137.404 223.844 137.508 223.791L141.683 221.373C141.86 221.277 141.852 221.101 141.683 220.991L136.853 218.204C136.751 218.153 136.637 218.126 136.523 218.126C136.408 218.126 136.294 218.153 136.192 218.204V218.204ZM131.73 243.096L135.912 240.685C136.089 240.582 136.074 240.413 135.912 240.302L131.075 237.509C130.973 237.457 130.859 237.43 130.744 237.43C130.63 237.43 130.516 237.457 130.414 237.509L126.231 239.92C126.054 240.023 126.062 240.199 126.231 240.31L131.068 243.096C131.171 243.147 131.284 243.174 131.399 243.174C131.514 243.174 131.627 243.147 131.73 243.096V243.096ZM95.8849 239.479L91.0551 236.685C90.9515 236.633 90.8369 236.605 90.7206 236.605C90.6043 236.605 90.4897 236.633 90.3861 236.685L86.2106 239.097C86.0342 239.2 86.0415 239.369 86.2106 239.479L91.0404 242.272C91.1439 242.325 91.2586 242.353 91.3749 242.353C91.4911 242.353 91.6058 242.325 91.7093 242.272L95.8922 239.854C96.0907 239.758 96.076 239.589 95.8849 239.479V239.479ZM105.045 242.162L100.207 239.376C100.105 239.324 99.9915 239.297 99.8766 239.297C99.7617 239.297 99.6484 239.324 99.5458 239.376L93.1134 243.088C92.937 243.191 92.9444 243.36 93.1134 243.471L97.9506 246.264C98.0532 246.316 98.1665 246.343 98.2814 246.343C98.3963 246.343 98.5096 246.316 98.6122 246.264L105.045 242.552C105.243 242.449 105.236 242.272 105.045 242.162ZM88.4748 234.076L83.6597 231.297C83.5571 231.245 83.4438 231.218 83.3289 231.218C83.214 231.218 83.1007 231.245 82.9981 231.297L77.8522 234.238C77.6758 234.34 77.6832 234.51 77.8522 234.62L82.6894 237.413C82.792 237.465 82.9053 237.492 83.0202 237.492C83.1351 237.492 83.2484 237.465 83.351 237.413L88.4968 234.473C88.6733 234.37 88.6659 234.193 88.4748 234.076ZM92.4151 231.797C92.5186 231.85 92.6333 231.877 92.7495 231.877C92.8658 231.877 92.9805 231.85 93.084 231.797L97.2595 229.386C97.4433 229.283 97.4286 229.114 97.2595 229.003L92.4298 226.21C92.3262 226.157 92.2116 226.129 92.0953 226.129C91.979 226.129 91.8644 226.157 91.7608 226.21L87.5853 228.629C87.4015 228.731 87.4162 228.901 87.5853 229.011L92.4151 231.797ZM113.55 245.213L108.72 242.427C108.617 242.374 108.502 242.346 108.386 242.346C108.269 242.346 108.155 242.374 108.051 242.427L100.016 247.065C99.8398 247.168 99.8472 247.345 100.016 247.455L104.853 250.241C104.956 250.293 105.069 250.32 105.184 250.32C105.299 250.32 105.412 250.293 105.515 250.241L113.557 245.603C113.756 245.507 113.741 245.331 113.55 245.22V245.213ZM117.564 250.873L112.727 248.08C112.624 248.028 112.511 248.001 112.396 248.001C112.281 248.001 112.168 248.028 112.065 248.08L106.919 251.02C106.743 251.123 106.75 251.3 106.919 251.41L111.756 254.196C111.859 254.248 111.972 254.275 112.087 254.275C112.202 254.275 112.315 254.248 112.418 254.196L117.564 251.256C117.762 251.16 117.755 250.984 117.564 250.881V250.873ZM137.831 205.582C137.935 205.635 138.049 205.663 138.166 205.663C138.282 205.663 138.397 205.635 138.5 205.582L142.676 203.164C142.852 203.061 142.845 202.892 142.676 202.782L137.846 199.988C137.742 199.935 137.628 199.908 137.511 199.908C137.395 199.908 137.28 199.935 137.177 199.988L132.994 202.399C132.818 202.502 132.832 202.671 132.994 202.782L137.831 205.582ZM125.613 212.632C125.717 212.685 125.832 212.713 125.948 212.713C126.064 212.713 126.179 212.685 126.282 212.632L130.458 210.221C130.642 210.118 130.627 209.942 130.458 209.831L125.628 207.045C125.524 206.992 125.41 206.965 125.294 206.965C125.177 206.965 125.063 206.992 124.959 207.045L120.784 209.456C120.6 209.559 120.614 209.736 120.784 209.846L125.613 212.632ZM98.524 228.276C98.6275 228.329 98.7421 228.356 98.8584 228.356C98.9747 228.356 99.0894 228.329 99.1929 228.276L103.368 225.857C103.545 225.754 103.538 225.585 103.368 225.475L98.5387 222.681C98.4351 222.628 98.3205 222.601 98.2042 222.601C98.0879 222.601 97.9733 222.628 97.8697 222.681L93.6868 225.093C93.5104 225.195 93.5251 225.365 93.6868 225.475L98.524 228.276ZM131.722 209.082C131.826 209.134 131.94 209.162 132.057 209.162C132.173 209.162 132.288 209.134 132.391 209.082L136.567 206.67C136.743 206.567 136.736 206.398 136.567 206.288L131.737 203.495C131.633 203.442 131.519 203.414 131.402 203.414C131.286 203.414 131.172 203.442 131.068 203.495L126.892 205.913C126.709 206.009 126.723 206.185 126.892 206.295L131.722 209.082ZM119.504 216.139C119.608 216.192 119.723 216.219 119.839 216.219C119.955 216.219 120.07 216.192 120.173 216.139L124.356 213.728C124.533 213.625 124.518 213.448 124.356 213.338L119.526 210.552C119.423 210.499 119.308 210.471 119.192 210.471C119.076 210.471 118.961 210.499 118.858 210.552L114.682 212.963C114.506 213.066 114.513 213.235 114.682 213.345L119.504 216.139ZM120.923 251.307C120.82 251.254 120.705 251.227 120.589 251.227C120.472 251.227 120.358 251.254 120.254 251.307L113.8 255.034C113.623 255.137 113.638 255.306 113.8 255.416L118.637 258.203C118.741 258.256 118.855 258.283 118.971 258.283C119.088 258.283 119.202 258.256 119.306 258.203L125.731 254.527C125.907 254.424 125.9 254.255 125.731 254.145L120.923 251.307ZM110.742 221.167C110.845 221.22 110.96 221.247 111.076 221.247C111.193 221.247 111.307 221.22 111.411 221.167L115.586 218.756C115.763 218.653 115.755 218.484 115.586 218.374L110.756 215.58C110.653 215.527 110.538 215.5 110.422 215.5C110.306 215.5 110.191 215.527 110.087 215.58L105.905 217.991C105.728 218.094 105.743 218.271 105.905 218.381L110.742 221.167ZM104.633 224.696C104.736 224.749 104.851 224.776 104.967 224.776C105.084 224.776 105.198 224.749 105.302 224.696L109.477 222.284C109.654 222.181 109.646 222.005 109.477 221.895L104.648 219.109C104.544 219.056 104.429 219.028 104.313 219.028C104.197 219.028 104.082 219.056 103.979 219.109L99.7737 221.579C99.5972 221.682 99.6119 221.858 99.7737 221.961L104.633 224.696ZM234.081 185.999C233.977 185.946 233.863 185.918 233.747 185.918C233.63 185.918 233.516 185.946 233.412 185.999L223.12 191.938C222.944 192.041 222.951 192.218 223.12 192.328L227.957 195.114C228.06 195.166 228.173 195.193 228.288 195.193C228.403 195.193 228.516 195.166 228.619 195.114L238.911 189.174C239.087 189.071 239.073 188.902 238.911 188.792L234.081 185.999ZM220.577 193.791C220.474 193.739 220.361 193.712 220.246 193.712C220.131 193.712 220.018 193.739 219.915 193.791L215.732 196.202C215.556 196.305 215.563 196.474 215.732 196.584L220.569 199.378C220.672 199.43 220.785 199.457 220.9 199.457C221.015 199.457 221.128 199.43 221.231 199.378L225.414 196.959C225.59 196.856 225.583 196.687 225.414 196.577L220.577 193.791ZM137.838 239.575L142.021 237.156C142.198 237.053 142.183 236.884 142.021 236.774L137.192 233.98C137.088 233.927 136.973 233.9 136.857 233.9C136.741 233.9 136.626 233.927 136.523 233.98L132.347 236.391C132.171 236.494 132.178 236.663 132.347 236.774L137.184 239.567C137.285 239.619 137.397 239.646 137.51 239.648C137.624 239.649 137.736 239.624 137.838 239.575ZM208.366 200.848C208.263 200.795 208.148 200.768 208.032 200.768C207.916 200.768 207.801 200.795 207.697 200.848L203.485 203.245C203.309 203.348 203.323 203.524 203.485 203.634L208.315 206.42C208.418 206.473 208.533 206.501 208.649 206.501C208.766 206.501 208.88 206.473 208.984 206.42L213.159 204.009C213.336 203.906 213.328 203.73 213.159 203.62L208.366 200.848ZM240.19 182.47C240.086 182.417 239.972 182.39 239.855 182.39C239.739 182.39 239.625 182.417 239.521 182.47L235.345 184.889C235.169 184.991 235.176 185.161 235.345 185.271L240.175 188.064C240.279 188.117 240.393 188.145 240.51 188.145C240.626 188.145 240.741 188.117 240.844 188.064L245.027 185.653C245.204 185.55 245.189 185.381 245.027 185.271L240.19 182.47ZM251.129 181.735L239.367 174.957C239.263 174.904 239.148 174.877 239.032 174.877C238.916 174.877 238.801 174.904 238.698 174.957L234.522 177.368C234.338 177.471 234.353 177.64 234.522 177.751L246.284 184.528C246.388 184.581 246.502 184.609 246.619 184.609C246.735 184.609 246.85 184.581 246.953 184.528L251.129 182.11C251.334 182.022 251.32 181.882 251.129 181.735ZM185.541 214.029C185.437 213.976 185.323 213.948 185.206 213.948C185.09 213.948 184.975 213.976 184.872 214.029L179.726 216.969C179.549 217.072 179.557 217.241 179.726 217.352L184.563 220.145C184.666 220.197 184.779 220.224 184.894 220.224C185.009 220.224 185.122 220.197 185.225 220.145L190.371 217.205C190.547 217.109 190.54 216.933 190.371 216.822L185.541 214.029ZM200.978 205.119C200.875 205.066 200.76 205.039 200.644 205.039C200.528 205.039 200.413 205.066 200.309 205.119L193.877 208.832C193.701 208.935 193.715 209.104 193.877 209.214L198.707 212.007C198.81 212.06 198.925 212.088 199.041 212.088C199.158 212.088 199.272 212.06 199.376 212.007L205.801 208.332C205.977 208.229 205.97 208.052 205.801 207.942L200.978 205.119ZM171.397 222.189C171.294 222.137 171.181 222.11 171.066 222.11C170.951 222.11 170.838 222.137 170.735 222.189L136.331 242.037C136.155 242.14 136.17 242.317 136.331 242.427L141.161 245.213C141.265 245.266 141.379 245.293 141.496 245.293C141.612 245.293 141.727 245.266 141.83 245.213L176.227 225.365C176.403 225.262 176.396 225.093 176.227 224.982L171.397 222.189ZM135.074 243.169C134.971 243.116 134.856 243.089 134.74 243.089C134.624 243.089 134.509 243.116 134.405 243.169L129.26 246.11C129.083 246.213 129.098 246.382 129.26 246.492L134.089 249.286C134.193 249.338 134.307 249.366 134.424 249.366C134.54 249.366 134.655 249.338 134.758 249.286L139.904 246.345C140.081 246.242 140.073 246.073 139.904 245.963L135.074 243.169ZM178.447 218.109C178.344 218.057 178.231 218.03 178.116 218.03C178.001 218.03 177.888 218.057 177.785 218.109L172.639 221.049C172.463 221.152 172.47 221.329 172.639 221.432L177.476 224.225C177.579 224.277 177.692 224.304 177.807 224.304C177.922 224.304 178.035 224.277 178.138 224.225L183.284 221.285C183.46 221.182 183.453 221.013 183.284 220.902L178.447 218.109ZM127.98 247.249C127.877 247.196 127.762 247.169 127.646 247.169C127.53 247.169 127.415 247.196 127.311 247.249L122.166 250.19C121.989 250.293 122.004 250.469 122.166 250.572L127.003 253.365C127.106 253.418 127.221 253.446 127.337 253.446C127.453 253.446 127.568 253.418 127.672 253.365L132.818 250.425C132.994 250.322 132.987 250.153 132.818 250.043L127.98 247.249ZM192.598 209.942C192.494 209.889 192.38 209.861 192.263 209.861C192.147 209.861 192.033 209.889 191.929 209.942L186.783 212.882C186.607 212.985 186.621 213.161 186.783 213.272L191.62 216.058C191.724 216.111 191.838 216.138 191.955 216.138C192.071 216.138 192.186 216.111 192.289 216.058L197.435 213.117C197.611 213.014 197.604 212.845 197.435 212.735L192.598 209.942ZM214.468 197.32C214.365 197.268 214.252 197.241 214.137 197.241C214.022 197.241 213.909 197.268 213.806 197.32L209.623 199.738C209.447 199.834 209.462 200.01 209.623 200.12L214.461 202.906C214.563 202.958 214.676 202.985 214.791 202.985C214.906 202.985 215.02 202.958 215.122 202.906L219.305 200.495C219.481 200.392 219.474 200.223 219.305 200.113L214.468 197.32ZM227.855 187.601L232.03 185.19C232.214 185.087 232.199 184.911 232.03 184.8L227.2 182.014C227.097 181.961 226.982 181.934 226.866 181.934C226.749 181.934 226.635 181.961 226.531 182.014L222.356 184.425C222.179 184.528 222.187 184.705 222.356 184.815L227.186 187.601C227.289 187.654 227.404 187.682 227.52 187.682C227.636 187.682 227.751 187.654 227.855 187.601V187.601ZM200.545 187.425L204.727 185.014C204.904 184.911 204.889 184.734 204.727 184.624L199.898 181.838C199.794 181.785 199.68 181.757 199.563 181.757C199.447 181.757 199.332 181.785 199.229 181.838L195.053 184.249C194.877 184.352 194.884 184.528 195.053 184.639L199.883 187.425C199.986 187.476 200.099 187.503 200.214 187.503C200.329 187.503 200.442 187.476 200.545 187.425V187.425ZM186.702 211.36L198.92 204.303C199.096 204.2 199.089 204.031 198.92 203.921L194.09 201.127C193.987 201.075 193.872 201.047 193.756 201.047C193.639 201.047 193.525 201.075 193.421 201.127L181.203 208.177C181.027 208.28 181.034 208.449 181.203 208.56L186.041 211.353C186.143 211.406 186.256 211.434 186.371 211.435C186.485 211.437 186.599 211.411 186.702 211.36V211.36ZM221.077 191.115C221.18 191.168 221.295 191.196 221.411 191.196C221.527 191.196 221.642 191.168 221.746 191.115L225.929 188.697C226.105 188.601 226.09 188.425 225.929 188.314L221.069 185.558C220.966 185.505 220.851 185.477 220.735 185.477C220.619 185.477 220.504 185.505 220.4 185.558L216.225 187.969C216.048 188.072 216.056 188.241 216.225 188.351L221.077 191.115ZM214.843 187.145L219.026 184.727C219.202 184.624 219.187 184.455 219.026 184.345L214.196 181.551C214.092 181.498 213.978 181.471 213.861 181.471C213.745 181.471 213.631 181.498 213.527 181.551L209.351 183.97C209.175 184.073 209.182 184.242 209.351 184.352L214.181 187.145C214.284 187.197 214.397 187.224 214.512 187.224C214.627 187.224 214.74 187.197 214.843 187.145V187.145ZM180.593 214.889L184.776 212.47C184.953 212.368 184.945 212.198 184.776 212.088L179.939 209.295C179.836 209.243 179.723 209.216 179.608 209.216C179.493 209.216 179.38 209.243 179.277 209.295L175.095 211.713C174.918 211.816 174.926 211.985 175.095 212.096L179.932 214.889C180.034 214.941 180.148 214.968 180.263 214.968C180.377 214.968 180.491 214.941 180.593 214.889V214.889ZM207.58 198.907C207.682 198.959 207.796 198.986 207.911 198.986C208.025 198.986 208.139 198.959 208.241 198.907L212.424 196.496C212.601 196.393 212.593 196.217 212.424 196.114L207.587 193.32C207.485 193.269 207.371 193.242 207.256 193.242C207.141 193.242 207.028 193.269 206.926 193.32L202.75 195.732C202.574 195.835 202.581 196.011 202.75 196.121L207.58 198.907ZM150.056 232.517L154.232 230.106C154.408 230.003 154.393 229.827 154.232 229.717L149.402 226.93C149.298 226.877 149.184 226.85 149.067 226.85C148.951 226.85 148.837 226.877 148.733 226.93L144.557 229.342C144.381 229.445 144.388 229.621 144.557 229.731L149.387 232.517C149.491 232.57 149.605 232.598 149.722 232.598C149.838 232.598 149.953 232.57 150.056 232.517V232.517ZM156.165 228.989L160.341 226.578C160.524 226.475 160.51 226.306 160.341 226.195L155.511 223.402C155.407 223.349 155.293 223.321 155.176 223.321C155.06 223.321 154.945 223.349 154.842 223.402L150.666 225.82C150.483 225.923 150.497 226.092 150.666 226.203L155.496 228.989C155.6 229.042 155.714 229.069 155.831 229.069C155.947 229.069 156.062 229.042 156.165 228.989ZM143.94 236.046L148.123 233.635C148.299 233.532 148.285 233.355 148.123 233.245L143.293 230.459C143.19 230.406 143.075 230.378 142.959 230.378C142.842 230.378 142.728 230.406 142.624 230.459L138.449 232.87C138.272 232.973 138.28 233.142 138.449 233.252L143.278 236.046C143.381 236.098 143.494 236.125 143.609 236.125C143.724 236.125 143.837 236.098 143.94 236.046V236.046ZM168.376 221.939L172.551 219.528C172.728 219.425 172.72 219.248 172.551 219.138L167.721 216.352C167.618 216.299 167.503 216.271 167.387 216.271C167.271 216.271 167.156 216.299 167.052 216.352L162.869 218.763C162.693 218.866 162.708 219.042 162.869 219.145L167.699 221.939C167.805 221.994 167.922 222.023 168.041 222.023C168.16 222.023 168.277 221.994 168.383 221.939H168.376ZM162.267 225.467L166.442 223.049C166.619 222.946 166.611 222.777 166.442 222.667L161.583 219.881C161.479 219.828 161.365 219.8 161.249 219.8C161.132 219.8 161.018 219.828 160.914 219.881L156.746 222.314C156.569 222.417 156.584 222.586 156.746 222.696L161.576 225.49C161.685 225.544 161.806 225.571 161.928 225.567C162.05 225.563 162.169 225.529 162.274 225.467H162.267ZM174.484 218.41L178.66 215.999C178.836 215.896 178.829 215.727 178.66 215.617L173.823 212.823C173.72 212.772 173.607 212.745 173.492 212.745C173.377 212.745 173.264 212.772 173.161 212.823L168.934 215.22C168.758 215.323 168.773 215.499 168.934 215.609L173.764 218.396C173.874 218.461 173.998 218.497 174.126 218.499C174.254 218.502 174.38 218.471 174.492 218.41H174.484ZM202.419 166.216C202.523 166.269 202.637 166.297 202.754 166.297C202.87 166.297 202.985 166.269 203.088 166.216L207.264 163.805C207.44 163.702 207.433 163.533 207.264 163.423L205.977 162.688C205.874 162.635 205.759 162.607 205.643 162.607C205.526 162.607 205.412 162.635 205.308 162.688L201.133 165.099C200.956 165.202 200.964 165.371 201.133 165.481L202.419 166.216ZM172.367 185.609C172.47 185.661 172.583 185.688 172.698 185.688C172.813 185.688 172.926 185.661 173.029 185.609L177.212 183.198C177.388 183.095 177.381 182.926 177.212 182.816L172.375 180.022C172.272 179.97 172.159 179.943 172.044 179.943C171.929 179.943 171.816 179.97 171.713 180.022L167.53 182.433C167.354 182.536 167.361 182.713 167.53 182.823L172.367 185.609ZM184.585 178.559C184.688 178.611 184.801 178.638 184.916 178.638C185.031 178.638 185.144 178.611 185.247 178.559L189.43 176.148C189.606 176.045 189.591 175.869 189.43 175.758L184.6 172.972C184.496 172.919 184.382 172.892 184.265 172.892C184.149 172.892 184.034 172.919 183.931 172.972L179.755 175.383C179.579 175.486 179.586 175.655 179.755 175.766L184.585 178.559ZM164.92 189.968C165.024 190.021 165.139 190.049 165.255 190.049C165.371 190.049 165.486 190.021 165.589 189.968L169.765 187.557C169.941 187.454 169.934 187.278 169.765 187.167L164.935 184.381C164.832 184.328 164.717 184.301 164.601 184.301C164.484 184.301 164.37 184.328 164.266 184.381L160.091 186.793C159.907 186.895 159.922 187.072 160.091 187.182L164.92 189.968ZM178.491 182.117C178.593 182.169 178.707 182.196 178.822 182.196C178.937 182.196 179.05 182.169 179.152 182.117L183.335 179.699C183.512 179.596 183.504 179.427 183.335 179.316L178.498 176.523C178.396 176.471 178.282 176.444 178.167 176.444C178.053 176.444 177.939 176.471 177.837 176.523L173.632 178.941C173.455 179.044 173.463 179.213 173.632 179.324L178.491 182.117ZM152.703 197.003C152.806 197.056 152.921 197.084 153.037 197.084C153.153 197.084 153.268 197.056 153.372 197.003L157.555 194.592C157.731 194.489 157.716 194.32 157.555 194.21L152.725 191.416C152.621 191.364 152.507 191.336 152.39 191.336C152.274 191.336 152.159 191.364 152.056 191.416L147.88 193.835C147.704 193.938 147.711 194.107 147.88 194.217L152.703 197.003ZM158.812 193.475C158.915 193.528 159.03 193.555 159.146 193.555C159.262 193.555 159.377 193.528 159.481 193.475L163.656 191.056C163.84 190.961 163.825 190.784 163.656 190.674L158.826 187.888C158.723 187.835 158.608 187.807 158.492 187.807C158.376 187.807 158.261 187.835 158.157 187.888L153.982 190.299C153.798 190.402 153.813 190.571 153.982 190.681L158.812 193.475ZM190.253 173.296C190.356 173.349 190.471 173.376 190.587 173.376C190.704 173.376 190.818 173.349 190.922 173.296L195.097 170.884C195.274 170.782 195.266 170.605 195.097 170.495L193.811 169.76C193.707 169.707 193.593 169.679 193.476 169.679C193.36 169.679 193.245 169.707 193.142 169.76L188.966 172.178C188.79 172.281 188.797 172.45 188.966 172.561L190.253 173.296ZM208.58 162.717C208.683 162.77 208.798 162.798 208.914 162.798C209.03 162.798 209.145 162.77 209.249 162.717L213.424 160.299C213.6 160.196 213.593 160.027 213.424 159.916L212.138 159.181C212.034 159.128 211.919 159.101 211.803 159.101C211.687 159.101 211.572 159.128 211.469 159.181L207.293 161.592C207.109 161.695 207.124 161.872 207.293 161.982L208.58 162.717ZM218.732 168.598C218.834 168.65 218.948 168.677 219.062 168.677C219.177 168.677 219.291 168.65 219.393 168.598L223.576 166.187C223.753 166.084 223.745 165.908 223.576 165.797L218.739 163.011C218.636 162.96 218.523 162.933 218.408 162.933C218.293 162.933 218.18 162.96 218.077 163.011L213.895 165.422C213.718 165.525 213.725 165.702 213.895 165.812L218.732 168.598ZM233.963 184.087L238.139 181.676C238.323 181.573 238.308 181.404 238.139 181.294L233.309 178.5C233.206 178.447 233.091 178.42 232.975 178.42C232.858 178.42 232.744 178.447 232.64 178.5L228.479 180.882C228.296 180.985 228.31 181.161 228.479 181.272L233.309 184.058C233.409 184.113 233.519 184.144 233.633 184.149C233.746 184.155 233.86 184.133 233.963 184.087V184.087ZM196.325 169.782C196.429 169.835 196.543 169.862 196.659 169.862C196.776 169.862 196.89 169.835 196.994 169.782L201.169 167.371C201.346 167.268 201.339 167.091 201.169 166.981L199.883 166.246C199.779 166.193 199.665 166.165 199.549 166.165C199.432 166.165 199.318 166.193 199.214 166.246L195.017 168.65C194.84 168.753 194.847 168.922 195.017 169.032L196.325 169.782ZM146.594 200.539C146.697 200.592 146.812 200.62 146.928 200.62C147.045 200.62 147.159 200.592 147.263 200.539L151.446 198.128C151.622 198.025 151.607 197.856 151.446 197.746L146.616 194.952C146.512 194.9 146.398 194.872 146.281 194.872C146.165 194.872 146.05 194.9 145.947 194.952L141.735 197.32C141.558 197.422 141.566 197.599 141.735 197.709L146.594 200.539Z" fill="#455A64"/>
<path d="M173.683 237.193L214.924 213.382C215.622 213.027 216.394 212.842 217.177 212.842C217.96 212.842 218.732 213.027 219.43 213.382L243.079 227.033C244.321 227.768 244.321 228.915 243.079 229.628L201.831 253.446C201.133 253.798 200.363 253.981 199.582 253.981C198.8 253.981 198.03 253.798 197.332 253.446L173.683 239.788C172.441 239.075 172.441 237.906 173.683 237.193Z" fill="#263238"/>
<path d="M150.703 110.714L157.172 99.4523L132.994 85.4114C128.944 83.0958 123.357 83.4413 117.189 87.0066C104.736 94.1227 94.6868 111.501 94.6868 125.799C94.6868 132.959 97.2009 137.988 101.303 140.318L125.68 154.469L132.296 142.898C141.772 135.569 149.24 122.565 150.703 110.714Z" fill="#455A64"/>
<path d="M141.448 101.106C129.068 108.252 119.034 125.63 119.034 139.928C119.034 154.226 129.068 160.012 141.448 152.866C153.827 145.721 163.862 128.335 163.862 114.044C163.862 99.7536 153.827 93.9535 141.448 101.106Z" fill="#263238"/>
<path d="M164.222 117.926L170.324 107.252L158.253 100.283C154.415 98.0776 149.115 98.4084 143.271 101.79C131.509 108.56 122.033 125.027 122.033 138.546C122.033 145.331 124.422 150.095 128.274 152.308L140.536 159.387L146.807 148.419C155.753 141.523 162.833 129.173 164.222 117.926Z" fill="#F5F5F5"/>
<path d="M122.666 132.018C122.227 134.177 122.001 136.373 121.989 138.576C121.989 145.361 124.378 150.124 128.23 152.337L140.492 159.416L146.763 148.448C147.373 147.985 147.969 147.485 148.564 146.978L122.666 132.018Z" fill="#EBEBEB"/>
<path d="M155.445 108.84C143.683 115.618 134.207 132.084 134.207 145.633C134.207 159.181 143.72 164.665 155.445 157.895C167.17 151.124 176.69 134.65 176.69 121.138C176.69 107.627 167.177 102.069 155.445 108.84Z" fill="#E0E0E0"/>
<path d="M259.796 193.342C257.216 195.246 251.474 193.732 251.114 193.644C251.393 193.761 255.863 195.849 256.995 200.319C257.407 202.002 256.091 203.994 254.893 204.81C250.93 207.523 245.079 204.722 241.91 203.002C243.184 204.241 244.166 205.747 244.785 207.413C245.358 209.309 245.02 211.397 243.52 212.375C240.293 214.477 235.86 214.646 221.503 206.038C222.049 206.802 222.39 207.693 222.496 208.626C222.503 208.702 222.503 208.778 222.496 208.854C222.499 209.305 222.396 209.751 222.194 210.155C222.079 210.382 221.933 210.592 221.76 210.78C221.211 211.348 220.529 211.77 219.776 212.007C214.909 213.779 201.89 205.391 193.061 199.87C184.232 194.35 171.742 185.433 165.575 179.721C156.533 171.362 157.929 167.407 149.196 160.446C146.575 158.391 143.816 156.517 140.941 154.837C140.683 154.719 137.508 152.749 134.817 151.058C134.407 149.284 134.207 147.468 134.222 145.648C134.219 144.606 134.278 143.565 134.398 142.531C135.677 129.673 144.616 115.118 155.459 108.862C157.24 107.811 159.154 107.005 161.149 106.465C163.994 108.266 167.971 110.781 168.236 110.957C170.669 112.675 173.276 114.134 176.014 115.309C177.337 115.86 178.623 116.316 179.954 116.735C183.901 117.985 196.987 121.006 204.441 123.763C211.895 126.52 218.761 129.644 221.628 131.474C224.495 133.305 232.287 142.92 237.595 146.934C242.903 150.948 243.476 154.138 238.874 155.02C234.272 155.903 227.583 155.675 221.966 151.492C216.35 147.309 214.564 145.853 212.638 145.986C210.711 146.118 214.946 149.83 217.489 152.197C219.16 153.849 220.708 155.621 222.121 157.498C223.386 159.115 224.774 160.631 226.274 162.033C229.259 164.82 234.309 169.274 239.073 172.208C246.468 176.765 255.047 181.544 258.186 184.455C261.325 187.366 262.464 191.38 259.796 193.342Z" fill="#FFA8A7"/>
<path d="M258.892 191.086C257.098 192.122 254.621 191.74 250.563 190.292C246.505 188.843 236.713 183.749 233.14 181.683C231.104 180.515 223.179 175.883 216.732 172.127C216.646 172.072 216.543 172.054 216.443 172.076C216.344 172.098 216.258 172.159 216.203 172.244C216.148 172.33 216.13 172.434 216.152 172.533C216.174 172.633 216.235 172.719 216.321 172.774C221.974 176.648 228.906 181.353 231.986 183.249C238.882 187.498 244.594 190.306 251.099 193.651C251.099 193.651 257.127 195.32 259.796 193.357C261.516 192.085 261.634 189.961 260.663 187.829C260.653 188.475 260.487 189.108 260.179 189.675C259.87 190.243 259.428 190.727 258.892 191.086V191.086Z" fill="#F28F8F"/>
<path d="M254.018 203.296C250.724 204.237 245.196 201.399 242.991 200.267C240.786 199.135 225.488 190.924 222.929 189.387L208.227 180.566C208.142 180.511 208.047 180.474 207.948 180.456C207.848 180.438 207.746 180.44 207.648 180.462C207.549 180.483 207.456 180.524 207.373 180.582C207.29 180.639 207.219 180.713 207.165 180.798C207.11 180.882 207.073 180.977 207.055 181.077C207.037 181.176 207.039 181.278 207.06 181.377C207.082 181.475 207.123 181.569 207.18 181.652C207.238 181.734 207.311 181.805 207.396 181.86C214.946 187.006 224.047 192.056 228.435 194.489C233.103 197.013 237.588 199.86 241.859 203.009C245.027 204.73 250.879 207.538 254.841 204.818C256.047 204.002 257.355 202.01 256.944 200.326C256.966 200.319 256.907 202.465 254.018 203.296Z" fill="#F28F8F"/>
<path d="M243.491 212.36C244.843 211.478 245.248 209.684 244.887 207.949C244.865 208.656 244.589 209.331 244.11 209.851C243.631 210.371 242.98 210.7 242.278 210.78C239.683 211.191 237.338 210.588 234.191 209.478C231.045 208.368 221.283 202.208 218.151 200.488C216.196 199.415 204.816 192.284 196.531 187.072C196.024 186.748 195.928 187.454 196.428 187.807C202.574 191.872 205.926 194.32 208.712 196.276C213.902 199.914 218.915 203.112 221.452 206.038C235.831 214.632 240.241 214.463 243.491 212.36Z" fill="#F28F8F"/>
<path d="M222.481 208.839C222.485 209.29 222.381 209.736 222.179 210.14C222.064 210.367 221.918 210.577 221.746 210.765C221.197 211.333 220.515 211.755 219.761 211.993C214.894 213.764 201.875 205.376 193.046 199.856C184.218 194.335 171.728 185.418 165.56 179.706C156.518 171.348 157.915 167.393 149.182 160.431C146.56 158.376 143.802 156.502 140.926 154.822C140.669 154.704 137.493 152.734 134.803 151.043C134.392 149.269 134.192 147.453 134.207 145.633C134.204 144.591 134.263 143.55 134.383 142.516C142.808 147.735 153.07 153.543 156.386 156.777C156.503 156.895 156.614 156.998 156.717 157.108C161.002 161.379 162.598 165.768 165.538 172.649C168.596 179.706 180.814 187.189 193.032 195.798C205.25 204.406 213.549 209.243 217.475 210.375C218.085 210.564 218.718 210.663 219.357 210.669C220.031 210.735 220.707 210.566 221.271 210.191C221.834 209.816 222.252 209.258 222.451 208.611C222.481 208.67 222.481 208.758 222.481 208.839Z" fill="#F28F8F"/>
<path d="M162.95 107.634L161.135 106.487C159.139 107.027 157.225 107.833 155.445 108.884C144.602 115.103 135.663 129.688 134.383 142.516C134.263 143.55 134.204 144.591 134.207 145.633C134.192 147.453 134.392 149.269 134.803 151.043C137.493 152.734 140.684 154.719 140.926 154.822C141.963 155.447 142.918 156.042 143.815 156.616C143.977 154.05 144.117 151.352 144.212 148.529C145.293 116.706 162.95 107.634 162.95 107.634Z" fill="#F28F8F"/>
<path opacity="0.5" d="M217.489 152.19C214.938 149.816 210.719 146.118 212.645 145.978C208.33 146.192 203.544 151.352 191.613 152.315C179.682 153.278 168.611 147.956 168.611 147.956C168.611 147.956 179.307 154.131 180.829 163.835C181.74 169.605 179.976 175.391 185.93 175.597C192.098 175.81 197.759 172.73 204.911 162.276C210.711 153.8 218.46 153.734 222.988 158.564C222.768 158.262 222.429 157.887 222.121 157.49C220.708 155.613 219.16 153.842 217.489 152.19Z" fill="#F28F8F"/>
<path d="M220.548 165.599C217.453 171.392 203.809 185.918 190.363 188.741C197.366 188.71 204.134 186.211 209.477 181.683C218.666 174.045 220.548 165.599 220.548 165.599Z" fill="#F28F8F"/>
<path d="M235.588 69.0328L238.198 63.5782L225.767 56.4034C224.417 55.6137 222.968 55.0056 221.459 54.595C220.937 54.4553 220.401 54.3377 219.864 54.2421C217.193 53.8045 214.464 53.8794 211.822 54.4626C210.84 54.6666 209.87 54.9268 208.918 55.2419C207.899 55.5736 206.897 55.9589 205.919 56.396C204.599 56.9752 203.315 57.6331 202.074 58.3662C200.691 59.1736 199.352 60.052 198.06 60.9979C197.08 61.7281 196.1 62.5 195.12 63.3136C180.932 75.2887 169.772 96.6515 166.942 117.191C166.746 118.588 166.592 119.979 166.479 121.366C166.31 123.351 166.229 125.321 166.237 127.247C166.237 128.843 166.303 130.386 166.428 131.871C166.531 133.158 166.678 134.408 166.861 135.613C167.045 136.819 167.273 137.966 167.53 139.083C168.22 142.164 169.338 145.134 170.853 147.904C171.155 148.456 171.478 148.985 171.809 149.492C173.161 151.598 174.873 153.449 176.866 154.962C177.464 155.402 178.088 155.807 178.734 156.175V156.175L190.54 162.982L192.929 157.99C193.569 157.851 194.208 157.689 194.855 157.49C197.484 156.679 200.008 155.561 202.375 154.16C203.899 153.263 205.371 152.281 206.786 151.22C208.689 149.793 210.501 148.248 212.211 146.596C224.054 135.201 233.376 117.375 236.787 99.6287C237.296 97.0253 237.671 94.3975 237.911 91.7555C238.102 89.5502 238.205 87.4183 238.198 85.2865C238.206 82.2133 237.96 79.1447 237.463 76.1121C237.055 73.7002 236.427 71.3306 235.588 69.0328Z" fill="#D3D3D3"/>
<path opacity="0.25" d="M169.544 105.039L193.73 119.007L196.788 110.185L172.573 96.2178C171.426 99.0995 170.405 102.055 169.544 105.039Z" fill="white"/>
<path opacity="0.25" d="M225.767 56.4034C224.417 55.6137 222.968 55.0056 221.459 54.595C220.937 54.4553 220.4 54.3377 219.864 54.2421C217.193 53.8045 214.464 53.8794 211.822 54.4626C211.469 54.5362 211.086 54.6244 210.756 54.7199L235.61 69.0696C235.608 69.0501 235.608 69.0303 235.61 69.0108L238.22 63.5561L225.767 56.4034Z" fill="white"/>
<path opacity="0.25" d="M224.282 90.844L227.34 87.1684L191.569 66.5849C190.466 67.6827 189.385 68.8319 188.327 70.0326L224.282 90.844Z" fill="white"/>
<path opacity="0.25" d="M180.946 79.8686L212.064 97.835L215.38 89.1679L186.335 72.3924C184.404 74.7848 182.605 77.2805 180.946 79.8686V79.8686Z" fill="white"/>
<path opacity="0.4" d="M225.767 56.4034C224.417 55.6137 222.968 55.0056 221.459 54.595C220.937 54.4553 220.401 54.3377 219.864 54.2421C217.193 53.8045 214.464 53.8794 211.822 54.4626C210.84 54.6666 209.87 54.9268 208.918 55.2419C207.899 55.5736 206.897 55.9589 205.919 56.396C204.599 56.9752 203.315 57.6331 202.074 58.3662C200.691 59.1736 199.352 60.052 198.06 60.9979C197.08 61.7281 196.1 62.5 195.12 63.3136C181.887 74.4654 171.324 93.7477 167.641 112.92L217.012 141.45C226.568 130.21 233.853 114.897 236.786 99.6361C237.296 97.0327 237.671 94.4048 237.911 91.7629C238.102 89.5575 238.205 87.4257 238.198 85.2938C238.206 82.2206 237.96 79.1521 237.463 76.1194C237.062 73.7058 236.442 71.3337 235.61 69.0328L238.22 63.5782L225.767 56.4034Z" fill="white"/>
<path opacity="0.1" d="M190.54 162.982L192.929 157.99C193.568 157.851 194.208 157.689 194.855 157.49C197.483 156.679 200.008 155.561 202.375 154.16C203.899 153.263 205.371 152.281 206.786 151.22C208.689 149.793 210.501 148.248 212.211 146.596C213.898 144.964 215.5 143.246 217.012 141.45L167.641 112.942C167.366 114.353 167.121 115.765 166.905 117.176C166.69 118.588 166.535 119.979 166.442 121.352C166.273 123.337 166.192 125.307 166.2 127.233C166.2 128.828 166.266 130.372 166.391 131.857C166.494 133.143 166.641 134.393 166.825 135.598C167.008 136.804 167.236 137.951 167.493 139.068C168.183 142.15 169.301 145.119 170.816 147.89C171.118 148.441 171.441 148.97 171.772 149.478C173.124 151.583 174.836 153.435 176.83 154.947C177.428 155.388 178.051 155.793 178.697 156.16V156.16L190.54 162.982Z" fill="black"/>
<path opacity="0.1" d="M170.853 147.89C171.154 148.441 171.478 148.97 171.809 149.478C173.161 151.583 174.873 153.435 176.866 154.947C177.464 155.388 178.088 155.793 178.734 156.16V156.16L190.54 162.967L192.929 157.976H193.024L193.201 155.932L168.199 141.45C168.847 143.687 169.737 145.846 170.853 147.89V147.89Z" fill="black"/>
<path d="M249.658 83.1693C249.153 80.0327 248.254 76.9725 246.982 74.0611C245.464 70.4273 243.051 67.2361 239.969 64.7838C238.095 63.3395 235.954 62.2802 233.669 61.6669C233.147 61.5272 232.611 61.4169 232.074 61.3214C229.404 60.8776 226.674 60.9499 224.032 61.5346C223.05 61.742 222.081 62.0046 221.128 62.3211C220.111 62.6491 219.112 63.0319 218.136 63.4679C216.817 64.0529 215.531 64.7106 214.284 65.4381C212.901 66.2471 211.561 67.128 210.27 68.0772C209.285 68.8123 208.3 69.5474 207.33 70.3855C193.142 82.3607 181.983 103.701 179.152 124.226C178.952 125.633 178.797 127.024 178.689 128.402C178.523 130.362 178.442 132.322 178.447 134.283C178.447 135.87 178.52 137.414 178.638 138.899C178.741 140.193 178.888 141.435 179.072 142.641C179.255 143.847 179.483 145.001 179.748 146.118C180.437 149.199 181.553 152.168 183.063 154.94C183.372 155.484 183.688 156.013 184.019 156.52C185.369 158.629 187.084 160.481 189.084 161.989C191.976 164.166 195.458 165.419 199.074 165.584C201.779 165.706 204.483 165.353 207.065 164.54C209.695 163.732 212.219 162.614 214.586 161.21C216.11 160.314 217.583 159.332 218.996 158.27C220.9 156.844 222.712 155.3 224.421 153.646C236.264 142.251 245.586 124.425 249.004 106.686C249.494 104.044 249.867 101.418 250.121 98.8054C250.32 96.6 250.416 94.4682 250.408 92.3363C250.415 89.2651 250.164 86.1986 249.658 83.1693V83.1693Z" fill="#D3D3D3"/>
<path opacity="0.05" d="M179.866 119.97C179.594 121.388 179.351 122.807 179.13 124.226C178.91 125.645 178.778 127.02 178.667 128.402C178.501 130.362 178.42 132.322 178.425 134.283C178.425 135.87 178.498 137.414 178.616 138.899C178.719 140.193 178.866 141.435 179.05 142.641C179.233 143.847 179.461 145.001 179.726 146.118C180.415 149.199 181.531 152.168 183.041 154.94C183.35 155.484 183.666 156.013 183.997 156.52C185.347 158.629 187.062 160.482 189.062 161.989C191.96 164.171 195.451 165.424 199.074 165.584C201.779 165.706 204.483 165.353 207.065 164.54C209.695 163.732 212.219 162.614 214.586 161.21C215.916 160.431 217.217 159.564 218.511 158.623L179.866 119.97Z" fill="black"/>
<path opacity="0.05" d="M180.424 148.625C181.077 150.821 181.964 152.941 183.071 154.947C183.38 155.491 183.696 156.02 184.026 156.527C185.377 158.637 187.092 160.489 189.091 161.997C191.464 163.779 194.243 164.941 197.178 165.378L180.424 148.625Z" fill="black"/>
<path opacity="0.25" d="M184.784 103.268C183.629 106.164 182.622 109.149 181.762 112.089L223.855 154.182L224.429 153.646C226.244 151.881 227.962 150.018 229.575 148.066L184.784 103.268Z" fill="white"/>
<path opacity="0.25" d="M198.545 79.4496C196.627 81.8402 194.84 84.3336 193.193 86.9184L239.506 133.231C240.977 130.423 242.381 127.483 243.616 124.542L198.545 79.4496Z" fill="white"/>
<path opacity="0.25" d="M203.801 73.6274C202.691 74.7301 201.596 75.8916 200.537 77.0972L244.836 121.396C245.454 119.742 246.034 118.073 246.564 116.382L203.801 73.6274Z" fill="white"/>
<path opacity="0.25" d="M250.313 89.1459C250.269 88.2858 250.195 87.4477 250.114 86.6244C250.114 86.3524 250.063 86.073 250.033 85.8084C250.004 85.5437 249.967 85.2497 249.93 84.9704C249.85 84.3602 249.761 83.7574 249.658 83.1693C249.153 80.0327 248.254 76.9725 246.983 74.0611C245.464 70.4273 243.051 67.2361 239.97 64.7838C238.096 63.3395 235.955 62.2802 233.67 61.6669C233.148 61.5272 232.618 61.4169 232.074 61.3214C229.405 60.8776 226.675 60.9499 224.032 61.5346C223.679 61.6081 223.297 61.7036 222.959 61.7919L250.313 89.1459Z" fill="white"/>
<path d="M241.249 97.8497C241.249 116.787 230.222 138.657 216.254 147.956C215.666 148.345 215.063 148.728 214.453 149.073C199.648 157.623 187.651 148.551 187.651 128.806C187.651 109.06 199.648 86.1245 214.453 77.575C215.063 77.2295 215.666 76.9134 216.254 76.6193C230.207 69.79 241.249 78.9129 241.249 97.8497Z" fill="#D3D3D3"/>
<path opacity="0.4" d="M241.249 97.8497C241.249 116.787 230.222 138.657 216.254 147.956C215.666 148.345 215.063 148.728 214.453 149.073C199.648 157.623 187.651 148.551 187.651 128.806C187.651 109.06 199.648 86.1245 214.453 77.575C215.063 77.2295 215.666 76.9134 216.254 76.6193C230.207 69.79 241.249 78.9129 241.249 97.8497Z" fill="black"/>
<path d="M240.058 98.5408C240.058 99.1436 240.058 99.7611 240.013 100.379C239.337 118.022 229.053 137.826 216.151 146.412L215.806 146.64C215.35 146.934 214.894 147.221 214.431 147.485C211.967 148.979 209.235 149.977 206.389 150.426C200.376 151.249 195.362 148.61 192.23 143.222C190.407 140.053 189.238 135.937 188.915 131.004C188.849 130.078 188.819 129.122 188.819 128.137C188.819 127.152 188.819 126.321 188.9 125.402C189.008 123.451 189.224 121.507 189.547 119.58C191.811 105.943 199.104 92.0275 208.337 83.6765C209.625 82.5094 210.99 81.4312 212.424 80.4493C213.086 80.0009 213.755 79.5745 214.431 79.1849C215.107 78.7953 215.593 78.5454 216.151 78.266L216.636 78.0455C220.474 76.2591 224.061 75.7445 227.23 76.3547C232.618 77.3912 236.786 81.6917 238.764 88.5578C239.659 91.8086 240.095 95.169 240.058 98.5408V98.5408Z" fill="#D3D3D3"/>
<path opacity="0.7" d="M240.058 98.5408C240.058 99.1436 240.058 99.7611 240.013 100.379C239.337 118.022 229.053 137.826 216.151 146.412L215.806 146.64C215.35 146.934 214.894 147.221 214.431 147.485C211.967 148.979 209.235 149.977 206.389 150.426C200.376 151.249 195.362 148.61 192.23 143.222C190.407 140.053 189.238 135.937 188.915 131.004C188.849 130.078 188.819 129.122 188.819 128.137C188.819 127.152 188.819 126.321 188.9 125.402C189.008 123.451 189.224 121.507 189.547 119.58C191.811 105.943 199.104 92.0275 208.337 83.6765C209.625 82.5094 210.99 81.4312 212.424 80.4493C213.086 80.0009 213.755 79.5745 214.431 79.1849C215.107 78.7953 215.593 78.5454 216.151 78.266L216.636 78.0455C220.474 76.2591 224.061 75.7445 227.23 76.3547C232.618 77.3912 236.786 81.6917 238.764 88.5578C239.659 91.8086 240.095 95.169 240.058 98.5408V98.5408Z" fill="black"/>
<path d="M235.765 97.9086C235.765 97.2911 235.765 96.6736 235.765 96.0634C235.806 92.6895 235.373 89.3265 234.478 86.0731C233.317 82.0666 231.413 78.9423 228.965 76.8178C228.386 76.6174 227.794 76.4577 227.193 76.34C224.025 75.7298 220.437 76.2444 216.6 78.0308L216.115 78.2513C215.556 78.5307 214.975 78.8394 214.394 79.1702C213.814 79.501 213.049 79.9862 212.388 80.4346C210.954 81.4165 209.588 82.4947 208.3 83.6618C199.074 92.0129 191.811 105.929 189.518 119.565C189.195 121.493 188.979 123.436 188.871 125.388C188.812 126.306 188.79 127.211 188.79 128.122C188.79 129.034 188.79 130.063 188.886 130.989C189.209 135.922 190.356 140.039 192.201 143.207C193.087 144.767 194.227 146.169 195.575 147.353C197.674 148.062 199.911 148.264 202.103 147.941C204.951 147.489 207.684 146.491 210.153 145.001C210.616 144.736 211.072 144.449 211.52 144.155L211.873 143.927C224.804 135.349 235.096 115.559 235.765 97.9086Z" fill="#D3D3D3"/>
<path opacity="0.6" d="M235.765 97.9086C235.765 97.2911 235.765 96.6736 235.765 96.0634C235.806 92.6895 235.373 89.3265 234.478 86.0731C233.317 82.0666 231.413 78.9423 228.965 76.8178C228.386 76.6174 227.794 76.4577 227.193 76.34C224.025 75.7298 220.437 76.2444 216.6 78.0308L216.115 78.2513C215.556 78.5307 214.975 78.8394 214.394 79.1702C213.814 79.501 213.049 79.9862 212.388 80.4346C210.954 81.4165 209.588 82.4947 208.3 83.6618C199.074 92.0129 191.811 105.929 189.518 119.565C189.195 121.493 188.979 123.436 188.871 125.388C188.812 126.306 188.79 127.211 188.79 128.122C188.79 129.034 188.79 130.063 188.886 130.989C189.209 135.922 190.356 140.039 192.201 143.207C193.087 144.767 194.227 146.169 195.575 147.353C197.674 148.062 199.911 148.264 202.103 147.941C204.951 147.489 207.684 146.491 210.153 145.001C210.616 144.736 211.072 144.449 211.52 144.155L211.873 143.927C224.804 135.349 235.096 115.559 235.765 97.9086Z" fill="black"/>
<path d="M232.074 61.3214C229.782 60.9646 227.446 60.9944 225.164 61.4096C224.033 61.6333 222.914 61.9155 221.812 62.255C221.533 62.3265 221.258 62.4123 220.989 62.5123L220.187 62.8284L218.57 63.4679C216.457 64.3921 214.43 65.5015 212.513 66.7833C211.55 67.4376 210.609 68.0698 209.719 68.8123C208.83 69.5548 207.867 70.2384 207.043 71.0177C206.22 71.7969 205.301 72.5541 204.492 73.3701C203.684 74.1861 202.86 74.9947 202.089 75.8548L199.81 78.4351L197.604 81.1698L195.561 83.9632C194.892 84.9042 194.274 85.8819 193.627 86.8376C192.392 88.7857 191.187 90.7558 190.106 92.7921L189.275 94.3138L188.54 95.8649C188.026 96.9014 187.496 97.9233 187.07 98.9892C186.107 101.084 185.247 103.231 184.402 105.377L183.247 108.641C182.88 109.737 182.564 110.847 182.218 111.949C181.873 113.052 181.615 114.155 181.307 115.287C180.998 116.419 180.763 117.492 180.52 118.654L180.16 120.352L179.873 122.057C179.689 123.204 179.476 124.314 179.373 125.476C179.27 126.637 179.101 127.784 178.998 128.923C178.895 130.063 178.829 131.224 178.792 132.371C178.792 132.952 178.792 133.525 178.756 134.106C178.719 134.687 178.792 135.253 178.807 135.826C178.859 136.98 178.866 138.164 178.954 139.281L179.336 142.722L179.976 146.133V146.177V146.133C180.644 149.182 181.72 152.127 183.174 154.888C183.563 155.55 183.946 156.248 184.372 156.895C184.798 157.542 185.269 158.174 185.761 158.777C186.751 159.989 187.878 161.082 189.121 162.034C187.854 161.107 186.7 160.037 185.681 158.843C185.173 158.248 184.688 157.63 184.21 156.983C183.733 156.336 183.38 155.66 182.953 154.991C181.419 152.242 180.276 149.293 179.557 146.228V146.177V146.214L178.873 142.803L178.44 139.34C178.329 138.149 178.315 137.017 178.249 135.856C178.249 135.268 178.19 134.709 178.175 134.106C178.16 133.503 178.175 132.937 178.175 132.357C178.175 131.195 178.256 130.034 178.337 128.872C178.418 127.711 178.579 126.564 178.697 125.402C178.815 124.241 179.006 123.087 179.189 121.947L179.469 120.227L179.822 118.521C180.057 117.382 180.292 116.243 180.601 115.118C180.91 113.993 181.145 112.854 181.505 111.751C181.865 110.648 182.159 109.546 182.527 108.413L183.681 105.12L184.96 101.878C185.372 100.79 185.894 99.7464 186.357 98.6804C186.82 97.6145 187.357 96.578 187.871 95.5415L188.651 93.9756L189.518 92.4172C190.621 90.3662 191.841 88.3813 193.098 86.4259C193.745 85.4629 194.377 84.4852 195.053 83.5369L197.127 80.7287L199.332 78.0234C200.067 77.1413 200.883 76.2885 201.662 75.4284C202.441 74.5683 203.309 73.7744 204.125 72.9437C204.941 72.113 205.852 71.3926 206.713 70.6134C207.573 69.8341 208.528 69.1431 209.44 68.4447C210.355 67.7215 211.307 67.0467 212.292 66.4231C214.243 65.1441 216.313 64.0583 218.475 63.1812L220.099 62.5711L220.915 62.2697C221.193 62.1762 221.475 62.0976 221.761 62.0344C222.877 61.7123 224.011 61.4522 225.157 61.2552C227.45 60.8891 229.789 60.9115 232.074 61.3214V61.3214Z" fill="#F5F5F5"/>
<path d="M208.484 85.8966L212.91 88.4622L219.268 84.7866L214.843 82.2284L208.484 85.8966Z" fill="#D3D3D3"/>
<path opacity="0.2" d="M208.484 85.8966L212.91 88.4622L219.268 84.7866L214.843 82.2284L208.484 85.8966Z" fill="black"/>
<path d="M210.697 89.734L206.271 87.1758L199.905 90.844L204.338 93.4096L210.697 89.734Z" fill="#D3D3D3"/>
<path opacity="0.2" d="M210.697 89.734L206.271 87.1758L199.905 90.844L204.338 93.4096L210.697 89.734Z" fill="black"/>
<path d="M199.905 95.4091L204.338 97.9674L199.905 100.533L195.472 97.9674L199.905 95.4091Z" fill="#D3D3D3"/>
<path opacity="0.2" d="M199.905 95.4091L204.338 97.9674L199.905 100.533L195.472 97.9674L199.905 95.4091Z" fill="black"/>
<path d="M195.472 106.443L199.905 109.009V100.533L195.472 97.9674V106.443Z" fill="#D3D3D3"/>
<path opacity="0.35" d="M195.472 106.443L199.905 109.009V100.533L195.472 97.9674V106.443Z" fill="black"/>
<path d="M199.905 90.844V95.4091L204.338 97.9674V93.4096L199.905 90.844Z" fill="#D3D3D3"/>
<path opacity="0.35" d="M199.905 90.844V95.4091L204.338 97.9674V93.4096L199.905 90.844Z" fill="black"/>
<path d="M208.484 85.8966V88.4549L210.697 89.734V94.2991L212.91 93.02V88.4622L208.484 85.8966Z" fill="#D3D3D3"/>
<path opacity="0.35" d="M208.484 85.8966V88.4549L210.697 89.734V94.2991L212.91 93.02V88.4622L208.484 85.8966Z" fill="black"/>
<path d="M195.472 132.695L199.905 135.26L202.919 133.518L198.494 130.96L195.472 132.695Z" fill="#D3D3D3"/>
<path opacity="0.2" d="M195.472 132.695L199.905 135.26L202.919 133.518L198.494 130.96L195.472 132.695Z" fill="black"/>
<path d="M198.494 130.96L202.919 133.518V107.267L199.905 109.009L198.494 108.193V130.96Z" fill="#D3D3D3"/>
<path opacity="0.45" d="M198.494 130.96L202.919 133.518V107.267L199.905 109.009L198.494 108.193V130.96Z" fill="black"/>
<path d="M195.472 132.695L199.905 135.26V143.744L195.472 141.178V132.695Z" fill="#D3D3D3"/>
<path opacity="0.35" d="M195.472 132.695L199.905 135.26V143.744L195.472 141.178V132.695Z" fill="black"/>
<path d="M204.338 141.178V144.905L201.111 143.045L204.338 141.178Z" fill="#D3D3D3"/>
<path opacity="0.45" d="M204.338 141.178V144.905L201.111 143.045L204.338 141.178Z" fill="black"/>
<path d="M212.91 136.231V139.958L210.697 138.679V137.51L212.91 136.231Z" fill="#D3D3D3"/>
<path opacity="0.45" d="M212.91 136.231V139.958L210.697 138.679V137.51L212.91 136.231Z" fill="black"/>
<path d="M221.327 88.7342C221.589 88.6885 221.854 88.664 222.121 88.6607C222.954 88.6316 223.78 88.8217 224.517 89.212L220.217 86.72C219.916 86.5476 219.598 86.4071 219.268 86.3009V89.3958C219.659 89.2088 220.065 89.0539 220.481 88.9327C220.682 88.8733 220.886 88.8242 221.091 88.7857L221.327 88.7342Z" fill="#D3D3D3"/>
<path opacity="0.2" d="M221.327 88.7342C221.589 88.6885 221.854 88.664 222.121 88.6607C222.954 88.6316 223.78 88.8217 224.517 89.212L220.217 86.72C219.916 86.5476 219.598 86.4071 219.268 86.3009V89.3958C219.659 89.2088 220.065 89.0539 220.481 88.9327C220.682 88.8733 220.886 88.8242 221.091 88.7857L221.327 88.7342Z" fill="black"/>
<path d="M222.599 117.11V117.845C222.599 120.234 221.128 122.991 219.349 124.05L210.425 129.196L209.271 129.857V124.711L214.931 121.447C216.696 120.418 218.151 117.683 218.18 115.316L218.57 115.088L219.349 114.633C221.128 113.618 222.599 114.728 222.599 117.11Z" fill="#D3D3D3"/>
<path opacity="0.45" d="M222.599 117.11V117.845C222.599 120.234 221.128 122.991 219.349 124.05L210.425 129.196L209.271 129.857V124.711L214.931 121.447C216.696 120.418 218.151 117.683 218.18 115.316L218.57 115.088L219.349 114.633C221.128 113.618 222.599 114.728 222.599 117.11Z" fill="black"/>
<path d="M221.481 100.423V101.084C221.481 103.216 220.18 105.701 218.541 106.627L209.241 111.994V106.848L214.108 104.039C214.912 103.47 215.585 102.734 216.079 101.882C216.574 101.029 216.879 100.08 216.975 99.0995L218.541 98.1953C220.18 97.3425 221.481 98.2835 221.481 100.423Z" fill="#D3D3D3"/>
<path opacity="0.45" d="M221.481 100.423V101.084C221.481 103.216 220.18 105.701 218.541 106.627L209.241 111.994V106.848L214.108 104.039C214.912 103.47 215.585 102.734 216.079 101.882C216.574 101.029 216.879 100.08 216.975 99.0995L218.541 98.1953C220.18 97.3425 221.481 98.2835 221.481 100.423Z" fill="black"/>
<path d="M225.973 105.899C227.153 103.224 227.788 100.34 227.84 97.416V96.7471C227.84 90.3 224.083 87.0949 219.268 89.3958V84.7866L212.91 88.4622V93.02L210.704 94.2991V89.734L204.345 93.4096V97.9674L199.935 100.533V109.009L202.949 107.267V133.518L199.935 135.26V143.736L204.345 141.178V144.905L210.704 141.23V137.502L212.91 136.223V139.98L219.268 136.304V132.555L219.364 132.504C224.657 129.445 228.972 121.212 228.972 114.125V113.39C228.972 109.957 227.877 107.215 225.973 105.899ZM221.481 100.423V101.084C221.481 103.216 220.18 105.708 218.541 106.627L209.241 112.001V103.598L210.395 102.929L218.541 98.2247C220.18 97.3425 221.481 98.2908 221.481 100.423V100.423ZM209.278 120.477L218.577 115.111L219.364 114.655C221.15 113.618 222.613 114.721 222.613 117.11V117.845C222.613 120.234 221.143 122.991 219.364 124.057L210.432 129.203L209.278 129.872V120.477Z" fill="#D3D3D3"/>
<path opacity="0.3" d="M219.268 89.3958V86.9919L217.872 85.5952L213.601 88.0652L227.318 101.753C227.653 100.322 227.828 98.857 227.84 97.3866V96.7177C227.84 96.2913 227.84 95.8796 227.788 95.4826L221.062 88.7563C220.44 88.8947 219.838 89.1095 219.268 89.3958V89.3958Z" fill="white"/>
<path opacity="0.3" d="M221.474 100.283C221.474 100.327 221.474 100.379 221.474 100.43V101.092C221.474 103.224 220.173 105.716 218.533 106.635L216.247 107.958L228.097 119.808C228.628 117.97 228.908 116.068 228.928 114.155V113.42C228.928 109.935 227.833 107.193 225.929 105.877C226.039 105.613 226.142 105.341 226.252 105.069L221.474 100.283Z" fill="white"/>
<path opacity="0.3" d="M211.932 128.321L210.432 129.181L209.278 129.85V125.667L202.919 119.308V131.151L210.697 138.929V137.51L212.91 136.231V139.958L219.268 136.282V135.657L211.932 128.321Z" fill="white"/>
<path opacity="0.25" d="M210.961 102.621L218.577 98.21C218.765 98.1055 218.961 98.0193 219.165 97.9527L212.909 91.6968V93.0053L210.704 94.2844V89.7193L204.345 93.3949V95.9825L210.961 102.621Z" fill="white"/>
<path d="M202.919 107.267V133.518C202.993 132.423 203.029 131.313 203.081 130.239C203.132 129.166 203.147 128.034 203.184 126.953C203.25 124.748 203.279 122.579 203.287 120.396C203.294 118.213 203.287 115.985 203.287 113.831C203.287 112.736 203.25 111.626 203.221 110.553L203.125 107.267V106.958L202.875 107.12C201.897 107.752 200.912 108.362 199.935 109.009L202.919 107.267Z" fill="#F5F5F5"/>
<path d="M206.036 92.6745C206.587 92.4172 207.139 92.1378 207.683 91.8585C208.227 91.5791 208.763 91.2777 209.293 90.9763C209.653 90.7779 210.028 90.5647 210.366 90.3515C210.366 90.9102 210.41 91.4615 210.447 92.0202C210.447 92.3951 210.506 92.7553 210.55 93.1597C210.594 93.564 210.631 93.8948 210.697 94.2991V89.734L204.338 93.4096C204.625 93.2993 204.911 93.1744 205.191 93.0494C205.47 92.9244 205.757 92.8068 206.036 92.6745Z" fill="#F5F5F5"/>
<path d="M214.608 87.7271C215.159 87.4624 215.71 87.1905 216.254 86.9038C217.166 86.4333 218.055 85.9187 218.937 85.3967C218.937 85.9628 218.974 86.5288 219.018 87.0949C219.018 87.4771 219.077 87.83 219.121 88.2417C219.165 88.6533 219.202 88.9768 219.268 89.3958V84.7866L212.909 88.4622C213.196 88.3519 213.483 88.227 213.762 88.102C214.042 87.977 214.328 87.8594 214.608 87.7271Z" fill="#F5F5F5"/>
<path d="M221.481 100.423V101.084C221.481 103.216 220.18 105.708 218.54 106.627L209.256 111.994L210.138 111.575C210.682 111.295 211.483 110.92 212.417 110.42C213.35 109.921 214.446 109.354 215.607 108.715L217.386 107.723L218.298 107.201L218.754 106.943C218.92 106.843 219.079 106.733 219.232 106.612C219.82 106.143 220.318 105.57 220.702 104.922C221.063 104.31 221.34 103.652 221.525 102.966C221.703 102.325 221.78 101.661 221.753 100.996C221.767 100.403 221.692 99.8107 221.532 99.2392C221.394 98.7297 221.069 98.2913 220.621 98.0115C220.275 97.8083 219.866 97.7427 219.474 97.8277C219.234 97.8797 219.003 97.969 218.79 98.0924L218.577 98.2247C220.187 97.3425 221.481 98.2982 221.481 100.423Z" fill="#F5F5F5"/>
<path d="M222.885 117.654C222.893 116.998 222.796 116.346 222.599 115.721C222.435 115.168 222.07 114.696 221.577 114.397C221.196 114.179 220.747 114.114 220.32 114.214C220.061 114.271 219.813 114.367 219.585 114.5L219.342 114.647H219.401C221.165 113.662 222.599 114.758 222.599 117.125V117.86C222.599 120.249 221.128 123.006 219.349 124.072L210.418 129.218L209.278 129.879L210.226 129.416C210.829 129.1 211.697 128.681 212.733 128.122C213.77 127.564 214.939 126.946 216.24 126.24L218.195 125.145C218.899 124.775 219.577 124.357 220.224 123.895C221.408 122.814 222.247 121.408 222.635 119.852C222.828 119.136 222.912 118.395 222.885 117.654Z" fill="#F5F5F5"/>
<path d="M228.972 114.148V113.412C228.972 109.928 227.877 107.186 225.973 105.87L226.23 106.098C226.469 106.326 226.69 106.571 226.892 106.833C227.579 107.744 228.062 108.792 228.31 109.906C228.494 110.643 228.605 111.396 228.641 112.155C228.685 113.007 228.685 113.861 228.641 114.714C228.63 115.161 228.593 115.608 228.531 116.051C228.48 116.5 228.421 116.956 228.333 117.411C228.244 117.867 228.163 118.33 228.046 118.786C227.928 119.242 227.818 119.698 227.671 120.146C227.524 120.595 227.399 121.05 227.237 121.491C227.075 121.932 226.914 122.374 226.73 122.8C226.546 123.226 226.362 123.653 226.164 124.064C225.977 124.479 225.768 124.884 225.539 125.277C225.333 125.674 225.12 126.049 224.892 126.417C224.664 126.784 224.466 127.152 224.231 127.475C223.807 128.111 223.35 128.725 222.863 129.313C222.393 129.85 221.966 130.342 221.54 130.739C221.187 131.091 220.817 131.425 220.43 131.739C219.761 132.246 219.371 132.526 219.371 132.526C224.657 129.445 228.972 121.212 228.972 114.148Z" fill="#F5F5F5"/>
<path d="M207.352 142.781C206.304 143.425 205.297 144.134 204.338 144.905L210.697 141.23V137.502C210.513 138.668 210.403 139.844 210.366 141.024C209.337 141.573 208.332 142.158 207.352 142.781Z" fill="#F5F5F5"/>
<path d="M219.268 132.555C219.099 133.739 219.026 134.915 218.967 136.091C217.923 136.62 216.909 137.201 215.916 137.819C214.866 138.461 213.861 139.176 212.909 139.958L219.268 136.282V132.555Z" fill="#F5F5F5"/>
</svg>
