<svg width="399" height="414" viewBox="0 0 399 414" fill="none" xmlns="http://www.w3.org/2000/svg">
<path d="M214.08 392.615V382.603H184.562V392.615C184.564 395.885 183.462 399.06 181.434 401.624L180.134 403.266H218.507L217.219 401.624C215.183 399.063 214.076 395.887 214.08 392.615Z" fill="white" stroke="#263238" stroke-linecap="round" stroke-linejoin="round"/>
<g style="mix-blend-mode:multiply">
<path d="M182.755 399.642H215.897C214.702 397.493 214.077 395.074 214.08 392.615V382.603H184.562V392.615C184.563 395.072 183.942 397.49 182.755 399.642V399.642Z" fill="#D3D3D3"/>
</g>
<path d="M214.08 384.112H184.562V388.341H214.08V384.112Z" fill="#263238" stroke="#263238" stroke-width="1.09543" stroke-linecap="round" stroke-linejoin="round"/>
<path d="M248.4 296.792H150.242C144.591 296.792 140.01 301.373 140.01 307.024V375.532C140.01 381.183 144.591 385.764 150.242 385.764H248.4C254.051 385.764 258.632 381.183 258.632 375.532V307.024C258.632 301.373 254.051 296.792 248.4 296.792Z" fill="#263238" stroke="#263238" stroke-width="1.09543" stroke-linecap="round" stroke-linejoin="round"/>
<path d="M140.01 371.93H258.632V375.576C258.632 376.92 258.367 378.25 257.853 379.492C257.339 380.733 256.585 381.861 255.635 382.811C254.685 383.761 253.557 384.515 252.315 385.029C251.074 385.543 249.743 385.808 248.4 385.808H150.242C148.898 385.808 147.567 385.543 146.326 385.029C145.085 384.515 143.957 383.761 143.006 382.811C142.056 381.861 141.303 380.733 140.788 379.492C140.274 378.25 140.01 376.92 140.01 375.576V371.985V371.93Z" fill="white" stroke="#263238" stroke-linecap="round" stroke-linejoin="round"/>
<path d="M252.673 302.321H145.979V365.179H252.673V302.321Z" fill="#D3D3D3" stroke="#263238" stroke-width="1.09543" stroke-linecap="round" stroke-linejoin="round"/>
<path d="M201.513 378.88C201.513 378.445 201.383 378.019 201.141 377.656C200.899 377.294 200.555 377.012 200.153 376.845C199.75 376.678 199.307 376.635 198.88 376.72C198.453 376.805 198.06 377.014 197.752 377.323C197.444 377.631 197.234 378.023 197.149 378.45C197.064 378.878 197.108 379.321 197.275 379.723C197.441 380.126 197.724 380.47 198.086 380.712C198.448 380.954 198.874 381.083 199.31 381.083C199.894 381.083 200.454 380.851 200.867 380.438C201.281 380.025 201.513 379.464 201.513 378.88Z" fill="#263238" stroke="#263238" stroke-width="1.09543" stroke-linecap="round" stroke-linejoin="round"/>
<path d="M218.507 403.266H180.134V405.05H218.507V403.266Z" fill="white" stroke="#263238" stroke-linecap="round" stroke-linejoin="round"/>
<path d="M185.795 301.329C185.795 301.329 180.608 299.887 176.852 302.772C173.096 305.658 172.821 313.148 175.123 316.904C177.425 320.659 180.63 322.95 176.566 325.55C172.501 328.149 169.649 329.878 170.221 334.482C170.794 339.086 175.123 345.155 182.04 345.441C188.956 345.728 197.327 339.681 197.327 333.05C197.327 326.42 192.426 322.091 194.155 318.346C195.884 314.602 201.072 309.689 197.041 304.502C193.01 299.314 185.795 301.329 185.795 301.329Z" fill="#263238" stroke="#263238" stroke-linecap="round" stroke-linejoin="round"/>
<path d="M236.593 364.22L224.874 339.295H171.962L162.049 364.22H236.593Z" fill="white" stroke="#263238" stroke-linecap="round" stroke-linejoin="round"/>
<path d="M216.833 364.22L224.874 339.295L198.319 324.834L171.962 339.295L178.218 364.22H216.833Z" fill="white" stroke="#263238" stroke-linecap="round" stroke-linejoin="round"/>
<path d="M193.77 327.323L186.225 331.519C184.837 335.275 183.593 341.036 187.326 344.34C189.639 346.433 198.561 339.736 198.561 339.736C198.561 339.736 204.905 346.653 210.093 344.34C213.771 342.71 212.097 336.178 209.883 331.123L201.656 326.651L193.77 327.323Z" fill="white" stroke="#263238" stroke-linecap="round" stroke-linejoin="round"/>
<path d="M191.049 318.082V329.096L193.858 337.291C194.139 338.121 194.675 338.841 195.389 339.348C196.103 339.856 196.959 340.125 197.836 340.118C198.712 340.111 199.563 339.827 200.269 339.308C200.975 338.788 201.499 338.059 201.766 337.225L204.464 328.931V317.443L191.049 318.082Z" fill="white" stroke="#263238" stroke-linecap="round" stroke-linejoin="round"/>
<path d="M188.152 305.647C188.152 305.647 185.366 300.702 183.824 303.444C182.282 306.187 184.441 312.09 185.366 313.632C186.291 315.174 187.844 312.707 187.844 312.707" fill="white"/>
<path d="M188.152 305.647C188.152 305.647 185.366 300.702 183.824 303.444C182.282 306.187 184.441 312.09 185.366 313.632C186.291 315.174 187.844 312.707 187.844 312.707" stroke="#263238" stroke-linecap="round" stroke-linejoin="round"/>
<path d="M208.044 305.647C208.044 305.647 210.831 300.702 212.372 303.444C213.914 306.187 211.756 312.09 210.831 313.632C209.905 315.174 208.352 312.707 208.352 312.707" fill="white"/>
<path d="M208.044 305.647C208.044 305.647 210.831 300.702 212.372 303.444C213.914 306.187 211.756 312.09 210.831 313.632C209.905 315.174 208.352 312.707 208.352 312.707" stroke="#263238" stroke-linecap="round" stroke-linejoin="round"/>
<path d="M209.443 304.722C209.443 313.412 204.332 325.395 198.021 325.395C191.71 325.395 186.599 313.412 186.599 304.722C186.599 296.032 191.721 288.972 198.021 288.972C204.321 288.972 209.443 296.021 209.443 304.722Z" fill="white" stroke="#263238" stroke-linecap="round" stroke-linejoin="round"/>
<path d="M193.604 297.871C193.604 297.871 195.917 292.684 199.662 297.871C203.407 303.059 201.678 306.815 204.85 307.96C205.663 308.32 206.58 308.372 207.429 308.107C208.278 307.841 209.001 307.277 209.465 306.517C209.465 306.517 218.408 300.471 209.465 290.668C207.719 288.772 205.569 287.292 203.175 286.339C200.78 285.386 198.202 284.983 195.631 285.161C191.016 285.458 190.443 291.219 190.443 291.219C190.443 291.219 186.974 290.36 185.542 294.391C184.11 298.422 186.974 309.667 186.974 306.793C186.974 303.918 190.73 294.986 193.604 297.871Z" fill="#263238" stroke="#263238" stroke-linecap="round" stroke-linejoin="round"/>
<path d="M353.1 252.548V242.525H323.582V252.548C323.585 255.82 322.478 258.995 320.443 261.557L319.155 263.232H357.528L356.228 261.601C354.192 259.024 353.09 255.833 353.1 252.548V252.548Z" fill="white" stroke="#263238" stroke-linecap="round" stroke-linejoin="round"/>
<g style="mix-blend-mode:multiply">
<path d="M321.765 259.564H354.907C353.722 257.415 353.1 255.002 353.1 252.548V242.525H323.582V252.548C323.584 255.003 322.958 257.418 321.765 259.564Z" fill="#D3D3D3"/>
</g>
<path d="M353.1 244.034H323.583V248.263H353.1V244.034Z" fill="#263238" stroke="#263238" stroke-width="1.09543" stroke-linecap="round" stroke-linejoin="round"/>
<path d="M387.421 156.714H289.262C283.611 156.714 279.03 161.295 279.03 166.946V235.454C279.03 241.105 283.611 245.686 289.262 245.686H387.421C393.072 245.686 397.653 241.105 397.653 235.454V166.946C397.653 161.295 393.072 156.714 387.421 156.714Z" fill="#263238" stroke="#263238" stroke-width="1.09543" stroke-linecap="round" stroke-linejoin="round"/>
<path d="M279.03 231.852H397.653V235.443C397.653 236.787 397.388 238.117 396.874 239.359C396.36 240.6 395.606 241.728 394.656 242.678C393.706 243.628 392.578 244.382 391.336 244.896C390.095 245.41 388.764 245.675 387.421 245.675H289.262C287.919 245.675 286.588 245.41 285.347 244.896C284.105 244.382 282.977 243.628 282.027 242.678C281.077 241.728 280.323 240.6 279.809 239.359C279.295 238.117 279.03 236.787 279.03 235.443V231.852Z" fill="white" stroke="#263238" stroke-linecap="round" stroke-linejoin="round"/>
<path d="M391.683 162.254H284.989V225.112H391.683V162.254Z" fill="#D3D3D3" stroke="#263238" stroke-width="1.09543" stroke-linecap="round" stroke-linejoin="round"/>
<path d="M340.522 238.769C340.522 238.333 340.393 237.908 340.151 237.545C339.909 237.183 339.565 236.901 339.162 236.734C338.76 236.567 338.317 236.524 337.89 236.609C337.462 236.694 337.07 236.903 336.762 237.211C336.454 237.52 336.244 237.912 336.159 238.339C336.074 238.767 336.117 239.21 336.284 239.612C336.451 240.015 336.733 240.359 337.095 240.601C337.458 240.843 337.884 240.972 338.319 240.972C338.904 240.972 339.464 240.74 339.877 240.327C340.29 239.914 340.522 239.353 340.522 238.769Z" fill="#263238" stroke="#263238" stroke-width="1.09543" stroke-linecap="round" stroke-linejoin="round"/>
<path d="M357.528 263.188H319.155V264.972H357.528V263.188Z" fill="white" stroke="#263238" stroke-linecap="round" stroke-linejoin="round"/>
<path d="M375.404 224.66L363.883 200.165H310.971L301.246 224.66H375.404Z" fill="white" stroke="#263238" stroke-linecap="round" stroke-linejoin="round"/>
<path d="M363.883 224.66V200.164L343.397 188.412L337.328 185.703L330.499 188.412L310.971 200.164V224.66H363.883Z" fill="white" stroke="#263238" stroke-linecap="round" stroke-linejoin="round"/>
<path d="M332.559 203.755L336.171 209.438L334.365 224.407H340.819L337.724 209.438L341.855 203.502L336.436 197.301L332.559 203.755Z" fill="#263238" stroke="#263238" stroke-linecap="round" stroke-linejoin="round"/>
<path d="M336.931 202.202L331.27 206.597L327.14 190.847L330.499 188.413H343.397L346.238 190.34L343.914 206.85L336.931 202.202Z" fill="white" stroke="#263238" stroke-linecap="round" stroke-linejoin="round"/>
<path d="M330.059 178.951V189.976L336.932 202.202L343.485 189.822V178.312L330.059 178.951Z" fill="white" stroke="#263238" stroke-linecap="round" stroke-linejoin="round"/>
<path d="M327.162 166.516C327.162 166.516 324.386 161.571 322.844 164.314C321.302 167.056 323.461 172.949 324.386 174.502C325.312 176.055 326.854 173.576 326.854 173.576" fill="white"/>
<path d="M327.162 166.516C327.162 166.516 324.386 161.571 322.844 164.314C321.302 167.056 323.461 172.949 324.386 174.502C325.312 176.055 326.854 173.576 326.854 173.576" stroke="#263238" stroke-linecap="round" stroke-linejoin="round"/>
<path d="M347.064 166.516C347.064 166.516 349.84 161.571 351.382 164.314C352.924 167.056 350.765 172.949 349.84 174.502C348.915 176.055 347.373 173.576 347.373 173.576" fill="white"/>
<path d="M347.064 166.516C347.064 166.516 349.84 161.571 351.382 164.314C352.924 167.056 350.765 172.949 349.84 174.502C348.915 176.055 347.373 173.576 347.373 173.576" stroke="#263238" stroke-linecap="round" stroke-linejoin="round"/>
<path d="M348.463 165.591C348.463 174.281 343.353 186.276 337.042 186.276C330.731 186.276 325.675 174.281 325.675 165.591C325.675 156.901 330.786 149.841 337.097 149.841C343.408 149.841 348.463 156.89 348.463 165.591Z" fill="white" stroke="#263238" stroke-linecap="round" stroke-linejoin="round"/>
<path d="M323.274 212.787L331.402 224.66H342.912L351.404 215.882L345.985 209.174L352.693 208.656L351.922 193.688L346.238 190.34L336.689 224.407L327.14 190.846L322.492 193.688L320.686 207.114L326.369 208.139L323.274 212.787Z" fill="white" stroke="#263238" stroke-linecap="round" stroke-linejoin="round"/>
<path d="M325.598 167.882C325.598 167.882 328.153 168.213 327.658 167.364C327.162 166.516 327.658 163.498 327.658 163.498C328.246 163.028 328.693 162.402 328.946 161.692C329.464 160.404 328.175 158.586 328.175 157.044C328.175 155.502 336.172 158.586 337.46 158.586C338.749 158.586 345.985 156.78 345.985 156.78C345.985 156.78 344.686 161.428 345.468 161.946C346.25 162.463 346.756 164.787 346.756 164.787C346.756 164.787 345.985 168.917 346.239 169.688C346.492 170.459 348.045 170.977 348.309 170.206C348.574 169.435 348.563 162.717 348.563 162.717C348.563 162.717 350.369 162.981 350.369 159.412C350.369 155.844 348.309 147.792 344.686 146.25C341.062 144.708 332.823 144.697 329.464 146.504C326.105 148.31 323.781 156.571 324.563 159.412C325.129 162.204 325.475 165.036 325.598 167.882V167.882Z" fill="#263238" stroke="#263238" stroke-linecap="round" stroke-linejoin="round"/>
<path d="M214.08 115.862V105.839H184.562V115.862C184.562 119.128 183.46 122.299 181.434 124.861L180.134 126.502H218.507L217.219 124.861C215.185 122.303 214.078 119.131 214.08 115.862V115.862Z" fill="white" stroke="#263238" stroke-linecap="round" stroke-linejoin="round"/>
<g style="mix-blend-mode:multiply">
<path d="M182.755 122.878H215.897C214.704 120.733 214.078 118.318 214.08 115.862V105.839H184.562V115.862C184.562 118.316 183.94 120.73 182.755 122.878V122.878Z" fill="#D3D3D3"/>
</g>
<path d="M214.08 107.349H184.562V111.578H214.08V107.349Z" fill="#263238" stroke="#263238" stroke-width="1.09543" stroke-linecap="round" stroke-linejoin="round"/>
<path d="M248.4 20.0282H150.242C144.591 20.0282 140.01 24.6093 140.01 30.2603V98.7683C140.01 104.419 144.591 109 150.242 109H248.4C254.051 109 258.632 104.419 258.632 98.7683V30.2603C258.632 24.6093 254.051 20.0282 248.4 20.0282Z" fill="#263238" stroke="#263238" stroke-width="1.09543" stroke-linecap="round" stroke-linejoin="round"/>
<path d="M140.01 95.1667H258.632V98.7574C258.632 101.471 257.554 104.074 255.635 105.993C253.716 107.911 251.113 108.99 248.4 108.99H150.242C147.528 108.99 144.925 107.911 143.006 105.993C141.088 104.074 140.01 101.471 140.01 98.7574V95.1667Z" fill="white" stroke="#263238" stroke-linecap="round" stroke-linejoin="round"/>
<path d="M252.673 25.5574H145.979V88.4151H252.673V25.5574Z" fill="#D3D3D3" stroke="#263238" stroke-width="1.09543" stroke-linecap="round" stroke-linejoin="round"/>
<path d="M199.321 104.275C200.531 104.275 201.513 103.294 201.513 102.084C201.513 100.873 200.531 99.8918 199.321 99.8918C198.11 99.8918 197.129 100.873 197.129 102.084C197.129 103.294 198.11 104.275 199.321 104.275Z" fill="#263238" stroke="#263238" stroke-width="1.09543" stroke-linecap="round" stroke-linejoin="round"/>
<path d="M218.507 126.502H180.134V128.286H218.507V126.502Z" fill="white" stroke="#263238" stroke-linecap="round" stroke-linejoin="round"/>
<path d="M236.593 88.1397L224.874 63.2147H171.962L162.049 88.1397H236.593Z" fill="white" stroke="#263238" stroke-linecap="round" stroke-linejoin="round"/>
<path d="M180.608 32.0337C180.608 32.0337 178.702 40.9222 180.608 44.5458C182.513 48.1695 185.201 52.509 183.747 55.6481C182.293 58.7871 180.85 59.503 180.365 65.5608C179.881 71.6186 189.54 83.657 200.642 82.4455C211.745 81.2339 218.265 72.0702 216.327 64.5916C214.388 57.113 211.26 56.1437 212.218 51.3746C213.176 46.6055 215.6 43.4114 214.421 36.902C213.243 30.3926 207.427 19.764 200.433 17.3519C193.439 14.9398 189.033 18.3211 186.434 22.859C183.835 27.3968 181.07 30.1503 180.608 32.0337Z" fill="#263238" stroke="#263238" stroke-linecap="round" stroke-linejoin="round"/>
<path d="M216.833 88.1398L224.874 63.2148L198.319 48.7532L171.962 63.2148L178.218 88.1398H216.833Z" fill="white" stroke="#263238" stroke-linecap="round" stroke-linejoin="round"/>
<path d="M187.965 54.4365L185.212 62.8843L191.49 64.5695L185.939 68.6778L197.525 80.0113L208.385 69.8783L203.077 64.8118L210.555 62.8843L208.595 54.3594L198.318 48.7532L187.965 54.4365Z" fill="white" stroke="#263238" stroke-linecap="round" stroke-linejoin="round"/>
<path d="M191.049 42.0015V53.0267L197.911 73.0173L204.464 52.8614V41.3627L191.049 42.0015Z" fill="white" stroke="#263238" stroke-linecap="round" stroke-linejoin="round"/>
<path d="M188.152 29.5665C188.152 29.5665 185.366 24.6212 183.824 27.3637C182.282 30.1062 184.441 35.9988 185.366 37.5518C186.291 39.1048 187.844 36.6156 187.844 36.6156" fill="white"/>
<path d="M188.152 29.5665C188.152 29.5665 185.366 24.6212 183.824 27.3637C182.282 30.1062 184.441 35.9988 185.366 37.5518C186.291 39.1048 187.844 36.6156 187.844 36.6156" stroke="#263238" stroke-linecap="round" stroke-linejoin="round"/>
<path d="M208.044 29.5665C208.044 29.5665 210.831 24.6212 212.372 27.3637C213.914 30.1062 211.756 35.9988 210.831 37.5518C209.905 39.1048 208.352 36.6156 208.352 36.6156" fill="white"/>
<path d="M208.044 29.5665C208.044 29.5665 210.831 24.6212 212.372 27.3637C213.914 30.1062 211.756 35.9988 210.831 37.5518C209.905 39.1048 208.352 36.6156 208.352 36.6156" stroke="#263238" stroke-linecap="round" stroke-linejoin="round"/>
<path d="M209.443 28.6304C209.443 37.3205 204.332 49.3149 198.021 49.3149C191.71 49.3149 186.599 37.3315 186.599 28.6304C186.599 19.9292 191.721 12.8801 198.021 12.8801C204.321 12.8801 209.443 19.9402 209.443 28.6304Z" fill="white" stroke="#263238" stroke-linecap="round" stroke-linejoin="round"/>
<path d="M195.829 17.2747C195.829 14.7195 195.058 11.283 191.512 12.4726C187.337 13.8934 184.584 22.8148 182.568 26.4495C181.535 28.155 180.867 30.0566 180.608 32.0337C179.616 38.2016 184.738 43.3342 184.738 43.3342C184.738 43.3342 183.526 36.8248 184.253 32.4743C184.661 30.0511 185.883 29.17 188.02 28.2999C192.91 26.4275 195.829 22.8149 195.829 17.2747Z" fill="#263238" stroke="#263238" stroke-linecap="round" stroke-linejoin="round"/>
<path d="M217.979 29.4013C216.42 26.7781 214.482 24.3991 212.229 22.3412C209.575 19.6868 208.132 13.1774 202.096 10.9966C196.061 8.81583 193.406 11.7236 193.648 16.0742C193.686 16.7699 193.774 17.462 193.913 18.1448C193.908 18.1777 193.908 18.2111 193.913 18.2439C193.913 18.2439 193.913 18.3541 194.023 18.5634C194.202 19.7268 194.76 20.7989 195.609 21.6143L195.763 21.7244C197 23.5076 198.401 25.1707 199.949 26.6918C205.015 31.7583 211.293 36.3402 211.535 41.649C211.723 45.9886 210.17 49.3589 209.333 53.7646H209.123C208.645 56.1215 207.661 58.3464 206.238 60.2849C204.035 62.9394 203.815 64.8668 208.892 65.1091C215.677 65.4286 219.058 56.43 219.994 50.967C220.923 45.9129 220.96 40.7353 220.104 35.6683C219.733 33.4798 219.015 31.3643 217.979 29.4013V29.4013Z" fill="#263238" stroke="#263238" stroke-linecap="round" stroke-linejoin="round"/>
<path d="M75.0701 252.548V242.525H45.5522V252.548C45.5491 255.819 44.4432 258.993 42.4132 261.558L41.1245 263.232H79.4868L78.1981 261.602C76.1619 259.024 75.0593 255.833 75.0701 252.548V252.548Z" fill="white" stroke="#263238" stroke-linecap="round" stroke-linejoin="round"/>
<g style="mix-blend-mode:multiply">
<path d="M43.7129 259.564H76.8545C75.6695 257.415 75.0481 255.002 75.0481 252.548V242.525H45.5302V252.548C45.5264 255.003 44.9012 257.416 43.7129 259.564V259.564Z" fill="#D3D3D3"/>
</g>
<path d="M75.0702 244.034H45.5522V248.264H75.0702V244.034Z" fill="#263238" stroke="#263238" stroke-width="1.09543" stroke-linecap="round" stroke-linejoin="round"/>
<path d="M109.39 156.714H11.2321C5.58109 156.714 1 161.295 1 166.946V235.454C1 241.105 5.58109 245.686 11.2321 245.686H109.39C115.041 245.686 119.622 241.105 119.622 235.454V166.946C119.622 161.295 115.041 156.714 109.39 156.714Z" fill="#263238" stroke="#263238" stroke-width="1.09543" stroke-linecap="round" stroke-linejoin="round"/>
<path d="M1 231.852H119.622V235.443C119.622 236.787 119.358 238.117 118.843 239.359C118.329 240.6 117.576 241.728 116.625 242.678C115.675 243.628 114.547 244.382 113.306 244.896C112.064 245.411 110.734 245.675 109.39 245.675H11.2321C9.88844 245.675 8.55789 245.411 7.31647 244.896C6.07505 244.382 4.94707 243.628 3.99692 242.678C3.04678 241.728 2.29309 240.6 1.77888 239.359C1.26466 238.117 1 236.787 1 235.443V231.852Z" fill="white" stroke="#263238" stroke-linecap="round" stroke-linejoin="round"/>
<path d="M113.653 162.254H6.9585V225.112H113.653V162.254Z" fill="#D3D3D3" stroke="#263238" stroke-width="1.09543" stroke-linecap="round" stroke-linejoin="round"/>
<path d="M62.4921 238.769C62.4921 238.334 62.3629 237.908 62.1208 237.546C61.8788 237.183 61.5348 236.901 61.1322 236.734C60.7297 236.568 60.2868 236.524 59.8595 236.609C59.4322 236.694 59.0397 236.904 58.7316 237.212C58.4235 237.52 58.2138 237.912 58.1288 238.34C58.0438 238.767 58.0874 239.21 58.2541 239.612C58.4208 240.015 58.7032 240.359 59.0654 240.601C59.4277 240.843 59.8536 240.972 60.2893 240.972C60.8735 240.972 61.4338 240.74 61.8469 240.327C62.26 239.914 62.4921 239.354 62.4921 238.769Z" fill="#263238" stroke="#263238" stroke-width="1.09543" stroke-linecap="round" stroke-linejoin="round"/>
<path d="M79.4978 263.188H41.1245V264.972H79.4978V263.188Z" fill="white" stroke="#263238" stroke-linecap="round" stroke-linejoin="round"/>
<path d="M97.572 224.836L85.853 199.9H32.941L23.0393 224.836H97.572Z" fill="white" stroke="#263238" stroke-linecap="round" stroke-linejoin="round"/>
<path d="M85.8531 224.837V199.901L68.7151 188.159L59.298 185.439L49.8809 188.159L32.9412 199.901V224.837H85.8531Z" fill="white" stroke="#263238" stroke-linecap="round" stroke-linejoin="round"/>
<path d="M53.6255 183.258C53.6255 183.258 49.8587 184.359 49.0987 185.141C48.3387 185.923 47.777 189.856 47.028 191.926C46.2791 193.997 43.8229 197.576 44.5829 197.764C45.3429 197.951 51.7421 194.746 51.7421 194.746L59.0885 203.073L66.0605 194.371C66.0605 194.371 71.5675 198.524 71.898 197.951C72.2284 197.378 69.4528 190.604 69.2656 187.774C69.0783 184.943 64.926 184.007 62.4809 183.82C60.0357 183.633 53.6255 183.258 53.6255 183.258Z" fill="white" stroke="#263238" stroke-linecap="round" stroke-linejoin="round"/>
<path d="M52.0286 178.698V189.712L58.9014 202.368L65.4548 189.558V178.048L52.0286 178.698Z" fill="white" stroke="#263238" stroke-linecap="round" stroke-linejoin="round"/>
<path d="M49.1317 166.308C49.1317 166.308 46.3561 161.373 44.8141 164.105C43.2721 166.836 45.4309 172.751 46.3561 174.293C47.2813 175.835 48.8233 173.368 48.8233 173.368" fill="white"/>
<path d="M49.1317 166.308C49.1317 166.308 46.3561 161.373 44.8141 164.105C43.2721 166.836 45.4309 172.751 46.3561 174.293C47.2813 175.835 48.8233 173.368 48.8233 173.368" stroke="#263238" stroke-linecap="round" stroke-linejoin="round"/>
<path d="M69.0454 166.308C69.0454 166.308 71.821 161.373 73.363 164.105C74.9049 166.836 72.7462 172.751 71.821 174.293C70.8958 175.835 69.3538 173.368 69.3538 173.368" fill="white"/>
<path d="M69.0454 166.308C69.0454 166.308 71.821 161.373 73.363 164.105C74.9049 166.836 72.7462 172.751 71.821 174.293C70.8958 175.835 69.3538 173.368 69.3538 173.368" stroke="#263238" stroke-linecap="round" stroke-linejoin="round"/>
<path d="M70.4332 165.327C70.4332 174.017 65.3226 186.012 59.0115 186.012C52.7004 186.012 47.5898 174.017 47.5898 165.327C47.5898 156.637 52.7004 149.588 59.0115 149.588C65.3226 149.588 70.4332 156.637 70.4332 165.327Z" fill="white" stroke="#263238" stroke-linecap="round" stroke-linejoin="round"/>
<path d="M68.01 160.966C68.01 160.966 67.206 163.168 68.1642 164.16C69.1225 165.151 68.9683 166.55 68.8031 168.466C68.6378 170.383 69.1225 171.506 69.7613 170.867C70.4001 170.228 71.0389 161.285 71.0389 160.646C71.0389 160.007 68.01 160.966 68.01 160.966Z" fill="#263238" stroke="#263238" stroke-linecap="round" stroke-linejoin="round"/>
<path d="M47.722 163.994L48.0414 168.951C48.1671 168.995 48.3005 169.014 48.4336 169.006C48.5668 168.998 48.6969 168.963 48.8161 168.903C48.9354 168.843 49.0415 168.76 49.1279 168.659C49.2143 168.557 49.2793 168.439 49.3191 168.312C49.6385 167.354 48.8344 164.314 49.6385 162.717C50.4425 161.12 53.4714 160.327 53.6256 159.203C53.7798 158.08 52.0285 156.009 52.0285 155.216C52.0285 154.423 52.5132 153.619 56.5003 157.419C60.4874 161.219 67.8449 162.045 71.6778 161.087C75.5107 160.128 70.8848 154.379 69.9265 153.101C68.9683 151.824 72.4818 152.782 70.5654 149.588C68.6489 146.394 61.9303 144.312 55.2226 146.713C48.515 149.114 44.6821 152.463 45.6403 155.822C46.5986 159.181 47.722 163.994 47.722 163.994Z" fill="#263238" stroke="#263238" stroke-linecap="round" stroke-linejoin="round"/>
<path d="M199.772 245.455V280.05" stroke="#263238" stroke-width="2" stroke-miterlimit="10"/>
<path d="M194.166 278.409L199.772 288.102L205.367 278.409H194.166Z" fill="#263238"/>
<path d="M199.772 171.385V136.789" stroke="#263238" stroke-width="2" stroke-miterlimit="10"/>
<path d="M205.367 138.43L199.772 128.738L194.166 138.43H205.367Z" fill="#263238"/>
<path d="M162.743 208.425H128.147" stroke="#263238" stroke-width="2" stroke-miterlimit="10"/>
<path d="M129.788 202.819L120.085 208.425L129.788 214.021V202.819Z" fill="#263238"/>
<path d="M139.569 121.689L114.27 146.988" stroke="#263238" stroke-width="2" stroke-miterlimit="10"/>
<path d="M134.448 118.88L145.263 115.984L142.367 126.811L134.448 118.88Z" fill="#263238"/>
<path d="M111.461 141.867L108.564 152.694L119.391 149.797L111.461 141.867Z" fill="#263238"/>
<path d="M261.716 121.689L287.015 146.988" stroke="#263238" stroke-width="2" stroke-miterlimit="10"/>
<path d="M258.907 126.811L256.01 115.984L266.826 118.891L258.907 126.811Z" fill="#263238"/>
<path d="M281.894 149.797L292.71 152.694L289.813 141.867L281.894 149.797Z" fill="#263238"/>
<path d="M139.569 290.316L114.27 265.016" stroke="#263238" stroke-width="2" stroke-miterlimit="10"/>
<path d="M142.367 285.205L145.274 296.021L134.448 293.124L142.367 285.205Z" fill="#263238"/>
<path d="M119.391 262.218L108.564 259.322L111.461 270.138L119.391 262.218Z" fill="#263238"/>
<path d="M261.716 290.316L287.015 265.016" stroke="#263238" stroke-width="2" stroke-miterlimit="10"/>
<path d="M266.826 293.124L256.01 296.021L258.907 285.205L266.826 293.124Z" fill="#263238"/>
<path d="M289.813 270.138L292.71 259.322L281.894 262.218L289.813 270.138Z" fill="#263238"/>
<path d="M236.802 208.425H271.397" stroke="#263238" stroke-width="2" stroke-miterlimit="10"/>
<path d="M269.756 214.021L279.46 208.425L269.756 202.819V214.021Z" fill="#263238"/>
<path d="M201.116 211.014H197.724V223.35H201.116C206.227 223.35 207.802 221.048 207.802 216.972C207.802 212.897 206.227 211.014 201.116 211.014Z" fill="#263238"/>
<path d="M199.321 164.589C190.76 164.589 182.391 167.128 175.273 171.884C168.154 176.64 162.606 183.401 159.33 191.31C156.054 199.219 155.197 207.923 156.867 216.319C158.537 224.716 162.66 232.429 168.713 238.482C174.767 244.536 182.48 248.658 190.876 250.329C199.273 251.999 207.976 251.142 215.885 247.865C223.795 244.589 230.555 239.041 235.311 231.923C240.068 224.805 242.606 216.436 242.606 207.875C242.606 196.395 238.046 185.385 229.928 177.267C221.811 169.15 210.801 164.589 199.321 164.589V164.589ZM199.321 244.783C192.019 244.783 184.881 242.618 178.809 238.561C172.738 234.504 168.006 228.738 165.212 221.992C162.417 215.246 161.686 207.823 163.111 200.661C164.535 193.499 168.052 186.921 173.215 181.758C178.378 176.594 184.956 173.078 192.118 171.654C199.28 170.229 206.703 170.96 213.449 173.755C220.195 176.549 225.961 181.281 230.018 187.352C234.075 193.424 236.24 200.562 236.24 207.864C236.231 217.653 232.339 227.038 225.417 233.96C218.495 240.882 209.11 244.774 199.321 244.783V244.783Z" fill="#263238"/>
<path d="M206.832 199.416C206.832 195.825 205.257 194.063 200.753 194.063H197.724V204.857H200.753C205.191 204.857 206.832 202.995 206.832 199.416Z" fill="#263238"/>
<path d="M199.321 173.489C192.519 173.486 185.869 175.501 180.213 179.279C174.556 183.057 170.147 188.427 167.543 194.711C164.939 200.994 164.257 207.909 165.584 214.58C166.91 221.252 170.185 227.38 174.995 232.189C179.805 236.999 185.933 240.274 192.604 241.601C199.275 242.927 206.19 242.245 212.474 239.641C218.758 237.037 224.128 232.628 227.905 226.972C231.683 221.315 233.698 214.666 233.696 207.864C233.687 198.75 230.063 190.011 223.618 183.566C217.173 177.122 208.435 173.497 199.321 173.489V173.489ZM206.216 227.987V235.696H201.81V228.295H197.757V235.696H193.351V228.306H183.604V222.501H185.52C185.939 222.432 186.325 222.23 186.621 221.924C186.916 221.619 187.106 221.227 187.161 220.805V196.299C187.107 195.877 186.918 195.484 186.622 195.178C186.327 194.872 185.94 194.671 185.52 194.603H183.604V188.842H193.351V181.397H197.757V188.842H201.215H201.898V181.397H206.304V189.173C213.188 190.153 216.822 193.369 216.822 198.997C216.822 203.965 214.003 206.399 208.815 207.467V207.687C214.851 208.591 218.177 211.531 218.177 216.884C218.089 223.295 213.628 226.984 206.216 227.987Z" fill="#263238"/>
</svg>
