<svg width="24" height="24" viewBox="0 0 24 24" fill="none" xmlns="http://www.w3.org/2000/svg">
<path fill-rule="evenodd" clip-rule="evenodd" d="M16 5C16.5523 5 17 5.44772 17 6L17 18C17 18.5523 16.5523 19 16 19C15.4477 19 15 18.5523 15 18L15 6C15 5.44772 15.4477 5 16 5Z" fill="#152C70"/>
<path fill-rule="evenodd" clip-rule="evenodd" d="M6.31606 17.5293C5.91315 17.1515 5.89274 16.5187 6.27047 16.1158L10.1293 11.9997L6.27047 7.88367C5.89274 7.48076 5.91315 6.84792 6.31606 6.47019C6.71898 6.09246 7.35181 6.11288 7.72954 6.51579L12.2295 11.3158C12.5902 11.7004 12.5902 12.299 12.2295 12.6837L7.72954 17.4837C7.35181 17.8866 6.71897 17.907 6.31606 17.5293Z" fill="#152C70"/>
</svg>
