<svg width="48" height="24" viewBox="0 0 48 24" fill="none" xmlns="http://www.w3.org/2000/svg">
<path fill-rule="evenodd" clip-rule="evenodd" d="M8.34923 4.24076C7.9299 4.60018 7.88134 5.23148 8.24076 5.65081L13.6829 12L8.24076 18.3492C7.88134 18.7686 7.9299 19.3999 8.34923 19.7593C8.76855 20.1187 9.39985 20.0701 9.75927 19.6508L15.7593 12.6508C16.0803 12.2763 16.0803 11.7237 15.7593 11.3492L9.75927 4.34923C9.39985 3.9299 8.76855 3.88134 8.34923 4.24076Z" fill="#FFBF00"/>
<path fill-rule="evenodd" clip-rule="evenodd" d="M20.3492 4.24076C19.9299 4.60018 19.8813 5.23148 20.2408 5.65081L25.6829 12L20.2408 18.3492C19.8813 18.7686 19.9299 19.3999 20.3492 19.7593C20.7686 20.1187 21.3999 20.0701 21.7593 19.6508L27.7593 12.6508C28.0803 12.2763 28.0803 11.7237 27.7593 11.3492L21.7593 4.34923C21.3999 3.9299 20.7686 3.88134 20.3492 4.24076Z" fill="black"/>
<path fill-rule="evenodd" clip-rule="evenodd" d="M32.3492 4.24076C31.9299 4.60018 31.8813 5.23148 32.2408 5.65081L37.6829 12L32.2408 18.3492C31.8813 18.7686 31.9299 19.3999 32.3492 19.7593C32.7686 20.1187 33.3999 20.0701 33.7593 19.6508L39.7593 12.6508C40.0803 12.2763 40.0803 11.7237 39.7593 11.3492L33.7593 4.34923C33.3999 3.9299 32.7686 3.88134 32.3492 4.24076Z" fill="black"/>
</svg>
