<svg width="744" height="648" viewBox="0 0 744 648" fill="none" xmlns="http://www.w3.org/2000/svg">
<path d="M576.441 388.457V388.346C561.32 383.324 538.12 385.029 534.673 387.086C531.008 389.539 527.861 392.686 525.408 396.351C517.263 407.906 511.424 420.923 508.211 434.69L343.753 449.978C337.694 436.896 328.558 425.166 319.386 418.087C316.765 415.893 313.744 414.225 310.491 413.176C309.059 413.005 307.609 413.055 306.192 413.325C300.225 396.036 291.775 379.358 281.213 378.302C258.976 376.078 220.173 383.528 209.592 405.097C199.012 426.667 195.695 480.516 195.695 480.516L188.282 487.928C182.876 477.396 175.357 468.092 166.194 460.596C163.582 458.389 160.559 456.72 157.299 455.685C155.446 455.167 148.034 456.315 140.27 458.854C139.955 458.558 139.658 458.261 139.325 457.983C131.913 451.775 116.718 448.384 108.231 464.209C99.7437 480.034 109.935 509.998 115.013 516.78C117.479 520.245 120.571 523.218 124.13 525.545C130.115 540.37 140.807 559.271 157.262 560.142C162.899 560.445 168.534 559.533 173.787 557.468C179.04 555.402 183.788 552.232 187.708 548.171C198.381 537.053 199.53 521.432 195.509 506.144L197.233 503.624C197.233 503.624 201.068 509.09 215.763 506.885C220.023 506.446 224.061 504.772 227.382 502.067C234.275 519.653 245.412 537.275 263.108 539.907C270.703 541.069 278.46 540.581 285.849 538.477C293.239 536.373 300.089 532.702 305.932 527.713C309.329 524.78 312.293 521.38 314.734 517.614C324.643 517.067 333.978 512.791 340.862 505.644C347.022 499.074 350.545 490.465 350.758 481.461L372.642 478.904C386.38 485.032 401.368 487.838 416.393 487.095C430.78 486.17 444.398 480.275 454.918 470.417L504.783 466.155C505.617 485.482 512.566 503.216 528.873 512.982C535.116 516.708 542.093 519.037 549.322 519.808C556.552 520.579 563.863 519.773 570.752 517.448C593.748 509.739 599.196 475.569 600.678 454.796C602.976 421.441 592.34 393.182 576.441 388.457Z" fill="#263238" stroke="#263238" stroke-width="0.75" stroke-linecap="round" stroke-linejoin="round"/>
<path d="M271.985 529.177C270.072 531.622 267.634 533.604 264.85 534.977" stroke="white" stroke-width="0.5" stroke-linecap="round" stroke-linejoin="round"/>
<path d="M280.972 485.26C280.972 485.26 283.177 509.35 274.968 524.637" stroke="white" stroke-width="0.5" stroke-linecap="round" stroke-linejoin="round"/>
<path d="M287.476 511.87C285.382 521.135 281.213 530.122 273.133 534.106" stroke="white" stroke-width="0.5" stroke-linecap="round" stroke-linejoin="round"/>
<path d="M297.538 483.426C297.538 483.426 301.244 523.47 281.435 533.143" stroke="white" stroke-width="0.5" stroke-linecap="round" stroke-linejoin="round"/>
<path d="M305.84 482.499C305.84 482.499 309.546 522.562 289.718 532.216" stroke="white" stroke-width="0.5" stroke-linecap="round" stroke-linejoin="round"/>
<path d="M555.835 510.573C553.705 513.262 551.059 515.499 548.052 517.151" stroke="white" stroke-width="0.5" stroke-linecap="round" stroke-linejoin="round"/>
<path d="M570.733 460.559C570.733 460.559 569.547 487.966 559.374 505.403" stroke="white" stroke-width="0.5" stroke-linecap="round" stroke-linejoin="round"/>
<path d="M573.383 490.912C570.047 501.456 564.711 511.685 556.279 516.132" stroke="white" stroke-width="0.5" stroke-linecap="round" stroke-linejoin="round"/>
<path d="M587.188 458.521C587.188 458.521 585.205 504.18 564.507 515.113" stroke="white" stroke-width="0.5" stroke-linecap="round" stroke-linejoin="round"/>
<path d="M595.453 457.52C595.453 457.52 593.47 503.161 572.771 514.112" stroke="white" stroke-width="0.5" stroke-linecap="round" stroke-linejoin="round"/>
<path d="M162.488 553.953C160.911 556.369 158.832 558.417 156.391 559.956" stroke="white" stroke-width="0.5" stroke-linecap="round" stroke-linejoin="round"/>
<path d="M165.416 514.983C165.416 514.983 170.641 535.367 164.749 549.617" stroke="white" stroke-width="0.5" stroke-linecap="round" stroke-linejoin="round"/>
<path d="M175.107 536.868C174.273 545.114 171.401 553.415 164.23 557.974" stroke="white" stroke-width="0.5" stroke-linecap="round" stroke-linejoin="round"/>
<path d="M181.056 511.018C181.056 511.018 189.765 544.836 172.05 555.973" stroke="white" stroke-width="0.5" stroke-linecap="round" stroke-linejoin="round"/>
<path d="M188.875 509.016C188.875 509.016 197.603 542.834 179.87 553.99" stroke="white" stroke-width="0.5" stroke-linecap="round" stroke-linejoin="round"/>
<path d="M252.75 471.529C257.16 496.749 254.399 518.319 246.616 519.708C238.834 521.098 228.92 501.715 224.51 476.495C220.099 451.275 222.86 429.706 230.662 428.316C238.463 426.926 248.34 446.291 252.75 471.529Z" fill="#FFDE59" stroke="#263238" stroke-linecap="round" stroke-linejoin="round"/>
<path d="M248.821 472.066C250.044 481.739 248.914 489.837 246.264 490.171C243.614 490.504 240.501 482.944 239.278 473.271C238.055 463.598 239.278 455.482 241.835 455.148C244.393 454.815 247.598 462.393 248.821 472.066Z" fill="#FFDE59" stroke="#263238" stroke-linecap="round" stroke-linejoin="round"/>
<path d="M230.235 448.94C230.498 445.693 231.012 442.472 231.773 439.304" stroke="#263238" stroke-width="0.75" stroke-linecap="round" stroke-linejoin="round"/>
<path d="M242.521 510.61C237.393 500.342 233.726 489.409 231.625 478.126C230.23 470.145 229.665 462.041 229.939 453.944" stroke="#263238" stroke-width="0.75" stroke-linecap="round" stroke-linejoin="round"/>
<path d="M143.694 546.481C149.296 544.929 149.763 528.967 144.736 510.83C139.71 492.694 131.094 479.249 125.492 480.802C119.89 482.354 119.424 498.316 124.45 516.452C129.477 534.589 138.093 548.034 143.694 546.481Z" fill="#FFDE59" stroke="#263238" stroke-linecap="round" stroke-linejoin="round"/>
<path d="M142.901 511.555C144.662 518.448 144.569 524.415 142.679 524.897C140.789 525.379 137.861 520.172 136.101 513.297C134.34 506.422 134.433 500.418 136.323 499.955C138.213 499.492 141.141 504.662 142.901 511.555Z" stroke="#263238" stroke-width="0.75" stroke-linecap="round" stroke-linejoin="round"/>
<path d="M127.373 496.49C127.269 494.115 127.35 491.736 127.613 489.374" stroke="#263238" stroke-width="0.75" stroke-linecap="round" stroke-linejoin="round"/>
<path d="M141.808 540.018C137.174 533.047 133.538 525.463 131.005 517.485C129.273 511.836 128.13 506.024 127.595 500.14" stroke="#263238" stroke-width="0.75" stroke-linecap="round" stroke-linejoin="round"/>
<path d="M540.918 201.299C521.386 160.995 512.955 157.493 499.965 156.826C486.975 156.159 456.307 152.341 422.137 157.808C422.137 157.808 326.816 156.14 253.065 200.817C176.071 247.458 138.602 288.429 133.358 309.665C128.114 330.901 110.213 386.233 101.726 417.957C93.2394 449.682 87.4579 477.626 98.2797 503.309C104.821 518.837 111.788 523.507 120.739 523.433C119.369 520.976 118.162 518.432 117.125 515.817C108.231 493.784 109.305 462.264 119.46 460.225C129.615 458.187 135.674 479.293 141.808 502.308C143.025 507.381 144.674 512.341 146.737 517.133C161.913 511.407 186.225 498.602 218.543 485.297C215.475 465.084 215.406 444.528 218.339 424.295C223.12 392.663 243.336 385.677 252.138 404.93C259.421 420.793 262.126 456.297 262.849 468.268C275.82 463.802 286.679 460.855 293.369 460.448C293.369 460.448 403.959 435.469 485.474 433.467C566.99 431.466 607.776 429.52 607.776 429.52C607.776 429.52 560.449 241.529 540.918 201.299Z" fill="white"/>
<path d="M280.305 395.758C280.305 395.758 269.094 411.101 255.455 414.381C260.273 432.059 262.256 458.224 262.868 468.119C274.449 464.135 284.289 461.337 291.034 460.522C292.016 454.74 292.609 451.053 292.609 451.053L280.305 395.758Z" fill="#FFDE59"/>
<path opacity="0.2" d="M142.29 503.976C147.441 504.495 150.869 506.718 161.339 504.106C179.869 499.492 166.546 463.728 197.288 449.126C203.256 446.116 209.75 444.292 216.412 443.752C216.688 437.207 217.307 430.682 218.265 424.202C219.081 417.837 220.96 411.655 223.824 405.913C215.429 403.337 213.91 400.872 199.604 407.673C168.844 422.275 173.458 459.948 155.02 464.562C140.307 468.268 139.492 462.356 128.318 465.099C133.543 472.511 137.583 486.946 141.66 502.16C141.975 502.846 142.123 503.346 142.29 503.976Z" fill="#FFDE59"/>
<g style="mix-blend-mode:multiply">
<path opacity="0.2" d="M112.029 472.307C103.413 478.237 98.2797 487.132 95.3519 494.636C96.1461 497.598 97.124 500.506 98.2797 503.346C104.821 518.874 111.788 523.544 120.739 523.47C119.369 521.013 118.162 518.469 117.125 515.854C111.473 501.826 109.954 483.981 112.029 472.307Z" fill="#FFDE59"/>
</g>
<g style="mix-blend-mode:multiply" opacity="0.2">
<path d="M499.965 156.826L496.611 156.622C361.468 191.2 306.488 354.083 287.569 432.578C288.588 440.379 289.7 448.032 290.904 455.482C293.202 455.037 291.608 460.448 293.369 460.355C293.369 460.355 403.959 435.376 485.474 433.375C566.99 431.373 607.776 429.428 607.776 429.428C607.776 429.428 560.449 241.529 540.918 201.299C521.386 161.069 512.955 157.419 499.965 156.826Z" fill="#FFDE59"/>
</g>
<path d="M540.918 201.299C521.386 160.995 512.955 157.493 499.965 156.826C486.975 156.159 456.307 152.341 422.137 157.808C422.137 157.808 326.816 156.14 253.065 200.817C176.071 247.458 138.602 288.429 133.358 309.665C128.114 330.901 110.213 386.233 101.726 417.957C93.2394 449.682 87.4579 477.626 98.2797 503.309C104.821 518.837 111.788 523.507 120.739 523.433C119.369 520.976 118.162 518.432 117.125 515.817C108.231 493.784 109.305 462.264 119.46 460.225C129.615 458.187 135.674 479.293 141.808 502.308C143.025 507.381 144.674 512.341 146.737 517.133C161.913 511.407 186.225 498.602 218.543 485.297C215.475 465.084 215.406 444.528 218.339 424.295C223.12 392.663 243.336 385.677 252.138 404.93C259.421 420.793 262.126 456.297 262.849 468.268C275.82 463.802 286.679 460.855 293.369 460.448C293.369 460.448 403.959 435.469 485.474 433.467C566.99 431.466 607.776 429.52 607.776 429.52C607.776 429.52 560.449 241.529 540.918 201.299Z" stroke="#263238" stroke-linecap="round" stroke-linejoin="round"/>
<path opacity="0.2" d="M136.397 404.69C137.669 405.748 139.217 406.42 140.859 406.627C142.501 406.834 144.167 406.567 145.662 405.857C151.499 403.522 152.092 394.739 152.092 394.739L160.839 394.164L162.599 366.721L143.327 374.3C143.327 374.3 138.157 401.187 136.397 404.69Z" fill="#FFDE59"/>
<path d="M111.121 484.945C105.588 487.886 100.356 491.362 95.5001 495.322C96.2684 498.037 97.1966 500.704 98.2797 503.309C104.821 518.837 111.788 523.507 120.739 523.433C119.369 520.976 118.162 518.432 117.125 515.817C113.326 505.959 111.294 495.508 111.121 484.945V484.945Z" fill="#263238" stroke="#263238" stroke-width="0.75" stroke-linecap="round" stroke-linejoin="round"/>
<path d="M140.64 469.639C140.139 469.637 139.647 469.499 139.217 469.242C138.787 468.984 138.434 468.616 138.194 468.175C137.857 467.535 137.785 466.788 137.993 466.095C138.2 465.402 138.672 464.818 139.306 464.469C139.751 464.228 175.811 441.88 205.682 426C206.005 425.828 206.358 425.722 206.721 425.687C207.085 425.651 207.452 425.688 207.801 425.795C208.151 425.902 208.475 426.076 208.757 426.308C209.039 426.541 209.273 426.826 209.444 427.149C209.616 427.471 209.722 427.824 209.757 428.188C209.792 428.551 209.755 428.918 209.649 429.267C209.542 429.617 209.368 429.941 209.135 430.223C208.903 430.505 208.618 430.739 208.295 430.91C178.443 446.772 142.401 469.102 141.956 469.342C141.55 469.553 141.097 469.655 140.64 469.639V469.639Z" fill="#263238" stroke="#263238" stroke-miterlimit="10"/>
<path d="M187.782 283.889L186.503 315.706C186.225 320.042 188.746 322.136 192.063 320.265L243.299 286.91C245.183 285.596 246.702 283.826 247.713 281.764C248.724 279.703 249.195 277.418 249.081 275.124L248.766 239.638C248.395 236.414 246.209 235.098 243.522 236.488C233.886 241.473 215.281 258.336 193.045 274.031C191.538 275.225 190.293 276.717 189.388 278.413C188.482 280.109 187.936 281.973 187.782 283.889V283.889Z" fill="#FFDE59" stroke="#263238" stroke-linecap="round" stroke-linejoin="round"/>
<path d="M222.397 274.921L247.432 281.036" stroke="#263238" stroke-linecap="round" stroke-linejoin="round"/>
<path d="M188.153 320.413L203.607 286.28" stroke="#263238" stroke-linecap="round" stroke-linejoin="round"/>
<path d="M188.078 282.833L210.797 285.668C213.15 286.02 216.078 284.075 218.209 280.702L247.858 238.249" stroke="#263238" stroke-linecap="round" stroke-linejoin="round"/>
<path d="M314.92 224.777L320.182 304.458C320.319 306.758 320.922 309.006 321.956 311.065C322.991 313.124 324.433 314.951 326.197 316.434C327.961 317.916 330.008 319.024 332.214 319.689C334.42 320.354 336.739 320.563 339.028 320.302L516.031 297.324C518.47 297.043 520.818 296.236 522.914 294.958C525.011 293.681 526.804 291.963 528.172 289.924C529.539 287.886 530.447 285.574 530.834 283.15C531.221 280.726 531.076 278.247 530.411 275.884L508.063 196.87C507.005 193.115 504.683 189.841 501.488 187.602C498.294 185.363 494.424 184.297 490.533 184.584C461.848 186.697 393.044 192.867 328.095 207.34C324.195 208.226 320.734 210.462 318.323 213.652C315.912 216.843 314.707 220.783 314.92 224.777V224.777Z" fill="#FFDE59" stroke="#263238" stroke-linecap="round" stroke-linejoin="round"/>
<path d="M446.486 249.478L527.298 287.762" stroke="#263238" stroke-linecap="round" stroke-linejoin="round"/>
<path d="M326.89 316.799L395.138 255.723" stroke="#263238" stroke-linecap="round" stroke-linejoin="round"/>
<path d="M315.513 222.683L413.446 262.95C417.124 264.452 421.158 264.854 425.059 264.107C428.96 263.36 432.561 261.497 435.424 258.743L505.228 192.83" stroke="#263238" stroke-linecap="round" stroke-linejoin="round"/>
<path d="M511.096 308.602C527.731 308.193 540.891 294.607 540.489 278.258C540.086 261.909 526.274 248.987 509.639 249.397C493.003 249.806 479.843 263.392 480.246 279.741C480.648 296.09 494.46 309.012 511.096 308.602Z" fill="#263238" stroke="#263238" stroke-width="0.75" stroke-linecap="round" stroke-linejoin="round"/>
<path d="M507.118 293.136H507.025C506.44 293.138 505.864 293.001 505.342 292.737C504.82 292.473 504.368 292.089 504.023 291.617L492.182 275.273C491.605 274.476 491.367 273.484 491.522 272.512C491.677 271.541 492.211 270.671 493.007 270.093C493.803 269.516 494.796 269.278 495.767 269.433C496.739 269.588 497.609 270.122 498.186 270.918L507.025 283.111L528.15 253.926C528.727 253.129 529.598 252.595 530.569 252.441C531.54 252.286 532.533 252.523 533.329 253.101C534.125 253.678 534.66 254.548 534.814 255.52C534.969 256.491 534.731 257.484 534.154 258.28L510.064 291.635C509.723 292.096 509.279 292.472 508.768 292.732C508.256 292.993 507.692 293.131 507.118 293.136Z" fill="white" stroke="#263238" stroke-linecap="round" stroke-linejoin="round"/>
<path d="M395.194 373.002C395.194 373.002 458.198 360.921 501.374 361.773L503.968 372.15C503.968 372.15 413.317 376.449 396.046 385.121L395.194 373.002Z" fill="#263238" stroke="#263238" stroke-width="0.75" stroke-linecap="round" stroke-linejoin="round"/>
<path d="M396.046 385.084L397.899 395.461C398.091 396.618 398.728 397.653 399.673 398.346C400.619 399.038 401.798 399.333 402.958 399.167C418.765 396.907 474.245 389.291 503.023 389.995C503.732 390.017 504.436 389.871 505.077 389.569C505.719 389.267 506.281 388.818 506.716 388.258C507.151 387.698 507.448 387.043 507.582 386.347C507.717 385.65 507.684 384.932 507.489 384.25L504.042 372.187" stroke="#263238" stroke-linecap="round" stroke-linejoin="round"/>
<path d="M166.138 366.758L165.786 323.952L167.917 279.942C167.933 279.521 167.822 279.105 167.598 278.749C167.373 278.392 167.047 278.111 166.661 277.943C166.274 277.775 165.846 277.727 165.432 277.806C165.019 277.885 164.638 278.087 164.341 278.386C156.373 286.539 142.734 298.88 138.695 308.998C133.451 322.099 127.243 386.585 127.243 386.585L166.138 366.758Z" fill="#263238" stroke="#263238" stroke-width="0.75" stroke-linecap="round" stroke-linejoin="round"/>
<path d="M116.792 358.159H110.584C107.422 358.159 104.858 360.723 104.858 363.885V395.869C104.858 399.031 107.422 401.595 110.584 401.595H116.792C119.954 401.595 122.518 399.031 122.518 395.869V363.885C122.518 360.723 119.954 358.159 116.792 358.159Z" fill="#263238" stroke="#263238" stroke-width="0.75" stroke-linecap="round" stroke-linejoin="round"/>
<path d="M120.702 328.288C123.64 328.852 126.51 329.728 129.263 330.901C131.545 332.024 133.619 333.528 135.396 335.348L144.662 323.1C144.662 323.1 131.079 317.411 128.503 313.946L125.946 310.462L120.702 328.288Z" fill="white"/>
<g style="mix-blend-mode:multiply" opacity="0.5">
<path d="M128.484 313.946L126.094 310.629L125.816 310.814L120.702 328.233C120.702 328.233 121.684 328.418 123.074 328.752L136.323 319.153C133.427 317.886 130.775 316.124 128.484 313.946V313.946Z" fill="#FFDE59"/>
</g>
<path d="M120.702 328.288C123.64 328.852 126.51 329.728 129.263 330.901C131.545 332.024 133.619 333.528 135.396 335.348L144.662 323.1C144.662 323.1 131.079 317.411 128.503 313.946L125.946 310.462L120.702 328.288Z" stroke="#263238" stroke-width="0.75" stroke-linecap="round" stroke-linejoin="round"/>
<path d="M140.27 317.893L128.948 332.328L130.486 337.239L147.738 319.32L140.27 317.893Z" fill="#FFDE59" stroke="#263238" stroke-linecap="round" stroke-linejoin="round"/>
<path d="M122.147 277.107C114.494 271.177 94.5551 274.958 90.6452 289.004C88.2362 297.657 89.5704 310.629 89.5704 310.629L112.289 305.811L114.142 308.609C117.848 314.168 125.872 310.462 127.947 308.609C129.077 307.627 129.003 304.736 128.707 302.346L129.615 302.142C129.615 302.142 129.782 283.055 122.147 277.107Z" fill="#263238" stroke="#263238" stroke-width="0.75" stroke-linecap="round" stroke-linejoin="round"/>
<path d="M113.66 304.106C103.689 302.995 93.5952 303.954 84.0113 306.923C69.1869 311.889 66.9076 316.188 77.5256 315.929C88.1436 315.669 113.66 304.106 113.66 304.106Z" fill="#263238" stroke="#263238" stroke-width="0.75" stroke-linecap="round" stroke-linejoin="round"/>
<path d="M95.352 298.714C97.0816 298.714 98.4836 296.797 98.4836 294.433C98.4836 292.069 97.0816 290.153 95.352 290.153C93.6224 290.153 92.2203 292.069 92.2203 294.433C92.2203 296.797 93.6224 298.714 95.352 298.714Z" fill="#FFDE59"/>
<path d="M165.786 323.952C165.786 323.952 145.495 318.801 139.251 323.544C133.006 328.288 131.412 336.127 133.414 345.633C135.415 355.139 140.288 380.137 140.288 380.137L166.138 366.758L165.786 323.952Z" fill="#263238" stroke="#263238" stroke-width="0.75" stroke-linecap="round" stroke-linejoin="round"/>
<path d="M133.58 376.153C133.58 376.153 132.487 385.751 131.208 387.104C129.93 388.457 96.2043 360.124 94.1475 357.455C92.0906 354.787 93.4989 345.262 94.1475 342.279C94.796 339.295 93.7027 337.665 90.4414 339.722C87.18 341.778 88.0509 350.34 88.0509 350.34C88.0509 350.34 78.1001 347.949 76.1173 347.671C74.1345 347.393 72.4112 349.858 72.7077 351.822C73.0042 353.786 75.617 353.953 75.617 353.953C74.9485 356.797 75.1355 359.776 76.1544 362.514C77.8962 366.109 79.8605 368.37 83.5666 369.259C87.3903 369.856 91.2617 370.091 95.1296 369.963C95.1296 369.963 112.363 386.381 117.366 392.515C122.369 398.649 132.913 406.987 138.157 405.486C143.402 403.985 148.405 377.802 148.405 377.802L133.58 376.153Z" fill="white"/>
<g style="mix-blend-mode:multiply" opacity="0.5">
<path d="M131.208 387.104L141.067 390.384C141.379 392.452 140.942 394.563 139.834 396.337C138.727 398.111 137.021 399.431 135.026 400.057C130.671 401.502 122.851 396.555 117.292 392.385L117.459 392.589C122.555 398.741 133.006 407.062 138.25 405.561C143.494 404.06 148.497 377.876 148.497 377.876L133.58 376.023C133.58 376.023 132.487 385.751 131.208 387.104Z" fill="#FFDE59"/>
</g>
<path d="M133.58 376.153C133.58 376.153 132.487 385.751 131.208 387.104C129.93 388.457 96.2043 360.124 94.1475 357.455C92.0906 354.787 93.4989 345.262 94.1475 342.279C94.796 339.295 93.7027 337.665 90.4414 339.722C87.18 341.778 88.0509 350.34 88.0509 350.34C88.0509 350.34 78.1001 347.949 76.1173 347.671C74.1345 347.393 72.4112 349.858 72.7077 351.822C73.0042 353.786 75.617 353.953 75.617 353.953C74.9485 356.797 75.1355 359.776 76.1544 362.514C77.8962 366.109 79.8605 368.37 83.5666 369.259C87.3903 369.856 91.2617 370.091 95.1296 369.963C95.1296 369.963 112.363 386.381 117.366 392.515C122.369 398.649 132.913 406.987 138.157 405.486C143.402 403.985 148.405 377.802 148.405 377.802L133.58 376.153Z" stroke="#263238" stroke-width="0.75" stroke-linecap="round" stroke-linejoin="round"/>
<path d="M99.8733 362.662L95.1295 370.038L97.557 371.687L102.412 364.738L99.8733 362.662Z" fill="#263238" stroke="#263238" stroke-miterlimit="10"/>
<path d="M98.2427 369.611C99.2661 369.611 100.096 368.782 100.096 367.758C100.096 366.735 99.2661 365.905 98.2427 365.905C97.2193 365.905 96.3896 366.735 96.3896 367.758C96.3896 368.782 97.2193 369.611 98.2427 369.611Z" fill="white" stroke="#263238" stroke-width="0.75" stroke-linecap="round" stroke-linejoin="round"/>
<path d="M93.7028 313.001C93.7028 313.001 94.8331 315.799 96.7232 320.709C98.6133 325.62 108.768 335.978 113.734 336.571C118.7 337.164 124.649 319.116 125.594 315.391C125.909 314.168 126.224 312.204 126.224 312.204C126.224 312.204 132.469 309.257 131.023 305.7C129.578 302.142 126.65 300.511 125.26 301.604C123.87 302.698 123.63 307.312 121.554 307.349C119.479 307.386 118.348 306.737 116.514 304.291C114.679 301.845 95.667 306.923 93.7028 313.001Z" fill="white"/>
<path opacity="0.5" d="M116.477 304.291C114.624 301.864 95.667 306.941 93.7028 313.001L94.7775 315.743C102.024 311.373 109.898 308.142 118.126 306.163C117.511 305.599 116.958 304.972 116.477 304.291V304.291Z" fill="#FFDE59"/>
<g style="mix-blend-mode:multiply">
<path opacity="0.5" d="M130.782 305.199C129.263 302.012 126.576 300.567 125.223 301.604C124.375 302.711 123.746 303.969 123.37 305.311C125.832 305.035 128.314 304.998 130.782 305.199V305.199Z" fill="#FFDE59"/>
</g>
<path d="M93.7028 313.001C93.7028 313.001 94.8331 315.799 96.7232 320.709C98.6133 325.62 108.768 335.978 113.734 336.571C118.7 337.164 124.649 319.116 125.594 315.391C125.909 314.168 126.224 312.204 126.224 312.204C126.224 312.204 132.469 309.257 131.023 305.7C129.578 302.142 126.65 300.511 125.26 301.604C123.87 302.698 123.63 307.312 121.554 307.349C119.479 307.386 118.348 306.737 116.514 304.291C114.679 301.845 95.667 306.923 93.7028 313.001Z" stroke="#263238" stroke-width="0.75" stroke-linecap="round" stroke-linejoin="round"/>
<path d="M100.429 314.335C100.763 315.465 100.652 316.503 100.207 316.633C99.7622 316.762 99.1137 315.947 98.7801 314.78C98.4466 313.612 98.5577 312.612 99.0025 312.482C99.4472 312.352 100.096 313.242 100.429 314.335Z" fill="#263238" stroke="#263238" stroke-miterlimit="10"/>
<path d="M96.9827 311.185C99.5769 310.443 100.689 312.389 101.004 314.187L101.486 316.318L103.098 324.564L105.544 323.526" stroke="#263238" stroke-width="0.5" stroke-linecap="round" stroke-linejoin="round"/>
<path d="M107.545 311.815C108.109 311.196 108.81 310.72 109.593 310.424C110.375 310.127 111.216 310.02 112.048 310.11" stroke="#263238" stroke-width="0.5" stroke-linecap="round" stroke-linejoin="round"/>
<path d="M109.695 306.682C108.64 306.902 107.673 307.424 106.91 308.184C106.146 308.944 105.62 309.909 105.396 310.962" stroke="#263238" stroke-width="0.5" stroke-linecap="round" stroke-linejoin="round"/>
<path d="M107.749 326.194C107.749 326.194 113.123 325.12 113.549 321.265" stroke="#263238" stroke-width="0.5" stroke-linecap="round" stroke-linejoin="round"/>
<path d="M153.371 390.05L126.242 382.49C126.242 382.49 128.633 336.164 132.821 328.325C139.343 316.151 154.297 321.636 157.114 336.942C159.745 351.396 153.371 390.05 153.371 390.05Z" fill="#FFDE59" stroke="#263238" stroke-linecap="round" stroke-linejoin="round"/>
<path d="M126.891 377.339C126.891 377.339 141.715 380.748 150.74 383.713" stroke="#263238" stroke-width="0.5" stroke-linecap="round" stroke-linejoin="round"/>
<path d="M150.369 320.228C150.369 320.228 159.189 320.913 164.952 325.657" stroke="#FFDE59" stroke-width="0.5" stroke-linecap="round" stroke-linejoin="round"/>
<path d="M305.803 438.73C305.803 438.73 266.296 452.665 262.682 456.464C259.069 460.263 259.439 475.087 267.963 482.295C276.487 489.504 337.249 473.16 380.684 468.397C424.12 463.635 519.478 456.631 558.392 454.74C597.306 452.85 615.003 457.983 618.412 445.846C621.822 433.708 621.396 420.737 613.983 418.106C606.571 415.474 471.521 393.849 305.803 438.73Z" fill="#263238" stroke="#263238" stroke-width="0.75" stroke-linecap="round" stroke-linejoin="round"/>
<path d="M259.866 464.562C259.866 464.562 261.719 480.628 271.595 483.092C281.472 485.557 398.844 463.32 468.019 460.855C537.193 458.391 597.732 456.538 597.732 456.538" stroke="white" stroke-width="0.5" stroke-linecap="round" stroke-linejoin="round"/>
<path d="M317.199 472.715C363.08 461.597 457.456 445.883 616.263 450.349" stroke="white" stroke-width="0.5" stroke-linecap="round" stroke-linejoin="round"/>
<path d="M279.582 482.499C279.582 482.499 290.126 479.942 306.155 475.569" stroke="white" stroke-width="0.5" stroke-linecap="round" stroke-linejoin="round"/>
<path d="M289.255 484.334C289.754 491.222 289.567 498.143 288.699 504.995" stroke="white" stroke-width="0.5" stroke-linecap="round" stroke-linejoin="round"/>
<path d="M287.569 188.013C287.569 188.013 278.73 198.371 278.044 207.655" stroke="#263238" stroke-width="0.75" stroke-linecap="round" stroke-linejoin="round"/>
<path d="M277.118 215.141C277.118 215.141 270.465 320.969 288.069 433.597" stroke="#263238" stroke-width="0.75" stroke-linecap="round" stroke-linejoin="round"/>
<path d="M279.211 337.424C279.211 337.424 264.85 342.427 264.665 348.913C264.183 366.35 266.018 403.559 269.817 407.173C273.615 410.786 285.419 401.224 285.419 401.224C285.419 401.224 302.097 402.67 303.95 398.927C305.803 395.183 298.854 342.501 297.816 337.906C296.778 333.31 279.211 337.424 279.211 337.424Z" fill="#FFDE59" stroke="#263238" stroke-linecap="round" stroke-linejoin="round"/>
<path d="M579.183 362.514C582.921 364.34 586.983 365.411 591.135 365.664C586.54 348.394 581.333 329.159 575.959 309.962C571.104 309.628 564.84 309.628 564.97 311.815C565.063 315.558 574.495 359.809 579.183 362.514Z" fill="#FFDE59" stroke="#263238" stroke-linecap="round" stroke-linejoin="round"/>
<path d="M277.155 342.872C277.155 342.872 277.785 376.227 280.249 389.198" stroke="#263238" stroke-width="0.75" stroke-linecap="round" stroke-linejoin="round"/>
<path d="M450.378 350.581C450.378 350.581 533.061 337.257 629.401 354.287" stroke="#263238" stroke-linecap="round" stroke-linejoin="round"/>
<path d="M702.096 402.818C707.785 404.523 713.381 406.32 718.773 408.247" stroke="#263238" stroke-linecap="round" stroke-linejoin="round"/>
<path d="M553.648 377.654C553.648 377.654 619.209 381.638 681.99 397.333" stroke="#263238" stroke-linecap="round" stroke-linejoin="round"/>
<path d="M354.112 530.326C408.094 522.077 462.938 521.098 517.18 527.417" stroke="#263238" stroke-linecap="round" stroke-linejoin="round"/>
<path d="M347.33 521.598C347.33 521.598 386.132 516.743 398.752 515.78" stroke="#263238" stroke-linecap="round" stroke-linejoin="round"/>
<path d="M607.201 161.699C612.76 162.496 618.319 163.552 623.36 164.757" stroke="#263238" stroke-linecap="round" stroke-linejoin="round"/>
<path d="M527.316 159.865C550.148 158.252 573.071 158.407 595.879 160.328" stroke="#263238" stroke-linecap="round" stroke-linejoin="round"/>
<path d="M228.345 384.343C228.345 384.343 283.714 358.122 363.822 350.84" stroke="#263238" stroke-linecap="round" stroke-linejoin="round"/>
<path d="M321.591 336.256C321.591 336.256 355.112 327.529 406.108 324.601" stroke="#263238" stroke-linecap="round" stroke-linejoin="round"/>
<path d="M227.437 521.395C234.166 533.447 245.025 542.661 258.013 547.337" stroke="#263238" stroke-linecap="round" stroke-linejoin="round"/>
<path d="M225.584 529.733C225.584 529.733 233.923 542.705 245.041 548.264" stroke="#263238" stroke-linecap="round" stroke-linejoin="round"/>
<path d="M498.909 483.407C498.909 483.407 504.468 509.35 526.705 520.468" stroke="#263238" stroke-linecap="round" stroke-linejoin="round"/>
<path d="M501.688 506.57C506.095 513.024 512.183 518.15 519.292 521.395" stroke="#263238" stroke-linecap="round" stroke-linejoin="round"/>
<path d="M135.081 556.528C135.081 556.528 140.64 565.794 160.097 565.794" stroke="#263238" stroke-linecap="round" stroke-linejoin="round"/>
<path d="M131.375 562.088C138.464 567.983 147.201 571.542 156.391 572.279" stroke="#263238" stroke-linecap="round" stroke-linejoin="round"/>
<path d="M381.87 539.221C332.656 541.898 283.804 549.207 235.961 561.05L237.11 562.773C237.11 562.773 277.877 554.119 353.222 572.65C428.567 591.18 433.533 606.005 516.291 606.005C599.048 606.005 679.359 586.251 679.359 586.251L669.315 580.692C595.008 549.246 493.164 532.995 381.87 539.221Z" fill="#FFDE59"/>
<path opacity="0.5" d="M381.87 539.221C332.656 541.898 283.804 549.207 235.961 561.05L237.11 562.773C237.11 562.773 277.877 554.119 353.222 572.65C428.567 591.18 433.533 606.005 516.291 606.005C599.048 606.005 679.359 586.251 679.359 586.251L669.315 580.692C595.008 549.246 493.164 532.995 381.87 539.221Z" fill="white"/>
<path d="M200.568 581.619C200.568 581.619 297.853 566.794 382.167 623.312" stroke="#263238" stroke-linecap="round" stroke-linejoin="round"/>
<path d="M302.486 602.929C302.486 602.929 342.326 614.973 366.416 640.916" stroke="#263238" stroke-linecap="round" stroke-linejoin="round"/>
<path d="M537.823 555.676C537.823 555.676 594.341 561.235 645.3 591.81" stroke="#263238" stroke-linecap="round" stroke-linejoin="round"/>
<path d="M714.048 603.559C724.226 609.787 733.914 616.78 743.03 624.48" stroke="#263238" stroke-linecap="round" stroke-linejoin="round"/>
<path d="M51.0455 647.272C118.589 589.828 240.631 547.207 381.87 539.221C510.787 531.901 627.066 554.99 702.448 596.665" stroke="#263238" stroke-linecap="round" stroke-linejoin="round"/>
<path d="M462.775 554.749C462.775 554.749 521.146 557.529 560.06 570.5" stroke="#263238" stroke-linecap="round" stroke-linejoin="round"/>
<path d="M198.122 114.836C198.122 114.836 196.269 89.2079 158.745 88.2813C121.221 87.3548 131.264 113.928 121.202 120.339C111.14 126.751 108.379 116.633 98.2983 123.082C88.2177 129.53 92.7392 142.316 84.5672 144.151C76.3953 145.985 65.3326 135.905 55.2705 142.298C45.2085 148.691 45.19 154.194 40.6129 154.194C36.0359 154.194 26.8818 150.488 21.3968 154.194C15.9118 157.9 9.48169 162.385 9.48169 162.385H241.113C241.113 162.385 243.855 154.139 233.701 148.654C223.546 143.169 219.043 147.727 215.392 143.095C211.742 138.462 225.584 126.751 198.122 114.836Z" fill="#FFDE59"/>
<path d="M335.748 16.7537C335.748 16.7537 334.636 1.3363 312.066 0.780381C289.496 0.224466 295.537 16.2163 289.477 20.0706C283.418 23.925 281.769 17.8655 275.709 21.7198C269.65 25.5742 272.411 33.2829 267.445 34.3762C262.479 35.4695 255.882 29.4285 249.822 33.2829C243.763 37.1372 243.763 40.4356 241.002 40.4356C238.241 40.4356 232.737 38.249 229.439 40.4356C226.14 42.6222 222.286 45.4018 222.286 45.4018H361.635C361.635 45.4018 363.284 40.4356 357.225 37.1372C351.165 33.8388 348.423 36.5813 346.218 33.8388C344.013 31.0963 352.277 23.925 335.748 16.7537Z" fill="#FFDE59"/>
<path opacity="0.7" d="M198.122 114.836C198.122 114.836 196.269 89.2079 158.745 88.2813C121.221 87.3548 131.264 113.928 121.202 120.339C111.14 126.751 108.379 116.633 98.2983 123.082C88.2177 129.53 92.7392 142.316 84.5672 144.151C76.3953 145.985 65.3326 135.905 55.2705 142.298C45.2085 148.691 45.19 154.194 40.6129 154.194C36.0359 154.194 26.8818 150.488 21.3968 154.194C15.9118 157.9 9.48169 162.385 9.48169 162.385H241.113C241.113 162.385 243.855 154.139 233.701 148.654C223.546 143.169 219.043 147.727 215.392 143.095C211.742 138.462 225.584 126.751 198.122 114.836Z" fill="white"/>
<path opacity="0.8" d="M335.748 16.7537C335.748 16.7537 334.636 1.3363 312.066 0.780381C289.496 0.224466 295.537 16.2163 289.477 20.0706C283.418 23.925 281.769 17.8655 275.709 21.7198C269.65 25.5742 272.411 33.2829 267.445 34.3762C262.479 35.4695 255.882 29.4285 249.822 33.2829C243.763 37.1372 243.763 40.4356 241.002 40.4356C238.241 40.4356 232.737 38.249 229.439 40.4356C226.14 42.6222 222.286 45.4018 222.286 45.4018H361.635C361.635 45.4018 363.284 40.4356 357.225 37.1372C351.165 33.8388 348.423 36.5813 346.218 33.8388C344.013 31.0963 352.277 23.925 335.748 16.7537Z" fill="white"/>
</svg>
